<svg width="250" height="226" viewBox="0 0 250 226" fill="none" xmlns="http://www.w3.org/2000/svg">
<path d="M7.848 16H5.944L4.856 9.816L3.672 16H1.816L0.28 7.576H1.656L2.728 15.168L4.072 8.648H5.664L6.936 15.168L8.008 7.576H9.32L7.848 16ZM15.4658 7.576V14.936H17.8418V16H11.5218V14.936H14.1218V8.64H11.6018V7.576H15.4658ZM14.3938 3.632C14.6924 3.632 14.9298 3.72267 15.1058 3.904C15.2871 4.08533 15.3778 4.30667 15.3778 4.568C15.3778 4.84 15.2871 5.06933 15.1058 5.256C14.9298 5.43733 14.6924 5.528 14.3938 5.528C14.1111 5.528 13.8791 5.43733 13.6978 5.256C13.5164 5.06933 13.4258 4.84 13.4258 4.568C13.4258 4.30667 13.5164 4.08533 13.6978 3.904C13.8791 3.72267 14.1111 3.632 14.3938 3.632ZM25.8355 4.016L27.1795 4.184V16H26.0035L25.8755 14.888C25.5608 15.336 25.1982 15.664 24.7875 15.872C24.3822 16.08 23.9475 16.184 23.4835 16.184C22.7528 16.184 22.1502 16 21.6755 15.632C21.2008 15.264 20.8488 14.752 20.6195 14.096C20.3902 13.4347 20.2755 12.6693 20.2755 11.8C20.2755 10.9573 20.4062 10.2053 20.6675 9.544C20.9288 8.87733 21.3048 8.35467 21.7955 7.976C22.2915 7.592 22.8862 7.4 23.5795 7.4C24.0648 7.4 24.4915 7.48533 24.8595 7.656C25.2275 7.82133 25.5528 8.06667 25.8355 8.392V4.016ZM23.9315 8.48C23.2275 8.48 22.6862 8.75467 22.3075 9.304C21.9288 9.85333 21.7395 10.6853 21.7395 11.8C21.7395 12.5253 21.8168 13.1333 21.9715 13.624C22.1262 14.1147 22.3528 14.4827 22.6515 14.728C22.9555 14.9733 23.3262 15.096 23.7635 15.096C24.2435 15.096 24.6515 14.96 24.9875 14.688C25.3288 14.416 25.6115 14.1093 25.8355 13.768V9.56C25.6062 9.21867 25.3288 8.95467 25.0035 8.768C24.6782 8.576 24.3208 8.48 23.9315 8.48ZM37.0773 15.576C36.7893 15.768 36.4399 15.9173 36.0293 16.024C35.6186 16.1307 35.2159 16.184 34.8213 16.184C33.9146 16.184 33.2159 15.9467 32.7253 15.472C32.2346 14.9973 31.9893 14.3867 31.9893 13.64V8.616H30.0533V7.576H31.9893V5.664L33.3333 5.504V7.576H36.2453L36.0853 8.616H33.3333V13.624C33.3333 14.0933 33.4559 14.4507 33.7013 14.696C33.9519 14.9413 34.3653 15.064 34.9413 15.064C35.2559 15.064 35.5466 15.0267 35.8133 14.952C36.0799 14.8773 36.3279 14.7813 36.5573 14.664L37.0773 15.576ZM41.327 4.056V8.728C41.6577 8.28533 42.063 7.95467 42.543 7.736C43.0283 7.512 43.519 7.4 44.015 7.4C44.8363 7.4 45.4363 7.61867 45.815 8.056C46.1937 8.49333 46.383 9.10133 46.383 9.88V16H45.039V9.912C45.039 9.40533 44.9217 9.03733 44.687 8.808C44.4523 8.57333 44.0843 8.456 43.583 8.456C43.263 8.456 42.959 8.528 42.671 8.672C42.383 8.816 42.1243 8.99467 41.895 9.208C41.6657 9.42133 41.4763 9.64 41.327 9.864V16H39.983V4.2L41.327 4.056ZM51.4648 14.88C51.4648 14.5333 51.5874 14.232 51.8328 13.976C52.0834 13.72 52.3901 13.592 52.7528 13.592C53.1261 13.592 53.4354 13.72 53.6808 13.976C53.9314 14.232 54.0568 14.5333 54.0568 14.88C54.0568 15.2427 53.9314 15.552 53.6808 15.808C53.4354 16.0587 53.1261 16.184 52.7528 16.184C52.3901 16.184 52.0834 16.0587 51.8328 15.808C51.5874 15.552 51.4648 15.2427 51.4648 14.88ZM51.4648 9.112C51.4648 8.86667 51.5208 8.648 51.6328 8.456C51.7448 8.264 51.8994 8.112 52.0968 8C52.2941 7.88267 52.5128 7.824 52.7528 7.824C53.1261 7.824 53.4354 7.94933 53.6808 8.2C53.9314 8.45067 54.0568 8.75467 54.0568 9.112C54.0568 9.464 53.9314 9.77067 53.6808 10.032C53.4354 10.288 53.1261 10.416 52.7528 10.416C52.3901 10.416 52.0834 10.288 51.8328 10.032C51.5874 9.77067 51.4648 9.464 51.4648 9.112ZM74.7963 14.16C74.7963 14.496 74.8523 14.7413 74.9643 14.896C75.0763 15.0507 75.2496 15.1653 75.4843 15.24L75.1562 16.184C74.7936 16.136 74.4763 16.0213 74.2043 15.84C73.9323 15.6533 73.7349 15.3733 73.6123 15C73.3083 15.3893 72.9296 15.6853 72.4763 15.888C72.0229 16.0853 71.5216 16.184 70.9723 16.184C70.1296 16.184 69.4656 15.9467 68.9803 15.472C68.4949 14.9973 68.2523 14.368 68.2523 13.584C68.2523 12.7147 68.5909 12.048 69.2682 11.584C69.9456 11.12 70.9243 10.888 72.2043 10.888H73.4443V10.184C73.4443 9.576 73.2656 9.14667 72.9083 8.896C72.5563 8.64 72.0656 8.512 71.4363 8.512C71.1589 8.512 70.8336 8.54667 70.4603 8.616C70.0869 8.68 69.6816 8.78933 69.2443 8.944L68.8923 7.928C69.4096 7.736 69.8949 7.6 70.3483 7.52C70.8016 7.44 71.2336 7.4 71.6443 7.4C72.6949 7.4 73.4816 7.64533 74.0043 8.136C74.5323 8.62133 74.7963 9.28267 74.7963 10.12V14.16ZM71.3163 15.16C71.7323 15.16 72.1296 15.056 72.5083 14.848C72.8869 14.6347 73.1989 14.3413 73.4443 13.968V11.8H72.2283C71.3003 11.8 70.6443 11.96 70.2603 12.28C69.8816 12.6 69.6923 13.0293 69.6923 13.568C69.6923 14.0907 69.8256 14.488 70.0923 14.76C70.3643 15.0267 70.7723 15.16 71.3163 15.16ZM79.702 7.576V13.544C79.702 14.0987 79.8167 14.4987 80.046 14.744C80.2753 14.9893 80.6327 15.112 81.118 15.112C81.582 15.112 82.0193 14.9813 82.43 14.72C82.846 14.4533 83.1687 14.1387 83.398 13.776V7.576H84.742V16H83.598L83.486 14.864C83.1553 15.2907 82.7473 15.6187 82.262 15.848C81.7767 16.072 81.286 16.184 80.79 16.184C79.974 16.184 79.3633 15.968 78.958 15.536C78.558 15.0987 78.358 14.488 78.358 13.704V7.576H79.702ZM94.6398 15.576C94.3518 15.768 94.0024 15.9173 93.5918 16.024C93.1811 16.1307 92.7784 16.184 92.3838 16.184C91.4771 16.184 90.7784 15.9467 90.2878 15.472C89.7971 14.9973 89.5518 14.3867 89.5518 13.64V8.616H87.6158V7.576H89.5518V5.664L90.8958 5.504V7.576H93.8078L93.6478 8.616H90.8958V13.624C90.8958 14.0933 91.0184 14.4507 91.2638 14.696C91.5144 14.9413 91.9278 15.064 92.5038 15.064C92.8184 15.064 93.1091 15.0267 93.3758 14.952C93.6424 14.8773 93.8904 14.7813 94.1198 14.664L94.6398 15.576ZM100.754 7.4C101.548 7.4 102.212 7.58133 102.746 7.944C103.284 8.30133 103.687 8.808 103.954 9.464C104.226 10.12 104.362 10.8933 104.362 11.784C104.362 12.6427 104.223 13.4027 103.946 14.064C103.668 14.7253 103.26 15.2453 102.722 15.624C102.188 15.9973 101.527 16.184 100.738 16.184C99.9482 16.184 99.2842 16.0027 98.7455 15.64C98.2068 15.2773 97.7988 14.768 97.5215 14.112C97.2495 13.4507 97.1135 12.68 97.1135 11.8C97.1135 10.9307 97.2522 10.1653 97.5295 9.504C97.8068 8.84267 98.2148 8.328 98.7535 7.96C99.2975 7.58667 99.9642 7.4 100.754 7.4ZM100.754 8.496C100.028 8.496 99.4788 8.76533 99.1055 9.304C98.7375 9.83733 98.5535 10.6693 98.5535 11.8C98.5535 12.9093 98.7348 13.7333 99.0975 14.272C99.4655 14.8107 100.012 15.08 100.738 15.08C101.463 15.08 102.007 14.8107 102.37 14.272C102.738 13.7333 102.922 12.904 102.922 11.784C102.922 10.664 102.74 9.83733 102.378 9.304C102.015 8.76533 101.474 8.496 100.754 8.496Z" fill="#FF9500"/>
<rect y="26" width="250" height="200" rx="12" fill="#5A8EE5"/>
<rect x="10" y="91" width="70" height="70" rx="12" fill="#FF9500"/>
<rect x="90" y="91" width="70" height="70" rx="12" fill="#FF9500"/>
<rect x="170" y="91" width="70" height="70" rx="12" fill="#FF9500"/>
</svg>
