<svg width="643" height="226" viewBox="0 0 643 226" fill="none" xmlns="http://www.w3.org/2000/svg">
<rect y="26" width="300" height="200" rx="12" fill="#5A8EE5"/>
<rect x="50" y="94" width="200" height="64" rx="12" fill="#FF9500"/>
<path d="M65.464 121.176V131H64.08V121.176H60.64V119.984H68.952L68.808 121.176H65.464ZM72.2578 127.264C72.2844 127.915 72.4098 128.448 72.6338 128.864C72.8578 129.275 73.1538 129.579 73.5218 129.776C73.8898 129.968 74.2898 130.064 74.7218 130.064C75.1538 130.064 75.5431 130 75.8898 129.872C76.2418 129.744 76.6018 129.555 76.9698 129.304L77.6018 130.192C77.2071 130.501 76.7564 130.744 76.2498 130.92C75.7484 131.096 75.2338 131.184 74.7058 131.184C73.8898 131.184 73.1938 131 72.6178 130.632C72.0418 130.264 71.6018 129.752 71.2978 129.096C70.9991 128.435 70.8498 127.669 70.8498 126.8C70.8498 125.947 71.0018 125.189 71.3058 124.528C71.6098 123.867 72.0364 123.347 72.5858 122.968C73.1351 122.589 73.7831 122.4 74.5298 122.4C75.2391 122.4 75.8498 122.568 76.3618 122.904C76.8738 123.235 77.2658 123.709 77.5378 124.328C77.8151 124.941 77.9538 125.675 77.9538 126.528C77.9538 126.672 77.9511 126.808 77.9458 126.936C77.9404 127.059 77.9324 127.168 77.9218 127.264H72.2578ZM74.5458 123.504C73.9218 123.504 73.3991 123.725 72.9778 124.168C72.5618 124.611 72.3244 125.296 72.2658 126.224H76.6578C76.6418 125.323 76.4444 124.645 76.0658 124.192C75.6871 123.733 75.1804 123.504 74.5458 123.504ZM81.6115 131H80.0755L83.1875 126.552L80.4595 122.576H82.0515L84.0035 125.712L85.9795 122.576H87.5155L84.7955 126.496L87.8995 131H86.2515L83.9475 127.384L81.6115 131ZM97.0773 130.576C96.7893 130.768 96.4399 130.917 96.0293 131.024C95.6186 131.131 95.2159 131.184 94.8213 131.184C93.9146 131.184 93.2159 130.947 92.7253 130.472C92.2346 129.997 91.9893 129.387 91.9893 128.64V123.616H90.0533V122.576H91.9893V120.664L93.3333 120.504V122.576H96.2453L96.0853 123.616H93.3333V128.624C93.3333 129.093 93.4559 129.451 93.7013 129.696C93.9519 129.941 94.3653 130.064 94.9413 130.064C95.2559 130.064 95.5466 130.027 95.8133 129.952C96.0799 129.877 96.3279 129.781 96.5573 129.664L97.0773 130.576ZM113.385 130.024C113.806 130.024 114.198 129.955 114.561 129.816C114.929 129.677 115.267 129.501 115.577 129.288L116.233 130.168C115.865 130.483 115.422 130.731 114.905 130.912C114.387 131.093 113.881 131.184 113.385 131.184C112.547 131.184 111.833 131.005 111.241 130.648C110.654 130.285 110.206 129.779 109.897 129.128C109.587 128.472 109.433 127.704 109.433 126.824C109.433 125.981 109.587 125.227 109.897 124.56C110.211 123.888 110.662 123.36 111.249 122.976C111.841 122.592 112.558 122.4 113.401 122.4C113.939 122.4 114.443 122.483 114.913 122.648C115.387 122.808 115.822 123.051 116.217 123.376L115.561 124.272C115.203 124.021 114.843 123.835 114.481 123.712C114.123 123.584 113.758 123.52 113.385 123.52C112.659 123.52 112.062 123.792 111.593 124.336C111.123 124.88 110.889 125.709 110.889 126.824C110.889 127.571 110.995 128.181 111.209 128.656C111.427 129.125 111.723 129.472 112.097 129.696C112.475 129.915 112.905 130.024 113.385 130.024ZM122.379 122.4C123.173 122.4 123.837 122.581 124.371 122.944C124.909 123.301 125.312 123.808 125.579 124.464C125.851 125.12 125.987 125.893 125.987 126.784C125.987 127.643 125.848 128.403 125.571 129.064C125.293 129.725 124.885 130.245 124.347 130.624C123.813 130.997 123.152 131.184 122.363 131.184C121.573 131.184 120.909 131.003 120.371 130.64C119.832 130.277 119.424 129.768 119.147 129.112C118.875 128.451 118.738 127.68 118.738 126.8C118.738 125.931 118.877 125.165 119.155 124.504C119.432 123.843 119.84 123.328 120.379 122.96C120.923 122.587 121.589 122.4 122.379 122.4ZM122.379 123.496C121.653 123.496 121.104 123.765 120.731 124.304C120.363 124.837 120.179 125.669 120.179 126.8C120.179 127.909 120.36 128.733 120.723 129.272C121.091 129.811 121.637 130.08 122.363 130.08C123.088 130.08 123.632 129.811 123.995 129.272C124.363 128.733 124.547 127.904 124.547 126.784C124.547 125.664 124.365 124.837 124.003 124.304C123.64 123.765 123.099 123.496 122.379 123.496ZM128.764 131V122.576H129.908L130.012 123.744C130.354 123.312 130.78 122.981 131.292 122.752C131.81 122.517 132.311 122.4 132.796 122.4C133.623 122.4 134.223 122.619 134.596 123.056C134.975 123.493 135.164 124.101 135.164 124.88V131H133.82V125.872C133.82 125.296 133.788 124.832 133.724 124.48C133.66 124.123 133.527 123.864 133.324 123.704C133.122 123.539 132.807 123.456 132.38 123.456C132.05 123.456 131.738 123.528 131.444 123.672C131.156 123.816 130.898 123.997 130.668 124.216C130.444 124.429 130.258 124.645 130.108 124.864V131H128.764ZM145.046 130.576C144.758 130.768 144.409 130.917 143.998 131.024C143.587 131.131 143.185 131.184 142.79 131.184C141.883 131.184 141.185 130.947 140.694 130.472C140.203 129.997 139.958 129.387 139.958 128.64V123.616H138.022V122.576H139.958V120.664L141.302 120.504V122.576H144.214L144.054 123.616H141.302V128.624C141.302 129.093 141.425 129.451 141.67 129.696C141.921 129.941 142.334 130.064 142.91 130.064C143.225 130.064 143.515 130.027 143.782 129.952C144.049 129.877 144.297 129.781 144.526 129.664L145.046 130.576ZM149.008 127.264C149.034 127.915 149.16 128.448 149.384 128.864C149.608 129.275 149.904 129.579 150.272 129.776C150.64 129.968 151.04 130.064 151.472 130.064C151.904 130.064 152.293 130 152.64 129.872C152.992 129.744 153.352 129.555 153.72 129.304L154.352 130.192C153.957 130.501 153.506 130.744 153 130.92C152.498 131.096 151.984 131.184 151.456 131.184C150.64 131.184 149.944 131 149.368 130.632C148.792 130.264 148.352 129.752 148.048 129.096C147.749 128.435 147.6 127.669 147.6 126.8C147.6 125.947 147.752 125.189 148.056 124.528C148.36 123.867 148.786 123.347 149.336 122.968C149.885 122.589 150.533 122.4 151.28 122.4C151.989 122.4 152.6 122.568 153.112 122.904C153.624 123.235 154.016 123.709 154.288 124.328C154.565 124.941 154.704 125.675 154.704 126.528C154.704 126.672 154.701 126.808 154.696 126.936C154.69 127.059 154.682 127.168 154.672 127.264H149.008ZM151.296 123.504C150.672 123.504 150.149 123.725 149.728 124.168C149.312 124.611 149.074 125.296 149.016 126.224H153.408C153.392 125.323 153.194 124.645 152.816 124.192C152.437 123.733 151.93 123.504 151.296 123.504ZM157.546 131V122.576H158.69L158.794 123.744C159.135 123.312 159.562 122.981 160.074 122.752C160.591 122.517 161.092 122.4 161.578 122.4C162.404 122.4 163.004 122.619 163.378 123.056C163.756 123.493 163.946 124.101 163.946 124.88V131H162.602V125.872C162.602 125.296 162.57 124.832 162.506 124.48C162.442 124.123 162.308 123.864 162.106 123.704C161.903 123.539 161.588 123.456 161.162 123.456C160.831 123.456 160.519 123.528 160.226 123.672C159.938 123.816 159.679 123.997 159.45 124.216C159.226 124.429 159.039 124.645 158.89 124.864V131H157.546ZM173.827 130.576C173.539 130.768 173.19 130.917 172.779 131.024C172.369 131.131 171.966 131.184 171.571 131.184C170.665 131.184 169.966 130.947 169.475 130.472C168.985 129.997 168.739 129.387 168.739 128.64V123.616H166.803V122.576H168.739V120.664L170.083 120.504V122.576H172.995L172.835 123.616H170.083V128.624C170.083 129.093 170.206 129.451 170.451 129.696C170.702 129.941 171.115 130.064 171.691 130.064C172.006 130.064 172.297 130.027 172.563 129.952C172.83 129.877 173.078 129.781 173.307 129.664L173.827 130.576Z" fill="black"/>
<path d="M7.16 7.4C7.432 7.4 7.69067 7.45867 7.936 7.576C8.18667 7.69333 8.392 7.92 8.552 8.256C8.712 8.592 8.792 9.08267 8.792 9.728V16H7.544V9.944C7.544 9.416 7.512 9.03467 7.448 8.8C7.384 8.56533 7.2 8.448 6.896 8.448C6.64533 8.448 6.39467 8.528 6.144 8.688C5.89867 8.84267 5.65867 9.09867 5.424 9.456V16H4.168V9.944C4.168 9.416 4.136 9.03467 4.072 8.8C4.008 8.56533 3.824 8.448 3.52 8.448C3.25867 8.448 3.00533 8.528 2.76 8.688C2.52 8.84267 2.28267 9.09867 2.048 9.456V16H0.808V7.576H1.864L1.944 8.552C2.17333 8.22667 2.42933 7.95467 2.712 7.736C3 7.512 3.35467 7.4 3.776 7.4C4.096 7.4 4.39733 7.47733 4.68 7.632C4.96267 7.78133 5.17067 8.07467 5.304 8.512C5.53333 8.18133 5.792 7.91467 6.08 7.712C6.368 7.504 6.728 7.4 7.16 7.4ZM17.2338 14.16C17.2338 14.496 17.2898 14.7413 17.4018 14.896C17.5138 15.0507 17.6871 15.1653 17.9218 15.24L17.5938 16.184C17.2311 16.136 16.9138 16.0213 16.6418 15.84C16.3698 15.6533 16.1724 15.3733 16.0498 15C15.7458 15.3893 15.3671 15.6853 14.9138 15.888C14.4604 16.0853 13.9591 16.184 13.4098 16.184C12.5671 16.184 11.9031 15.9467 11.4178 15.472C10.9324 14.9973 10.6898 14.368 10.6898 13.584C10.6898 12.7147 11.0284 12.048 11.7057 11.584C12.3831 11.12 13.3618 10.888 14.6418 10.888H15.8818V10.184C15.8818 9.576 15.7031 9.14667 15.3458 8.896C14.9938 8.64 14.5031 8.512 13.8738 8.512C13.5964 8.512 13.2711 8.54667 12.8978 8.616C12.5244 8.68 12.1191 8.78933 11.6818 8.944L11.3298 7.928C11.8471 7.736 12.3324 7.6 12.7858 7.52C13.2391 7.44 13.6711 7.4 14.0818 7.4C15.1324 7.4 15.9191 7.64533 16.4418 8.136C16.9698 8.62133 17.2338 9.28267 17.2338 10.12V14.16ZM13.7538 15.16C14.1698 15.16 14.5671 15.056 14.9458 14.848C15.3244 14.6347 15.6364 14.3413 15.8818 13.968V11.8H14.6658C13.7378 11.8 13.0818 11.96 12.6978 12.28C12.3191 12.6 12.1298 13.0293 12.1298 13.568C12.1298 14.0907 12.2631 14.488 12.5298 14.76C12.8018 15.0267 13.2098 15.16 13.7538 15.16ZM21.6115 16H20.0755L23.1875 11.552L20.4595 7.576H22.0515L24.0035 10.712L25.9795 7.576H27.5155L24.7955 11.496L27.8995 16H26.2515L23.9475 12.384L21.6115 16ZM30.3733 12.216V11.048H36.7893V12.216H30.3733ZM46.223 16H44.319L43.231 9.816L42.047 16H40.191L38.655 7.576H40.031L41.103 15.168L42.447 8.648H44.039L45.311 15.168L46.383 7.576H47.695L46.223 16ZM53.8408 7.576V14.936H56.2168V16H49.8968V14.936H52.4968V8.64H49.9768V7.576H53.8408ZM52.7688 3.632C53.0674 3.632 53.3048 3.72267 53.4808 3.904C53.6621 4.08533 53.7528 4.30667 53.7528 4.568C53.7528 4.84 53.6621 5.06933 53.4808 5.256C53.3048 5.43733 53.0674 5.528 52.7688 5.528C52.4861 5.528 52.2541 5.43733 52.0728 5.256C51.8914 5.06933 51.8008 4.84 51.8008 4.568C51.8008 4.30667 51.8914 4.08533 52.0728 3.904C52.2541 3.72267 52.4861 3.632 52.7688 3.632ZM64.2105 4.016L65.5545 4.184V16H64.3785L64.2505 14.888C63.9358 15.336 63.5732 15.664 63.1625 15.872C62.7572 16.08 62.3225 16.184 61.8585 16.184C61.1278 16.184 60.5252 16 60.0505 15.632C59.5758 15.264 59.2238 14.752 58.9945 14.096C58.7652 13.4347 58.6505 12.6693 58.6505 11.8C58.6505 10.9573 58.7812 10.2053 59.0425 9.544C59.3038 8.87733 59.6798 8.35467 60.1705 7.976C60.6665 7.592 61.2612 7.4 61.9545 7.4C62.4398 7.4 62.8665 7.48533 63.2345 7.656C63.6025 7.82133 63.9278 8.06667 64.2105 8.392V4.016ZM62.3065 8.48C61.6025 8.48 61.0612 8.75467 60.6825 9.304C60.3038 9.85333 60.1145 10.6853 60.1145 11.8C60.1145 12.5253 60.1918 13.1333 60.3465 13.624C60.5012 14.1147 60.7278 14.4827 61.0265 14.728C61.3305 14.9733 61.7012 15.096 62.1385 15.096C62.6185 15.096 63.0265 14.96 63.3625 14.688C63.7038 14.416 63.9865 14.1093 64.2105 13.768V9.56C63.9812 9.21867 63.7038 8.95467 63.3785 8.768C63.0532 8.576 62.6958 8.48 62.3065 8.48ZM75.4523 15.576C75.1643 15.768 74.8149 15.9173 74.4043 16.024C73.9936 16.1307 73.5909 16.184 73.1963 16.184C72.2896 16.184 71.5909 15.9467 71.1003 15.472C70.6096 14.9973 70.3643 14.3867 70.3643 13.64V8.616H68.4283V7.576H70.3643V5.664L71.7083 5.504V7.576H74.6203L74.4603 8.616H71.7083V13.624C71.7083 14.0933 71.8309 14.4507 72.0763 14.696C72.3269 14.9413 72.7403 15.064 73.3163 15.064C73.6309 15.064 73.9216 15.0267 74.1883 14.952C74.4549 14.8773 74.7029 14.7813 74.9323 14.664L75.4523 15.576ZM79.702 4.056V8.728C80.0327 8.28533 80.438 7.95467 80.918 7.736C81.4033 7.512 81.894 7.4 82.39 7.4C83.2113 7.4 83.8113 7.61867 84.19 8.056C84.5687 8.49333 84.758 9.10133 84.758 9.88V16H83.414V9.912C83.414 9.40533 83.2967 9.03733 83.062 8.808C82.8273 8.57333 82.4593 8.456 81.958 8.456C81.638 8.456 81.334 8.528 81.046 8.672C80.758 8.816 80.4993 8.99467 80.27 9.208C80.0407 9.42133 79.8513 9.64 79.702 9.864V16H78.358V4.2L79.702 4.056ZM89.8398 14.88C89.8398 14.5333 89.9624 14.232 90.2078 13.976C90.4584 13.72 90.7651 13.592 91.1278 13.592C91.5011 13.592 91.8104 13.72 92.0558 13.976C92.3064 14.232 92.4318 14.5333 92.4318 14.88C92.4318 15.2427 92.3064 15.552 92.0558 15.808C91.8104 16.0587 91.5011 16.184 91.1278 16.184C90.7651 16.184 90.4584 16.0587 90.2078 15.808C89.9624 15.552 89.8398 15.2427 89.8398 14.88ZM89.8398 9.112C89.8398 8.86667 89.8958 8.648 90.0078 8.456C90.1198 8.264 90.2744 8.112 90.4718 8C90.6691 7.88267 90.8878 7.824 91.1278 7.824C91.5011 7.824 91.8104 7.94933 92.0558 8.2C92.3064 8.45067 92.4318 8.75467 92.4318 9.112C92.4318 9.464 92.3064 9.77067 92.0558 10.032C91.8104 10.288 91.5011 10.416 91.1278 10.416C90.7651 10.416 90.4584 10.288 90.2078 10.032C89.9624 9.77067 89.8398 9.464 89.8398 9.112ZM108.483 7.576V13.544C108.483 14.0987 108.598 14.4987 108.827 14.744C109.057 14.9893 109.414 15.112 109.899 15.112C110.363 15.112 110.801 14.9813 111.211 14.72C111.627 14.4533 111.95 14.1387 112.179 13.776V7.576H113.523V16H112.379L112.267 14.864C111.937 15.2907 111.529 15.6187 111.043 15.848C110.558 16.072 110.067 16.184 109.571 16.184C108.755 16.184 108.145 15.968 107.739 15.536C107.339 15.0987 107.139 14.488 107.139 13.704V7.576H108.483ZM116.733 16V7.576H117.877L117.981 8.744C118.322 8.312 118.749 7.98133 119.261 7.752C119.778 7.51733 120.28 7.4 120.765 7.4C121.592 7.4 122.192 7.61867 122.565 8.056C122.944 8.49333 123.133 9.10133 123.133 9.88V16H121.789V10.872C121.789 10.296 121.757 9.832 121.693 9.48C121.629 9.12267 121.496 8.864 121.293 8.704C121.09 8.53867 120.776 8.456 120.349 8.456C120.018 8.456 119.706 8.528 119.413 8.672C119.125 8.816 118.866 8.99733 118.637 9.216C118.413 9.42933 118.226 9.64533 118.077 9.864V16H116.733ZM129.191 15.072C129.836 15.072 130.345 14.952 130.719 14.712C131.097 14.4667 131.287 14.1413 131.287 13.736C131.287 13.48 131.239 13.2587 131.143 13.072C131.052 12.8853 130.863 12.7173 130.575 12.568C130.287 12.4187 129.844 12.2693 129.247 12.12C128.665 11.976 128.159 11.8107 127.727 11.624C127.3 11.432 126.967 11.184 126.727 10.88C126.492 10.576 126.375 10.1813 126.375 9.696C126.375 9.22133 126.508 8.81333 126.775 8.472C127.047 8.12533 127.423 7.86133 127.903 7.68C128.383 7.49333 128.94 7.4 129.575 7.4C130.252 7.4 130.841 7.49067 131.343 7.672C131.849 7.848 132.279 8.06667 132.631 8.328L132.039 9.24C131.719 9.02133 131.367 8.84267 130.983 8.704C130.599 8.56 130.135 8.488 129.591 8.488C128.929 8.488 128.46 8.592 128.183 8.8C127.905 9.00267 127.767 9.26667 127.767 9.592C127.767 9.83733 127.833 10.0427 127.967 10.208C128.105 10.368 128.337 10.5147 128.663 10.648C128.988 10.776 129.436 10.9173 130.007 11.072C130.556 11.216 131.033 11.3893 131.439 11.592C131.849 11.7947 132.169 12.0613 132.399 12.392C132.628 12.7227 132.743 13.1493 132.743 13.672C132.743 14.2693 132.572 14.7547 132.231 15.128C131.889 15.496 131.447 15.7653 130.903 15.936C130.364 16.1013 129.793 16.184 129.191 16.184C128.428 16.184 127.777 16.0747 127.239 15.856C126.705 15.632 126.257 15.3627 125.895 15.048L126.663 14.16C126.993 14.432 127.372 14.6533 127.799 14.824C128.231 14.9893 128.695 15.072 129.191 15.072ZM136.977 12.264C137.003 12.9147 137.129 13.448 137.353 13.864C137.577 14.2747 137.873 14.5787 138.241 14.776C138.609 14.968 139.009 15.064 139.441 15.064C139.873 15.064 140.262 15 140.609 14.872C140.961 14.744 141.321 14.5547 141.689 14.304L142.321 15.192C141.926 15.5013 141.475 15.744 140.969 15.92C140.467 16.096 139.953 16.184 139.425 16.184C138.609 16.184 137.913 16 137.337 15.632C136.761 15.264 136.321 14.752 136.017 14.096C135.718 13.4347 135.569 12.6693 135.569 11.8C135.569 10.9467 135.721 10.1893 136.025 9.528C136.329 8.86667 136.755 8.34667 137.305 7.968C137.854 7.58933 138.502 7.4 139.249 7.4C139.958 7.4 140.569 7.568 141.081 7.904C141.593 8.23467 141.985 8.70933 142.257 9.328C142.534 9.94133 142.673 10.6747 142.673 11.528C142.673 11.672 142.67 11.808 142.665 11.936C142.659 12.0587 142.651 12.168 142.641 12.264H136.977ZM139.265 8.504C138.641 8.504 138.118 8.72533 137.697 9.168C137.281 9.61067 137.043 10.296 136.985 11.224H141.377C141.361 10.3227 141.163 9.64533 140.785 9.192C140.406 8.73333 139.899 8.504 139.265 8.504ZM152.202 15.576C151.914 15.768 151.565 15.9173 151.154 16.024C150.744 16.1307 150.341 16.184 149.946 16.184C149.04 16.184 148.341 15.9467 147.85 15.472C147.36 14.9973 147.114 14.3867 147.114 13.64V8.616H145.178V7.576H147.114V5.664L148.458 5.504V7.576H151.37L151.21 8.616H148.458V13.624C148.458 14.0933 148.581 14.4507 148.826 14.696C149.077 14.9413 149.49 15.064 150.066 15.064C150.381 15.064 150.672 15.0267 150.938 14.952C151.205 14.8773 151.453 14.7813 151.682 14.664L152.202 15.576Z" fill="#FF9500"/>
<rect x="343" y="26" width="300" height="200" rx="12" fill="#5A8EE5"/>
<rect x="425" y="94" width="136" height="64" rx="12" fill="#FF9500"/>
<path d="M440.464 121.176V131H439.08V121.176H435.64V119.984H443.952L443.808 121.176H440.464ZM447.258 127.264C447.284 127.915 447.41 128.448 447.634 128.864C447.858 129.275 448.154 129.579 448.522 129.776C448.89 129.968 449.29 130.064 449.722 130.064C450.154 130.064 450.543 130 450.89 129.872C451.242 129.744 451.602 129.555 451.97 129.304L452.602 130.192C452.207 130.501 451.756 130.744 451.25 130.92C450.748 131.096 450.234 131.184 449.706 131.184C448.89 131.184 448.194 131 447.618 130.632C447.042 130.264 446.602 129.752 446.298 129.096C445.999 128.435 445.85 127.669 445.85 126.8C445.85 125.947 446.002 125.189 446.306 124.528C446.61 123.867 447.036 123.347 447.586 122.968C448.135 122.589 448.783 122.4 449.53 122.4C450.239 122.4 450.85 122.568 451.362 122.904C451.874 123.235 452.266 123.709 452.538 124.328C452.815 124.941 452.954 125.675 452.954 126.528C452.954 126.672 452.951 126.808 452.946 126.936C452.94 127.059 452.932 127.168 452.922 127.264H447.258ZM449.546 123.504C448.922 123.504 448.399 123.725 447.978 124.168C447.562 124.611 447.324 125.296 447.266 126.224H451.658C451.642 125.323 451.444 124.645 451.066 124.192C450.687 123.733 450.18 123.504 449.546 123.504ZM456.612 131H455.076L458.188 126.552L455.46 122.576H457.052L459.004 125.712L460.98 122.576H462.516L459.796 126.496L462.9 131H461.252L458.948 127.384L456.612 131ZM472.077 130.576C471.789 130.768 471.44 130.917 471.029 131.024C470.619 131.131 470.216 131.184 469.821 131.184C468.915 131.184 468.216 130.947 467.725 130.472C467.235 129.997 466.989 129.387 466.989 128.64V123.616H465.053V122.576H466.989V120.664L468.333 120.504V122.576H471.245L471.085 123.616H468.333V128.624C468.333 129.093 468.456 129.451 468.701 129.696C468.952 129.941 469.365 130.064 469.941 130.064C470.256 130.064 470.547 130.027 470.813 129.952C471.08 129.877 471.328 129.781 471.557 129.664L472.077 130.576ZM488.385 130.024C488.806 130.024 489.198 129.955 489.561 129.816C489.929 129.677 490.267 129.501 490.577 129.288L491.233 130.168C490.865 130.483 490.422 130.731 489.905 130.912C489.387 131.093 488.881 131.184 488.385 131.184C487.547 131.184 486.833 131.005 486.241 130.648C485.654 130.285 485.206 129.779 484.897 129.128C484.587 128.472 484.433 127.704 484.433 126.824C484.433 125.981 484.587 125.227 484.897 124.56C485.211 123.888 485.662 123.36 486.249 122.976C486.841 122.592 487.558 122.4 488.401 122.4C488.939 122.4 489.443 122.483 489.913 122.648C490.387 122.808 490.822 123.051 491.217 123.376L490.561 124.272C490.203 124.021 489.843 123.835 489.481 123.712C489.123 123.584 488.758 123.52 488.385 123.52C487.659 123.52 487.062 123.792 486.593 124.336C486.123 124.88 485.889 125.709 485.889 126.824C485.889 127.571 485.995 128.181 486.209 128.656C486.427 129.125 486.723 129.472 487.097 129.696C487.475 129.915 487.905 130.024 488.385 130.024ZM497.379 122.4C498.173 122.4 498.837 122.581 499.371 122.944C499.909 123.301 500.312 123.808 500.579 124.464C500.851 125.12 500.987 125.893 500.987 126.784C500.987 127.643 500.848 128.403 500.571 129.064C500.293 129.725 499.885 130.245 499.347 130.624C498.813 130.997 498.152 131.184 497.363 131.184C496.573 131.184 495.909 131.003 495.371 130.64C494.832 130.277 494.424 129.768 494.147 129.112C493.875 128.451 493.738 127.68 493.738 126.8C493.738 125.931 493.877 125.165 494.155 124.504C494.432 123.843 494.84 123.328 495.379 122.96C495.923 122.587 496.589 122.4 497.379 122.4ZM497.379 123.496C496.653 123.496 496.104 123.765 495.731 124.304C495.363 124.837 495.179 125.669 495.179 126.8C495.179 127.909 495.36 128.733 495.723 129.272C496.091 129.811 496.637 130.08 497.363 130.08C498.088 130.08 498.632 129.811 498.995 129.272C499.363 128.733 499.547 127.904 499.547 126.784C499.547 125.664 499.365 124.837 499.003 124.304C498.64 123.765 498.099 123.496 497.379 123.496ZM503.764 131V122.576H504.908L505.012 123.744C505.354 123.312 505.78 122.981 506.292 122.752C506.81 122.517 507.311 122.4 507.796 122.4C508.623 122.4 509.223 122.619 509.596 123.056C509.975 123.493 510.164 124.101 510.164 124.88V131H508.82V125.872C508.82 125.296 508.788 124.832 508.724 124.48C508.66 124.123 508.527 123.864 508.324 123.704C508.122 123.539 507.807 123.456 507.38 123.456C507.05 123.456 506.738 123.528 506.444 123.672C506.156 123.816 505.898 123.997 505.668 124.216C505.444 124.429 505.258 124.645 505.108 124.864V131H503.764ZM520.046 130.576C519.758 130.768 519.409 130.917 518.998 131.024C518.587 131.131 518.185 131.184 517.79 131.184C516.883 131.184 516.185 130.947 515.694 130.472C515.203 129.997 514.958 129.387 514.958 128.64V123.616H513.022V122.576H514.958V120.664L516.302 120.504V122.576H519.214L519.054 123.616H516.302V128.624C516.302 129.093 516.425 129.451 516.67 129.696C516.921 129.941 517.334 130.064 517.91 130.064C518.225 130.064 518.515 130.027 518.782 129.952C519.049 129.877 519.297 129.781 519.526 129.664L520.046 130.576ZM524.008 127.264C524.034 127.915 524.16 128.448 524.384 128.864C524.608 129.275 524.904 129.579 525.272 129.776C525.64 129.968 526.04 130.064 526.472 130.064C526.904 130.064 527.293 130 527.64 129.872C527.992 129.744 528.352 129.555 528.72 129.304L529.352 130.192C528.957 130.501 528.506 130.744 528 130.92C527.498 131.096 526.984 131.184 526.456 131.184C525.64 131.184 524.944 131 524.368 130.632C523.792 130.264 523.352 129.752 523.048 129.096C522.749 128.435 522.6 127.669 522.6 126.8C522.6 125.947 522.752 125.189 523.056 124.528C523.36 123.867 523.786 123.347 524.336 122.968C524.885 122.589 525.533 122.4 526.28 122.4C526.989 122.4 527.6 122.568 528.112 122.904C528.624 123.235 529.016 123.709 529.288 124.328C529.565 124.941 529.704 125.675 529.704 126.528C529.704 126.672 529.701 126.808 529.696 126.936C529.69 127.059 529.682 127.168 529.672 127.264H524.008ZM526.296 123.504C525.672 123.504 525.149 123.725 524.728 124.168C524.312 124.611 524.074 125.296 524.016 126.224H528.408C528.392 125.323 528.194 124.645 527.816 124.192C527.437 123.733 526.93 123.504 526.296 123.504ZM532.546 131V122.576H533.69L533.794 123.744C534.135 123.312 534.562 122.981 535.074 122.752C535.591 122.517 536.092 122.4 536.578 122.4C537.404 122.4 538.004 122.619 538.378 123.056C538.756 123.493 538.946 124.101 538.946 124.88V131H537.602V125.872C537.602 125.296 537.57 124.832 537.506 124.48C537.442 124.123 537.308 123.864 537.106 123.704C536.903 123.539 536.588 123.456 536.162 123.456C535.831 123.456 535.519 123.528 535.226 123.672C534.938 123.816 534.679 123.997 534.45 124.216C534.226 124.429 534.039 124.645 533.89 124.864V131H532.546ZM548.827 130.576C548.539 130.768 548.19 130.917 547.779 131.024C547.369 131.131 546.966 131.184 546.571 131.184C545.665 131.184 544.966 130.947 544.475 130.472C543.985 129.997 543.739 129.387 543.739 128.64V123.616H541.803V122.576H543.739V120.664L545.083 120.504V122.576H547.995L547.835 123.616H545.083V128.624C545.083 129.093 545.206 129.451 545.451 129.696C545.702 129.941 546.115 130.064 546.691 130.064C547.006 130.064 547.297 130.027 547.563 129.952C547.83 129.877 548.078 129.781 548.307 129.664L548.827 130.576Z" fill="black"/>
<path d="M350.16 7.4C350.432 7.4 350.691 7.45867 350.936 7.576C351.187 7.69333 351.392 7.92 351.552 8.256C351.712 8.592 351.792 9.08267 351.792 9.728V16H350.544V9.944C350.544 9.416 350.512 9.03467 350.448 8.8C350.384 8.56533 350.2 8.448 349.896 8.448C349.645 8.448 349.395 8.528 349.144 8.688C348.899 8.84267 348.659 9.09867 348.424 9.456V16H347.168V9.944C347.168 9.416 347.136 9.03467 347.072 8.8C347.008 8.56533 346.824 8.448 346.52 8.448C346.259 8.448 346.005 8.528 345.76 8.688C345.52 8.84267 345.283 9.09867 345.048 9.456V16H343.808V7.576H344.864L344.944 8.552C345.173 8.22667 345.429 7.95467 345.712 7.736C346 7.512 346.355 7.4 346.776 7.4C347.096 7.4 347.397 7.47733 347.68 7.632C347.963 7.78133 348.171 8.07467 348.304 8.512C348.533 8.18133 348.792 7.91467 349.08 7.712C349.368 7.504 349.728 7.4 350.16 7.4ZM360.234 14.16C360.234 14.496 360.29 14.7413 360.402 14.896C360.514 15.0507 360.687 15.1653 360.922 15.24L360.594 16.184C360.231 16.136 359.914 16.0213 359.642 15.84C359.37 15.6533 359.172 15.3733 359.05 15C358.746 15.3893 358.367 15.6853 357.914 15.888C357.46 16.0853 356.959 16.184 356.41 16.184C355.567 16.184 354.903 15.9467 354.418 15.472C353.932 14.9973 353.69 14.368 353.69 13.584C353.69 12.7147 354.028 12.048 354.706 11.584C355.383 11.12 356.362 10.888 357.642 10.888H358.882V10.184C358.882 9.576 358.703 9.14667 358.346 8.896C357.994 8.64 357.503 8.512 356.874 8.512C356.596 8.512 356.271 8.54667 355.898 8.616C355.524 8.68 355.119 8.78933 354.682 8.944L354.33 7.928C354.847 7.736 355.332 7.6 355.786 7.52C356.239 7.44 356.671 7.4 357.082 7.4C358.132 7.4 358.919 7.64533 359.442 8.136C359.97 8.62133 360.234 9.28267 360.234 10.12V14.16ZM356.754 15.16C357.17 15.16 357.567 15.056 357.946 14.848C358.324 14.6347 358.636 14.3413 358.882 13.968V11.8H357.666C356.738 11.8 356.082 11.96 355.698 12.28C355.319 12.6 355.13 13.0293 355.13 13.568C355.13 14.0907 355.263 14.488 355.53 14.76C355.802 15.0267 356.21 15.16 356.754 15.16ZM364.612 16H363.076L366.188 11.552L363.46 7.576H365.052L367.004 10.712L368.98 7.576H370.516L367.796 11.496L370.9 16H369.252L366.948 12.384L364.612 16ZM373.373 12.216V11.048H379.789V12.216H373.373ZM389.223 16H387.319L386.231 9.816L385.047 16H383.191L381.655 7.576H383.031L384.103 15.168L385.447 8.648H387.039L388.311 15.168L389.383 7.576H390.695L389.223 16ZM396.841 7.576V14.936H399.217V16H392.897V14.936H395.497V8.64H392.977V7.576H396.841ZM395.769 3.632C396.067 3.632 396.305 3.72267 396.481 3.904C396.662 4.08533 396.753 4.30667 396.753 4.568C396.753 4.84 396.662 5.06933 396.481 5.256C396.305 5.43733 396.067 5.528 395.769 5.528C395.486 5.528 395.254 5.43733 395.073 5.256C394.891 5.06933 394.801 4.84 394.801 4.568C394.801 4.30667 394.891 4.08533 395.073 3.904C395.254 3.72267 395.486 3.632 395.769 3.632ZM407.211 4.016L408.555 4.184V16H407.379L407.251 14.888C406.936 15.336 406.573 15.664 406.163 15.872C405.757 16.08 405.323 16.184 404.859 16.184C404.128 16.184 403.525 16 403.051 15.632C402.576 15.264 402.224 14.752 401.995 14.096C401.765 13.4347 401.651 12.6693 401.651 11.8C401.651 10.9573 401.781 10.2053 402.043 9.544C402.304 8.87733 402.68 8.35467 403.171 7.976C403.667 7.592 404.261 7.4 404.955 7.4C405.44 7.4 405.867 7.48533 406.235 7.656C406.603 7.82133 406.928 8.06667 407.211 8.392V4.016ZM405.307 8.48C404.603 8.48 404.061 8.75467 403.683 9.304C403.304 9.85333 403.115 10.6853 403.115 11.8C403.115 12.5253 403.192 13.1333 403.347 13.624C403.501 14.1147 403.728 14.4827 404.027 14.728C404.331 14.9733 404.701 15.096 405.139 15.096C405.619 15.096 406.027 14.96 406.363 14.688C406.704 14.416 406.987 14.1093 407.211 13.768V9.56C406.981 9.21867 406.704 8.95467 406.379 8.768C406.053 8.576 405.696 8.48 405.307 8.48ZM418.452 15.576C418.164 15.768 417.815 15.9173 417.404 16.024C416.994 16.1307 416.591 16.184 416.196 16.184C415.29 16.184 414.591 15.9467 414.1 15.472C413.61 14.9973 413.364 14.3867 413.364 13.64V8.616H411.428V7.576H413.364V5.664L414.708 5.504V7.576H417.62L417.46 8.616H414.708V13.624C414.708 14.0933 414.831 14.4507 415.076 14.696C415.327 14.9413 415.74 15.064 416.316 15.064C416.631 15.064 416.922 15.0267 417.188 14.952C417.455 14.8773 417.703 14.7813 417.932 14.664L418.452 15.576ZM422.702 4.056V8.728C423.033 8.28533 423.438 7.95467 423.918 7.736C424.403 7.512 424.894 7.4 425.39 7.4C426.211 7.4 426.811 7.61867 427.19 8.056C427.569 8.49333 427.758 9.10133 427.758 9.88V16H426.414V9.912C426.414 9.40533 426.297 9.03733 426.062 8.808C425.827 8.57333 425.459 8.456 424.958 8.456C424.638 8.456 424.334 8.528 424.046 8.672C423.758 8.816 423.499 8.99467 423.27 9.208C423.041 9.42133 422.851 9.64 422.702 9.864V16H421.358V4.2L422.702 4.056ZM432.84 14.88C432.84 14.5333 432.962 14.232 433.208 13.976C433.458 13.72 433.765 13.592 434.128 13.592C434.501 13.592 434.81 13.72 435.056 13.976C435.306 14.232 435.432 14.5333 435.432 14.88C435.432 15.2427 435.306 15.552 435.056 15.808C434.81 16.0587 434.501 16.184 434.128 16.184C433.765 16.184 433.458 16.0587 433.208 15.808C432.962 15.552 432.84 15.2427 432.84 14.88ZM432.84 9.112C432.84 8.86667 432.896 8.648 433.008 8.456C433.12 8.264 433.274 8.112 433.472 8C433.669 7.88267 433.888 7.824 434.128 7.824C434.501 7.824 434.81 7.94933 435.056 8.2C435.306 8.45067 435.432 8.75467 435.432 9.112C435.432 9.464 435.306 9.77067 435.056 10.032C434.81 10.288 434.501 10.416 434.128 10.416C433.765 10.416 433.458 10.288 433.208 10.032C432.962 9.77067 432.84 9.464 432.84 9.112ZM456.171 14.16C456.171 14.496 456.227 14.7413 456.339 14.896C456.451 15.0507 456.625 15.1653 456.859 15.24L456.531 16.184C456.169 16.136 455.851 16.0213 455.579 15.84C455.307 15.6533 455.11 15.3733 454.987 15C454.683 15.3893 454.305 15.6853 453.851 15.888C453.398 16.0853 452.897 16.184 452.347 16.184C451.505 16.184 450.841 15.9467 450.355 15.472C449.87 14.9973 449.627 14.368 449.627 13.584C449.627 12.7147 449.966 12.048 450.643 11.584C451.321 11.12 452.299 10.888 453.579 10.888H454.819V10.184C454.819 9.576 454.641 9.14667 454.283 8.896C453.931 8.64 453.441 8.512 452.811 8.512C452.534 8.512 452.209 8.54667 451.835 8.616C451.462 8.68 451.057 8.78933 450.619 8.944L450.267 7.928C450.785 7.736 451.27 7.6 451.723 7.52C452.177 7.44 452.609 7.4 453.019 7.4C454.07 7.4 454.857 7.64533 455.379 8.136C455.907 8.62133 456.171 9.28267 456.171 10.12V14.16ZM452.691 15.16C453.107 15.16 453.505 15.056 453.883 14.848C454.262 14.6347 454.574 14.3413 454.819 13.968V11.8H453.603C452.675 11.8 452.019 11.96 451.635 12.28C451.257 12.6 451.067 13.0293 451.067 13.568C451.067 14.0907 451.201 14.488 451.467 14.76C451.739 15.0267 452.147 15.16 452.691 15.16ZM461.077 7.576V13.544C461.077 14.0987 461.192 14.4987 461.421 14.744C461.65 14.9893 462.008 15.112 462.493 15.112C462.957 15.112 463.394 14.9813 463.805 14.72C464.221 14.4533 464.544 14.1387 464.773 13.776V7.576H466.117V16H464.973L464.861 14.864C464.53 15.2907 464.122 15.6187 463.637 15.848C463.152 16.072 462.661 16.184 462.165 16.184C461.349 16.184 460.738 15.968 460.333 15.536C459.933 15.0987 459.733 14.488 459.733 13.704V7.576H461.077ZM476.015 15.576C475.727 15.768 475.377 15.9173 474.967 16.024C474.556 16.1307 474.153 16.184 473.759 16.184C472.852 16.184 472.153 15.9467 471.663 15.472C471.172 14.9973 470.927 14.3867 470.927 13.64V8.616H468.991V7.576H470.927V5.664L472.271 5.504V7.576H475.183L475.023 8.616H472.271V13.624C472.271 14.0933 472.393 14.4507 472.639 14.696C472.889 14.9413 473.303 15.064 473.879 15.064C474.193 15.064 474.484 15.0267 474.751 14.952C475.017 14.8773 475.265 14.7813 475.495 14.664L476.015 15.576ZM482.129 7.4C482.923 7.4 483.587 7.58133 484.121 7.944C484.659 8.30133 485.062 8.808 485.329 9.464C485.601 10.12 485.737 10.8933 485.737 11.784C485.737 12.6427 485.598 13.4027 485.321 14.064C485.043 14.7253 484.635 15.2453 484.097 15.624C483.563 15.9973 482.902 16.184 482.113 16.184C481.323 16.184 480.659 16.0027 480.121 15.64C479.582 15.2773 479.174 14.768 478.897 14.112C478.625 13.4507 478.488 12.68 478.488 11.8C478.488 10.9307 478.627 10.1653 478.905 9.504C479.182 8.84267 479.59 8.328 480.129 7.96C480.673 7.58667 481.339 7.4 482.129 7.4ZM482.129 8.496C481.403 8.496 480.854 8.76533 480.481 9.304C480.113 9.83733 479.929 10.6693 479.929 11.8C479.929 12.9093 480.11 13.7333 480.473 14.272C480.841 14.8107 481.387 15.08 482.113 15.08C482.838 15.08 483.382 14.8107 483.745 14.272C484.113 13.7333 484.297 12.904 484.297 11.784C484.297 10.664 484.115 9.83733 483.753 9.304C483.39 8.76533 482.849 8.496 482.129 8.496Z" fill="#FF9500"/>
</svg>
