<svg width="443" height="226" viewBox="0 0 443 226" fill="none" xmlns="http://www.w3.org/2000/svg">
<rect y="26" width="200" height="200" rx="12" fill="#5A8EE5"/>
<rect x="50" y="94" width="100" height="64" rx="12" fill="#FF9500"/>
<path d="M65.464 121.176V131H64.08V121.176H60.64V119.984H68.952L68.808 121.176H65.464ZM72.2578 127.264C72.2844 127.915 72.4098 128.448 72.6338 128.864C72.8578 129.275 73.1538 129.579 73.5218 129.776C73.8898 129.968 74.2898 130.064 74.7218 130.064C75.1538 130.064 75.5431 130 75.8898 129.872C76.2418 129.744 76.6018 129.555 76.9698 129.304L77.6018 130.192C77.2071 130.501 76.7564 130.744 76.2498 130.92C75.7484 131.096 75.2338 131.184 74.7058 131.184C73.8898 131.184 73.1938 131 72.6178 130.632C72.0418 130.264 71.6018 129.752 71.2978 129.096C70.9991 128.435 70.8498 127.669 70.8498 126.8C70.8498 125.947 71.0018 125.189 71.3058 124.528C71.6098 123.867 72.0364 123.347 72.5858 122.968C73.1351 122.589 73.7831 122.4 74.5298 122.4C75.2391 122.4 75.8498 122.568 76.3618 122.904C76.8738 123.235 77.2658 123.709 77.5378 124.328C77.8151 124.941 77.9538 125.675 77.9538 126.528C77.9538 126.672 77.9511 126.808 77.9458 126.936C77.9404 127.059 77.9324 127.168 77.9218 127.264H72.2578ZM74.5458 123.504C73.9218 123.504 73.3991 123.725 72.9778 124.168C72.5618 124.611 72.3244 125.296 72.2658 126.224H76.6578C76.6418 125.323 76.4444 124.645 76.0658 124.192C75.6871 123.733 75.1804 123.504 74.5458 123.504ZM81.6115 131H80.0755L83.1875 126.552L80.4595 122.576H82.0515L84.0035 125.712L85.9795 122.576H87.5155L84.7955 126.496L87.8995 131H86.2515L83.9475 127.384L81.6115 131ZM97.0773 130.576C96.7893 130.768 96.4399 130.917 96.0293 131.024C95.6186 131.131 95.2159 131.184 94.8213 131.184C93.9146 131.184 93.2159 130.947 92.7253 130.472C92.2346 129.997 91.9893 129.387 91.9893 128.64V123.616H90.0533V122.576H91.9893V120.664L93.3333 120.504V122.576H96.2453L96.0853 123.616H93.3333V128.624C93.3333 129.093 93.4559 129.451 93.7013 129.696C93.9519 129.941 94.3653 130.064 94.9413 130.064C95.2559 130.064 95.5466 130.027 95.8133 129.952C96.0799 129.877 96.3279 129.781 96.5573 129.664L97.0773 130.576ZM113.385 130.024C113.806 130.024 114.198 129.955 114.561 129.816C114.929 129.677 115.267 129.501 115.577 129.288L116.233 130.168C115.865 130.483 115.422 130.731 114.905 130.912C114.387 131.093 113.881 131.184 113.385 131.184C112.547 131.184 111.833 131.005 111.241 130.648C110.654 130.285 110.206 129.779 109.897 129.128C109.587 128.472 109.433 127.704 109.433 126.824C109.433 125.981 109.587 125.227 109.897 124.56C110.211 123.888 110.662 123.36 111.249 122.976C111.841 122.592 112.558 122.4 113.401 122.4C113.939 122.4 114.443 122.483 114.913 122.648C115.387 122.808 115.822 123.051 116.217 123.376L115.561 124.272C115.203 124.021 114.843 123.835 114.481 123.712C114.123 123.584 113.758 123.52 113.385 123.52C112.659 123.52 112.062 123.792 111.593 124.336C111.123 124.88 110.889 125.709 110.889 126.824C110.889 127.571 110.995 128.181 111.209 128.656C111.427 129.125 111.723 129.472 112.097 129.696C112.475 129.915 112.905 130.024 113.385 130.024ZM122.379 122.4C123.173 122.4 123.837 122.581 124.371 122.944C124.909 123.301 125.312 123.808 125.579 124.464C125.851 125.12 125.987 125.893 125.987 126.784C125.987 127.643 125.848 128.403 125.571 129.064C125.293 129.725 124.885 130.245 124.347 130.624C123.813 130.997 123.152 131.184 122.363 131.184C121.573 131.184 120.909 131.003 120.371 130.64C119.832 130.277 119.424 129.768 119.147 129.112C118.875 128.451 118.738 127.68 118.738 126.8C118.738 125.931 118.877 125.165 119.155 124.504C119.432 123.843 119.84 123.328 120.379 122.96C120.923 122.587 121.589 122.4 122.379 122.4ZM122.379 123.496C121.653 123.496 121.104 123.765 120.731 124.304C120.363 124.837 120.179 125.669 120.179 126.8C120.179 127.909 120.36 128.733 120.723 129.272C121.091 129.811 121.637 130.08 122.363 130.08C123.088 130.08 123.632 129.811 123.995 129.272C124.363 128.733 124.547 127.904 124.547 126.784C124.547 125.664 124.365 124.837 124.003 124.304C123.64 123.765 123.099 123.496 122.379 123.496ZM127.668 130.088C127.668 129.789 127.77 129.536 127.972 129.328C128.18 129.12 128.436 129.016 128.74 129.016C129.055 129.016 129.314 129.12 129.516 129.328C129.724 129.536 129.828 129.789 129.828 130.088C129.828 130.392 129.724 130.651 129.516 130.864C129.314 131.072 129.055 131.176 128.74 131.176C128.436 131.176 128.18 131.072 127.972 130.864C127.77 130.651 127.668 130.392 127.668 130.088ZM130.868 130.088C130.868 129.789 130.972 129.536 131.18 129.328C131.394 129.12 131.652 129.016 131.956 129.016C132.26 129.016 132.514 129.12 132.716 129.328C132.924 129.536 133.028 129.789 133.028 130.088C133.028 130.392 132.924 130.651 132.716 130.864C132.514 131.072 132.26 131.176 131.956 131.176C131.652 131.176 131.394 131.072 131.18 130.864C130.972 130.651 130.868 130.392 130.868 130.088ZM134.084 130.088C134.084 129.789 134.186 129.536 134.388 129.328C134.596 129.12 134.852 129.016 135.156 129.016C135.471 129.016 135.73 129.12 135.932 129.328C136.14 129.536 136.244 129.789 136.244 130.088C136.244 130.392 136.14 130.651 135.932 130.864C135.73 131.072 135.471 131.176 135.156 131.176C134.852 131.176 134.596 131.072 134.388 130.864C134.186 130.651 134.084 130.392 134.084 130.088Z" fill="black"/>
<path d="M7.16 7.4C7.432 7.4 7.69067 7.45867 7.936 7.576C8.18667 7.69333 8.392 7.92 8.552 8.256C8.712 8.592 8.792 9.08267 8.792 9.728V16H7.544V9.944C7.544 9.416 7.512 9.03467 7.448 8.8C7.384 8.56533 7.2 8.448 6.896 8.448C6.64533 8.448 6.39467 8.528 6.144 8.688C5.89867 8.84267 5.65867 9.09867 5.424 9.456V16H4.168V9.944C4.168 9.416 4.136 9.03467 4.072 8.8C4.008 8.56533 3.824 8.448 3.52 8.448C3.25867 8.448 3.00533 8.528 2.76 8.688C2.52 8.84267 2.28267 9.09867 2.048 9.456V16H0.808V7.576H1.864L1.944 8.552C2.17333 8.22667 2.42933 7.95467 2.712 7.736C3 7.512 3.35467 7.4 3.776 7.4C4.096 7.4 4.39733 7.47733 4.68 7.632C4.96267 7.78133 5.17067 8.07467 5.304 8.512C5.53333 8.18133 5.792 7.91467 6.08 7.712C6.368 7.504 6.728 7.4 7.16 7.4ZM15.4658 7.576V14.936H17.8418V16H11.5218V14.936H14.1218V8.64H11.6018V7.576H15.4658ZM14.3938 3.632C14.6924 3.632 14.9298 3.72267 15.1058 3.904C15.2871 4.08533 15.3778 4.30667 15.3778 4.568C15.3778 4.84 15.2871 5.06933 15.1058 5.256C14.9298 5.43733 14.6924 5.528 14.3938 5.528C14.1111 5.528 13.8791 5.43733 13.6978 5.256C13.5164 5.06933 13.4258 4.84 13.4258 4.568C13.4258 4.30667 13.5164 4.08533 13.6978 3.904C13.8791 3.72267 14.1111 3.632 14.3938 3.632ZM20.7955 16V7.576H21.9395L22.0435 8.744C22.3848 8.312 22.8115 7.98133 23.3235 7.752C23.8408 7.51733 24.3422 7.4 24.8275 7.4C25.6542 7.4 26.2542 7.61867 26.6275 8.056C27.0062 8.49333 27.1955 9.10133 27.1955 9.88V16H25.8515V10.872C25.8515 10.296 25.8195 9.832 25.7555 9.48C25.6915 9.12267 25.5582 8.864 25.3555 8.704C25.1528 8.53867 24.8382 8.456 24.4115 8.456C24.0808 8.456 23.7688 8.528 23.4755 8.672C23.1875 8.816 22.9288 8.99733 22.6995 9.216C22.4755 9.42933 22.2888 9.64533 22.1395 9.864V16H20.7955ZM30.3733 12.216V11.048H36.7893V12.216H30.3733ZM46.223 16H44.319L43.231 9.816L42.047 16H40.191L38.655 7.576H40.031L41.103 15.168L42.447 8.648H44.039L45.311 15.168L46.383 7.576H47.695L46.223 16ZM53.8408 7.576V14.936H56.2168V16H49.8968V14.936H52.4968V8.64H49.9768V7.576H53.8408ZM52.7688 3.632C53.0674 3.632 53.3048 3.72267 53.4808 3.904C53.6621 4.08533 53.7528 4.30667 53.7528 4.568C53.7528 4.84 53.6621 5.06933 53.4808 5.256C53.3048 5.43733 53.0674 5.528 52.7688 5.528C52.4861 5.528 52.2541 5.43733 52.0728 5.256C51.8914 5.06933 51.8008 4.84 51.8008 4.568C51.8008 4.30667 51.8914 4.08533 52.0728 3.904C52.2541 3.72267 52.4861 3.632 52.7688 3.632ZM64.2105 4.016L65.5545 4.184V16H64.3785L64.2505 14.888C63.9358 15.336 63.5732 15.664 63.1625 15.872C62.7572 16.08 62.3225 16.184 61.8585 16.184C61.1278 16.184 60.5252 16 60.0505 15.632C59.5758 15.264 59.2238 14.752 58.9945 14.096C58.7652 13.4347 58.6505 12.6693 58.6505 11.8C58.6505 10.9573 58.7812 10.2053 59.0425 9.544C59.3038 8.87733 59.6798 8.35467 60.1705 7.976C60.6665 7.592 61.2612 7.4 61.9545 7.4C62.4398 7.4 62.8665 7.48533 63.2345 7.656C63.6025 7.82133 63.9278 8.06667 64.2105 8.392V4.016ZM62.3065 8.48C61.6025 8.48 61.0612 8.75467 60.6825 9.304C60.3038 9.85333 60.1145 10.6853 60.1145 11.8C60.1145 12.5253 60.1918 13.1333 60.3465 13.624C60.5012 14.1147 60.7278 14.4827 61.0265 14.728C61.3305 14.9733 61.7012 15.096 62.1385 15.096C62.6185 15.096 63.0265 14.96 63.3625 14.688C63.7038 14.416 63.9865 14.1093 64.2105 13.768V9.56C63.9812 9.21867 63.7038 8.95467 63.3785 8.768C63.0532 8.576 62.6958 8.48 62.3065 8.48ZM75.4523 15.576C75.1643 15.768 74.8149 15.9173 74.4043 16.024C73.9936 16.1307 73.5909 16.184 73.1963 16.184C72.2896 16.184 71.5909 15.9467 71.1003 15.472C70.6096 14.9973 70.3643 14.3867 70.3643 13.64V8.616H68.4283V7.576H70.3643V5.664L71.7083 5.504V7.576H74.6203L74.4603 8.616H71.7083V13.624C71.7083 14.0933 71.8309 14.4507 72.0763 14.696C72.3269 14.9413 72.7403 15.064 73.3163 15.064C73.6309 15.064 73.9216 15.0267 74.1883 14.952C74.4549 14.8773 74.7029 14.7813 74.9323 14.664L75.4523 15.576ZM79.702 4.056V8.728C80.0327 8.28533 80.438 7.95467 80.918 7.736C81.4033 7.512 81.894 7.4 82.39 7.4C83.2113 7.4 83.8113 7.61867 84.19 8.056C84.5687 8.49333 84.758 9.10133 84.758 9.88V16H83.414V9.912C83.414 9.40533 83.2967 9.03733 83.062 8.808C82.8273 8.57333 82.4593 8.456 81.958 8.456C81.638 8.456 81.334 8.528 81.046 8.672C80.758 8.816 80.4993 8.99467 80.27 9.208C80.0407 9.42133 79.8513 9.64 79.702 9.864V16H78.358V4.2L79.702 4.056ZM89.8398 14.88C89.8398 14.5333 89.9624 14.232 90.2078 13.976C90.4584 13.72 90.7651 13.592 91.1278 13.592C91.5011 13.592 91.8104 13.72 92.0558 13.976C92.3064 14.232 92.4318 14.5333 92.4318 14.88C92.4318 15.2427 92.3064 15.552 92.0558 15.808C91.8104 16.0587 91.5011 16.184 91.1278 16.184C90.7651 16.184 90.4584 16.0587 90.2078 15.808C89.9624 15.552 89.8398 15.2427 89.8398 14.88ZM89.8398 9.112C89.8398 8.86667 89.8958 8.648 90.0078 8.456C90.1198 8.264 90.2744 8.112 90.4718 8C90.6691 7.88267 90.8878 7.824 91.1278 7.824C91.5011 7.824 91.8104 7.94933 92.0558 8.2C92.3064 8.45067 92.4318 8.75467 92.4318 9.112C92.4318 9.464 92.3064 9.77067 92.0558 10.032C91.8104 10.288 91.5011 10.416 91.1278 10.416C90.7651 10.416 90.4584 10.288 90.2078 10.032C89.9624 9.77067 89.8398 9.464 89.8398 9.112ZM110.331 4.808C111.521 4.808 112.419 5.29867 113.027 6.28C113.635 7.26133 113.939 8.664 113.939 10.488C113.939 12.3173 113.635 13.7253 113.027 14.712C112.419 15.6933 111.521 16.184 110.331 16.184C109.147 16.184 108.249 15.6933 107.635 14.712C107.027 13.7253 106.723 12.3173 106.723 10.488C106.723 8.664 107.027 7.26133 107.635 6.28C108.249 5.29867 109.147 4.808 110.331 4.808ZM110.331 5.888C109.654 5.888 109.121 6.248 108.731 6.968C108.342 7.68267 108.147 8.856 108.147 10.488C108.147 11.3147 108.19 12.0213 108.275 12.608C108.361 13.1947 108.491 13.672 108.667 14.04C108.849 14.4027 109.075 14.6693 109.347 14.84C109.625 15.0107 109.953 15.096 110.331 15.096C110.79 15.096 111.182 14.9387 111.507 14.624C111.838 14.3093 112.089 13.8133 112.259 13.136C112.435 12.4533 112.523 11.5707 112.523 10.488C112.523 9.38933 112.446 8.50133 112.291 7.824C112.142 7.14667 111.905 6.656 111.579 6.352C111.259 6.04267 110.843 5.888 110.331 5.888ZM111.955 6.28L112.307 7.456L108.803 14.552L108.307 13.616L111.955 6.28ZM120.501 7.4C121.248 7.4 121.842 7.58133 122.285 7.944C122.733 8.30667 123.056 8.81867 123.253 9.48C123.45 10.136 123.549 10.904 123.549 11.784C123.549 12.632 123.429 13.3893 123.189 14.056C122.954 14.7173 122.597 15.2373 122.117 15.616C121.637 15.9947 121.032 16.184 120.301 16.184C119.378 16.184 118.637 15.8587 118.077 15.208V19.224L116.733 19.392V7.576H117.877L117.989 8.752C118.298 8.32 118.666 7.98667 119.093 7.752C119.525 7.51733 119.994 7.4 120.501 7.4ZM120.181 8.48C119.717 8.48 119.306 8.62133 118.949 8.904C118.597 9.18133 118.306 9.49067 118.077 9.832V14.008C118.296 14.3333 118.57 14.592 118.901 14.784C119.237 14.9707 119.605 15.064 120.005 15.064C120.704 15.064 121.229 14.7973 121.581 14.264C121.933 13.7307 122.109 12.9013 122.109 11.776C122.109 11.04 122.04 10.4293 121.901 9.944C121.762 9.45333 121.552 9.088 121.269 8.848C120.986 8.60267 120.624 8.48 120.181 8.48ZM127.143 16H125.607L128.719 11.552L125.991 7.576H127.583L129.535 10.712L131.511 7.576H133.047L130.327 11.496L133.431 16H131.783L129.479 12.384L127.143 16Z" fill="#FF9500"/>
<rect x="243" y="26" width="200" height="200" rx="12" fill="#5A8EE5"/>
<rect x="275" y="94" width="136" height="64" rx="12" fill="#FF9500"/>
<path d="M290.464 121.176V131H289.08V121.176H285.64V119.984H293.952L293.808 121.176H290.464ZM297.258 127.264C297.284 127.915 297.41 128.448 297.634 128.864C297.858 129.275 298.154 129.579 298.522 129.776C298.89 129.968 299.29 130.064 299.722 130.064C300.154 130.064 300.543 130 300.89 129.872C301.242 129.744 301.602 129.555 301.97 129.304L302.602 130.192C302.207 130.501 301.756 130.744 301.25 130.92C300.748 131.096 300.234 131.184 299.706 131.184C298.89 131.184 298.194 131 297.618 130.632C297.042 130.264 296.602 129.752 296.298 129.096C295.999 128.435 295.85 127.669 295.85 126.8C295.85 125.947 296.002 125.189 296.306 124.528C296.61 123.867 297.036 123.347 297.586 122.968C298.135 122.589 298.783 122.4 299.53 122.4C300.239 122.4 300.85 122.568 301.362 122.904C301.874 123.235 302.266 123.709 302.538 124.328C302.815 124.941 302.954 125.675 302.954 126.528C302.954 126.672 302.951 126.808 302.946 126.936C302.94 127.059 302.932 127.168 302.922 127.264H297.258ZM299.546 123.504C298.922 123.504 298.399 123.725 297.978 124.168C297.562 124.611 297.324 125.296 297.266 126.224H301.658C301.642 125.323 301.444 124.645 301.066 124.192C300.687 123.733 300.18 123.504 299.546 123.504ZM306.612 131H305.076L308.188 126.552L305.46 122.576H307.052L309.004 125.712L310.98 122.576H312.516L309.796 126.496L312.9 131H311.252L308.948 127.384L306.612 131ZM322.077 130.576C321.789 130.768 321.44 130.917 321.029 131.024C320.619 131.131 320.216 131.184 319.821 131.184C318.915 131.184 318.216 130.947 317.725 130.472C317.235 129.997 316.989 129.387 316.989 128.64V123.616H315.053V122.576H316.989V120.664L318.333 120.504V122.576H321.245L321.085 123.616H318.333V128.624C318.333 129.093 318.456 129.451 318.701 129.696C318.952 129.941 319.365 130.064 319.941 130.064C320.256 130.064 320.547 130.027 320.813 129.952C321.08 129.877 321.328 129.781 321.557 129.664L322.077 130.576ZM338.385 130.024C338.806 130.024 339.198 129.955 339.561 129.816C339.929 129.677 340.267 129.501 340.577 129.288L341.233 130.168C340.865 130.483 340.422 130.731 339.905 130.912C339.387 131.093 338.881 131.184 338.385 131.184C337.547 131.184 336.833 131.005 336.241 130.648C335.654 130.285 335.206 129.779 334.897 129.128C334.587 128.472 334.433 127.704 334.433 126.824C334.433 125.981 334.587 125.227 334.897 124.56C335.211 123.888 335.662 123.36 336.249 122.976C336.841 122.592 337.558 122.4 338.401 122.4C338.939 122.4 339.443 122.483 339.913 122.648C340.387 122.808 340.822 123.051 341.217 123.376L340.561 124.272C340.203 124.021 339.843 123.835 339.481 123.712C339.123 123.584 338.758 123.52 338.385 123.52C337.659 123.52 337.062 123.792 336.593 124.336C336.123 124.88 335.889 125.709 335.889 126.824C335.889 127.571 335.995 128.181 336.209 128.656C336.427 129.125 336.723 129.472 337.097 129.696C337.475 129.915 337.905 130.024 338.385 130.024ZM347.379 122.4C348.173 122.4 348.837 122.581 349.371 122.944C349.909 123.301 350.312 123.808 350.579 124.464C350.851 125.12 350.987 125.893 350.987 126.784C350.987 127.643 350.848 128.403 350.571 129.064C350.293 129.725 349.885 130.245 349.347 130.624C348.813 130.997 348.152 131.184 347.363 131.184C346.573 131.184 345.909 131.003 345.371 130.64C344.832 130.277 344.424 129.768 344.147 129.112C343.875 128.451 343.738 127.68 343.738 126.8C343.738 125.931 343.877 125.165 344.155 124.504C344.432 123.843 344.84 123.328 345.379 122.96C345.923 122.587 346.589 122.4 347.379 122.4ZM347.379 123.496C346.653 123.496 346.104 123.765 345.731 124.304C345.363 124.837 345.179 125.669 345.179 126.8C345.179 127.909 345.36 128.733 345.723 129.272C346.091 129.811 346.637 130.08 347.363 130.08C348.088 130.08 348.632 129.811 348.995 129.272C349.363 128.733 349.547 127.904 349.547 126.784C349.547 125.664 349.365 124.837 349.003 124.304C348.64 123.765 348.099 123.496 347.379 123.496ZM353.764 131V122.576H354.908L355.012 123.744C355.354 123.312 355.78 122.981 356.292 122.752C356.81 122.517 357.311 122.4 357.796 122.4C358.623 122.4 359.223 122.619 359.596 123.056C359.975 123.493 360.164 124.101 360.164 124.88V131H358.82V125.872C358.82 125.296 358.788 124.832 358.724 124.48C358.66 124.123 358.527 123.864 358.324 123.704C358.122 123.539 357.807 123.456 357.38 123.456C357.05 123.456 356.738 123.528 356.444 123.672C356.156 123.816 355.898 123.997 355.668 124.216C355.444 124.429 355.258 124.645 355.108 124.864V131H353.764ZM370.046 130.576C369.758 130.768 369.409 130.917 368.998 131.024C368.587 131.131 368.185 131.184 367.79 131.184C366.883 131.184 366.185 130.947 365.694 130.472C365.203 129.997 364.958 129.387 364.958 128.64V123.616H363.022V122.576H364.958V120.664L366.302 120.504V122.576H369.214L369.054 123.616H366.302V128.624C366.302 129.093 366.425 129.451 366.67 129.696C366.921 129.941 367.334 130.064 367.91 130.064C368.225 130.064 368.515 130.027 368.782 129.952C369.049 129.877 369.297 129.781 369.526 129.664L370.046 130.576ZM374.008 127.264C374.034 127.915 374.16 128.448 374.384 128.864C374.608 129.275 374.904 129.579 375.272 129.776C375.64 129.968 376.04 130.064 376.472 130.064C376.904 130.064 377.293 130 377.64 129.872C377.992 129.744 378.352 129.555 378.72 129.304L379.352 130.192C378.957 130.501 378.506 130.744 378 130.92C377.498 131.096 376.984 131.184 376.456 131.184C375.64 131.184 374.944 131 374.368 130.632C373.792 130.264 373.352 129.752 373.048 129.096C372.749 128.435 372.6 127.669 372.6 126.8C372.6 125.947 372.752 125.189 373.056 124.528C373.36 123.867 373.786 123.347 374.336 122.968C374.885 122.589 375.533 122.4 376.28 122.4C376.989 122.4 377.6 122.568 378.112 122.904C378.624 123.235 379.016 123.709 379.288 124.328C379.565 124.941 379.704 125.675 379.704 126.528C379.704 126.672 379.701 126.808 379.696 126.936C379.69 127.059 379.682 127.168 379.672 127.264H374.008ZM376.296 123.504C375.672 123.504 375.149 123.725 374.728 124.168C374.312 124.611 374.074 125.296 374.016 126.224H378.408C378.392 125.323 378.194 124.645 377.816 124.192C377.437 123.733 376.93 123.504 376.296 123.504ZM382.546 131V122.576H383.69L383.794 123.744C384.135 123.312 384.562 122.981 385.074 122.752C385.591 122.517 386.092 122.4 386.578 122.4C387.404 122.4 388.004 122.619 388.378 123.056C388.756 123.493 388.946 124.101 388.946 124.88V131H387.602V125.872C387.602 125.296 387.57 124.832 387.506 124.48C387.442 124.123 387.308 123.864 387.106 123.704C386.903 123.539 386.588 123.456 386.162 123.456C385.831 123.456 385.519 123.528 385.226 123.672C384.938 123.816 384.679 123.997 384.45 124.216C384.226 124.429 384.039 124.645 383.89 124.864V131H382.546ZM398.827 130.576C398.539 130.768 398.19 130.917 397.779 131.024C397.369 131.131 396.966 131.184 396.571 131.184C395.665 131.184 394.966 130.947 394.475 130.472C393.985 129.997 393.739 129.387 393.739 128.64V123.616H391.803V122.576H393.739V120.664L395.083 120.504V122.576H397.995L397.835 123.616H395.083V128.624C395.083 129.093 395.206 129.451 395.451 129.696C395.702 129.941 396.115 130.064 396.691 130.064C397.006 130.064 397.297 130.027 397.563 129.952C397.83 129.877 398.078 129.781 398.307 129.664L398.827 130.576Z" fill="black"/>
<path d="M250.16 7.4C250.432 7.4 250.691 7.45867 250.936 7.576C251.187 7.69333 251.392 7.92 251.552 8.256C251.712 8.592 251.792 9.08267 251.792 9.728V16H250.544V9.944C250.544 9.416 250.512 9.03467 250.448 8.8C250.384 8.56533 250.2 8.448 249.896 8.448C249.645 8.448 249.395 8.528 249.144 8.688C248.899 8.84267 248.659 9.09867 248.424 9.456V16H247.168V9.944C247.168 9.416 247.136 9.03467 247.072 8.8C247.008 8.56533 246.824 8.448 246.52 8.448C246.259 8.448 246.005 8.528 245.76 8.688C245.52 8.84267 245.283 9.09867 245.048 9.456V16H243.808V7.576H244.864L244.944 8.552C245.173 8.22667 245.429 7.95467 245.712 7.736C246 7.512 246.355 7.4 246.776 7.4C247.096 7.4 247.397 7.47733 247.68 7.632C247.963 7.78133 248.171 8.07467 248.304 8.512C248.533 8.18133 248.792 7.91467 249.08 7.712C249.368 7.504 249.728 7.4 250.16 7.4ZM258.466 7.576V14.936H260.842V16H254.522V14.936H257.122V8.64H254.602V7.576H258.466ZM257.394 3.632C257.692 3.632 257.93 3.72267 258.106 3.904C258.287 4.08533 258.378 4.30667 258.378 4.568C258.378 4.84 258.287 5.06933 258.106 5.256C257.93 5.43733 257.692 5.528 257.394 5.528C257.111 5.528 256.879 5.43733 256.698 5.256C256.516 5.06933 256.426 4.84 256.426 4.568C256.426 4.30667 256.516 4.08533 256.698 3.904C256.879 3.72267 257.111 3.632 257.394 3.632ZM263.796 16V7.576H264.94L265.044 8.744C265.385 8.312 265.812 7.98133 266.324 7.752C266.841 7.51733 267.342 7.4 267.828 7.4C268.654 7.4 269.254 7.61867 269.628 8.056C270.006 8.49333 270.196 9.10133 270.196 9.88V16H268.852V10.872C268.852 10.296 268.82 9.832 268.756 9.48C268.692 9.12267 268.558 8.864 268.356 8.704C268.153 8.53867 267.838 8.456 267.412 8.456C267.081 8.456 266.769 8.528 266.476 8.672C266.188 8.816 265.929 8.99733 265.7 9.216C265.476 9.42933 265.289 9.64533 265.14 9.864V16H263.796ZM273.373 12.216V11.048H279.789V12.216H273.373ZM289.223 16H287.319L286.231 9.816L285.047 16H283.191L281.655 7.576H283.031L284.103 15.168L285.447 8.648H287.039L288.311 15.168L289.383 7.576H290.695L289.223 16ZM296.841 7.576V14.936H299.217V16H292.897V14.936H295.497V8.64H292.977V7.576H296.841ZM295.769 3.632C296.067 3.632 296.305 3.72267 296.481 3.904C296.662 4.08533 296.753 4.30667 296.753 4.568C296.753 4.84 296.662 5.06933 296.481 5.256C296.305 5.43733 296.067 5.528 295.769 5.528C295.486 5.528 295.254 5.43733 295.073 5.256C294.891 5.06933 294.801 4.84 294.801 4.568C294.801 4.30667 294.891 4.08533 295.073 3.904C295.254 3.72267 295.486 3.632 295.769 3.632ZM307.211 4.016L308.555 4.184V16H307.379L307.251 14.888C306.936 15.336 306.573 15.664 306.163 15.872C305.757 16.08 305.323 16.184 304.859 16.184C304.128 16.184 303.525 16 303.051 15.632C302.576 15.264 302.224 14.752 301.995 14.096C301.765 13.4347 301.651 12.6693 301.651 11.8C301.651 10.9573 301.781 10.2053 302.043 9.544C302.304 8.87733 302.68 8.35467 303.171 7.976C303.667 7.592 304.261 7.4 304.955 7.4C305.44 7.4 305.867 7.48533 306.235 7.656C306.603 7.82133 306.928 8.06667 307.211 8.392V4.016ZM305.307 8.48C304.603 8.48 304.061 8.75467 303.683 9.304C303.304 9.85333 303.115 10.6853 303.115 11.8C303.115 12.5253 303.192 13.1333 303.347 13.624C303.501 14.1147 303.728 14.4827 304.027 14.728C304.331 14.9733 304.701 15.096 305.139 15.096C305.619 15.096 306.027 14.96 306.363 14.688C306.704 14.416 306.987 14.1093 307.211 13.768V9.56C306.981 9.21867 306.704 8.95467 306.379 8.768C306.053 8.576 305.696 8.48 305.307 8.48ZM318.452 15.576C318.164 15.768 317.815 15.9173 317.404 16.024C316.994 16.1307 316.591 16.184 316.196 16.184C315.29 16.184 314.591 15.9467 314.1 15.472C313.61 14.9973 313.364 14.3867 313.364 13.64V8.616H311.428V7.576H313.364V5.664L314.708 5.504V7.576H317.62L317.46 8.616H314.708V13.624C314.708 14.0933 314.831 14.4507 315.076 14.696C315.327 14.9413 315.74 15.064 316.316 15.064C316.631 15.064 316.922 15.0267 317.188 14.952C317.455 14.8773 317.703 14.7813 317.932 14.664L318.452 15.576ZM322.702 4.056V8.728C323.033 8.28533 323.438 7.95467 323.918 7.736C324.403 7.512 324.894 7.4 325.39 7.4C326.211 7.4 326.811 7.61867 327.19 8.056C327.569 8.49333 327.758 9.10133 327.758 9.88V16H326.414V9.912C326.414 9.40533 326.297 9.03733 326.062 8.808C325.827 8.57333 325.459 8.456 324.958 8.456C324.638 8.456 324.334 8.528 324.046 8.672C323.758 8.816 323.499 8.99467 323.27 9.208C323.041 9.42133 322.851 9.64 322.702 9.864V16H321.358V4.2L322.702 4.056ZM332.84 14.88C332.84 14.5333 332.962 14.232 333.208 13.976C333.458 13.72 333.765 13.592 334.128 13.592C334.501 13.592 334.81 13.72 335.056 13.976C335.306 14.232 335.432 14.5333 335.432 14.88C335.432 15.2427 335.306 15.552 335.056 15.808C334.81 16.0587 334.501 16.184 334.128 16.184C333.765 16.184 333.458 16.0587 333.208 15.808C332.962 15.552 332.84 15.2427 332.84 14.88ZM332.84 9.112C332.84 8.86667 332.896 8.648 333.008 8.456C333.12 8.264 333.274 8.112 333.472 8C333.669 7.88267 333.888 7.824 334.128 7.824C334.501 7.824 334.81 7.94933 335.056 8.2C335.306 8.45067 335.432 8.75467 335.432 9.112C335.432 9.464 335.306 9.77067 335.056 10.032C334.81 10.288 334.501 10.416 334.128 10.416C333.765 10.416 333.458 10.288 333.208 10.032C332.962 9.77067 332.84 9.464 332.84 9.112ZM356.171 14.16C356.171 14.496 356.227 14.7413 356.339 14.896C356.451 15.0507 356.625 15.1653 356.859 15.24L356.531 16.184C356.169 16.136 355.851 16.0213 355.579 15.84C355.307 15.6533 355.11 15.3733 354.987 15C354.683 15.3893 354.305 15.6853 353.851 15.888C353.398 16.0853 352.897 16.184 352.347 16.184C351.505 16.184 350.841 15.9467 350.355 15.472C349.87 14.9973 349.627 14.368 349.627 13.584C349.627 12.7147 349.966 12.048 350.643 11.584C351.321 11.12 352.299 10.888 353.579 10.888H354.819V10.184C354.819 9.576 354.641 9.14667 354.283 8.896C353.931 8.64 353.441 8.512 352.811 8.512C352.534 8.512 352.209 8.54667 351.835 8.616C351.462 8.68 351.057 8.78933 350.619 8.944L350.267 7.928C350.785 7.736 351.27 7.6 351.723 7.52C352.177 7.44 352.609 7.4 353.019 7.4C354.07 7.4 354.857 7.64533 355.379 8.136C355.907 8.62133 356.171 9.28267 356.171 10.12V14.16ZM352.691 15.16C353.107 15.16 353.505 15.056 353.883 14.848C354.262 14.6347 354.574 14.3413 354.819 13.968V11.8H353.603C352.675 11.8 352.019 11.96 351.635 12.28C351.257 12.6 351.067 13.0293 351.067 13.568C351.067 14.0907 351.201 14.488 351.467 14.76C351.739 15.0267 352.147 15.16 352.691 15.16ZM361.077 7.576V13.544C361.077 14.0987 361.192 14.4987 361.421 14.744C361.65 14.9893 362.008 15.112 362.493 15.112C362.957 15.112 363.394 14.9813 363.805 14.72C364.221 14.4533 364.544 14.1387 364.773 13.776V7.576H366.117V16H364.973L364.861 14.864C364.53 15.2907 364.122 15.6187 363.637 15.848C363.152 16.072 362.661 16.184 362.165 16.184C361.349 16.184 360.738 15.968 360.333 15.536C359.933 15.0987 359.733 14.488 359.733 13.704V7.576H361.077ZM376.015 15.576C375.727 15.768 375.377 15.9173 374.967 16.024C374.556 16.1307 374.153 16.184 373.759 16.184C372.852 16.184 372.153 15.9467 371.663 15.472C371.172 14.9973 370.927 14.3867 370.927 13.64V8.616H368.991V7.576H370.927V5.664L372.271 5.504V7.576H375.183L375.023 8.616H372.271V13.624C372.271 14.0933 372.393 14.4507 372.639 14.696C372.889 14.9413 373.303 15.064 373.879 15.064C374.193 15.064 374.484 15.0267 374.751 14.952C375.017 14.8773 375.265 14.7813 375.495 14.664L376.015 15.576ZM382.129 7.4C382.923 7.4 383.587 7.58133 384.121 7.944C384.659 8.30133 385.062 8.808 385.329 9.464C385.601 10.12 385.737 10.8933 385.737 11.784C385.737 12.6427 385.598 13.4027 385.321 14.064C385.043 14.7253 384.635 15.2453 384.097 15.624C383.563 15.9973 382.902 16.184 382.113 16.184C381.323 16.184 380.659 16.0027 380.121 15.64C379.582 15.2773 379.174 14.768 378.897 14.112C378.625 13.4507 378.488 12.68 378.488 11.8C378.488 10.9307 378.627 10.1653 378.905 9.504C379.182 8.84267 379.59 8.328 380.129 7.96C380.673 7.58667 381.339 7.4 382.129 7.4ZM382.129 8.496C381.403 8.496 380.854 8.76533 380.481 9.304C380.113 9.83733 379.929 10.6693 379.929 11.8C379.929 12.9093 380.11 13.7333 380.473 14.272C380.841 14.8107 381.387 15.08 382.113 15.08C382.838 15.08 383.382 14.8107 383.745 14.272C384.113 13.7333 384.297 12.904 384.297 11.784C384.297 10.664 384.115 9.83733 383.753 9.304C383.39 8.76533 382.849 8.496 382.129 8.496Z" fill="#FF9500"/>
</svg>
