<svg width="300" height="226" viewBox="0 0 300 226" fill="none" xmlns="http://www.w3.org/2000/svg">
<path d="M7.848 16H5.944L4.856 9.816L3.672 16H1.816L0.28 7.576H1.656L2.728 15.168L4.072 8.648H5.664L6.936 15.168L8.008 7.576H9.32L7.848 16ZM15.4658 7.576V14.936H17.8418V16H11.5218V14.936H14.1218V8.64H11.6018V7.576H15.4658ZM14.3938 3.632C14.6924 3.632 14.9298 3.72267 15.1058 3.904C15.2871 4.08533 15.3778 4.30667 15.3778 4.568C15.3778 4.84 15.2871 5.06933 15.1058 5.256C14.9298 5.43733 14.6924 5.528 14.3938 5.528C14.1111 5.528 13.8791 5.43733 13.6978 5.256C13.5164 5.06933 13.4258 4.84 13.4258 4.568C13.4258 4.30667 13.5164 4.08533 13.6978 3.904C13.8791 3.72267 14.1111 3.632 14.3938 3.632ZM25.8355 4.016L27.1795 4.184V16H26.0035L25.8755 14.888C25.5608 15.336 25.1982 15.664 24.7875 15.872C24.3822 16.08 23.9475 16.184 23.4835 16.184C22.7528 16.184 22.1502 16 21.6755 15.632C21.2008 15.264 20.8488 14.752 20.6195 14.096C20.3902 13.4347 20.2755 12.6693 20.2755 11.8C20.2755 10.9573 20.4062 10.2053 20.6675 9.544C20.9288 8.87733 21.3048 8.35467 21.7955 7.976C22.2915 7.592 22.8862 7.4 23.5795 7.4C24.0648 7.4 24.4915 7.48533 24.8595 7.656C25.2275 7.82133 25.5528 8.06667 25.8355 8.392V4.016ZM23.9315 8.48C23.2275 8.48 22.6862 8.75467 22.3075 9.304C21.9288 9.85333 21.7395 10.6853 21.7395 11.8C21.7395 12.5253 21.8168 13.1333 21.9715 13.624C22.1262 14.1147 22.3528 14.4827 22.6515 14.728C22.9555 14.9733 23.3262 15.096 23.7635 15.096C24.2435 15.096 24.6515 14.96 24.9875 14.688C25.3288 14.416 25.6115 14.1093 25.8355 13.768V9.56C25.6062 9.21867 25.3288 8.95467 25.0035 8.768C24.6782 8.576 24.3208 8.48 23.9315 8.48ZM37.0773 15.576C36.7893 15.768 36.4399 15.9173 36.0293 16.024C35.6186 16.1307 35.2159 16.184 34.8213 16.184C33.9146 16.184 33.2159 15.9467 32.7253 15.472C32.2346 14.9973 31.9893 14.3867 31.9893 13.64V8.616H30.0533V7.576H31.9893V5.664L33.3333 5.504V7.576H36.2453L36.0853 8.616H33.3333V13.624C33.3333 14.0933 33.4559 14.4507 33.7013 14.696C33.9519 14.9413 34.3653 15.064 34.9413 15.064C35.2559 15.064 35.5466 15.0267 35.8133 14.952C36.0799 14.8773 36.3279 14.7813 36.5573 14.664L37.0773 15.576ZM41.327 4.056V8.728C41.6577 8.28533 42.063 7.95467 42.543 7.736C43.0283 7.512 43.519 7.4 44.015 7.4C44.8363 7.4 45.4363 7.61867 45.815 8.056C46.1937 8.49333 46.383 9.10133 46.383 9.88V16H45.039V9.912C45.039 9.40533 44.9217 9.03733 44.687 8.808C44.4523 8.57333 44.0843 8.456 43.583 8.456C43.263 8.456 42.959 8.528 42.671 8.672C42.383 8.816 42.1243 8.99467 41.895 9.208C41.6657 9.42133 41.4763 9.64 41.327 9.864V16H39.983V4.2L41.327 4.056ZM51.4648 14.88C51.4648 14.5333 51.5874 14.232 51.8328 13.976C52.0834 13.72 52.3901 13.592 52.7528 13.592C53.1261 13.592 53.4354 13.72 53.6808 13.976C53.9314 14.232 54.0568 14.5333 54.0568 14.88C54.0568 15.2427 53.9314 15.552 53.6808 15.808C53.4354 16.0587 53.1261 16.184 52.7528 16.184C52.3901 16.184 52.0834 16.0587 51.8328 15.808C51.5874 15.552 51.4648 15.2427 51.4648 14.88ZM51.4648 9.112C51.4648 8.86667 51.5208 8.648 51.6328 8.456C51.7448 8.264 51.8994 8.112 52.0968 8C52.2941 7.88267 52.5128 7.824 52.7528 7.824C53.1261 7.824 53.4354 7.94933 53.6808 8.2C53.9314 8.45067 54.0568 8.75467 54.0568 9.112C54.0568 9.464 53.9314 9.77067 53.6808 10.032C53.4354 10.288 53.1261 10.416 52.7528 10.416C52.3901 10.416 52.0834 10.288 51.8328 10.032C51.5874 9.77067 51.4648 9.464 51.4648 9.112ZM71.7883 4.824C72.5883 4.824 73.2549 5.008 73.7883 5.376C74.3216 5.744 74.7189 6.264 74.9803 6.936C75.2469 7.608 75.3802 8.40533 75.3802 9.328C75.3802 10.4373 75.2656 11.3787 75.0363 12.152C74.8123 12.92 74.4629 13.5627 73.9883 14.08C73.5136 14.5973 72.9056 15.032 72.1643 15.384C71.4229 15.736 70.5376 16.0533 69.5082 16.336L69.1963 15.312C70.2416 15.0187 71.1109 14.672 71.8043 14.272C72.4976 13.8667 73.0229 13.3573 73.3803 12.744C73.7376 12.1253 73.9296 11.3573 73.9563 10.44L73.9803 9.672C73.9856 8.75467 73.9083 8.02133 73.7483 7.472C73.5936 6.91733 73.3536 6.52 73.0283 6.28C72.7083 6.03467 72.2949 5.912 71.7883 5.912C71.0736 5.912 70.5323 6.13067 70.1643 6.568C69.7963 7.00533 69.6123 7.64533 69.6123 8.488C69.6123 9.32533 69.7883 9.936 70.1403 10.32C70.4976 10.6987 70.9909 10.888 71.6203 10.888C72.1696 10.888 72.6443 10.7333 73.0443 10.424C73.4443 10.1147 73.8229 9.69867 74.1803 9.176L74.1723 10.344C73.8469 10.8133 73.4549 11.2 72.9963 11.504C72.5376 11.808 71.9963 11.96 71.3723 11.96C70.7589 11.96 70.2149 11.8187 69.7403 11.536C69.2656 11.2533 68.8923 10.8507 68.6203 10.328C68.3536 9.80533 68.2203 9.176 68.2203 8.44C68.2203 7.656 68.3803 6.99467 68.7003 6.456C69.0203 5.91733 69.4496 5.512 69.9883 5.24C70.5269 4.96267 71.1269 4.824 71.7883 4.824ZM81.55 4.808C82.7393 4.808 83.638 5.29867 84.246 6.28C84.854 7.26133 85.158 8.664 85.158 10.488C85.158 12.3173 84.854 13.7253 84.246 14.712C83.638 15.6933 82.7393 16.184 81.55 16.184C80.366 16.184 79.4673 15.6933 78.854 14.712C78.246 13.7253 77.942 12.3173 77.942 10.488C77.942 8.664 78.246 7.26133 78.854 6.28C79.4673 5.29867 80.366 4.808 81.55 4.808ZM81.55 5.888C80.8727 5.888 80.3393 6.248 79.95 6.968C79.5607 7.68267 79.366 8.856 79.366 10.488C79.366 11.3147 79.4087 12.0213 79.494 12.608C79.5793 13.1947 79.71 13.672 79.886 14.04C80.0673 14.4027 80.294 14.6693 80.566 14.84C80.8433 15.0107 81.1713 15.096 81.55 15.096C82.0087 15.096 82.4007 14.9387 82.726 14.624C83.0567 14.3093 83.3073 13.8133 83.478 13.136C83.654 12.4533 83.742 11.5707 83.742 10.488C83.742 9.38933 83.6647 8.50133 83.51 7.824C83.3607 7.14667 83.1233 6.656 82.798 6.352C82.478 6.04267 82.062 5.888 81.55 5.888ZM83.174 6.28L83.526 7.456L80.022 14.552L79.526 13.616L83.174 6.28ZM91.7198 7.4C92.4664 7.4 93.0611 7.58133 93.5038 7.944C93.9518 8.30667 94.2744 8.81867 94.4718 9.48C94.6691 10.136 94.7678 10.904 94.7678 11.784C94.7678 12.632 94.6478 13.3893 94.4078 14.056C94.1731 14.7173 93.8158 15.2373 93.3358 15.616C92.8558 15.9947 92.2504 16.184 91.5198 16.184C90.5971 16.184 89.8558 15.8587 89.2958 15.208V19.224L87.9518 19.392V7.576H89.0958L89.2078 8.752C89.5171 8.32 89.8851 7.98667 90.3118 7.752C90.7438 7.51733 91.2131 7.4 91.7198 7.4ZM91.3998 8.48C90.9358 8.48 90.5251 8.62133 90.1678 8.904C89.8158 9.18133 89.5251 9.49067 89.2958 9.832V14.008C89.5144 14.3333 89.7891 14.592 90.1198 14.784C90.4558 14.9707 90.8238 15.064 91.2238 15.064C91.9224 15.064 92.4478 14.7973 92.7998 14.264C93.1518 13.7307 93.3278 12.9013 93.3278 11.776C93.3278 11.04 93.2584 10.4293 93.1198 9.944C92.9811 9.45333 92.7704 9.088 92.4878 8.848C92.2051 8.60267 91.8424 8.48 91.3998 8.48ZM98.3615 16H96.8255L99.9375 11.552L97.2095 7.576H98.8015L100.754 10.712L102.73 7.576H104.266L101.546 11.496L104.65 16H103.002L100.698 12.384L98.3615 16Z" fill="#FF9500"/>
<rect y="26" width="300" height="200" rx="12" fill="#5A8EE5"/>
<rect x="25" y="91" width="90" height="70" rx="12" fill="#F2F47E"/>
<rect x="125" y="91" width="70" height="70" rx="12" fill="#FF9500"/>
<rect x="205" y="91" width="70" height="70" rx="12" fill="#FF9500"/>
</svg>
