<svg width="644" height="226" viewBox="0 0 644 226" fill="none" xmlns="http://www.w3.org/2000/svg">
<rect y="26" width="300" height="200" rx="12" fill="#5A8EE5"/>
<rect x="45" y="91" width="70" height="70" rx="12" fill="#FF9500"/>
<rect x="115" y="91" width="70" height="70" rx="12" fill="#FF9500"/>
<rect x="185" y="91" width="70" height="70" rx="12" fill="#FF9500"/>
<path d="M8.456 6.68L8.872 7.944C8.51467 8.056 8.13333 8.12533 7.728 8.152C7.32267 8.17867 6.88267 8.192 6.408 8.192C6.89333 8.416 7.25867 8.70667 7.504 9.064C7.74933 9.416 7.872 9.832 7.872 10.312C7.872 10.8667 7.74667 11.36 7.496 11.792C7.24533 12.224 6.88267 12.5627 6.408 12.808C5.93867 13.0533 5.37067 13.176 4.704 13.176C4.42133 13.176 4.184 13.1627 3.992 13.136C3.80533 13.1093 3.624 13.0693 3.448 13.016C3.32 13.1013 3.21333 13.2187 3.128 13.368C3.048 13.5173 3.008 13.672 3.008 13.832C3.008 14.0347 3.088 14.2027 3.248 14.336C3.408 14.4693 3.704 14.536 4.136 14.536H5.656C6.22133 14.536 6.728 14.6373 7.176 14.84C7.62933 15.0427 7.984 15.3147 8.24 15.656C8.50133 15.9973 8.632 16.3867 8.632 16.824C8.632 17.6507 8.28 18.2853 7.576 18.728C6.87733 19.1707 5.888 19.392 4.608 19.392C3.712 19.392 3.00533 19.2987 2.488 19.112C1.97067 18.9307 1.6 18.6507 1.376 18.272C1.15733 17.8987 1.048 17.4267 1.048 16.856H2.264C2.264 17.1813 2.328 17.4507 2.456 17.664C2.584 17.8773 2.816 18.0347 3.152 18.136C3.488 18.2427 3.97067 18.296 4.6 18.296C5.21867 18.296 5.72267 18.2427 6.112 18.136C6.50667 18.0347 6.79733 17.88 6.984 17.672C7.176 17.4693 7.272 17.216 7.272 16.912C7.272 16.512 7.09067 16.2107 6.728 16.008C6.36533 15.8053 5.912 15.704 5.368 15.704H3.864C3.13867 15.704 2.60267 15.544 2.256 15.224C1.91467 14.904 1.744 14.536 1.744 14.12C1.744 13.848 1.82133 13.584 1.976 13.328C2.136 13.072 2.368 12.8453 2.672 12.648C2.18667 12.392 1.82933 12.0747 1.6 11.696C1.37067 11.3173 1.256 10.8587 1.256 10.32C1.256 9.74933 1.39733 9.24533 1.68 8.808C1.96267 8.36533 2.35733 8.01867 2.864 7.768C3.37067 7.51733 3.95467 7.392 4.616 7.392C5.32533 7.38667 5.90133 7.35733 6.344 7.304C6.78667 7.24533 7.16533 7.16267 7.48 7.056C7.8 6.94933 8.12533 6.824 8.456 6.68ZM4.616 8.376C3.93867 8.376 3.43733 8.56 3.112 8.928C2.792 9.29067 2.632 9.75467 2.632 10.32C2.632 10.8907 2.79733 11.36 3.128 11.728C3.45867 12.096 3.96533 12.28 4.648 12.28C5.24533 12.28 5.69867 12.1067 6.008 11.76C6.32267 11.4133 6.48 10.9307 6.48 10.312C6.48 9.67733 6.32267 9.19733 6.008 8.872C5.69867 8.54133 5.23467 8.376 4.616 8.376ZM17.2338 14.16C17.2338 14.496 17.2898 14.7413 17.4018 14.896C17.5138 15.0507 17.6871 15.1653 17.9218 15.24L17.5938 16.184C17.2311 16.136 16.9138 16.0213 16.6418 15.84C16.3698 15.6533 16.1724 15.3733 16.0498 15C15.7458 15.3893 15.3671 15.6853 14.9138 15.888C14.4604 16.0853 13.9591 16.184 13.4098 16.184C12.5671 16.184 11.9031 15.9467 11.4178 15.472C10.9324 14.9973 10.6898 14.368 10.6898 13.584C10.6898 12.7147 11.0284 12.048 11.7057 11.584C12.3831 11.12 13.3618 10.888 14.6418 10.888H15.8818V10.184C15.8818 9.576 15.7031 9.14667 15.3458 8.896C14.9938 8.64 14.5031 8.512 13.8738 8.512C13.5964 8.512 13.2711 8.54667 12.8978 8.616C12.5244 8.68 12.1191 8.78933 11.6818 8.944L11.3298 7.928C11.8471 7.736 12.3324 7.6 12.7858 7.52C13.2391 7.44 13.6711 7.4 14.0818 7.4C15.1324 7.4 15.9191 7.64533 16.4418 8.136C16.9698 8.62133 17.2338 9.28267 17.2338 10.12V14.16ZM13.7538 15.16C14.1698 15.16 14.5671 15.056 14.9458 14.848C15.3244 14.6347 15.6364 14.3413 15.8818 13.968V11.8H14.6658C13.7378 11.8 13.0818 11.96 12.6978 12.28C12.3191 12.6 12.1298 13.0293 12.1298 13.568C12.1298 14.0907 12.2631 14.488 12.5298 14.76C12.8018 15.0267 13.2098 15.16 13.7538 15.16ZM24.5635 7.4C25.3102 7.4 25.9048 7.58133 26.3475 7.944C26.7955 8.30667 27.1182 8.81867 27.3155 9.48C27.5128 10.136 27.6115 10.904 27.6115 11.784C27.6115 12.632 27.4915 13.3893 27.2515 14.056C27.0168 14.7173 26.6595 15.2373 26.1795 15.616C25.6995 15.9947 25.0942 16.184 24.3635 16.184C23.4408 16.184 22.6995 15.8587 22.1395 15.208V19.224L20.7955 19.392V7.576H21.9395L22.0515 8.752C22.3608 8.32 22.7288 7.98667 23.1555 7.752C23.5875 7.51733 24.0568 7.4 24.5635 7.4ZM24.2435 8.48C23.7795 8.48 23.3688 8.62133 23.0115 8.904C22.6595 9.18133 22.3688 9.49067 22.1395 9.832V14.008C22.3582 14.3333 22.6328 14.592 22.9635 14.784C23.2995 14.9707 23.6675 15.064 24.0675 15.064C24.7662 15.064 25.2915 14.7973 25.6435 14.264C25.9955 13.7307 26.1715 12.9013 26.1715 11.776C26.1715 11.04 26.1022 10.4293 25.9635 9.944C25.8248 9.45333 25.6142 9.088 25.3315 8.848C25.0488 8.60267 24.6862 8.48 24.2435 8.48ZM32.2773 14.88C32.2773 14.5333 32.3999 14.232 32.6453 13.976C32.8959 13.72 33.2026 13.592 33.5653 13.592C33.9386 13.592 34.2479 13.72 34.4933 13.976C34.7439 14.232 34.8693 14.5333 34.8693 14.88C34.8693 15.2427 34.7439 15.552 34.4933 15.808C34.2479 16.0587 33.9386 16.184 33.5653 16.184C33.2026 16.184 32.8959 16.0587 32.6453 15.808C32.3999 15.552 32.2773 15.2427 32.2773 14.88ZM32.2773 9.112C32.2773 8.86667 32.3333 8.648 32.4453 8.456C32.5573 8.264 32.7119 8.112 32.9093 8C33.1066 7.88267 33.3253 7.824 33.5653 7.824C33.9386 7.824 34.2479 7.94933 34.4933 8.2C34.7439 8.45067 34.8693 8.75467 34.8693 9.112C34.8693 9.464 34.7439 9.77067 34.4933 10.032C34.2479 10.288 33.9386 10.416 33.5653 10.416C33.2026 10.416 32.8959 10.288 32.6453 10.032C32.3999 9.77067 32.2773 9.464 32.2773 9.112ZM52.7688 4.808C53.9581 4.808 54.8568 5.29867 55.4648 6.28C56.0728 7.26133 56.3767 8.664 56.3767 10.488C56.3767 12.3173 56.0728 13.7253 55.4648 14.712C54.8568 15.6933 53.9581 16.184 52.7688 16.184C51.5848 16.184 50.6861 15.6933 50.0728 14.712C49.4648 13.7253 49.1608 12.3173 49.1608 10.488C49.1608 8.664 49.4648 7.26133 50.0728 6.28C50.6861 5.29867 51.5848 4.808 52.7688 4.808ZM52.7688 5.888C52.0914 5.888 51.5581 6.248 51.1688 6.968C50.7794 7.68267 50.5848 8.856 50.5848 10.488C50.5848 11.3147 50.6274 12.0213 50.7128 12.608C50.7981 13.1947 50.9288 13.672 51.1048 14.04C51.2861 14.4027 51.5128 14.6693 51.7848 14.84C52.0621 15.0107 52.3901 15.096 52.7688 15.096C53.2274 15.096 53.6194 14.9387 53.9448 14.624C54.2754 14.3093 54.5261 13.8133 54.6968 13.136C54.8728 12.4533 54.9608 11.5707 54.9608 10.488C54.9608 9.38933 54.8834 8.50133 54.7288 7.824C54.5794 7.14667 54.3421 6.656 54.0168 6.352C53.6968 6.04267 53.2808 5.888 52.7688 5.888ZM54.3928 6.28L54.7448 7.456L51.2408 14.552L50.7448 13.616L54.3928 6.28ZM62.9385 7.4C63.6852 7.4 64.2798 7.58133 64.7225 7.944C65.1705 8.30667 65.4932 8.81867 65.6905 9.48C65.8878 10.136 65.9865 10.904 65.9865 11.784C65.9865 12.632 65.8665 13.3893 65.6265 14.056C65.3918 14.7173 65.0345 15.2373 64.5545 15.616C64.0745 15.9947 63.4692 16.184 62.7385 16.184C61.8158 16.184 61.0745 15.8587 60.5145 15.208V19.224L59.1705 19.392V7.576H60.3145L60.4265 8.752C60.7358 8.32 61.1038 7.98667 61.5305 7.752C61.9625 7.51733 62.4318 7.4 62.9385 7.4ZM62.6185 8.48C62.1545 8.48 61.7438 8.62133 61.3865 8.904C61.0345 9.18133 60.7438 9.49067 60.5145 9.832V14.008C60.7332 14.3333 61.0078 14.592 61.3385 14.784C61.6745 14.9707 62.0425 15.064 62.4425 15.064C63.1412 15.064 63.6665 14.7973 64.0185 14.264C64.3705 13.7307 64.5465 12.9013 64.5465 11.776C64.5465 11.04 64.4772 10.4293 64.3385 9.944C64.1998 9.45333 63.9892 9.088 63.7065 8.848C63.4238 8.60267 63.0612 8.48 62.6185 8.48ZM69.5803 16H68.0443L71.1562 11.552L68.4283 7.576H70.0203L71.9723 10.712L73.9483 7.576H75.4843L72.7643 11.496L75.8683 16H74.2203L71.9163 12.384L69.5803 16Z" fill="#FF9500"/>
<rect x="344" y="26" width="300" height="200" rx="12" fill="#5A8EE5"/>
<rect x="379" y="91" width="70" height="70" rx="12" fill="#FF9500"/>
<rect x="459" y="91" width="70" height="70" rx="12" fill="#FF9500"/>
<rect x="539" y="91" width="70" height="70" rx="12" fill="#FF9500"/>
<path d="M352.456 6.68L352.872 7.944C352.515 8.056 352.133 8.12533 351.728 8.152C351.323 8.17867 350.883 8.192 350.408 8.192C350.893 8.416 351.259 8.70667 351.504 9.064C351.749 9.416 351.872 9.832 351.872 10.312C351.872 10.8667 351.747 11.36 351.496 11.792C351.245 12.224 350.883 12.5627 350.408 12.808C349.939 13.0533 349.371 13.176 348.704 13.176C348.421 13.176 348.184 13.1627 347.992 13.136C347.805 13.1093 347.624 13.0693 347.448 13.016C347.32 13.1013 347.213 13.2187 347.128 13.368C347.048 13.5173 347.008 13.672 347.008 13.832C347.008 14.0347 347.088 14.2027 347.248 14.336C347.408 14.4693 347.704 14.536 348.136 14.536H349.656C350.221 14.536 350.728 14.6373 351.176 14.84C351.629 15.0427 351.984 15.3147 352.24 15.656C352.501 15.9973 352.632 16.3867 352.632 16.824C352.632 17.6507 352.28 18.2853 351.576 18.728C350.877 19.1707 349.888 19.392 348.608 19.392C347.712 19.392 347.005 19.2987 346.488 19.112C345.971 18.9307 345.6 18.6507 345.376 18.272C345.157 17.8987 345.048 17.4267 345.048 16.856H346.264C346.264 17.1813 346.328 17.4507 346.456 17.664C346.584 17.8773 346.816 18.0347 347.152 18.136C347.488 18.2427 347.971 18.296 348.6 18.296C349.219 18.296 349.723 18.2427 350.112 18.136C350.507 18.0347 350.797 17.88 350.984 17.672C351.176 17.4693 351.272 17.216 351.272 16.912C351.272 16.512 351.091 16.2107 350.728 16.008C350.365 15.8053 349.912 15.704 349.368 15.704H347.864C347.139 15.704 346.603 15.544 346.256 15.224C345.915 14.904 345.744 14.536 345.744 14.12C345.744 13.848 345.821 13.584 345.976 13.328C346.136 13.072 346.368 12.8453 346.672 12.648C346.187 12.392 345.829 12.0747 345.6 11.696C345.371 11.3173 345.256 10.8587 345.256 10.32C345.256 9.74933 345.397 9.24533 345.68 8.808C345.963 8.36533 346.357 8.01867 346.864 7.768C347.371 7.51733 347.955 7.392 348.616 7.392C349.325 7.38667 349.901 7.35733 350.344 7.304C350.787 7.24533 351.165 7.16267 351.48 7.056C351.8 6.94933 352.125 6.824 352.456 6.68ZM348.616 8.376C347.939 8.376 347.437 8.56 347.112 8.928C346.792 9.29067 346.632 9.75467 346.632 10.32C346.632 10.8907 346.797 11.36 347.128 11.728C347.459 12.096 347.965 12.28 348.648 12.28C349.245 12.28 349.699 12.1067 350.008 11.76C350.323 11.4133 350.48 10.9307 350.48 10.312C350.48 9.67733 350.323 9.19733 350.008 8.872C349.699 8.54133 349.235 8.376 348.616 8.376ZM361.234 14.16C361.234 14.496 361.29 14.7413 361.402 14.896C361.514 15.0507 361.687 15.1653 361.922 15.24L361.594 16.184C361.231 16.136 360.914 16.0213 360.642 15.84C360.37 15.6533 360.172 15.3733 360.05 15C359.746 15.3893 359.367 15.6853 358.914 15.888C358.46 16.0853 357.959 16.184 357.41 16.184C356.567 16.184 355.903 15.9467 355.418 15.472C354.932 14.9973 354.69 14.368 354.69 13.584C354.69 12.7147 355.028 12.048 355.706 11.584C356.383 11.12 357.362 10.888 358.642 10.888H359.882V10.184C359.882 9.576 359.703 9.14667 359.346 8.896C358.994 8.64 358.503 8.512 357.874 8.512C357.596 8.512 357.271 8.54667 356.898 8.616C356.524 8.68 356.119 8.78933 355.682 8.944L355.33 7.928C355.847 7.736 356.332 7.6 356.786 7.52C357.239 7.44 357.671 7.4 358.082 7.4C359.132 7.4 359.919 7.64533 360.442 8.136C360.97 8.62133 361.234 9.28267 361.234 10.12V14.16ZM357.754 15.16C358.17 15.16 358.567 15.056 358.946 14.848C359.324 14.6347 359.636 14.3413 359.882 13.968V11.8H358.666C357.738 11.8 357.082 11.96 356.698 12.28C356.319 12.6 356.13 13.0293 356.13 13.568C356.13 14.0907 356.263 14.488 356.53 14.76C356.802 15.0267 357.21 15.16 357.754 15.16ZM368.564 7.4C369.31 7.4 369.905 7.58133 370.348 7.944C370.796 8.30667 371.118 8.81867 371.316 9.48C371.513 10.136 371.612 10.904 371.612 11.784C371.612 12.632 371.492 13.3893 371.252 14.056C371.017 14.7173 370.66 15.2373 370.18 15.616C369.7 15.9947 369.094 16.184 368.364 16.184C367.441 16.184 366.7 15.8587 366.14 15.208V19.224L364.796 19.392V7.576H365.94L366.052 8.752C366.361 8.32 366.729 7.98667 367.156 7.752C367.588 7.51733 368.057 7.4 368.564 7.4ZM368.244 8.48C367.78 8.48 367.369 8.62133 367.012 8.904C366.66 9.18133 366.369 9.49067 366.14 9.832V14.008C366.358 14.3333 366.633 14.592 366.964 14.784C367.3 14.9707 367.668 15.064 368.068 15.064C368.766 15.064 369.292 14.7973 369.644 14.264C369.996 13.7307 370.172 12.9013 370.172 11.776C370.172 11.04 370.102 10.4293 369.964 9.944C369.825 9.45333 369.614 9.088 369.332 8.848C369.049 8.60267 368.686 8.48 368.244 8.48ZM376.277 14.88C376.277 14.5333 376.4 14.232 376.645 13.976C376.896 13.72 377.203 13.592 377.565 13.592C377.939 13.592 378.248 13.72 378.493 13.976C378.744 14.232 378.869 14.5333 378.869 14.88C378.869 15.2427 378.744 15.552 378.493 15.808C378.248 16.0587 377.939 16.184 377.565 16.184C377.203 16.184 376.896 16.0587 376.645 15.808C376.4 15.552 376.277 15.2427 376.277 14.88ZM376.277 9.112C376.277 8.86667 376.333 8.648 376.445 8.456C376.557 8.264 376.712 8.112 376.909 8C377.107 7.88267 377.325 7.824 377.565 7.824C377.939 7.824 378.248 7.94933 378.493 8.2C378.744 8.45067 378.869 8.75467 378.869 9.112C378.869 9.464 378.744 9.77067 378.493 10.032C378.248 10.288 377.939 10.416 377.565 10.416C377.203 10.416 376.896 10.288 376.645 10.032C376.4 9.77067 376.277 9.464 376.277 9.112ZM397.945 4.984V15.68H396.601V6.44L394.073 7.976L393.489 7.016L396.769 4.984H397.945ZM400.249 14.904V16H393.889V14.904H400.249ZM406.363 4.808C407.552 4.808 408.451 5.29867 409.059 6.28C409.667 7.26133 409.97 8.664 409.97 10.488C409.97 12.3173 409.667 13.7253 409.059 14.712C408.451 15.6933 407.552 16.184 406.363 16.184C405.179 16.184 404.28 15.6933 403.667 14.712C403.059 13.7253 402.755 12.3173 402.755 10.488C402.755 8.664 403.059 7.26133 403.667 6.28C404.28 5.29867 405.179 4.808 406.363 4.808ZM406.363 5.888C405.685 5.888 405.152 6.248 404.763 6.968C404.373 7.68267 404.179 8.856 404.179 10.488C404.179 11.3147 404.221 12.0213 404.307 12.608C404.392 13.1947 404.523 13.672 404.699 14.04C404.88 14.4027 405.107 14.6693 405.379 14.84C405.656 15.0107 405.984 15.096 406.363 15.096C406.821 15.096 407.213 14.9387 407.539 14.624C407.869 14.3093 408.12 13.8133 408.291 13.136C408.467 12.4533 408.555 11.5707 408.555 10.488C408.555 9.38933 408.477 8.50133 408.323 7.824C408.173 7.14667 407.936 6.656 407.611 6.352C407.291 6.04267 406.875 5.888 406.363 5.888ZM407.987 6.28L408.339 7.456L404.835 14.552L404.339 13.616L407.987 6.28ZM416.532 7.4C417.279 7.4 417.874 7.58133 418.316 7.944C418.764 8.30667 419.087 8.81867 419.284 9.48C419.482 10.136 419.58 10.904 419.58 11.784C419.58 12.632 419.46 13.3893 419.22 14.056C418.986 14.7173 418.628 15.2373 418.148 15.616C417.668 15.9947 417.063 16.184 416.332 16.184C415.41 16.184 414.668 15.8587 414.108 15.208V19.224L412.764 19.392V7.576H413.908L414.02 8.752C414.33 8.32 414.698 7.98667 415.124 7.752C415.556 7.51733 416.026 7.4 416.532 7.4ZM416.212 8.48C415.748 8.48 415.338 8.62133 414.98 8.904C414.628 9.18133 414.338 9.49067 414.108 9.832V14.008C414.327 14.3333 414.602 14.592 414.932 14.784C415.268 14.9707 415.636 15.064 416.036 15.064C416.735 15.064 417.26 14.7973 417.612 14.264C417.964 13.7307 418.14 12.9013 418.14 11.776C418.14 11.04 418.071 10.4293 417.932 9.944C417.794 9.45333 417.583 9.088 417.3 8.848C417.018 8.60267 416.655 8.48 416.212 8.48ZM423.174 16H421.638L424.75 11.552L422.022 7.576H423.614L425.566 10.712L427.542 7.576H429.078L426.358 11.496L429.462 16H427.814L425.51 12.384L423.174 16Z" fill="#FF9500"/>
</svg>
