<svg width="550" height="325" viewBox="0 0 550 325" fill="none" xmlns="http://www.w3.org/2000/svg">
<rect y="25" width="200" height="300" rx="12" fill="#5A8EE5"/>
<rect x="65" y="60" width="70" height="70" rx="12" fill="#FF9500"/>
<rect x="65" y="140" width="70" height="70" rx="12" fill="#FF9500"/>
<rect x="65" y="220" width="70" height="70" rx="12" fill="#FF9500"/>
<path d="M4.888 3.184V12.92C4.888 13.336 5.016 13.632 5.272 13.808C5.53333 13.9787 5.86933 14.064 6.28 14.064C6.536 14.064 6.77867 14.0373 7.008 13.984C7.23733 13.9307 7.46667 13.8587 7.696 13.768L8.056 14.752C7.82667 14.864 7.54133 14.9627 7.2 15.048C6.864 15.1387 6.48267 15.184 6.056 15.184C5.30933 15.184 4.704 14.9787 4.24 14.568C3.776 14.152 3.544 13.5787 3.544 12.848V4.248H0.96V3.184H4.888ZM17.2338 13.16C17.2338 13.496 17.2898 13.7413 17.4018 13.896C17.5138 14.0507 17.6871 14.1653 17.9218 14.24L17.5938 15.184C17.2311 15.136 16.9138 15.0213 16.6418 14.84C16.3698 14.6533 16.1724 14.3733 16.0498 14C15.7458 14.3893 15.3671 14.6853 14.9138 14.888C14.4604 15.0853 13.9591 15.184 13.4098 15.184C12.5671 15.184 11.9031 14.9467 11.4178 14.472C10.9324 13.9973 10.6898 13.368 10.6898 12.584C10.6898 11.7147 11.0284 11.048 11.7057 10.584C12.3831 10.12 13.3618 9.888 14.6418 9.888H15.8818V9.184C15.8818 8.576 15.7031 8.14667 15.3458 7.896C14.9938 7.64 14.5031 7.512 13.8738 7.512C13.5964 7.512 13.2711 7.54667 12.8978 7.616C12.5244 7.68 12.1191 7.78933 11.6818 7.944L11.3298 6.928C11.8471 6.736 12.3324 6.6 12.7858 6.52C13.2391 6.44 13.6711 6.4 14.0818 6.4C15.1324 6.4 15.9191 6.64533 16.4418 7.136C16.9698 7.62133 17.2338 8.28267 17.2338 9.12V13.16ZM13.7538 14.16C14.1698 14.16 14.5671 14.056 14.9458 13.848C15.3244 13.6347 15.6364 13.3413 15.8818 12.968V10.8H14.6658C13.7378 10.8 13.0818 10.96 12.6978 11.28C12.3191 11.6 12.1298 12.0293 12.1298 12.568C12.1298 13.0907 12.2631 13.488 12.5298 13.76C12.8018 14.0267 13.2098 14.16 13.7538 14.16ZM27.8035 6.576L24.8435 15.056C24.6462 15.6267 24.3955 16.1493 24.0915 16.624C23.7928 17.0987 23.4008 17.4907 22.9155 17.8C22.4355 18.1147 21.8248 18.3093 21.0835 18.384L20.8755 17.312C21.4568 17.216 21.9155 17.0693 22.2515 16.872C22.5875 16.6747 22.8515 16.4213 23.0435 16.112C23.2408 15.8027 23.4142 15.432 23.5635 15H23.1155L20.1715 6.576H21.6115L24.0275 13.976L26.4115 6.576H27.8035ZM33.5973 6.4C34.3919 6.4 35.0559 6.58133 35.5893 6.944C36.1279 7.30133 36.5306 7.808 36.7973 8.464C37.0693 9.12 37.2053 9.89333 37.2053 10.784C37.2053 11.6427 37.0666 12.4027 36.7893 13.064C36.5119 13.7253 36.1039 14.2453 35.5653 14.624C35.0319 14.9973 34.3706 15.184 33.5813 15.184C32.7919 15.184 32.1279 15.0027 31.5893 14.64C31.0506 14.2773 30.6426 13.768 30.3653 13.112C30.0933 12.4507 29.9572 11.68 29.9572 10.8C29.9572 9.93067 30.0959 9.16533 30.3733 8.504C30.6506 7.84267 31.0586 7.328 31.5973 6.96C32.1413 6.58667 32.8079 6.4 33.5973 6.4ZM33.5973 7.496C32.8719 7.496 32.3226 7.76533 31.9493 8.304C31.5813 8.83733 31.3973 9.66933 31.3973 10.8C31.3973 11.9093 31.5786 12.7333 31.9413 13.272C32.3093 13.8107 32.8559 14.08 33.5813 14.08C34.3066 14.08 34.8506 13.8107 35.2133 13.272C35.5813 12.7333 35.7653 11.904 35.7653 10.784C35.7653 9.664 35.5839 8.83733 35.2213 8.304C34.8586 7.76533 34.3173 7.496 33.5973 7.496ZM41.327 6.576V12.544C41.327 13.0987 41.4417 13.4987 41.671 13.744C41.9003 13.9893 42.2577 14.112 42.743 14.112C43.207 14.112 43.6443 13.9813 44.055 13.72C44.471 13.4533 44.7937 13.1387 45.023 12.776V6.576H46.367V15H45.223L45.111 13.864C44.7803 14.2907 44.3723 14.6187 43.887 14.848C43.4017 15.072 42.911 15.184 42.415 15.184C41.599 15.184 40.9883 14.968 40.583 14.536C40.183 14.0987 39.983 13.488 39.983 12.704V6.576H41.327ZM56.2648 14.576C55.9768 14.768 55.6274 14.9173 55.2168 15.024C54.8061 15.1307 54.4034 15.184 54.0088 15.184C53.1021 15.184 52.4034 14.9467 51.9128 14.472C51.4221 13.9973 51.1768 13.3867 51.1768 12.64V7.616H49.2408V6.576H51.1768V4.664L52.5208 4.504V6.576H55.4328L55.2728 7.616H52.5208V12.624C52.5208 13.0933 52.6434 13.4507 52.8888 13.696C53.1394 13.9413 53.5528 14.064 54.1288 14.064C54.4434 14.064 54.7341 14.0267 55.0008 13.952C55.2674 13.8773 55.5154 13.7813 55.7448 13.664L56.2648 14.576ZM59.1545 11.216V10.048H65.5705V11.216H59.1545ZM75.4523 14.576C75.1643 14.768 74.8149 14.9173 74.4043 15.024C73.9936 15.1307 73.5909 15.184 73.1963 15.184C72.2896 15.184 71.5909 14.9467 71.1003 14.472C70.6096 13.9973 70.3643 13.3867 70.3643 12.64V7.616H68.4283V6.576H70.3643V4.664L71.7083 4.504V6.576H74.6203L74.4603 7.616H71.7083V12.624C71.7083 13.0933 71.8309 13.4507 72.0763 13.696C72.3269 13.9413 72.7403 14.064 73.3163 14.064C73.6309 14.064 73.9216 14.0267 74.1883 13.952C74.4549 13.8773 74.7029 13.7813 74.9323 13.664L75.4523 14.576ZM85.366 6.576L82.406 15.056C82.2087 15.6267 81.958 16.1493 81.654 16.624C81.3553 17.0987 80.9633 17.4907 80.478 17.8C79.998 18.1147 79.3873 18.3093 78.646 18.384L78.438 17.312C79.0193 17.216 79.478 17.0693 79.814 16.872C80.15 16.6747 80.414 16.4213 80.606 16.112C80.8033 15.8027 80.9767 15.432 81.126 15H80.678L77.734 6.576H79.174L81.59 13.976L83.974 6.576H85.366ZM91.7198 6.4C92.4664 6.4 93.0611 6.58133 93.5038 6.944C93.9518 7.30667 94.2744 7.81867 94.4718 8.48C94.6691 9.136 94.7678 9.904 94.7678 10.784C94.7678 11.632 94.6478 12.3893 94.4078 13.056C94.1731 13.7173 93.8158 14.2373 93.3358 14.616C92.8558 14.9947 92.2504 15.184 91.5198 15.184C90.5971 15.184 89.8558 14.8587 89.2958 14.208V18.224L87.9518 18.392V6.576H89.0958L89.2078 7.752C89.5171 7.32 89.8851 6.98667 90.3118 6.752C90.7438 6.51733 91.2131 6.4 91.7198 6.4ZM91.3998 7.48C90.9358 7.48 90.5251 7.62133 90.1678 7.904C89.8158 8.18133 89.5251 8.49067 89.2958 8.832V13.008C89.5144 13.3333 89.7891 13.592 90.1198 13.784C90.4558 13.9707 90.8238 14.064 91.2238 14.064C91.9224 14.064 92.4478 13.7973 92.7998 13.264C93.1518 12.7307 93.3278 11.9013 93.3278 10.776C93.3278 10.04 93.2584 9.42933 93.1198 8.944C92.9811 8.45333 92.7704 8.088 92.4878 7.848C92.2051 7.60267 91.8424 7.48 91.3998 7.48ZM98.6015 11.264C98.6282 11.9147 98.7535 12.448 98.9775 12.864C99.2015 13.2747 99.4975 13.5787 99.8655 13.776C100.234 13.968 100.634 14.064 101.066 14.064C101.498 14.064 101.887 14 102.234 13.872C102.586 13.744 102.946 13.5547 103.314 13.304L103.946 14.192C103.551 14.5013 103.1 14.744 102.594 14.92C102.092 15.096 101.578 15.184 101.05 15.184C100.234 15.184 99.5375 15 98.9615 14.632C98.3855 14.264 97.9455 13.752 97.6415 13.096C97.3428 12.4347 97.1935 11.6693 97.1935 10.8C97.1935 9.94667 97.3455 9.18933 97.6495 8.528C97.9535 7.86667 98.3802 7.34667 98.9295 6.968C99.4788 6.58933 100.127 6.4 100.874 6.4C101.583 6.4 102.194 6.568 102.706 6.904C103.218 7.23467 103.61 7.70933 103.882 8.328C104.159 8.94133 104.298 9.67467 104.298 10.528C104.298 10.672 104.295 10.808 104.29 10.936C104.284 11.0587 104.276 11.168 104.266 11.264H98.6015ZM100.89 7.504C100.266 7.504 99.7428 7.72533 99.3215 8.168C98.9055 8.61067 98.6682 9.296 98.6095 10.224H103.002C102.986 9.32267 102.788 8.64533 102.41 8.192C102.031 7.73333 101.524 7.504 100.89 7.504ZM109.027 13.88C109.027 13.5333 109.15 13.232 109.395 12.976C109.646 12.72 109.953 12.592 110.315 12.592C110.689 12.592 110.998 12.72 111.243 12.976C111.494 13.232 111.619 13.5333 111.619 13.88C111.619 14.2427 111.494 14.552 111.243 14.808C110.998 15.0587 110.689 15.184 110.315 15.184C109.953 15.184 109.646 15.0587 109.395 14.808C109.15 14.552 109.027 14.2427 109.027 13.88ZM109.027 8.112C109.027 7.86667 109.083 7.648 109.195 7.456C109.307 7.264 109.462 7.112 109.659 7C109.857 6.88267 110.075 6.824 110.315 6.824C110.689 6.824 110.998 6.94933 111.243 7.2C111.494 7.45067 111.619 7.75467 111.619 8.112C111.619 8.464 111.494 8.77067 111.243 9.032C110.998 9.288 110.689 9.416 110.315 9.416C109.953 9.416 109.646 9.288 109.395 9.032C109.15 8.77067 109.027 8.464 109.027 8.112ZM130.135 14.024C130.556 14.024 130.948 13.9547 131.311 13.816C131.679 13.6773 132.017 13.5013 132.327 13.288L132.983 14.168C132.615 14.4827 132.172 14.7307 131.655 14.912C131.137 15.0933 130.631 15.184 130.135 15.184C129.297 15.184 128.583 15.0053 127.991 14.648C127.404 14.2853 126.956 13.7787 126.647 13.128C126.337 12.472 126.183 11.704 126.183 10.824C126.183 9.98133 126.337 9.22667 126.647 8.56C126.961 7.888 127.412 7.36 127.999 6.976C128.591 6.592 129.308 6.4 130.151 6.4C130.689 6.4 131.193 6.48267 131.663 6.648C132.137 6.808 132.572 7.05067 132.967 7.376L132.311 8.272C131.953 8.02133 131.593 7.83467 131.231 7.712C130.873 7.584 130.508 7.52 130.135 7.52C129.409 7.52 128.812 7.792 128.343 8.336C127.873 8.88 127.639 9.70933 127.639 10.824C127.639 11.5707 127.745 12.1813 127.959 12.656C128.177 13.1253 128.473 13.472 128.847 13.696C129.225 13.9147 129.655 14.024 130.135 14.024ZM139.129 6.4C139.923 6.4 140.587 6.58133 141.121 6.944C141.659 7.30133 142.062 7.808 142.329 8.464C142.601 9.12 142.737 9.89333 142.737 10.784C142.737 11.6427 142.598 12.4027 142.321 13.064C142.043 13.7253 141.635 14.2453 141.097 14.624C140.563 14.9973 139.902 15.184 139.113 15.184C138.323 15.184 137.659 15.0027 137.121 14.64C136.582 14.2773 136.174 13.768 135.897 13.112C135.625 12.4507 135.488 11.68 135.488 10.8C135.488 9.93067 135.627 9.16533 135.905 8.504C136.182 7.84267 136.59 7.328 137.129 6.96C137.673 6.58667 138.339 6.4 139.129 6.4ZM139.129 7.496C138.403 7.496 137.854 7.76533 137.481 8.304C137.113 8.83733 136.929 9.66933 136.929 10.8C136.929 11.9093 137.11 12.7333 137.473 13.272C137.841 13.8107 138.387 14.08 139.113 14.08C139.838 14.08 140.382 13.8107 140.745 13.272C141.113 12.7333 141.297 11.904 141.297 10.784C141.297 9.664 141.115 8.83733 140.753 8.304C140.39 7.76533 139.849 7.496 139.129 7.496ZM148.794 3.184V12.92C148.794 13.336 148.922 13.632 149.178 13.808C149.44 13.9787 149.776 14.064 150.186 14.064C150.442 14.064 150.685 14.0373 150.914 13.984C151.144 13.9307 151.373 13.8587 151.602 13.768L151.962 14.752C151.733 14.864 151.448 14.9627 151.106 15.048C150.77 15.1387 150.389 15.184 149.962 15.184C149.216 15.184 148.61 14.9787 148.146 14.568C147.682 14.152 147.45 13.5787 147.45 12.848V4.248H144.866V3.184H148.794ZM156.452 6.576V12.544C156.452 13.0987 156.567 13.4987 156.796 13.744C157.025 13.9893 157.383 14.112 157.868 14.112C158.332 14.112 158.769 13.9813 159.18 13.72C159.596 13.4533 159.919 13.1387 160.148 12.776V6.576H161.492V15H160.348L160.236 13.864C159.905 14.2907 159.497 14.6187 159.012 14.848C158.527 15.072 158.036 15.184 157.54 15.184C156.724 15.184 156.113 14.968 155.708 14.536C155.308 14.0987 155.108 13.488 155.108 12.704V6.576H156.452ZM170.254 6.4C170.526 6.4 170.784 6.45867 171.03 6.576C171.28 6.69333 171.486 6.92 171.646 7.256C171.806 7.592 171.886 8.08267 171.886 8.728V15H170.638V8.944C170.638 8.416 170.606 8.03467 170.542 7.8C170.478 7.56533 170.294 7.448 169.99 7.448C169.739 7.448 169.488 7.528 169.238 7.688C168.992 7.84267 168.752 8.09867 168.518 8.456V15H167.262V8.944C167.262 8.416 167.23 8.03467 167.166 7.8C167.102 7.56533 166.918 7.448 166.614 7.448C166.352 7.448 166.099 7.528 165.854 7.688C165.614 7.84267 165.376 8.09867 165.142 8.456V15H163.902V6.576H164.958L165.038 7.552C165.267 7.22667 165.523 6.95467 165.806 6.736C166.094 6.512 166.448 6.4 166.87 6.4C167.19 6.4 167.491 6.47733 167.774 6.632C168.056 6.78133 168.264 7.07467 168.398 7.512C168.627 7.18133 168.886 6.91467 169.174 6.712C169.462 6.504 169.822 6.4 170.254 6.4ZM174.296 15V6.576H175.44L175.544 7.744C175.885 7.312 176.312 6.98133 176.824 6.752C177.341 6.51733 177.842 6.4 178.328 6.4C179.154 6.4 179.754 6.61867 180.128 7.056C180.506 7.49333 180.696 8.10133 180.696 8.88V15H179.352V9.872C179.352 9.296 179.32 8.832 179.256 8.48C179.192 8.12267 179.058 7.864 178.856 7.704C178.653 7.53867 178.338 7.456 177.912 7.456C177.581 7.456 177.269 7.528 176.976 7.672C176.688 7.816 176.429 7.99733 176.2 8.216C175.976 8.42933 175.789 8.64533 175.64 8.864V15H174.296Z" fill="#FF9500"/>
<rect x="250" y="25" width="300" height="200" rx="12" fill="#5A8EE5"/>
<rect x="285" y="90" width="70" height="70" rx="12" fill="#FF9500"/>
<rect x="365" y="90" width="70" height="70" rx="12" fill="#FF9500"/>
<rect x="445" y="90" width="70" height="70" rx="12" fill="#FF9500"/>
<path d="M254.888 3.184V12.92C254.888 13.336 255.016 13.632 255.272 13.808C255.533 13.9787 255.869 14.064 256.28 14.064C256.536 14.064 256.779 14.0373 257.008 13.984C257.237 13.9307 257.467 13.8587 257.696 13.768L258.056 14.752C257.827 14.864 257.541 14.9627 257.2 15.048C256.864 15.1387 256.483 15.184 256.056 15.184C255.309 15.184 254.704 14.9787 254.24 14.568C253.776 14.152 253.544 13.5787 253.544 12.848V4.248H250.96V3.184H254.888ZM267.234 13.16C267.234 13.496 267.29 13.7413 267.402 13.896C267.514 14.0507 267.687 14.1653 267.922 14.24L267.594 15.184C267.231 15.136 266.914 15.0213 266.642 14.84C266.37 14.6533 266.172 14.3733 266.05 14C265.746 14.3893 265.367 14.6853 264.914 14.888C264.46 15.0853 263.959 15.184 263.41 15.184C262.567 15.184 261.903 14.9467 261.418 14.472C260.932 13.9973 260.69 13.368 260.69 12.584C260.69 11.7147 261.028 11.048 261.706 10.584C262.383 10.12 263.362 9.888 264.642 9.888H265.882V9.184C265.882 8.576 265.703 8.14667 265.346 7.896C264.994 7.64 264.503 7.512 263.874 7.512C263.596 7.512 263.271 7.54667 262.898 7.616C262.524 7.68 262.119 7.78933 261.682 7.944L261.33 6.928C261.847 6.736 262.332 6.6 262.786 6.52C263.239 6.44 263.671 6.4 264.082 6.4C265.132 6.4 265.919 6.64533 266.442 7.136C266.97 7.62133 267.234 8.28267 267.234 9.12V13.16ZM263.754 14.16C264.17 14.16 264.567 14.056 264.946 13.848C265.324 13.6347 265.636 13.3413 265.882 12.968V10.8H264.666C263.738 10.8 263.082 10.96 262.698 11.28C262.319 11.6 262.13 12.0293 262.13 12.568C262.13 13.0907 262.263 13.488 262.53 13.76C262.802 14.0267 263.21 14.16 263.754 14.16ZM277.804 6.576L274.844 15.056C274.646 15.6267 274.396 16.1493 274.092 16.624C273.793 17.0987 273.401 17.4907 272.916 17.8C272.436 18.1147 271.825 18.3093 271.084 18.384L270.876 17.312C271.457 17.216 271.916 17.0693 272.252 16.872C272.588 16.6747 272.852 16.4213 273.044 16.112C273.241 15.8027 273.414 15.432 273.564 15H273.116L270.172 6.576H271.612L274.028 13.976L276.412 6.576H277.804ZM283.597 6.4C284.392 6.4 285.056 6.58133 285.589 6.944C286.128 7.30133 286.531 7.808 286.797 8.464C287.069 9.12 287.205 9.89333 287.205 10.784C287.205 11.6427 287.067 12.4027 286.789 13.064C286.512 13.7253 286.104 14.2453 285.565 14.624C285.032 14.9973 284.371 15.184 283.581 15.184C282.792 15.184 282.128 15.0027 281.589 14.64C281.051 14.2773 280.643 13.768 280.365 13.112C280.093 12.4507 279.957 11.68 279.957 10.8C279.957 9.93067 280.096 9.16533 280.373 8.504C280.651 7.84267 281.059 7.328 281.597 6.96C282.141 6.58667 282.808 6.4 283.597 6.4ZM283.597 7.496C282.872 7.496 282.323 7.76533 281.949 8.304C281.581 8.83733 281.397 9.66933 281.397 10.8C281.397 11.9093 281.579 12.7333 281.941 13.272C282.309 13.8107 282.856 14.08 283.581 14.08C284.307 14.08 284.851 13.8107 285.213 13.272C285.581 12.7333 285.765 11.904 285.765 10.784C285.765 9.664 285.584 8.83733 285.221 8.304C284.859 7.76533 284.317 7.496 283.597 7.496ZM291.327 6.576V12.544C291.327 13.0987 291.442 13.4987 291.671 13.744C291.9 13.9893 292.258 14.112 292.743 14.112C293.207 14.112 293.644 13.9813 294.055 13.72C294.471 13.4533 294.794 13.1387 295.023 12.776V6.576H296.367V15H295.223L295.111 13.864C294.78 14.2907 294.372 14.6187 293.887 14.848C293.402 15.072 292.911 15.184 292.415 15.184C291.599 15.184 290.988 14.968 290.583 14.536C290.183 14.0987 289.983 13.488 289.983 12.704V6.576H291.327ZM306.265 14.576C305.977 14.768 305.627 14.9173 305.217 15.024C304.806 15.1307 304.403 15.184 304.009 15.184C303.102 15.184 302.403 14.9467 301.913 14.472C301.422 13.9973 301.177 13.3867 301.177 12.64V7.616H299.241V6.576H301.177V4.664L302.521 4.504V6.576H305.433L305.273 7.616H302.521V12.624C302.521 13.0933 302.643 13.4507 302.889 13.696C303.139 13.9413 303.553 14.064 304.129 14.064C304.443 14.064 304.734 14.0267 305.001 13.952C305.267 13.8773 305.515 13.7813 305.745 13.664L306.265 14.576ZM309.155 11.216V10.048H315.571V11.216H309.155ZM325.452 14.576C325.164 14.768 324.815 14.9173 324.404 15.024C323.994 15.1307 323.591 15.184 323.196 15.184C322.29 15.184 321.591 14.9467 321.1 14.472C320.61 13.9973 320.364 13.3867 320.364 12.64V7.616H318.428V6.576H320.364V4.664L321.708 4.504V6.576H324.62L324.46 7.616H321.708V12.624C321.708 13.0933 321.831 13.4507 322.076 13.696C322.327 13.9413 322.74 14.064 323.316 14.064C323.631 14.064 323.922 14.0267 324.188 13.952C324.455 13.8773 324.703 13.7813 324.932 13.664L325.452 14.576ZM335.366 6.576L332.406 15.056C332.209 15.6267 331.958 16.1493 331.654 16.624C331.355 17.0987 330.963 17.4907 330.478 17.8C329.998 18.1147 329.387 18.3093 328.646 18.384L328.438 17.312C329.019 17.216 329.478 17.0693 329.814 16.872C330.15 16.6747 330.414 16.4213 330.606 16.112C330.803 15.8027 330.977 15.432 331.126 15H330.678L327.734 6.576H329.174L331.59 13.976L333.974 6.576H335.366ZM341.72 6.4C342.466 6.4 343.061 6.58133 343.504 6.944C343.952 7.30667 344.274 7.81867 344.472 8.48C344.669 9.136 344.768 9.904 344.768 10.784C344.768 11.632 344.648 12.3893 344.408 13.056C344.173 13.7173 343.816 14.2373 343.336 14.616C342.856 14.9947 342.25 15.184 341.52 15.184C340.597 15.184 339.856 14.8587 339.296 14.208V18.224L337.952 18.392V6.576H339.096L339.208 7.752C339.517 7.32 339.885 6.98667 340.312 6.752C340.744 6.51733 341.213 6.4 341.72 6.4ZM341.4 7.48C340.936 7.48 340.525 7.62133 340.168 7.904C339.816 8.18133 339.525 8.49067 339.296 8.832V13.008C339.514 13.3333 339.789 13.592 340.12 13.784C340.456 13.9707 340.824 14.064 341.224 14.064C341.922 14.064 342.448 13.7973 342.8 13.264C343.152 12.7307 343.328 11.9013 343.328 10.776C343.328 10.04 343.258 9.42933 343.12 8.944C342.981 8.45333 342.77 8.088 342.488 7.848C342.205 7.60267 341.842 7.48 341.4 7.48ZM348.602 11.264C348.628 11.9147 348.754 12.448 348.978 12.864C349.202 13.2747 349.498 13.5787 349.866 13.776C350.234 13.968 350.634 14.064 351.066 14.064C351.498 14.064 351.887 14 352.234 13.872C352.586 13.744 352.946 13.5547 353.314 13.304L353.946 14.192C353.551 14.5013 353.1 14.744 352.594 14.92C352.092 15.096 351.578 15.184 351.05 15.184C350.234 15.184 349.538 15 348.962 14.632C348.386 14.264 347.946 13.752 347.642 13.096C347.343 12.4347 347.194 11.6693 347.194 10.8C347.194 9.94667 347.346 9.18933 347.65 8.528C347.954 7.86667 348.38 7.34667 348.93 6.968C349.479 6.58933 350.127 6.4 350.874 6.4C351.583 6.4 352.194 6.568 352.706 6.904C353.218 7.23467 353.61 7.70933 353.882 8.328C354.159 8.94133 354.298 9.67467 354.298 10.528C354.298 10.672 354.295 10.808 354.29 10.936C354.284 11.0587 354.276 11.168 354.266 11.264H348.602ZM350.89 7.504C350.266 7.504 349.743 7.72533 349.322 8.168C348.906 8.61067 348.668 9.296 348.61 10.224H353.002C352.986 9.32267 352.788 8.64533 352.41 8.192C352.031 7.73333 351.524 7.504 350.89 7.504ZM359.027 13.88C359.027 13.5333 359.15 13.232 359.395 12.976C359.646 12.72 359.953 12.592 360.315 12.592C360.689 12.592 360.998 12.72 361.243 12.976C361.494 13.232 361.619 13.5333 361.619 13.88C361.619 14.2427 361.494 14.552 361.243 14.808C360.998 15.0587 360.689 15.184 360.315 15.184C359.953 15.184 359.646 15.0587 359.395 14.808C359.15 14.552 359.027 14.2427 359.027 13.88ZM359.027 8.112C359.027 7.86667 359.083 7.648 359.195 7.456C359.307 7.264 359.462 7.112 359.659 7C359.857 6.88267 360.075 6.824 360.315 6.824C360.689 6.824 360.998 6.94933 361.243 7.2C361.494 7.45067 361.619 7.75467 361.619 8.112C361.619 8.464 361.494 8.77067 361.243 9.032C360.998 9.288 360.689 9.416 360.315 9.416C359.953 9.416 359.646 9.288 359.395 9.032C359.15 8.77067 359.027 8.464 359.027 8.112ZM376.407 15V13.968H377.719V7.608H376.407V6.576H378.743L378.991 8.568C379.316 7.87467 379.711 7.33867 380.175 6.96C380.639 6.58133 381.252 6.392 382.015 6.392C382.249 6.392 382.457 6.41067 382.639 6.448C382.825 6.48 383.015 6.52267 383.207 6.576L382.815 7.776C382.639 7.728 382.479 7.69333 382.335 7.672C382.191 7.64533 382.025 7.632 381.839 7.632C381.193 7.632 380.639 7.86133 380.175 8.32C379.711 8.77867 379.34 9.472 379.063 10.4V13.968H380.775V15H376.407ZM381.911 9.424V7.592L382.047 6.576H383.207L383.015 9.424H381.911ZM389.129 6.4C389.923 6.4 390.587 6.58133 391.121 6.944C391.659 7.30133 392.062 7.808 392.329 8.464C392.601 9.12 392.737 9.89333 392.737 10.784C392.737 11.6427 392.598 12.4027 392.321 13.064C392.043 13.7253 391.635 14.2453 391.097 14.624C390.563 14.9973 389.902 15.184 389.113 15.184C388.323 15.184 387.659 15.0027 387.121 14.64C386.582 14.2773 386.174 13.768 385.897 13.112C385.625 12.4507 385.488 11.68 385.488 10.8C385.488 9.93067 385.627 9.16533 385.905 8.504C386.182 7.84267 386.59 7.328 387.129 6.96C387.673 6.58667 388.339 6.4 389.129 6.4ZM389.129 7.496C388.403 7.496 387.854 7.76533 387.481 8.304C387.113 8.83733 386.929 9.66933 386.929 10.8C386.929 11.9093 387.11 12.7333 387.473 13.272C387.841 13.8107 388.387 14.08 389.113 14.08C389.838 14.08 390.382 13.8107 390.745 13.272C391.113 12.7333 391.297 11.904 391.297 10.784C391.297 9.664 391.115 8.83733 390.753 8.304C390.39 7.76533 389.849 7.496 389.129 7.496ZM401.754 15H399.85L398.762 8.816L397.578 15H395.722L394.186 6.576H395.562L396.634 14.168L397.978 7.648H399.57L400.842 14.168L401.914 6.576H403.226L401.754 15Z" fill="#FF9500"/>
</svg>
