<svg width="648" height="226" viewBox="0 0 648 226" fill="none" xmlns="http://www.w3.org/2000/svg">
<rect y="26" width="300" height="200" rx="12" fill="#5A8EE5"/>
<rect x="50" y="91" width="200" height="70" rx="12" fill="#FF9500"/>
<path d="M7.848 16H5.944L4.856 9.816L3.672 16H1.816L0.28 7.576H1.656L2.728 15.168L4.072 8.648H5.664L6.936 15.168L8.008 7.576H9.32L7.848 16ZM15.4658 7.576V14.936H17.8418V16H11.5218V14.936H14.1218V8.64H11.6018V7.576H15.4658ZM14.3938 3.632C14.6924 3.632 14.9298 3.72267 15.1058 3.904C15.2871 4.08533 15.3778 4.30667 15.3778 4.568C15.3778 4.84 15.2871 5.06933 15.1058 5.256C14.9298 5.43733 14.6924 5.528 14.3938 5.528C14.1111 5.528 13.8791 5.43733 13.6978 5.256C13.5164 5.06933 13.4258 4.84 13.4258 4.568C13.4258 4.30667 13.5164 4.08533 13.6978 3.904C13.8791 3.72267 14.1111 3.632 14.3938 3.632ZM25.8355 4.016L27.1795 4.184V16H26.0035L25.8755 14.888C25.5608 15.336 25.1982 15.664 24.7875 15.872C24.3822 16.08 23.9475 16.184 23.4835 16.184C22.7528 16.184 22.1502 16 21.6755 15.632C21.2008 15.264 20.8488 14.752 20.6195 14.096C20.3902 13.4347 20.2755 12.6693 20.2755 11.8C20.2755 10.9573 20.4062 10.2053 20.6675 9.544C20.9288 8.87733 21.3048 8.35467 21.7955 7.976C22.2915 7.592 22.8862 7.4 23.5795 7.4C24.0648 7.4 24.4915 7.48533 24.8595 7.656C25.2275 7.82133 25.5528 8.06667 25.8355 8.392V4.016ZM23.9315 8.48C23.2275 8.48 22.6862 8.75467 22.3075 9.304C21.9288 9.85333 21.7395 10.6853 21.7395 11.8C21.7395 12.5253 21.8168 13.1333 21.9715 13.624C22.1262 14.1147 22.3528 14.4827 22.6515 14.728C22.9555 14.9733 23.3262 15.096 23.7635 15.096C24.2435 15.096 24.6515 14.96 24.9875 14.688C25.3288 14.416 25.6115 14.1093 25.8355 13.768V9.56C25.6062 9.21867 25.3288 8.95467 25.0035 8.768C24.6782 8.576 24.3208 8.48 23.9315 8.48ZM37.0773 15.576C36.7893 15.768 36.4399 15.9173 36.0293 16.024C35.6186 16.1307 35.2159 16.184 34.8213 16.184C33.9146 16.184 33.2159 15.9467 32.7253 15.472C32.2346 14.9973 31.9893 14.3867 31.9893 13.64V8.616H30.0533V7.576H31.9893V5.664L33.3333 5.504V7.576H36.2453L36.0853 8.616H33.3333V13.624C33.3333 14.0933 33.4559 14.4507 33.7013 14.696C33.9519 14.9413 34.3653 15.064 34.9413 15.064C35.2559 15.064 35.5466 15.0267 35.8133 14.952C36.0799 14.8773 36.3279 14.7813 36.5573 14.664L37.0773 15.576ZM41.327 4.056V8.728C41.6577 8.28533 42.063 7.95467 42.543 7.736C43.0283 7.512 43.519 7.4 44.015 7.4C44.8363 7.4 45.4363 7.61867 45.815 8.056C46.1937 8.49333 46.383 9.10133 46.383 9.88V16H45.039V9.912C45.039 9.40533 44.9217 9.03733 44.687 8.808C44.4523 8.57333 44.0843 8.456 43.583 8.456C43.263 8.456 42.959 8.528 42.671 8.672C42.383 8.816 42.1243 8.99467 41.895 9.208C41.6657 9.42133 41.4763 9.64 41.327 9.864V16H39.983V4.2L41.327 4.056ZM51.4648 14.88C51.4648 14.5333 51.5874 14.232 51.8328 13.976C52.0834 13.72 52.3901 13.592 52.7528 13.592C53.1261 13.592 53.4354 13.72 53.6808 13.976C53.9314 14.232 54.0568 14.5333 54.0568 14.88C54.0568 15.2427 53.9314 15.552 53.6808 15.808C53.4354 16.0587 53.1261 16.184 52.7528 16.184C52.3901 16.184 52.0834 16.0587 51.8328 15.808C51.5874 15.552 51.4648 15.2427 51.4648 14.88ZM51.4648 9.112C51.4648 8.86667 51.5208 8.648 51.6328 8.456C51.7448 8.264 51.8994 8.112 52.0968 8C52.2941 7.88267 52.5128 7.824 52.7528 7.824C53.1261 7.824 53.4354 7.94933 53.6808 8.2C53.9314 8.45067 54.0568 8.75467 54.0568 9.112C54.0568 9.464 53.9314 9.77067 53.6808 10.032C53.4354 10.288 53.1261 10.416 52.7528 10.416C52.3901 10.416 52.0834 10.288 51.8328 10.032C51.5874 9.77067 51.4648 9.464 51.4648 9.112ZM73.1323 4.984V15.68H71.7883V6.44L69.2603 7.976L68.6763 7.016L71.9563 4.984H73.1323ZM75.4363 14.904V16H69.0763V14.904H75.4363ZM81.222 15.072C81.8673 15.072 82.3767 14.952 82.75 14.712C83.1287 14.4667 83.318 14.1413 83.318 13.736C83.318 13.48 83.27 13.2587 83.174 13.072C83.0833 12.8853 82.894 12.7173 82.606 12.568C82.318 12.4187 81.8753 12.2693 81.278 12.12C80.6967 11.976 80.19 11.8107 79.758 11.624C79.3313 11.432 78.998 11.184 78.758 10.88C78.5233 10.576 78.406 10.1813 78.406 9.696C78.406 9.22133 78.5393 8.81333 78.806 8.472C79.078 8.12533 79.454 7.86133 79.934 7.68C80.414 7.49333 80.9713 7.4 81.606 7.4C82.2833 7.4 82.8727 7.49067 83.374 7.672C83.8807 7.848 84.31 8.06667 84.662 8.328L84.07 9.24C83.75 9.02133 83.398 8.84267 83.014 8.704C82.63 8.56 82.166 8.488 81.622 8.488C80.9607 8.488 80.4913 8.592 80.214 8.8C79.9367 9.00267 79.798 9.26667 79.798 9.592C79.798 9.83733 79.8647 10.0427 79.998 10.208C80.1367 10.368 80.3687 10.5147 80.694 10.648C81.0193 10.776 81.4673 10.9173 82.038 11.072C82.5873 11.216 83.0647 11.3893 83.47 11.592C83.8807 11.7947 84.2007 12.0613 84.43 12.392C84.6593 12.7227 84.774 13.1493 84.774 13.672C84.774 14.2693 84.6033 14.7547 84.262 15.128C83.9207 15.496 83.478 15.7653 82.934 15.936C82.3953 16.1013 81.8247 16.184 81.222 16.184C80.4593 16.184 79.8087 16.0747 79.27 15.856C78.7367 15.632 78.2887 15.3627 77.926 15.048L78.694 14.16C79.0247 14.432 79.4033 14.6533 79.83 14.824C80.262 14.9893 80.726 15.072 81.222 15.072Z" fill="#FF9500"/>
<rect x="348" y="26" width="300" height="200" rx="12" fill="#5A8EE5"/>
<rect x="448" y="91" width="100" height="70" rx="12" fill="#FF9500"/>
<path d="M355.848 16H353.944L352.856 9.816L351.672 16H349.816L348.28 7.576H349.656L350.728 15.168L352.072 8.648H353.664L354.936 15.168L356.008 7.576H357.32L355.848 16ZM363.466 7.576V14.936H365.842V16H359.522V14.936H362.122V8.64H359.602V7.576H363.466ZM362.394 3.632C362.692 3.632 362.93 3.72267 363.106 3.904C363.287 4.08533 363.378 4.30667 363.378 4.568C363.378 4.84 363.287 5.06933 363.106 5.256C362.93 5.43733 362.692 5.528 362.394 5.528C362.111 5.528 361.879 5.43733 361.698 5.256C361.516 5.06933 361.426 4.84 361.426 4.568C361.426 4.30667 361.516 4.08533 361.698 3.904C361.879 3.72267 362.111 3.632 362.394 3.632ZM373.836 4.016L375.18 4.184V16H374.004L373.876 14.888C373.561 15.336 373.198 15.664 372.788 15.872C372.382 16.08 371.948 16.184 371.484 16.184C370.753 16.184 370.15 16 369.676 15.632C369.201 15.264 368.849 14.752 368.62 14.096C368.39 13.4347 368.276 12.6693 368.276 11.8C368.276 10.9573 368.406 10.2053 368.668 9.544C368.929 8.87733 369.305 8.35467 369.796 7.976C370.292 7.592 370.886 7.4 371.58 7.4C372.065 7.4 372.492 7.48533 372.86 7.656C373.228 7.82133 373.553 8.06667 373.836 8.392V4.016ZM371.932 8.48C371.228 8.48 370.686 8.75467 370.308 9.304C369.929 9.85333 369.74 10.6853 369.74 11.8C369.74 12.5253 369.817 13.1333 369.972 13.624C370.126 14.1147 370.353 14.4827 370.652 14.728C370.956 14.9733 371.326 15.096 371.764 15.096C372.244 15.096 372.652 14.96 372.988 14.688C373.329 14.416 373.612 14.1093 373.836 13.768V9.56C373.606 9.21867 373.329 8.95467 373.004 8.768C372.678 8.576 372.321 8.48 371.932 8.48ZM385.077 15.576C384.789 15.768 384.44 15.9173 384.029 16.024C383.619 16.1307 383.216 16.184 382.821 16.184C381.915 16.184 381.216 15.9467 380.725 15.472C380.235 14.9973 379.989 14.3867 379.989 13.64V8.616H378.053V7.576H379.989V5.664L381.333 5.504V7.576H384.245L384.085 8.616H381.333V13.624C381.333 14.0933 381.456 14.4507 381.701 14.696C381.952 14.9413 382.365 15.064 382.941 15.064C383.256 15.064 383.547 15.0267 383.813 14.952C384.08 14.8773 384.328 14.7813 384.557 14.664L385.077 15.576ZM389.327 4.056V8.728C389.658 8.28533 390.063 7.95467 390.543 7.736C391.028 7.512 391.519 7.4 392.015 7.4C392.836 7.4 393.436 7.61867 393.815 8.056C394.194 8.49333 394.383 9.10133 394.383 9.88V16H393.039V9.912C393.039 9.40533 392.922 9.03733 392.687 8.808C392.452 8.57333 392.084 8.456 391.583 8.456C391.263 8.456 390.959 8.528 390.671 8.672C390.383 8.816 390.124 8.99467 389.895 9.208C389.666 9.42133 389.476 9.64 389.327 9.864V16H387.983V4.2L389.327 4.056ZM399.465 14.88C399.465 14.5333 399.587 14.232 399.833 13.976C400.083 13.72 400.39 13.592 400.753 13.592C401.126 13.592 401.435 13.72 401.681 13.976C401.931 14.232 402.057 14.5333 402.057 14.88C402.057 15.2427 401.931 15.552 401.681 15.808C401.435 16.0587 401.126 16.184 400.753 16.184C400.39 16.184 400.083 16.0587 399.833 15.808C399.587 15.552 399.465 15.2427 399.465 14.88ZM399.465 9.112C399.465 8.86667 399.521 8.648 399.633 8.456C399.745 8.264 399.899 8.112 400.097 8C400.294 7.88267 400.513 7.824 400.753 7.824C401.126 7.824 401.435 7.94933 401.681 8.2C401.931 8.45067 402.057 8.75467 402.057 9.112C402.057 9.464 401.931 9.77067 401.681 10.032C401.435 10.288 401.126 10.416 400.753 10.416C400.39 10.416 400.083 10.288 399.833 10.032C399.587 9.77067 399.465 9.464 399.465 9.112ZM421.132 4.984V15.68H419.788V6.44L417.26 7.976L416.676 7.016L419.956 4.984H421.132ZM423.436 14.904V16H417.076V14.904H423.436ZM429.222 15.072C429.867 15.072 430.377 14.952 430.75 14.712C431.129 14.4667 431.318 14.1413 431.318 13.736C431.318 13.48 431.27 13.2587 431.174 13.072C431.083 12.8853 430.894 12.7173 430.606 12.568C430.318 12.4187 429.875 12.2693 429.278 12.12C428.697 11.976 428.19 11.8107 427.758 11.624C427.331 11.432 426.998 11.184 426.758 10.88C426.523 10.576 426.406 10.1813 426.406 9.696C426.406 9.22133 426.539 8.81333 426.806 8.472C427.078 8.12533 427.454 7.86133 427.934 7.68C428.414 7.49333 428.971 7.4 429.606 7.4C430.283 7.4 430.873 7.49067 431.374 7.672C431.881 7.848 432.31 8.06667 432.662 8.328L432.07 9.24C431.75 9.02133 431.398 8.84267 431.014 8.704C430.63 8.56 430.166 8.488 429.622 8.488C428.961 8.488 428.491 8.592 428.214 8.8C427.937 9.00267 427.798 9.26667 427.798 9.592C427.798 9.83733 427.865 10.0427 427.998 10.208C428.137 10.368 428.369 10.5147 428.694 10.648C429.019 10.776 429.467 10.9173 430.038 11.072C430.587 11.216 431.065 11.3893 431.47 11.592C431.881 11.7947 432.201 12.0613 432.43 12.392C432.659 12.7227 432.774 13.1493 432.774 13.672C432.774 14.2693 432.603 14.7547 432.262 15.128C431.921 15.496 431.478 15.7653 430.934 15.936C430.395 16.1013 429.825 16.184 429.222 16.184C428.459 16.184 427.809 16.0747 427.27 15.856C426.737 15.632 426.289 15.3627 425.926 15.048L426.694 14.16C427.025 14.432 427.403 14.6533 427.83 14.824C428.262 14.9893 428.726 15.072 429.222 15.072ZM439.144 13.368C439.512 13.368 439.818 13.4933 440.064 13.744C440.314 13.9947 440.44 14.296 440.44 14.648C440.44 14.84 440.416 15.0347 440.368 15.232C440.325 15.4293 440.245 15.6533 440.128 15.904L438.832 18.872H437.616L438.384 15.712C438.224 15.5947 438.096 15.4427 438 15.256C437.909 15.064 437.864 14.8613 437.864 14.648C437.864 14.2907 437.986 13.9893 438.232 13.744C438.477 13.4933 438.781 13.368 439.144 13.368ZM460.691 7.4C460.963 7.4 461.222 7.45867 461.467 7.576C461.718 7.69333 461.923 7.92 462.083 8.256C462.243 8.592 462.323 9.08267 462.323 9.728V16H461.075V9.944C461.075 9.416 461.043 9.03467 460.979 8.8C460.915 8.56533 460.731 8.448 460.427 8.448C460.177 8.448 459.926 8.528 459.675 8.688C459.43 8.84267 459.19 9.09867 458.955 9.456V16H457.699V9.944C457.699 9.416 457.667 9.03467 457.603 8.8C457.539 8.56533 457.355 8.448 457.051 8.448C456.79 8.448 456.537 8.528 456.291 8.688C456.051 8.84267 455.814 9.09867 455.579 9.456V16H454.339V7.576H455.395L455.475 8.552C455.705 8.22667 455.961 7.95467 456.243 7.736C456.531 7.512 456.886 7.4 457.307 7.4C457.627 7.4 457.929 7.47733 458.211 7.632C458.494 7.78133 458.702 8.07467 458.835 8.512C459.065 8.18133 459.323 7.91467 459.611 7.712C459.899 7.504 460.259 7.4 460.691 7.4ZM470.765 14.16C470.765 14.496 470.821 14.7413 470.933 14.896C471.045 15.0507 471.218 15.1653 471.453 15.24L471.125 16.184C470.762 16.136 470.445 16.0213 470.173 15.84C469.901 15.6533 469.704 15.3733 469.581 15C469.277 15.3893 468.898 15.6853 468.445 15.888C467.992 16.0853 467.49 16.184 466.941 16.184C466.098 16.184 465.434 15.9467 464.949 15.472C464.464 14.9973 464.221 14.368 464.221 13.584C464.221 12.7147 464.56 12.048 465.237 11.584C465.914 11.12 466.893 10.888 468.173 10.888H469.413V10.184C469.413 9.576 469.234 9.14667 468.877 8.896C468.525 8.64 468.034 8.512 467.405 8.512C467.128 8.512 466.802 8.54667 466.429 8.616C466.056 8.68 465.65 8.78933 465.213 8.944L464.861 7.928C465.378 7.736 465.864 7.6 466.317 7.52C466.77 7.44 467.202 7.4 467.613 7.4C468.664 7.4 469.45 7.64533 469.973 8.136C470.501 8.62133 470.765 9.28267 470.765 10.12V14.16ZM467.285 15.16C467.701 15.16 468.098 15.056 468.477 14.848C468.856 14.6347 469.168 14.3413 469.413 13.968V11.8H468.197C467.269 11.8 466.613 11.96 466.229 12.28C465.85 12.6 465.661 13.0293 465.661 13.568C465.661 14.0907 465.794 14.488 466.061 14.76C466.333 15.0267 466.741 15.16 467.285 15.16ZM475.143 16H473.607L476.719 11.552L473.991 7.576H475.583L477.535 10.712L479.511 7.576H481.047L478.327 11.496L481.431 16H479.783L477.479 12.384L475.143 16ZM483.905 12.216V11.048H490.321V12.216H483.905ZM499.754 16H497.85L496.762 9.816L495.578 16H493.722L492.186 7.576H493.562L494.634 15.168L495.978 8.648H497.57L498.842 15.168L499.914 7.576H501.226L499.754 16ZM507.372 7.576V14.936H509.748V16H503.428V14.936H506.028V8.64H503.508V7.576H507.372ZM506.3 3.632C506.599 3.632 506.836 3.72267 507.012 3.904C507.193 4.08533 507.284 4.30667 507.284 4.568C507.284 4.84 507.193 5.06933 507.012 5.256C506.836 5.43733 506.599 5.528 506.3 5.528C506.017 5.528 505.785 5.43733 505.604 5.256C505.423 5.06933 505.332 4.84 505.332 4.568C505.332 4.30667 505.423 4.08533 505.604 3.904C505.785 3.72267 506.017 3.632 506.3 3.632ZM517.742 4.016L519.086 4.184V16H517.91L517.782 14.888C517.467 15.336 517.104 15.664 516.694 15.872C516.288 16.08 515.854 16.184 515.39 16.184C514.659 16.184 514.056 16 513.582 15.632C513.107 15.264 512.755 14.752 512.526 14.096C512.296 13.4347 512.182 12.6693 512.182 11.8C512.182 10.9573 512.312 10.2053 512.574 9.544C512.835 8.87733 513.211 8.35467 513.702 7.976C514.198 7.592 514.792 7.4 515.486 7.4C515.971 7.4 516.398 7.48533 516.766 7.656C517.134 7.82133 517.459 8.06667 517.742 8.392V4.016ZM515.838 8.48C515.134 8.48 514.592 8.75467 514.214 9.304C513.835 9.85333 513.646 10.6853 513.646 11.8C513.646 12.5253 513.723 13.1333 513.878 13.624C514.032 14.1147 514.259 14.4827 514.558 14.728C514.862 14.9733 515.232 15.096 515.67 15.096C516.15 15.096 516.558 14.96 516.894 14.688C517.235 14.416 517.518 14.1093 517.742 13.768V9.56C517.512 9.21867 517.235 8.95467 516.91 8.768C516.584 8.576 516.227 8.48 515.838 8.48ZM528.984 15.576C528.696 15.768 528.346 15.9173 527.936 16.024C527.525 16.1307 527.122 16.184 526.728 16.184C525.821 16.184 525.122 15.9467 524.632 15.472C524.141 14.9973 523.896 14.3867 523.896 13.64V8.616H521.96V7.576H523.896V5.664L525.24 5.504V7.576H528.152L527.992 8.616H525.24V13.624C525.24 14.0933 525.362 14.4507 525.608 14.696C525.858 14.9413 526.272 15.064 526.848 15.064C527.162 15.064 527.453 15.0267 527.72 14.952C527.986 14.8773 528.234 14.7813 528.464 14.664L528.984 15.576ZM533.233 4.056V8.728C533.564 8.28533 533.969 7.95467 534.449 7.736C534.935 7.512 535.425 7.4 535.921 7.4C536.743 7.4 537.343 7.61867 537.721 8.056C538.1 8.49333 538.289 9.10133 538.289 9.88V16H536.945V9.912C536.945 9.40533 536.828 9.03733 536.593 8.808C536.359 8.57333 535.991 8.456 535.489 8.456C535.169 8.456 534.865 8.528 534.577 8.672C534.289 8.816 534.031 8.99467 533.801 9.208C533.572 9.42133 533.383 9.64 533.233 9.864V16H531.889V4.2L533.233 4.056ZM543.371 14.88C543.371 14.5333 543.494 14.232 543.739 13.976C543.99 13.72 544.296 13.592 544.659 13.592C545.032 13.592 545.342 13.72 545.587 13.976C545.838 14.232 545.963 14.5333 545.963 14.88C545.963 15.2427 545.838 15.552 545.587 15.808C545.342 16.0587 545.032 16.184 544.659 16.184C544.296 16.184 543.99 16.0587 543.739 15.808C543.494 15.552 543.371 15.2427 543.371 14.88ZM543.371 9.112C543.371 8.86667 543.427 8.648 543.539 8.456C543.651 8.264 543.806 8.112 544.003 8C544.2 7.88267 544.419 7.824 544.659 7.824C545.032 7.824 545.342 7.94933 545.587 8.2C545.838 8.45067 545.963 8.75467 545.963 9.112C545.963 9.464 545.838 9.77067 545.587 10.032C545.342 10.288 545.032 10.416 544.659 10.416C544.296 10.416 543.99 10.288 543.739 10.032C543.494 9.77067 543.371 9.464 543.371 9.112ZM565.039 4.984V15.68H563.695V6.44L561.167 7.976L560.583 7.016L563.863 4.984H565.039ZM567.343 14.904V16H560.983V14.904H567.343ZM573.456 4.808C574.646 4.808 575.544 5.29867 576.152 6.28C576.76 7.26133 577.064 8.664 577.064 10.488C577.064 12.3173 576.76 13.7253 576.152 14.712C575.544 15.6933 574.646 16.184 573.456 16.184C572.272 16.184 571.374 15.6933 570.76 14.712C570.152 13.7253 569.848 12.3173 569.848 10.488C569.848 8.664 570.152 7.26133 570.76 6.28C571.374 5.29867 572.272 4.808 573.456 4.808ZM573.456 5.888C572.779 5.888 572.246 6.248 571.856 6.968C571.467 7.68267 571.272 8.856 571.272 10.488C571.272 11.3147 571.315 12.0213 571.4 12.608C571.486 13.1947 571.616 13.672 571.792 14.04C571.974 14.4027 572.2 14.6693 572.472 14.84C572.75 15.0107 573.078 15.096 573.456 15.096C573.915 15.096 574.307 14.9387 574.632 14.624C574.963 14.3093 575.214 13.8133 575.384 13.136C575.56 12.4533 575.648 11.5707 575.648 10.488C575.648 9.38933 575.571 8.50133 575.416 7.824C575.267 7.14667 575.03 6.656 574.704 6.352C574.384 6.04267 573.968 5.888 573.456 5.888ZM575.08 6.28L575.432 7.456L571.928 14.552L571.432 13.616L575.08 6.28ZM583.05 4.808C584.239 4.808 585.138 5.29867 585.746 6.28C586.354 7.26133 586.658 8.664 586.658 10.488C586.658 12.3173 586.354 13.7253 585.746 14.712C585.138 15.6933 584.239 16.184 583.05 16.184C581.866 16.184 580.967 15.6933 580.354 14.712C579.746 13.7253 579.442 12.3173 579.442 10.488C579.442 8.664 579.746 7.26133 580.354 6.28C580.967 5.29867 581.866 4.808 583.05 4.808ZM583.05 5.888C582.373 5.888 581.839 6.248 581.45 6.968C581.061 7.68267 580.866 8.856 580.866 10.488C580.866 11.3147 580.909 12.0213 580.994 12.608C581.079 13.1947 581.21 13.672 581.386 14.04C581.567 14.4027 581.794 14.6693 582.066 14.84C582.343 15.0107 582.671 15.096 583.05 15.096C583.509 15.096 583.901 14.9387 584.226 14.624C584.557 14.3093 584.807 13.8133 584.978 13.136C585.154 12.4533 585.242 11.5707 585.242 10.488C585.242 9.38933 585.165 8.50133 585.01 7.824C584.861 7.14667 584.623 6.656 584.298 6.352C583.978 6.04267 583.562 5.888 583.05 5.888ZM584.674 6.28L585.026 7.456L581.522 14.552L581.026 13.616L584.674 6.28ZM593.22 7.4C593.966 7.4 594.561 7.58133 595.004 7.944C595.452 8.30667 595.774 8.81867 595.972 9.48C596.169 10.136 596.268 10.904 596.268 11.784C596.268 12.632 596.148 13.3893 595.908 14.056C595.673 14.7173 595.316 15.2373 594.836 15.616C594.356 15.9947 593.75 16.184 593.02 16.184C592.097 16.184 591.356 15.8587 590.796 15.208V19.224L589.452 19.392V7.576H590.596L590.708 8.752C591.017 8.32 591.385 7.98667 591.812 7.752C592.244 7.51733 592.713 7.4 593.22 7.4ZM592.9 8.48C592.436 8.48 592.025 8.62133 591.668 8.904C591.316 9.18133 591.025 9.49067 590.796 9.832V14.008C591.014 14.3333 591.289 14.592 591.62 14.784C591.956 14.9707 592.324 15.064 592.724 15.064C593.422 15.064 593.948 14.7973 594.3 14.264C594.652 13.7307 594.828 12.9013 594.828 11.776C594.828 11.04 594.758 10.4293 594.62 9.944C594.481 9.45333 594.27 9.088 593.988 8.848C593.705 8.60267 593.342 8.48 592.9 8.48ZM599.862 16H598.326L601.438 11.552L598.71 7.576H600.302L602.254 10.712L604.23 7.576H605.766L603.046 11.496L606.15 16H604.502L602.198 12.384L599.862 16Z" fill="#FF9500"/>
</svg>
