<svg width="648" height="226" viewBox="0 0 648 226" fill="none" xmlns="http://www.w3.org/2000/svg">
<rect y="26" width="300" height="200" rx="12" fill="#5A8EE5"/>
<rect y="91" width="70" height="70" rx="12" fill="#FF9500"/>
<rect x="115" y="91" width="70" height="70" rx="12" fill="#FF9500"/>
<rect x="230" y="91" width="70" height="70" rx="12" fill="#FF9500"/>
<path d="M8.456 6.68L8.872 7.944C8.51467 8.056 8.13333 8.12533 7.728 8.152C7.32267 8.17867 6.88267 8.192 6.408 8.192C6.89333 8.416 7.25867 8.70667 7.504 9.064C7.74933 9.416 7.872 9.832 7.872 10.312C7.872 10.8667 7.74667 11.36 7.496 11.792C7.24533 12.224 6.88267 12.5627 6.408 12.808C5.93867 13.0533 5.37067 13.176 4.704 13.176C4.42133 13.176 4.184 13.1627 3.992 13.136C3.80533 13.1093 3.624 13.0693 3.448 13.016C3.32 13.1013 3.21333 13.2187 3.128 13.368C3.048 13.5173 3.008 13.672 3.008 13.832C3.008 14.0347 3.088 14.2027 3.248 14.336C3.408 14.4693 3.704 14.536 4.136 14.536H5.656C6.22133 14.536 6.728 14.6373 7.176 14.84C7.62933 15.0427 7.984 15.3147 8.24 15.656C8.50133 15.9973 8.632 16.3867 8.632 16.824C8.632 17.6507 8.28 18.2853 7.576 18.728C6.87733 19.1707 5.888 19.392 4.608 19.392C3.712 19.392 3.00533 19.2987 2.488 19.112C1.97067 18.9307 1.6 18.6507 1.376 18.272C1.15733 17.8987 1.048 17.4267 1.048 16.856H2.264C2.264 17.1813 2.328 17.4507 2.456 17.664C2.584 17.8773 2.816 18.0347 3.152 18.136C3.488 18.2427 3.97067 18.296 4.6 18.296C5.21867 18.296 5.72267 18.2427 6.112 18.136C6.50667 18.0347 6.79733 17.88 6.984 17.672C7.176 17.4693 7.272 17.216 7.272 16.912C7.272 16.512 7.09067 16.2107 6.728 16.008C6.36533 15.8053 5.912 15.704 5.368 15.704H3.864C3.13867 15.704 2.60267 15.544 2.256 15.224C1.91467 14.904 1.744 14.536 1.744 14.12C1.744 13.848 1.82133 13.584 1.976 13.328C2.136 13.072 2.368 12.8453 2.672 12.648C2.18667 12.392 1.82933 12.0747 1.6 11.696C1.37067 11.3173 1.256 10.8587 1.256 10.32C1.256 9.74933 1.39733 9.24533 1.68 8.808C1.96267 8.36533 2.35733 8.01867 2.864 7.768C3.37067 7.51733 3.95467 7.392 4.616 7.392C5.32533 7.38667 5.90133 7.35733 6.344 7.304C6.78667 7.24533 7.16533 7.16267 7.48 7.056C7.8 6.94933 8.12533 6.824 8.456 6.68ZM4.616 8.376C3.93867 8.376 3.43733 8.56 3.112 8.928C2.792 9.29067 2.632 9.75467 2.632 10.32C2.632 10.8907 2.79733 11.36 3.128 11.728C3.45867 12.096 3.96533 12.28 4.648 12.28C5.24533 12.28 5.69867 12.1067 6.008 11.76C6.32267 11.4133 6.48 10.9307 6.48 10.312C6.48 9.67733 6.32267 9.19733 6.008 8.872C5.69867 8.54133 5.23467 8.376 4.616 8.376ZM17.2338 14.16C17.2338 14.496 17.2898 14.7413 17.4018 14.896C17.5138 15.0507 17.6871 15.1653 17.9218 15.24L17.5938 16.184C17.2311 16.136 16.9138 16.0213 16.6418 15.84C16.3698 15.6533 16.1724 15.3733 16.0498 15C15.7458 15.3893 15.3671 15.6853 14.9138 15.888C14.4604 16.0853 13.9591 16.184 13.4098 16.184C12.5671 16.184 11.9031 15.9467 11.4178 15.472C10.9324 14.9973 10.6898 14.368 10.6898 13.584C10.6898 12.7147 11.0284 12.048 11.7057 11.584C12.3831 11.12 13.3618 10.888 14.6418 10.888H15.8818V10.184C15.8818 9.576 15.7031 9.14667 15.3458 8.896C14.9938 8.64 14.5031 8.512 13.8738 8.512C13.5964 8.512 13.2711 8.54667 12.8978 8.616C12.5244 8.68 12.1191 8.78933 11.6818 8.944L11.3298 7.928C11.8471 7.736 12.3324 7.6 12.7858 7.52C13.2391 7.44 13.6711 7.4 14.0818 7.4C15.1324 7.4 15.9191 7.64533 16.4418 8.136C16.9698 8.62133 17.2338 9.28267 17.2338 10.12V14.16ZM13.7538 15.16C14.1698 15.16 14.5671 15.056 14.9458 14.848C15.3244 14.6347 15.6364 14.3413 15.8818 13.968V11.8H14.6658C13.7378 11.8 13.0818 11.96 12.6978 12.28C12.3191 12.6 12.1298 13.0293 12.1298 13.568C12.1298 14.0907 12.2631 14.488 12.5298 14.76C12.8018 15.0267 13.2098 15.16 13.7538 15.16ZM24.5635 7.4C25.3102 7.4 25.9048 7.58133 26.3475 7.944C26.7955 8.30667 27.1182 8.81867 27.3155 9.48C27.5128 10.136 27.6115 10.904 27.6115 11.784C27.6115 12.632 27.4915 13.3893 27.2515 14.056C27.0168 14.7173 26.6595 15.2373 26.1795 15.616C25.6995 15.9947 25.0942 16.184 24.3635 16.184C23.4408 16.184 22.6995 15.8587 22.1395 15.208V19.224L20.7955 19.392V7.576H21.9395L22.0515 8.752C22.3608 8.32 22.7288 7.98667 23.1555 7.752C23.5875 7.51733 24.0568 7.4 24.5635 7.4ZM24.2435 8.48C23.7795 8.48 23.3688 8.62133 23.0115 8.904C22.6595 9.18133 22.3688 9.49067 22.1395 9.832V14.008C22.3582 14.3333 22.6328 14.592 22.9635 14.784C23.2995 14.9707 23.6675 15.064 24.0675 15.064C24.7662 15.064 25.2915 14.7973 25.6435 14.264C25.9955 13.7307 26.1715 12.9013 26.1715 11.776C26.1715 11.04 26.1022 10.4293 25.9635 9.944C25.8248 9.45333 25.6142 9.088 25.3315 8.848C25.0488 8.60267 24.6862 8.48 24.2435 8.48ZM32.2773 14.88C32.2773 14.5333 32.3999 14.232 32.6453 13.976C32.8959 13.72 33.2026 13.592 33.5653 13.592C33.9386 13.592 34.2479 13.72 34.4933 13.976C34.7439 14.232 34.8693 14.5333 34.8693 14.88C34.8693 15.2427 34.7439 15.552 34.4933 15.808C34.2479 16.0587 33.9386 16.184 33.5653 16.184C33.2026 16.184 32.8959 16.0587 32.6453 15.808C32.3999 15.552 32.2773 15.2427 32.2773 14.88ZM32.2773 9.112C32.2773 8.86667 32.3333 8.648 32.4453 8.456C32.5573 8.264 32.7119 8.112 32.9093 8C33.1066 7.88267 33.3253 7.824 33.5653 7.824C33.9386 7.824 34.2479 7.94933 34.4933 8.2C34.7439 8.45067 34.8693 8.75467 34.8693 9.112C34.8693 9.464 34.7439 9.77067 34.4933 10.032C34.2479 10.288 33.9386 10.416 33.5653 10.416C33.2026 10.416 32.8959 10.288 32.6453 10.032C32.3999 9.77067 32.2773 9.464 32.2773 9.112ZM53.9448 4.984V15.68H52.6008V6.44L50.0728 7.976L49.4888 7.016L52.7688 4.984H53.9448ZM56.2488 14.904V16H49.8888V14.904H56.2488ZM62.0345 15.072C62.6798 15.072 63.1892 14.952 63.5625 14.712C63.9412 14.4667 64.1305 14.1413 64.1305 13.736C64.1305 13.48 64.0825 13.2587 63.9865 13.072C63.8958 12.8853 63.7065 12.7173 63.4185 12.568C63.1305 12.4187 62.6878 12.2693 62.0905 12.12C61.5092 11.976 61.0025 11.8107 60.5705 11.624C60.1438 11.432 59.8105 11.184 59.5705 10.88C59.3358 10.576 59.2185 10.1813 59.2185 9.696C59.2185 9.22133 59.3518 8.81333 59.6185 8.472C59.8905 8.12533 60.2665 7.86133 60.7465 7.68C61.2265 7.49333 61.7838 7.4 62.4185 7.4C63.0958 7.4 63.6852 7.49067 64.1865 7.672C64.6932 7.848 65.1225 8.06667 65.4745 8.328L64.8825 9.24C64.5625 9.02133 64.2105 8.84267 63.8265 8.704C63.4425 8.56 62.9785 8.488 62.4345 8.488C61.7732 8.488 61.3038 8.592 61.0265 8.8C60.7492 9.00267 60.6105 9.26667 60.6105 9.592C60.6105 9.83733 60.6772 10.0427 60.8105 10.208C60.9492 10.368 61.1812 10.5147 61.5065 10.648C61.8318 10.776 62.2798 10.9173 62.8505 11.072C63.3998 11.216 63.8772 11.3893 64.2825 11.592C64.6932 11.7947 65.0132 12.0613 65.2425 12.392C65.4718 12.7227 65.5865 13.1493 65.5865 13.672C65.5865 14.2693 65.4158 14.7547 65.0745 15.128C64.7332 15.496 64.2905 15.7653 63.7465 15.936C63.2078 16.1013 62.6372 16.184 62.0345 16.184C61.2718 16.184 60.6212 16.0747 60.0825 15.856C59.5492 15.632 59.1012 15.3627 58.7385 15.048L59.5065 14.16C59.8372 14.432 60.2158 14.6533 60.6425 14.824C61.0745 14.9893 61.5385 15.072 62.0345 15.072Z" fill="#FF9500"/>
<rect x="348" y="26" width="300" height="200" rx="12" fill="#5A8EE5"/>
<rect x="383" y="91" width="70" height="70" rx="12" fill="#FF9500"/>
<rect x="463" y="91" width="70" height="70" rx="12" fill="#FF9500"/>
<rect x="543" y="91" width="70" height="70" rx="12" fill="#FF9500"/>
<path d="M356.456 6.68L356.872 7.944C356.515 8.056 356.133 8.12533 355.728 8.152C355.323 8.17867 354.883 8.192 354.408 8.192C354.893 8.416 355.259 8.70667 355.504 9.064C355.749 9.416 355.872 9.832 355.872 10.312C355.872 10.8667 355.747 11.36 355.496 11.792C355.245 12.224 354.883 12.5627 354.408 12.808C353.939 13.0533 353.371 13.176 352.704 13.176C352.421 13.176 352.184 13.1627 351.992 13.136C351.805 13.1093 351.624 13.0693 351.448 13.016C351.32 13.1013 351.213 13.2187 351.128 13.368C351.048 13.5173 351.008 13.672 351.008 13.832C351.008 14.0347 351.088 14.2027 351.248 14.336C351.408 14.4693 351.704 14.536 352.136 14.536H353.656C354.221 14.536 354.728 14.6373 355.176 14.84C355.629 15.0427 355.984 15.3147 356.24 15.656C356.501 15.9973 356.632 16.3867 356.632 16.824C356.632 17.6507 356.28 18.2853 355.576 18.728C354.877 19.1707 353.888 19.392 352.608 19.392C351.712 19.392 351.005 19.2987 350.488 19.112C349.971 18.9307 349.6 18.6507 349.376 18.272C349.157 17.8987 349.048 17.4267 349.048 16.856H350.264C350.264 17.1813 350.328 17.4507 350.456 17.664C350.584 17.8773 350.816 18.0347 351.152 18.136C351.488 18.2427 351.971 18.296 352.6 18.296C353.219 18.296 353.723 18.2427 354.112 18.136C354.507 18.0347 354.797 17.88 354.984 17.672C355.176 17.4693 355.272 17.216 355.272 16.912C355.272 16.512 355.091 16.2107 354.728 16.008C354.365 15.8053 353.912 15.704 353.368 15.704H351.864C351.139 15.704 350.603 15.544 350.256 15.224C349.915 14.904 349.744 14.536 349.744 14.12C349.744 13.848 349.821 13.584 349.976 13.328C350.136 13.072 350.368 12.8453 350.672 12.648C350.187 12.392 349.829 12.0747 349.6 11.696C349.371 11.3173 349.256 10.8587 349.256 10.32C349.256 9.74933 349.397 9.24533 349.68 8.808C349.963 8.36533 350.357 8.01867 350.864 7.768C351.371 7.51733 351.955 7.392 352.616 7.392C353.325 7.38667 353.901 7.35733 354.344 7.304C354.787 7.24533 355.165 7.16267 355.48 7.056C355.8 6.94933 356.125 6.824 356.456 6.68ZM352.616 8.376C351.939 8.376 351.437 8.56 351.112 8.928C350.792 9.29067 350.632 9.75467 350.632 10.32C350.632 10.8907 350.797 11.36 351.128 11.728C351.459 12.096 351.965 12.28 352.648 12.28C353.245 12.28 353.699 12.1067 354.008 11.76C354.323 11.4133 354.48 10.9307 354.48 10.312C354.48 9.67733 354.323 9.19733 354.008 8.872C353.699 8.54133 353.235 8.376 352.616 8.376ZM365.234 14.16C365.234 14.496 365.29 14.7413 365.402 14.896C365.514 15.0507 365.687 15.1653 365.922 15.24L365.594 16.184C365.231 16.136 364.914 16.0213 364.642 15.84C364.37 15.6533 364.172 15.3733 364.05 15C363.746 15.3893 363.367 15.6853 362.914 15.888C362.46 16.0853 361.959 16.184 361.41 16.184C360.567 16.184 359.903 15.9467 359.418 15.472C358.932 14.9973 358.69 14.368 358.69 13.584C358.69 12.7147 359.028 12.048 359.706 11.584C360.383 11.12 361.362 10.888 362.642 10.888H363.882V10.184C363.882 9.576 363.703 9.14667 363.346 8.896C362.994 8.64 362.503 8.512 361.874 8.512C361.596 8.512 361.271 8.54667 360.898 8.616C360.524 8.68 360.119 8.78933 359.682 8.944L359.33 7.928C359.847 7.736 360.332 7.6 360.786 7.52C361.239 7.44 361.671 7.4 362.082 7.4C363.132 7.4 363.919 7.64533 364.442 8.136C364.97 8.62133 365.234 9.28267 365.234 10.12V14.16ZM361.754 15.16C362.17 15.16 362.567 15.056 362.946 14.848C363.324 14.6347 363.636 14.3413 363.882 13.968V11.8H362.666C361.738 11.8 361.082 11.96 360.698 12.28C360.319 12.6 360.13 13.0293 360.13 13.568C360.13 14.0907 360.263 14.488 360.53 14.76C360.802 15.0267 361.21 15.16 361.754 15.16ZM372.564 7.4C373.31 7.4 373.905 7.58133 374.348 7.944C374.796 8.30667 375.118 8.81867 375.316 9.48C375.513 10.136 375.612 10.904 375.612 11.784C375.612 12.632 375.492 13.3893 375.252 14.056C375.017 14.7173 374.66 15.2373 374.18 15.616C373.7 15.9947 373.094 16.184 372.364 16.184C371.441 16.184 370.7 15.8587 370.14 15.208V19.224L368.796 19.392V7.576H369.94L370.052 8.752C370.361 8.32 370.729 7.98667 371.156 7.752C371.588 7.51733 372.057 7.4 372.564 7.4ZM372.244 8.48C371.78 8.48 371.369 8.62133 371.012 8.904C370.66 9.18133 370.369 9.49067 370.14 9.832V14.008C370.358 14.3333 370.633 14.592 370.964 14.784C371.3 14.9707 371.668 15.064 372.068 15.064C372.766 15.064 373.292 14.7973 373.644 14.264C373.996 13.7307 374.172 12.9013 374.172 11.776C374.172 11.04 374.102 10.4293 373.964 9.944C373.825 9.45333 373.614 9.088 373.332 8.848C373.049 8.60267 372.686 8.48 372.244 8.48ZM380.277 14.88C380.277 14.5333 380.4 14.232 380.645 13.976C380.896 13.72 381.203 13.592 381.565 13.592C381.939 13.592 382.248 13.72 382.493 13.976C382.744 14.232 382.869 14.5333 382.869 14.88C382.869 15.2427 382.744 15.552 382.493 15.808C382.248 16.0587 381.939 16.184 381.565 16.184C381.203 16.184 380.896 16.0587 380.645 15.808C380.4 15.552 380.277 15.2427 380.277 14.88ZM380.277 9.112C380.277 8.86667 380.333 8.648 380.445 8.456C380.557 8.264 380.712 8.112 380.909 8C381.107 7.88267 381.325 7.824 381.565 7.824C381.939 7.824 382.248 7.94933 382.493 8.2C382.744 8.45067 382.869 8.75467 382.869 9.112C382.869 9.464 382.744 9.77067 382.493 10.032C382.248 10.288 381.939 10.416 381.565 10.416C381.203 10.416 380.896 10.288 380.645 10.032C380.4 9.77067 380.277 9.464 380.277 9.112ZM401.945 4.984V15.68H400.601V6.44L398.073 7.976L397.489 7.016L400.769 4.984H401.945ZM404.249 14.904V16H397.889V14.904H404.249ZM410.035 15.072C410.68 15.072 411.189 14.952 411.563 14.712C411.941 14.4667 412.131 14.1413 412.131 13.736C412.131 13.48 412.083 13.2587 411.987 13.072C411.896 12.8853 411.707 12.7173 411.419 12.568C411.131 12.4187 410.688 12.2693 410.091 12.12C409.509 11.976 409.003 11.8107 408.571 11.624C408.144 11.432 407.811 11.184 407.571 10.88C407.336 10.576 407.219 10.1813 407.219 9.696C407.219 9.22133 407.352 8.81333 407.618 8.472C407.891 8.12533 408.267 7.86133 408.747 7.68C409.227 7.49333 409.784 7.4 410.419 7.4C411.096 7.4 411.685 7.49067 412.187 7.672C412.693 7.848 413.123 8.06667 413.475 8.328L412.883 9.24C412.563 9.02133 412.211 8.84267 411.827 8.704C411.443 8.56 410.979 8.488 410.435 8.488C409.773 8.488 409.304 8.592 409.027 8.8C408.749 9.00267 408.611 9.26667 408.611 9.592C408.611 9.83733 408.677 10.0427 408.811 10.208C408.949 10.368 409.181 10.5147 409.507 10.648C409.832 10.776 410.28 10.9173 410.851 11.072C411.4 11.216 411.877 11.3893 412.283 11.592C412.693 11.7947 413.013 12.0613 413.243 12.392C413.472 12.7227 413.587 13.1493 413.587 13.672C413.587 14.2693 413.416 14.7547 413.075 15.128C412.733 15.496 412.291 15.7653 411.747 15.936C411.208 16.1013 410.637 16.184 410.035 16.184C409.272 16.184 408.621 16.0747 408.083 15.856C407.549 15.632 407.101 15.3627 406.738 15.048L407.507 14.16C407.837 14.432 408.216 14.6533 408.643 14.824C409.075 14.9893 409.539 15.072 410.035 15.072ZM419.956 13.368C420.324 13.368 420.631 13.4933 420.876 13.744C421.127 13.9947 421.252 14.296 421.252 14.648C421.252 14.84 421.228 15.0347 421.18 15.232C421.138 15.4293 421.058 15.6533 420.94 15.904L419.644 18.872H418.428L419.196 15.712C419.036 15.5947 418.908 15.4427 418.812 15.256C418.722 15.064 418.676 14.8613 418.676 14.648C418.676 14.2907 418.799 13.9893 419.044 13.744C419.29 13.4933 419.594 13.368 419.956 13.368ZM441.504 7.4C441.776 7.4 442.034 7.45867 442.28 7.576C442.53 7.69333 442.736 7.92 442.896 8.256C443.056 8.592 443.136 9.08267 443.136 9.728V16H441.888V9.944C441.888 9.416 441.856 9.03467 441.792 8.8C441.728 8.56533 441.544 8.448 441.24 8.448C440.989 8.448 440.738 8.528 440.488 8.688C440.242 8.84267 440.002 9.09867 439.768 9.456V16H438.512V9.944C438.512 9.416 438.48 9.03467 438.416 8.8C438.352 8.56533 438.168 8.448 437.864 8.448C437.602 8.448 437.349 8.528 437.104 8.688C436.864 8.84267 436.626 9.09867 436.392 9.456V16H435.152V7.576H436.208L436.288 8.552C436.517 8.22667 436.773 7.95467 437.056 7.736C437.344 7.512 437.698 7.4 438.12 7.4C438.44 7.4 438.741 7.47733 439.024 7.632C439.306 7.78133 439.514 8.07467 439.648 8.512C439.877 8.18133 440.136 7.91467 440.424 7.712C440.712 7.504 441.072 7.4 441.504 7.4ZM451.578 14.16C451.578 14.496 451.634 14.7413 451.746 14.896C451.858 15.0507 452.031 15.1653 452.266 15.24L451.938 16.184C451.575 16.136 451.258 16.0213 450.986 15.84C450.714 15.6533 450.516 15.3733 450.394 15C450.09 15.3893 449.711 15.6853 449.258 15.888C448.804 16.0853 448.303 16.184 447.754 16.184C446.911 16.184 446.247 15.9467 445.762 15.472C445.276 14.9973 445.034 14.368 445.034 13.584C445.034 12.7147 445.372 12.048 446.049 11.584C446.727 11.12 447.706 10.888 448.986 10.888H450.226V10.184C450.226 9.576 450.047 9.14667 449.69 8.896C449.338 8.64 448.847 8.512 448.218 8.512C447.94 8.512 447.615 8.54667 447.242 8.616C446.868 8.68 446.463 8.78933 446.026 8.944L445.674 7.928C446.191 7.736 446.676 7.6 447.13 7.52C447.583 7.44 448.015 7.4 448.426 7.4C449.476 7.4 450.263 7.64533 450.786 8.136C451.314 8.62133 451.578 9.28267 451.578 10.12V14.16ZM448.098 15.16C448.514 15.16 448.911 15.056 449.29 14.848C449.668 14.6347 449.98 14.3413 450.226 13.968V11.8H449.01C448.082 11.8 447.426 11.96 447.042 12.28C446.663 12.6 446.474 13.0293 446.474 13.568C446.474 14.0907 446.607 14.488 446.874 14.76C447.146 15.0267 447.554 15.16 448.098 15.16ZM455.955 16H454.419L457.531 11.552L454.803 7.576H456.395L458.347 10.712L460.323 7.576H461.859L459.139 11.496L462.243 16H460.595L458.291 12.384L455.955 16ZM464.717 12.216V11.048H471.133V12.216H464.717ZM481.175 6.68L481.591 7.944C481.233 8.056 480.852 8.12533 480.447 8.152C480.041 8.17867 479.601 8.192 479.127 8.192C479.612 8.416 479.977 8.70667 480.223 9.064C480.468 9.416 480.591 9.832 480.591 10.312C480.591 10.8667 480.465 11.36 480.215 11.792C479.964 12.224 479.601 12.5627 479.127 12.808C478.657 13.0533 478.089 13.176 477.423 13.176C477.14 13.176 476.903 13.1627 476.711 13.136C476.524 13.1093 476.343 13.0693 476.167 13.016C476.039 13.1013 475.932 13.2187 475.847 13.368C475.767 13.5173 475.727 13.672 475.727 13.832C475.727 14.0347 475.807 14.2027 475.967 14.336C476.127 14.4693 476.423 14.536 476.855 14.536H478.375C478.94 14.536 479.447 14.6373 479.895 14.84C480.348 15.0427 480.703 15.3147 480.959 15.656C481.22 15.9973 481.351 16.3867 481.351 16.824C481.351 17.6507 480.999 18.2853 480.295 18.728C479.596 19.1707 478.607 19.392 477.327 19.392C476.431 19.392 475.724 19.2987 475.207 19.112C474.689 18.9307 474.319 18.6507 474.095 18.272C473.876 17.8987 473.767 17.4267 473.767 16.856H474.983C474.983 17.1813 475.047 17.4507 475.175 17.664C475.303 17.8773 475.535 18.0347 475.871 18.136C476.207 18.2427 476.689 18.296 477.319 18.296C477.937 18.296 478.441 18.2427 478.831 18.136C479.225 18.0347 479.516 17.88 479.703 17.672C479.895 17.4693 479.991 17.216 479.991 16.912C479.991 16.512 479.809 16.2107 479.447 16.008C479.084 15.8053 478.631 15.704 478.087 15.704H476.583C475.857 15.704 475.321 15.544 474.975 15.224C474.633 14.904 474.463 14.536 474.463 14.12C474.463 13.848 474.54 13.584 474.695 13.328C474.855 13.072 475.087 12.8453 475.391 12.648C474.905 12.392 474.548 12.0747 474.319 11.696C474.089 11.3173 473.975 10.8587 473.975 10.32C473.975 9.74933 474.116 9.24533 474.399 8.808C474.681 8.36533 475.076 8.01867 475.583 7.768C476.089 7.51733 476.673 7.392 477.335 7.392C478.044 7.38667 478.62 7.35733 479.063 7.304C479.505 7.24533 479.884 7.16267 480.199 7.056C480.519 6.94933 480.844 6.824 481.175 6.68ZM477.335 8.376C476.657 8.376 476.156 8.56 475.831 8.928C475.511 9.29067 475.351 9.75467 475.351 10.32C475.351 10.8907 475.516 11.36 475.847 11.728C476.177 12.096 476.684 12.28 477.367 12.28C477.964 12.28 478.417 12.1067 478.727 11.76C479.041 11.4133 479.199 10.9307 479.199 10.312C479.199 9.67733 479.041 9.19733 478.727 8.872C478.417 8.54133 477.953 8.376 477.335 8.376ZM489.953 14.16C489.953 14.496 490.009 14.7413 490.121 14.896C490.233 15.0507 490.406 15.1653 490.641 15.24L490.312 16.184C489.95 16.136 489.633 16.0213 489.361 15.84C489.089 15.6533 488.891 15.3733 488.769 15C488.465 15.3893 488.086 15.6853 487.633 15.888C487.179 16.0853 486.678 16.184 486.129 16.184C485.286 16.184 484.622 15.9467 484.137 15.472C483.651 14.9973 483.409 14.368 483.409 13.584C483.409 12.7147 483.747 12.048 484.424 11.584C485.102 11.12 486.081 10.888 487.361 10.888H488.601V10.184C488.601 9.576 488.422 9.14667 488.065 8.896C487.713 8.64 487.222 8.512 486.593 8.512C486.315 8.512 485.99 8.54667 485.617 8.616C485.243 8.68 484.838 8.78933 484.401 8.944L484.049 7.928C484.566 7.736 485.051 7.6 485.505 7.52C485.958 7.44 486.39 7.4 486.801 7.4C487.851 7.4 488.638 7.64533 489.161 8.136C489.689 8.62133 489.953 9.28267 489.953 10.12V14.16ZM486.473 15.16C486.889 15.16 487.286 15.056 487.665 14.848C488.043 14.6347 488.355 14.3413 488.601 13.968V11.8H487.385C486.457 11.8 485.801 11.96 485.417 12.28C485.038 12.6 484.849 13.0293 484.849 13.568C484.849 14.0907 484.982 14.488 485.249 14.76C485.521 15.0267 485.929 15.16 486.473 15.16ZM497.282 7.4C498.029 7.4 498.624 7.58133 499.066 7.944C499.514 8.30667 499.837 8.81867 500.034 9.48C500.232 10.136 500.33 10.904 500.33 11.784C500.33 12.632 500.21 13.3893 499.97 14.056C499.736 14.7173 499.378 15.2373 498.898 15.616C498.418 15.9947 497.813 16.184 497.082 16.184C496.16 16.184 495.418 15.8587 494.858 15.208V19.224L493.514 19.392V7.576H494.658L494.77 8.752C495.08 8.32 495.448 7.98667 495.874 7.752C496.306 7.51733 496.776 7.4 497.282 7.4ZM496.962 8.48C496.498 8.48 496.088 8.62133 495.73 8.904C495.378 9.18133 495.088 9.49067 494.858 9.832V14.008C495.077 14.3333 495.352 14.592 495.682 14.784C496.018 14.9707 496.386 15.064 496.786 15.064C497.485 15.064 498.01 14.7973 498.362 14.264C498.714 13.7307 498.89 12.9013 498.89 11.776C498.89 11.04 498.821 10.4293 498.682 9.944C498.544 9.45333 498.333 9.088 498.05 8.848C497.768 8.60267 497.405 8.48 496.962 8.48ZM504.996 14.88C504.996 14.5333 505.119 14.232 505.364 13.976C505.615 13.72 505.921 13.592 506.284 13.592C506.657 13.592 506.967 13.72 507.212 13.976C507.463 14.232 507.588 14.5333 507.588 14.88C507.588 15.2427 507.463 15.552 507.212 15.808C506.967 16.0587 506.657 16.184 506.284 16.184C505.921 16.184 505.615 16.0587 505.364 15.808C505.119 15.552 504.996 15.2427 504.996 14.88ZM504.996 9.112C504.996 8.86667 505.052 8.648 505.164 8.456C505.276 8.264 505.431 8.112 505.628 8C505.825 7.88267 506.044 7.824 506.284 7.824C506.657 7.824 506.967 7.94933 507.212 8.2C507.463 8.45067 507.588 8.75467 507.588 9.112C507.588 9.464 507.463 9.77067 507.212 10.032C506.967 10.288 506.657 10.416 506.284 10.416C505.921 10.416 505.615 10.288 505.364 10.032C505.119 9.77067 504.996 9.464 504.996 9.112ZM526.664 4.984V15.68H525.32V6.44L522.792 7.976L522.208 7.016L525.488 4.984H526.664ZM528.968 14.904V16H522.608V14.904H528.968ZM535.081 4.808C536.271 4.808 537.169 5.29867 537.777 6.28C538.385 7.26133 538.689 8.664 538.689 10.488C538.689 12.3173 538.385 13.7253 537.777 14.712C537.169 15.6933 536.271 16.184 535.081 16.184C533.897 16.184 532.999 15.6933 532.385 14.712C531.777 13.7253 531.473 12.3173 531.473 10.488C531.473 8.664 531.777 7.26133 532.385 6.28C532.999 5.29867 533.897 4.808 535.081 4.808ZM535.081 5.888C534.404 5.888 533.871 6.248 533.481 6.968C533.092 7.68267 532.897 8.856 532.897 10.488C532.897 11.3147 532.94 12.0213 533.025 12.608C533.111 13.1947 533.241 13.672 533.417 14.04C533.599 14.4027 533.825 14.6693 534.097 14.84C534.375 15.0107 534.703 15.096 535.081 15.096C535.54 15.096 535.932 14.9387 536.257 14.624C536.588 14.3093 536.839 13.8133 537.009 13.136C537.185 12.4533 537.273 11.5707 537.273 10.488C537.273 9.38933 537.196 8.50133 537.041 7.824C536.892 7.14667 536.655 6.656 536.329 6.352C536.009 6.04267 535.593 5.888 535.081 5.888ZM536.705 6.28L537.057 7.456L533.553 14.552L533.057 13.616L536.705 6.28ZM545.251 7.4C545.998 7.4 546.592 7.58133 547.035 7.944C547.483 8.30667 547.806 8.81867 548.003 9.48C548.2 10.136 548.299 10.904 548.299 11.784C548.299 12.632 548.179 13.3893 547.939 14.056C547.704 14.7173 547.347 15.2373 546.867 15.616C546.387 15.9947 545.782 16.184 545.051 16.184C544.128 16.184 543.387 15.8587 542.827 15.208V19.224L541.483 19.392V7.576H542.627L542.739 8.752C543.048 8.32 543.416 7.98667 543.843 7.752C544.275 7.51733 544.744 7.4 545.251 7.4ZM544.931 8.48C544.467 8.48 544.056 8.62133 543.699 8.904C543.347 9.18133 543.056 9.49067 542.827 9.832V14.008C543.046 14.3333 543.32 14.592 543.651 14.784C543.987 14.9707 544.355 15.064 544.755 15.064C545.454 15.064 545.979 14.7973 546.331 14.264C546.683 13.7307 546.859 12.9013 546.859 11.776C546.859 11.04 546.79 10.4293 546.651 9.944C546.512 9.45333 546.302 9.088 546.019 8.848C545.736 8.60267 545.374 8.48 544.931 8.48ZM551.893 16H550.357L553.469 11.552L550.741 7.576H552.333L554.285 10.712L556.261 7.576H557.797L555.077 11.496L558.181 16H556.533L554.229 12.384L551.893 16Z" fill="#FF9500"/>
</svg>
