<svg width="489" height="226" viewBox="0 0 489 226" fill="none" xmlns="http://www.w3.org/2000/svg">
<rect y="26" width="210" height="200" rx="12" fill="#5A8EE5"/>
<rect x="50" y="91" width="110" height="70" rx="12" fill="#FF9500"/>
<rect x="263" y="26" width="210" height="200" rx="12" fill="#5A8EE5"/>
<rect x="293" y="91" width="150" height="70" rx="12" fill="#FF9500"/>
<path d="M6.867 15H5.201L4.249 9.589L3.213 15H1.589L0.245 7.629H1.449L2.387 14.272L3.563 8.567H4.956L6.069 14.272L7.007 7.629H8.155L6.867 15ZM13.5325 7.629V14.069H15.6115V15H10.0815V14.069H12.3565V8.56H10.1515V7.629H13.5325ZM12.5945 4.178C12.8559 4.178 13.0635 4.25733 13.2175 4.416C13.3762 4.57467 13.4555 4.76833 13.4555 4.997C13.4555 5.235 13.3762 5.43567 13.2175 5.599C13.0635 5.75767 12.8559 5.837 12.5945 5.837C12.3472 5.837 12.1442 5.75767 11.9855 5.599C11.8269 5.43567 11.7475 5.235 11.7475 4.997C11.7475 4.76833 11.8269 4.57467 11.9855 4.416C12.1442 4.25733 12.3472 4.178 12.5945 4.178ZM22.6061 4.514L23.7821 4.661V15H22.7531L22.6411 14.027C22.3657 14.419 22.0484 14.706 21.6891 14.888C21.3344 15.07 20.9541 15.161 20.5481 15.161C19.9087 15.161 19.3814 15 18.9661 14.678C18.5507 14.356 18.2427 13.908 18.0421 13.334C17.8414 12.7553 17.7411 12.0857 17.7411 11.325C17.7411 10.5877 17.8554 9.92967 18.0841 9.351C18.3127 8.76767 18.6417 8.31033 19.0711 7.979C19.5051 7.643 20.0254 7.475 20.6321 7.475C21.0567 7.475 21.4301 7.54967 21.7521 7.699C22.0741 7.84367 22.3587 8.05833 22.6061 8.343V4.514ZM20.9401 8.42C20.3241 8.42 19.8504 8.66033 19.5191 9.141C19.1877 9.62167 19.0221 10.3497 19.0221 11.325C19.0221 11.9597 19.0897 12.4917 19.2251 12.921C19.3604 13.3503 19.5587 13.6723 19.8201 13.887C20.0861 14.1017 20.4104 14.209 20.7931 14.209C21.2131 14.209 21.5701 14.09 21.8641 13.852C22.1627 13.614 22.4101 13.3457 22.6061 13.047V9.365C22.4054 9.06633 22.1627 8.83533 21.8781 8.672C21.5934 8.504 21.2807 8.42 20.9401 8.42ZM32.4426 14.629C32.1906 14.797 31.8849 14.9277 31.5256 15.021C31.1663 15.1143 30.8139 15.161 30.4686 15.161C29.6753 15.161 29.0639 14.9533 28.6346 14.538C28.2053 14.1227 27.9906 13.5883 27.9906 12.935V8.539H26.2966V7.629H27.9906V5.956L29.1666 5.816V7.629H31.7146L31.5746 8.539H29.1666V12.921C29.1666 13.3317 29.2739 13.6443 29.4886 13.859C29.7079 14.0737 30.0696 14.181 30.5736 14.181C30.8489 14.181 31.1033 14.1483 31.3366 14.083C31.5699 14.0177 31.7869 13.9337 31.9876 13.831L32.4426 14.629ZM36.1611 4.549V8.637C36.4505 8.24967 36.8051 7.96033 37.2251 7.769C37.6498 7.573 38.0791 7.475 38.5131 7.475C39.2318 7.475 39.7568 7.66633 40.0881 8.049C40.4195 8.43167 40.5851 8.96367 40.5851 9.645V15H39.4091V9.673C39.4091 9.22967 39.3065 8.90767 39.1011 8.707C38.8958 8.50167 38.5738 8.399 38.1351 8.399C37.8551 8.399 37.5891 8.462 37.3371 8.588C37.0851 8.714 36.8588 8.87033 36.6581 9.057C36.4575 9.24367 36.2918 9.435 36.1611 9.631V15H34.9851V4.675L36.1611 4.549ZM45.0317 14.02C45.0317 13.7167 45.139 13.453 45.3537 13.229C45.573 13.005 45.8413 12.893 46.1587 12.893C46.4853 12.893 46.756 13.005 46.9707 13.229C47.19 13.453 47.2997 13.7167 47.2997 14.02C47.2997 14.3373 47.19 14.608 46.9707 14.832C46.756 15.0513 46.4853 15.161 46.1587 15.161C45.8413 15.161 45.573 15.0513 45.3537 14.832C45.139 14.608 45.0317 14.3373 45.0317 14.02ZM45.0317 8.973C45.0317 8.75833 45.0807 8.567 45.1787 8.399C45.2767 8.231 45.412 8.098 45.5847 8C45.7573 7.89733 45.9487 7.846 46.1587 7.846C46.4853 7.846 46.756 7.95567 46.9707 8.175C47.19 8.39433 47.2997 8.66033 47.2997 8.973C47.2997 9.281 47.19 9.54933 46.9707 9.778C46.756 10.002 46.4853 10.114 46.1587 10.114C45.8413 10.114 45.573 10.002 45.3537 9.778C45.139 9.54933 45.0317 9.281 45.0317 8.973ZM63.9907 5.361V14.72H62.8147V6.635L60.6027 7.979L60.0917 7.139L62.9617 5.361H63.9907ZM66.0067 14.041V15H60.4417V14.041H66.0067ZM71.0693 14.188C71.6339 14.188 72.0796 14.083 72.4063 13.873C72.7376 13.6583 72.9033 13.3737 72.9033 13.019C72.9033 12.795 72.8613 12.6013 72.7773 12.438C72.6979 12.2747 72.5323 12.1277 72.2803 11.997C72.0283 11.8663 71.6409 11.7357 71.1183 11.605C70.6096 11.479 70.1663 11.3343 69.7883 11.171C69.4149 11.003 69.1233 10.786 68.9133 10.52C68.7079 10.254 68.6053 9.90867 68.6053 9.484C68.6053 9.06867 68.7219 8.71167 68.9552 8.413C69.1933 8.10967 69.5223 7.87867 69.9423 7.72C70.3623 7.55667 70.8499 7.475 71.4053 7.475C71.9979 7.475 72.5136 7.55433 72.9523 7.713C73.3956 7.867 73.7713 8.05833 74.0793 8.287L73.5613 9.085C73.2813 8.89367 72.9733 8.73733 72.6373 8.616C72.3013 8.49 71.8953 8.427 71.4193 8.427C70.8406 8.427 70.4299 8.518 70.1873 8.7C69.9446 8.87733 69.8233 9.10833 69.8233 9.393C69.8233 9.60767 69.8816 9.78733 69.9983 9.932C70.1196 10.072 70.3226 10.2003 70.6073 10.317C70.8919 10.429 71.2839 10.5527 71.7833 10.688C72.2639 10.814 72.6816 10.9657 73.0363 11.143C73.3956 11.3203 73.6756 11.5537 73.8763 11.843C74.0769 12.1323 74.1773 12.5057 74.1773 12.963C74.1773 13.4857 74.0279 13.9103 73.7293 14.237C73.4306 14.559 73.0433 14.7947 72.5673 14.944C72.0959 15.0887 71.5966 15.161 71.0693 15.161C70.4019 15.161 69.8326 15.0653 69.3613 14.874C68.8946 14.678 68.5026 14.4423 68.1852 14.167L68.8573 13.39C69.1466 13.628 69.4779 13.8217 69.8513 13.971C70.2293 14.1157 70.6353 14.188 71.0693 14.188Z" fill="#FF9500"/>
<path d="M269.867 15H268.201L267.249 9.589L266.213 15H264.589L263.245 7.629H264.449L265.387 14.272L266.563 8.567H267.956L269.069 14.272L270.007 7.629H271.155L269.867 15ZM276.533 7.629V14.069H278.612V15H273.082V14.069H275.357V8.56H273.152V7.629H276.533ZM275.595 4.178C275.856 4.178 276.064 4.25733 276.218 4.416C276.376 4.57467 276.456 4.76833 276.456 4.997C276.456 5.235 276.376 5.43567 276.218 5.599C276.064 5.75767 275.856 5.837 275.595 5.837C275.347 5.837 275.144 5.75767 274.986 5.599C274.827 5.43567 274.748 5.235 274.748 4.997C274.748 4.76833 274.827 4.57467 274.986 4.416C275.144 4.25733 275.347 4.178 275.595 4.178ZM285.606 4.514L286.782 4.661V15H285.753L285.641 14.027C285.366 14.419 285.048 14.706 284.689 14.888C284.334 15.07 283.954 15.161 283.548 15.161C282.909 15.161 282.381 15 281.966 14.678C281.551 14.356 281.243 13.908 281.042 13.334C280.841 12.7553 280.741 12.0857 280.741 11.325C280.741 10.5877 280.855 9.92967 281.084 9.351C281.313 8.76767 281.642 8.31033 282.071 7.979C282.505 7.643 283.025 7.475 283.632 7.475C284.057 7.475 284.43 7.54967 284.752 7.699C285.074 7.84367 285.359 8.05833 285.606 8.343V4.514ZM283.94 8.42C283.324 8.42 282.85 8.66033 282.519 9.141C282.188 9.62167 282.022 10.3497 282.022 11.325C282.022 11.9597 282.09 12.4917 282.225 12.921C282.36 13.3503 282.559 13.6723 282.82 13.887C283.086 14.1017 283.41 14.209 283.793 14.209C284.213 14.209 284.57 14.09 284.864 13.852C285.163 13.614 285.41 13.3457 285.606 13.047V9.365C285.405 9.06633 285.163 8.83533 284.878 8.672C284.593 8.504 284.281 8.42 283.94 8.42ZM295.443 14.629C295.191 14.797 294.885 14.9277 294.526 15.021C294.166 15.1143 293.814 15.161 293.469 15.161C292.675 15.161 292.064 14.9533 291.635 14.538C291.205 14.1227 290.991 13.5883 290.991 12.935V8.539H289.297V7.629H290.991V5.956L292.167 5.816V7.629H294.715L294.575 8.539H292.167V12.921C292.167 13.3317 292.274 13.6443 292.489 13.859C292.708 14.0737 293.07 14.181 293.574 14.181C293.849 14.181 294.103 14.1483 294.337 14.083C294.57 14.0177 294.787 13.9337 294.988 13.831L295.443 14.629ZM299.161 4.549V8.637C299.45 8.24967 299.805 7.96033 300.225 7.769C300.65 7.573 301.079 7.475 301.513 7.475C302.232 7.475 302.757 7.66633 303.088 8.049C303.419 8.43167 303.585 8.96367 303.585 9.645V15H302.409V9.673C302.409 9.22967 302.306 8.90767 302.101 8.707C301.896 8.50167 301.574 8.399 301.135 8.399C300.855 8.399 300.589 8.462 300.337 8.588C300.085 8.714 299.859 8.87033 299.658 9.057C299.457 9.24367 299.292 9.435 299.161 9.631V15H297.985V4.675L299.161 4.549ZM308.032 14.02C308.032 13.7167 308.139 13.453 308.354 13.229C308.573 13.005 308.841 12.893 309.159 12.893C309.485 12.893 309.756 13.005 309.971 13.229C310.19 13.453 310.3 13.7167 310.3 14.02C310.3 14.3373 310.19 14.608 309.971 14.832C309.756 15.0513 309.485 15.161 309.159 15.161C308.841 15.161 308.573 15.0513 308.354 14.832C308.139 14.608 308.032 14.3373 308.032 14.02ZM308.032 8.973C308.032 8.75833 308.081 8.567 308.179 8.399C308.277 8.231 308.412 8.098 308.585 8C308.757 7.89733 308.949 7.846 309.159 7.846C309.485 7.846 309.756 7.95567 309.971 8.175C310.19 8.39433 310.3 8.66033 310.3 8.973C310.3 9.281 310.19 9.54933 309.971 9.778C309.756 10.002 309.485 10.114 309.159 10.114C308.841 10.114 308.573 10.002 308.354 9.778C308.139 9.54933 308.032 9.281 308.032 8.973ZM326.991 5.361V14.72H325.815V6.635L323.603 7.979L323.092 7.139L325.962 5.361H326.991ZM329.007 14.041V15H323.442V14.041H329.007ZM334.069 14.188C334.634 14.188 335.08 14.083 335.406 13.873C335.738 13.6583 335.903 13.3737 335.903 13.019C335.903 12.795 335.861 12.6013 335.777 12.438C335.698 12.2747 335.532 12.1277 335.28 11.997C335.028 11.8663 334.641 11.7357 334.118 11.605C333.61 11.479 333.166 11.3343 332.788 11.171C332.415 11.003 332.123 10.786 331.913 10.52C331.708 10.254 331.605 9.90867 331.605 9.484C331.605 9.06867 331.722 8.71167 331.955 8.413C332.193 8.10967 332.522 7.87867 332.942 7.72C333.362 7.55667 333.85 7.475 334.405 7.475C334.998 7.475 335.514 7.55433 335.952 7.713C336.396 7.867 336.771 8.05833 337.079 8.287L336.561 9.085C336.281 8.89367 335.973 8.73733 335.637 8.616C335.301 8.49 334.895 8.427 334.419 8.427C333.841 8.427 333.43 8.518 333.187 8.7C332.945 8.87733 332.823 9.10833 332.823 9.393C332.823 9.60767 332.882 9.78733 332.998 9.932C333.12 10.072 333.323 10.2003 333.607 10.317C333.892 10.429 334.284 10.5527 334.783 10.688C335.264 10.814 335.682 10.9657 336.036 11.143C336.396 11.3203 336.676 11.5537 336.876 11.843C337.077 12.1323 337.177 12.5057 337.177 12.963C337.177 13.4857 337.028 13.9103 336.729 14.237C336.431 14.559 336.043 14.7947 335.567 14.944C335.096 15.0887 334.597 15.161 334.069 15.161C333.402 15.161 332.833 15.0653 332.361 14.874C331.895 14.678 331.503 14.4423 331.185 14.167L331.857 13.39C332.147 13.628 332.478 13.8217 332.851 13.971C333.229 14.1157 333.635 14.188 334.069 14.188ZM342.751 12.697C343.073 12.697 343.341 12.8067 343.556 13.026C343.775 13.2453 343.885 13.509 343.885 13.817C343.885 13.985 343.864 14.1553 343.822 14.328C343.784 14.5007 343.714 14.6967 343.612 14.916L342.478 17.513H341.414L342.086 14.748C341.946 14.6453 341.834 14.5123 341.75 14.349C341.67 14.181 341.631 14.0037 341.631 13.817C341.631 13.5043 341.738 13.2407 341.953 13.026C342.167 12.8067 342.433 12.697 342.751 12.697ZM361.605 7.475C361.843 7.475 362.069 7.52633 362.284 7.629C362.503 7.73167 362.683 7.93 362.823 8.224C362.963 8.518 363.033 8.94733 363.033 9.512V15H361.941V9.701C361.941 9.239 361.913 8.90533 361.857 8.7C361.801 8.49467 361.64 8.392 361.374 8.392C361.155 8.392 360.935 8.462 360.716 8.602C360.501 8.73733 360.291 8.96133 360.086 9.274V15H358.987V9.701C358.987 9.239 358.959 8.90533 358.903 8.7C358.847 8.49467 358.686 8.392 358.42 8.392C358.191 8.392 357.97 8.462 357.755 8.602C357.545 8.73733 357.337 8.96133 357.132 9.274V15H356.047V7.629H356.971L357.041 8.483C357.242 8.19833 357.466 7.96033 357.713 7.769C357.965 7.573 358.275 7.475 358.644 7.475C358.924 7.475 359.188 7.54267 359.435 7.678C359.682 7.80867 359.864 8.06533 359.981 8.448C360.182 8.15867 360.408 7.92533 360.66 7.748C360.912 7.566 361.227 7.475 361.605 7.475ZM368.872 7.629V14.069H370.951V15H365.421V14.069H367.696V8.56H365.491V7.629H368.872ZM367.934 4.178C368.196 4.178 368.403 4.25733 368.557 4.416C368.716 4.57467 368.795 4.76833 368.795 4.997C368.795 5.235 368.716 5.43567 368.557 5.599C368.403 5.75767 368.196 5.837 367.934 5.837C367.687 5.837 367.484 5.75767 367.325 5.599C367.167 5.43567 367.087 5.235 367.087 4.997C367.087 4.76833 367.167 4.57467 367.325 4.416C367.484 4.25733 367.687 4.178 367.934 4.178ZM373.536 15V7.629H374.537L374.628 8.651C374.927 8.273 375.3 7.98367 375.748 7.783C376.201 7.57767 376.639 7.475 377.064 7.475C377.787 7.475 378.312 7.66633 378.639 8.049C378.97 8.43167 379.136 8.96367 379.136 9.645V15H377.96V10.513C377.96 10.009 377.932 9.603 377.876 9.295C377.82 8.98233 377.703 8.756 377.526 8.616C377.349 8.47133 377.073 8.399 376.7 8.399C376.411 8.399 376.138 8.462 375.881 8.588C375.629 8.714 375.403 8.87267 375.202 9.064C375.006 9.25067 374.843 9.43967 374.712 9.631V15H373.536ZM381.916 11.689V10.667H387.53V11.689H381.916ZM395.785 15H394.119L393.167 9.589L392.131 15H390.507L389.163 7.629H390.367L391.305 14.272L392.481 8.567H393.874L394.987 14.272L395.925 7.629H397.073L395.785 15ZM402.451 7.629V14.069H404.53V15H399V14.069H401.275V8.56H399.07V7.629H402.451ZM401.513 4.178C401.774 4.178 401.982 4.25733 402.136 4.416C402.294 4.57467 402.374 4.76833 402.374 4.997C402.374 5.235 402.294 5.43567 402.136 5.599C401.982 5.75767 401.774 5.837 401.513 5.837C401.265 5.837 401.062 5.75767 400.904 5.599C400.745 5.43567 400.666 5.235 400.666 4.997C400.666 4.76833 400.745 4.57467 400.904 4.416C401.062 4.25733 401.265 4.178 401.513 4.178ZM411.524 4.514L412.7 4.661V15H411.671L411.559 14.027C411.284 14.419 410.966 14.706 410.607 14.888C410.252 15.07 409.872 15.161 409.466 15.161C408.827 15.161 408.299 15 407.884 14.678C407.469 14.356 407.161 13.908 406.96 13.334C406.759 12.7553 406.659 12.0857 406.659 11.325C406.659 10.5877 406.773 9.92967 407.002 9.351C407.231 8.76767 407.56 8.31033 407.989 7.979C408.423 7.643 408.943 7.475 409.55 7.475C409.975 7.475 410.348 7.54967 410.67 7.699C410.992 7.84367 411.277 8.05833 411.524 8.343V4.514ZM409.858 8.42C409.242 8.42 408.768 8.66033 408.437 9.141C408.106 9.62167 407.94 10.3497 407.94 11.325C407.94 11.9597 408.008 12.4917 408.143 12.921C408.278 13.3503 408.477 13.6723 408.738 13.887C409.004 14.1017 409.328 14.209 409.711 14.209C410.131 14.209 410.488 14.09 410.782 13.852C411.081 13.614 411.328 13.3457 411.524 13.047V9.365C411.323 9.06633 411.081 8.83533 410.796 8.672C410.511 8.504 410.199 8.42 409.858 8.42ZM421.361 14.629C421.109 14.797 420.803 14.9277 420.444 15.021C420.084 15.1143 419.732 15.161 419.387 15.161C418.593 15.161 417.982 14.9533 417.553 14.538C417.123 14.1227 416.909 13.5883 416.909 12.935V8.539H415.215V7.629H416.909V5.956L418.085 5.816V7.629H420.633L420.493 8.539H418.085V12.921C418.085 13.3317 418.192 13.6443 418.407 13.859C418.626 14.0737 418.988 14.181 419.492 14.181C419.767 14.181 420.021 14.1483 420.255 14.083C420.488 14.0177 420.705 13.9337 420.906 13.831L421.361 14.629ZM425.079 4.549V8.637C425.368 8.24967 425.723 7.96033 426.143 7.769C426.568 7.573 426.997 7.475 427.431 7.475C428.15 7.475 428.675 7.66633 429.006 8.049C429.337 8.43167 429.503 8.96367 429.503 9.645V15H428.327V9.673C428.327 9.22967 428.224 8.90767 428.019 8.707C427.814 8.50167 427.492 8.399 427.053 8.399C426.773 8.399 426.507 8.462 426.255 8.588C426.003 8.714 425.777 8.87033 425.576 9.057C425.375 9.24367 425.21 9.435 425.079 9.631V15H423.903V4.675L425.079 4.549ZM433.95 14.02C433.95 13.7167 434.057 13.453 434.272 13.229C434.491 13.005 434.759 12.893 435.077 12.893C435.403 12.893 435.674 13.005 435.889 13.229C436.108 13.453 436.218 13.7167 436.218 14.02C436.218 14.3373 436.108 14.608 435.889 14.832C435.674 15.0513 435.403 15.161 435.077 15.161C434.759 15.161 434.491 15.0513 434.272 14.832C434.057 14.608 433.95 14.3373 433.95 14.02ZM433.95 8.973C433.95 8.75833 433.999 8.567 434.097 8.399C434.195 8.231 434.33 8.098 434.503 8C434.675 7.89733 434.867 7.846 435.077 7.846C435.403 7.846 435.674 7.95567 435.889 8.175C436.108 8.39433 436.218 8.66033 436.218 8.973C436.218 9.281 436.108 9.54933 435.889 9.778C435.674 10.002 435.403 10.114 435.077 10.114C434.759 10.114 434.491 10.002 434.272 9.778C434.057 9.54933 433.95 9.281 433.95 8.973ZM452.909 5.361V14.72H451.733V6.635L449.521 7.979L449.01 7.139L451.88 5.361H452.909ZM454.925 14.041V15H449.36V14.041H454.925ZM462.892 5.361L462.717 6.299H458.909V9.337C459.203 9.17833 459.481 9.071 459.742 9.015C460.008 8.95433 460.286 8.924 460.575 8.924C461.098 8.924 461.558 9.043 461.954 9.281C462.351 9.51433 462.659 9.85733 462.878 10.31C463.098 10.7627 463.207 11.3087 463.207 11.948C463.207 12.5873 463.072 13.1497 462.801 13.635C462.535 14.1203 462.16 14.496 461.674 14.762C461.189 15.028 460.613 15.161 459.945 15.161C459.367 15.161 458.849 15.0583 458.391 14.853C457.939 14.6477 457.526 14.363 457.152 13.999L457.88 13.299C458.174 13.5977 458.489 13.8217 458.825 13.971C459.166 14.1157 459.544 14.188 459.959 14.188C460.594 14.188 461.089 13.9967 461.443 13.614C461.798 13.2267 461.975 12.6597 461.975 11.913C461.975 11.395 461.898 10.9867 461.744 10.688C461.59 10.3893 461.38 10.177 461.114 10.051C460.853 9.92033 460.561 9.855 460.239 9.855C459.955 9.855 459.703 9.883 459.483 9.939C459.264 9.99033 459.014 10.0697 458.734 10.177H457.789V5.361H462.892ZM468.669 5.207C469.709 5.207 470.496 5.63633 471.028 6.495C471.56 7.35367 471.826 8.581 471.826 10.177C471.826 11.7777 471.56 13.0097 471.028 13.873C470.496 14.7317 469.709 15.161 468.669 15.161C467.633 15.161 466.846 14.7317 466.31 13.873C465.778 13.0097 465.512 11.7777 465.512 10.177C465.512 8.581 465.778 7.35367 466.31 6.495C466.846 5.63633 467.633 5.207 468.669 5.207ZM468.669 6.152C468.076 6.152 467.609 6.467 467.269 7.097C466.928 7.72233 466.758 8.749 466.758 10.177C466.758 10.9003 466.795 11.5187 466.87 12.032C466.944 12.5453 467.059 12.963 467.213 13.285C467.371 13.6023 467.57 13.8357 467.808 13.985C468.05 14.1343 468.337 14.209 468.669 14.209C469.07 14.209 469.413 14.0713 469.698 13.796C469.987 13.5207 470.206 13.0867 470.356 12.494C470.51 11.8967 470.587 11.1243 470.587 10.177C470.587 9.21567 470.519 8.43867 470.384 7.846C470.253 7.25333 470.045 6.824 469.761 6.558C469.481 6.28733 469.117 6.152 468.669 6.152ZM470.09 6.495L470.398 7.524L467.332 13.733L466.898 12.914L470.09 6.495ZM477.567 7.475C478.221 7.475 478.741 7.63367 479.128 7.951C479.52 8.26833 479.803 8.71633 479.975 9.295C480.148 9.869 480.234 10.541 480.234 11.311C480.234 12.053 480.129 12.7157 479.919 13.299C479.714 13.8777 479.401 14.3327 478.981 14.664C478.561 14.9953 478.032 15.161 477.392 15.161C476.585 15.161 475.936 14.8763 475.446 14.307V17.821L474.27 17.968V7.629H475.271L475.369 8.658C475.64 8.28 475.962 7.98833 476.335 7.783C476.713 7.57767 477.124 7.475 477.567 7.475ZM477.287 8.42C476.881 8.42 476.522 8.54367 476.209 8.791C475.901 9.03367 475.647 9.30433 475.446 9.603V13.257C475.638 13.5417 475.878 13.768 476.167 13.936C476.461 14.0993 476.783 14.181 477.133 14.181C477.745 14.181 478.204 13.9477 478.512 13.481C478.82 13.0143 478.974 12.2887 478.974 11.304C478.974 10.66 478.914 10.1257 478.792 9.701C478.671 9.27167 478.487 8.952 478.239 8.742C477.992 8.52733 477.675 8.42 477.287 8.42ZM483.379 15H482.035L484.758 11.108L482.371 7.629H483.764L485.472 10.373L487.201 7.629H488.545L486.165 11.059L488.881 15H487.439L485.423 11.836L483.379 15Z" fill="#FF9500"/>
</svg>
