<svg width="483" height="226" viewBox="0 0 483 226" fill="none" xmlns="http://www.w3.org/2000/svg">
<rect y="26" width="210" height="200" rx="12" fill="#5A8EE5"/>
<rect y="91" width="70" height="70" rx="12" fill="#FF9500"/>
<rect x="70" y="91" width="70" height="70" rx="12" fill="#FF9500"/>
<rect x="140" y="91" width="70" height="70" rx="12" fill="#FF9500"/>
<rect x="263" y="26" width="210" height="200" rx="12" fill="#5A8EE5"/>
<rect x="253" y="91" width="70" height="70" rx="12" fill="#FF9500"/>
<rect x="333" y="91" width="70" height="70" rx="12" fill="#FF9500"/>
<rect x="413" y="91" width="70" height="70" rx="12" fill="#FF9500"/>
<path d="M8.456 6.68L8.872 7.944C8.51467 8.056 8.13333 8.12533 7.728 8.152C7.32267 8.17867 6.88267 8.192 6.408 8.192C6.89333 8.416 7.25867 8.70667 7.504 9.064C7.74933 9.416 7.872 9.832 7.872 10.312C7.872 10.8667 7.74667 11.36 7.496 11.792C7.24533 12.224 6.88267 12.5627 6.408 12.808C5.93867 13.0533 5.37067 13.176 4.704 13.176C4.42133 13.176 4.184 13.1627 3.992 13.136C3.80533 13.1093 3.624 13.0693 3.448 13.016C3.32 13.1013 3.21333 13.2187 3.128 13.368C3.048 13.5173 3.008 13.672 3.008 13.832C3.008 14.0347 3.088 14.2027 3.248 14.336C3.408 14.4693 3.704 14.536 4.136 14.536H5.656C6.22133 14.536 6.728 14.6373 7.176 14.84C7.62933 15.0427 7.984 15.3147 8.24 15.656C8.50133 15.9973 8.632 16.3867 8.632 16.824C8.632 17.6507 8.28 18.2853 7.576 18.728C6.87733 19.1707 5.888 19.392 4.608 19.392C3.712 19.392 3.00533 19.2987 2.488 19.112C1.97067 18.9307 1.6 18.6507 1.376 18.272C1.15733 17.8987 1.048 17.4267 1.048 16.856H2.264C2.264 17.1813 2.328 17.4507 2.456 17.664C2.584 17.8773 2.816 18.0347 3.152 18.136C3.488 18.2427 3.97067 18.296 4.6 18.296C5.21867 18.296 5.72267 18.2427 6.112 18.136C6.50667 18.0347 6.79733 17.88 6.984 17.672C7.176 17.4693 7.272 17.216 7.272 16.912C7.272 16.512 7.09067 16.2107 6.728 16.008C6.36533 15.8053 5.912 15.704 5.368 15.704H3.864C3.13867 15.704 2.60267 15.544 2.256 15.224C1.91467 14.904 1.744 14.536 1.744 14.12C1.744 13.848 1.82133 13.584 1.976 13.328C2.136 13.072 2.368 12.8453 2.672 12.648C2.18667 12.392 1.82933 12.0747 1.6 11.696C1.37067 11.3173 1.256 10.8587 1.256 10.32C1.256 9.74933 1.39733 9.24533 1.68 8.808C1.96267 8.36533 2.35733 8.01867 2.864 7.768C3.37067 7.51733 3.95467 7.392 4.616 7.392C5.32533 7.38667 5.90133 7.35733 6.344 7.304C6.78667 7.24533 7.16533 7.16267 7.48 7.056C7.8 6.94933 8.12533 6.824 8.456 6.68ZM4.616 8.376C3.93867 8.376 3.43733 8.56 3.112 8.928C2.792 9.29067 2.632 9.75467 2.632 10.32C2.632 10.8907 2.79733 11.36 3.128 11.728C3.45867 12.096 3.96533 12.28 4.648 12.28C5.24533 12.28 5.69867 12.1067 6.008 11.76C6.32267 11.4133 6.48 10.9307 6.48 10.312C6.48 9.67733 6.32267 9.19733 6.008 8.872C5.69867 8.54133 5.23467 8.376 4.616 8.376ZM17.2338 14.16C17.2338 14.496 17.2898 14.7413 17.4018 14.896C17.5138 15.0507 17.6871 15.1653 17.9218 15.24L17.5938 16.184C17.2311 16.136 16.9138 16.0213 16.6418 15.84C16.3698 15.6533 16.1724 15.3733 16.0498 15C15.7458 15.3893 15.3671 15.6853 14.9138 15.888C14.4604 16.0853 13.9591 16.184 13.4098 16.184C12.5671 16.184 11.9031 15.9467 11.4178 15.472C10.9324 14.9973 10.6898 14.368 10.6898 13.584C10.6898 12.7147 11.0284 12.048 11.7057 11.584C12.3831 11.12 13.3618 10.888 14.6418 10.888H15.8818V10.184C15.8818 9.576 15.7031 9.14667 15.3458 8.896C14.9938 8.64 14.5031 8.512 13.8738 8.512C13.5964 8.512 13.2711 8.54667 12.8978 8.616C12.5244 8.68 12.1191 8.78933 11.6818 8.944L11.3298 7.928C11.8471 7.736 12.3324 7.6 12.7858 7.52C13.2391 7.44 13.6711 7.4 14.0818 7.4C15.1324 7.4 15.9191 7.64533 16.4418 8.136C16.9698 8.62133 17.2338 9.28267 17.2338 10.12V14.16ZM13.7538 15.16C14.1698 15.16 14.5671 15.056 14.9458 14.848C15.3244 14.6347 15.6364 14.3413 15.8818 13.968V11.8H14.6658C13.7378 11.8 13.0818 11.96 12.6978 12.28C12.3191 12.6 12.1298 13.0293 12.1298 13.568C12.1298 14.0907 12.2631 14.488 12.5298 14.76C12.8018 15.0267 13.2098 15.16 13.7538 15.16ZM24.5635 7.4C25.3102 7.4 25.9048 7.58133 26.3475 7.944C26.7955 8.30667 27.1182 8.81867 27.3155 9.48C27.5128 10.136 27.6115 10.904 27.6115 11.784C27.6115 12.632 27.4915 13.3893 27.2515 14.056C27.0168 14.7173 26.6595 15.2373 26.1795 15.616C25.6995 15.9947 25.0942 16.184 24.3635 16.184C23.4408 16.184 22.6995 15.8587 22.1395 15.208V19.224L20.7955 19.392V7.576H21.9395L22.0515 8.752C22.3608 8.32 22.7288 7.98667 23.1555 7.752C23.5875 7.51733 24.0568 7.4 24.5635 7.4ZM24.2435 8.48C23.7795 8.48 23.3688 8.62133 23.0115 8.904C22.6595 9.18133 22.3688 9.49067 22.1395 9.832V14.008C22.3582 14.3333 22.6328 14.592 22.9635 14.784C23.2995 14.9707 23.6675 15.064 24.0675 15.064C24.7662 15.064 25.2915 14.7973 25.6435 14.264C25.9955 13.7307 26.1715 12.9013 26.1715 11.776C26.1715 11.04 26.1022 10.4293 25.9635 9.944C25.8248 9.45333 25.6142 9.088 25.3315 8.848C25.0488 8.60267 24.6862 8.48 24.2435 8.48ZM32.2773 14.88C32.2773 14.5333 32.3999 14.232 32.6453 13.976C32.8959 13.72 33.2026 13.592 33.5653 13.592C33.9386 13.592 34.2479 13.72 34.4933 13.976C34.7439 14.232 34.8693 14.5333 34.8693 14.88C34.8693 15.2427 34.7439 15.552 34.4933 15.808C34.2479 16.0587 33.9386 16.184 33.5653 16.184C33.2026 16.184 32.8959 16.0587 32.6453 15.808C32.3999 15.552 32.2773 15.2427 32.2773 14.88ZM32.2773 9.112C32.2773 8.86667 32.3333 8.648 32.4453 8.456C32.5573 8.264 32.7119 8.112 32.9093 8C33.1066 7.88267 33.3253 7.824 33.5653 7.824C33.9386 7.824 34.2479 7.94933 34.4933 8.2C34.7439 8.45067 34.8693 8.75467 34.8693 9.112C34.8693 9.464 34.7439 9.77067 34.4933 10.032C34.2479 10.288 33.9386 10.416 33.5653 10.416C33.2026 10.416 32.8959 10.288 32.6453 10.032C32.3999 9.77067 32.2773 9.464 32.2773 9.112ZM53.9448 4.984V15.68H52.6008V6.44L50.0728 7.976L49.4888 7.016L52.7688 4.984H53.9448ZM56.2488 14.904V16H49.8888V14.904H56.2488ZM62.0345 15.072C62.6798 15.072 63.1892 14.952 63.5625 14.712C63.9412 14.4667 64.1305 14.1413 64.1305 13.736C64.1305 13.48 64.0825 13.2587 63.9865 13.072C63.8958 12.8853 63.7065 12.7173 63.4185 12.568C63.1305 12.4187 62.6878 12.2693 62.0905 12.12C61.5092 11.976 61.0025 11.8107 60.5705 11.624C60.1438 11.432 59.8105 11.184 59.5705 10.88C59.3358 10.576 59.2185 10.1813 59.2185 9.696C59.2185 9.22133 59.3518 8.81333 59.6185 8.472C59.8905 8.12533 60.2665 7.86133 60.7465 7.68C61.2265 7.49333 61.7838 7.4 62.4185 7.4C63.0958 7.4 63.6852 7.49067 64.1865 7.672C64.6932 7.848 65.1225 8.06667 65.4745 8.328L64.8825 9.24C64.5625 9.02133 64.2105 8.84267 63.8265 8.704C63.4425 8.56 62.9785 8.488 62.4345 8.488C61.7732 8.488 61.3038 8.592 61.0265 8.8C60.7492 9.00267 60.6105 9.26667 60.6105 9.592C60.6105 9.83733 60.6772 10.0427 60.8105 10.208C60.9492 10.368 61.1812 10.5147 61.5065 10.648C61.8318 10.776 62.2798 10.9173 62.8505 11.072C63.3998 11.216 63.8772 11.3893 64.2825 11.592C64.6932 11.7947 65.0132 12.0613 65.2425 12.392C65.4718 12.7227 65.5865 13.1493 65.5865 13.672C65.5865 14.2693 65.4158 14.7547 65.0745 15.128C64.7332 15.496 64.2905 15.7653 63.7465 15.936C63.2078 16.1013 62.6372 16.184 62.0345 16.184C61.2718 16.184 60.6212 16.0747 60.0825 15.856C59.5492 15.632 59.1012 15.3627 58.7385 15.048L59.5065 14.16C59.8372 14.432 60.2158 14.6533 60.6425 14.824C61.0745 14.9893 61.5385 15.072 62.0345 15.072Z" fill="#FF9500"/>
<path d="M271.456 6.68L271.872 7.944C271.515 8.056 271.133 8.12533 270.728 8.152C270.323 8.17867 269.883 8.192 269.408 8.192C269.893 8.416 270.259 8.70667 270.504 9.064C270.749 9.416 270.872 9.832 270.872 10.312C270.872 10.8667 270.747 11.36 270.496 11.792C270.245 12.224 269.883 12.5627 269.408 12.808C268.939 13.0533 268.371 13.176 267.704 13.176C267.421 13.176 267.184 13.1627 266.992 13.136C266.805 13.1093 266.624 13.0693 266.448 13.016C266.32 13.1013 266.213 13.2187 266.128 13.368C266.048 13.5173 266.008 13.672 266.008 13.832C266.008 14.0347 266.088 14.2027 266.248 14.336C266.408 14.4693 266.704 14.536 267.136 14.536H268.656C269.221 14.536 269.728 14.6373 270.176 14.84C270.629 15.0427 270.984 15.3147 271.24 15.656C271.501 15.9973 271.632 16.3867 271.632 16.824C271.632 17.6507 271.28 18.2853 270.576 18.728C269.877 19.1707 268.888 19.392 267.608 19.392C266.712 19.392 266.005 19.2987 265.488 19.112C264.971 18.9307 264.6 18.6507 264.376 18.272C264.157 17.8987 264.048 17.4267 264.048 16.856H265.264C265.264 17.1813 265.328 17.4507 265.456 17.664C265.584 17.8773 265.816 18.0347 266.152 18.136C266.488 18.2427 266.971 18.296 267.6 18.296C268.219 18.296 268.723 18.2427 269.112 18.136C269.507 18.0347 269.797 17.88 269.984 17.672C270.176 17.4693 270.272 17.216 270.272 16.912C270.272 16.512 270.091 16.2107 269.728 16.008C269.365 15.8053 268.912 15.704 268.368 15.704H266.864C266.139 15.704 265.603 15.544 265.256 15.224C264.915 14.904 264.744 14.536 264.744 14.12C264.744 13.848 264.821 13.584 264.976 13.328C265.136 13.072 265.368 12.8453 265.672 12.648C265.187 12.392 264.829 12.0747 264.6 11.696C264.371 11.3173 264.256 10.8587 264.256 10.32C264.256 9.74933 264.397 9.24533 264.68 8.808C264.963 8.36533 265.357 8.01867 265.864 7.768C266.371 7.51733 266.955 7.392 267.616 7.392C268.325 7.38667 268.901 7.35733 269.344 7.304C269.787 7.24533 270.165 7.16267 270.48 7.056C270.8 6.94933 271.125 6.824 271.456 6.68ZM267.616 8.376C266.939 8.376 266.437 8.56 266.112 8.928C265.792 9.29067 265.632 9.75467 265.632 10.32C265.632 10.8907 265.797 11.36 266.128 11.728C266.459 12.096 266.965 12.28 267.648 12.28C268.245 12.28 268.699 12.1067 269.008 11.76C269.323 11.4133 269.48 10.9307 269.48 10.312C269.48 9.67733 269.323 9.19733 269.008 8.872C268.699 8.54133 268.235 8.376 267.616 8.376ZM280.234 14.16C280.234 14.496 280.29 14.7413 280.402 14.896C280.514 15.0507 280.687 15.1653 280.922 15.24L280.594 16.184C280.231 16.136 279.914 16.0213 279.642 15.84C279.37 15.6533 279.172 15.3733 279.05 15C278.746 15.3893 278.367 15.6853 277.914 15.888C277.46 16.0853 276.959 16.184 276.41 16.184C275.567 16.184 274.903 15.9467 274.418 15.472C273.932 14.9973 273.69 14.368 273.69 13.584C273.69 12.7147 274.028 12.048 274.706 11.584C275.383 11.12 276.362 10.888 277.642 10.888H278.882V10.184C278.882 9.576 278.703 9.14667 278.346 8.896C277.994 8.64 277.503 8.512 276.874 8.512C276.596 8.512 276.271 8.54667 275.898 8.616C275.524 8.68 275.119 8.78933 274.682 8.944L274.33 7.928C274.847 7.736 275.332 7.6 275.786 7.52C276.239 7.44 276.671 7.4 277.082 7.4C278.132 7.4 278.919 7.64533 279.442 8.136C279.97 8.62133 280.234 9.28267 280.234 10.12V14.16ZM276.754 15.16C277.17 15.16 277.567 15.056 277.946 14.848C278.324 14.6347 278.636 14.3413 278.882 13.968V11.8H277.666C276.738 11.8 276.082 11.96 275.698 12.28C275.319 12.6 275.13 13.0293 275.13 13.568C275.13 14.0907 275.263 14.488 275.53 14.76C275.802 15.0267 276.21 15.16 276.754 15.16ZM287.564 7.4C288.31 7.4 288.905 7.58133 289.348 7.944C289.796 8.30667 290.118 8.81867 290.316 9.48C290.513 10.136 290.612 10.904 290.612 11.784C290.612 12.632 290.492 13.3893 290.252 14.056C290.017 14.7173 289.66 15.2373 289.18 15.616C288.7 15.9947 288.094 16.184 287.364 16.184C286.441 16.184 285.7 15.8587 285.14 15.208V19.224L283.796 19.392V7.576H284.94L285.052 8.752C285.361 8.32 285.729 7.98667 286.156 7.752C286.588 7.51733 287.057 7.4 287.564 7.4ZM287.244 8.48C286.78 8.48 286.369 8.62133 286.012 8.904C285.66 9.18133 285.369 9.49067 285.14 9.832V14.008C285.358 14.3333 285.633 14.592 285.964 14.784C286.3 14.9707 286.668 15.064 287.068 15.064C287.766 15.064 288.292 14.7973 288.644 14.264C288.996 13.7307 289.172 12.9013 289.172 11.776C289.172 11.04 289.102 10.4293 288.964 9.944C288.825 9.45333 288.614 9.088 288.332 8.848C288.049 8.60267 287.686 8.48 287.244 8.48ZM295.277 14.88C295.277 14.5333 295.4 14.232 295.645 13.976C295.896 13.72 296.203 13.592 296.565 13.592C296.939 13.592 297.248 13.72 297.493 13.976C297.744 14.232 297.869 14.5333 297.869 14.88C297.869 15.2427 297.744 15.552 297.493 15.808C297.248 16.0587 296.939 16.184 296.565 16.184C296.203 16.184 295.896 16.0587 295.645 15.808C295.4 15.552 295.277 15.2427 295.277 14.88ZM295.277 9.112C295.277 8.86667 295.333 8.648 295.445 8.456C295.557 8.264 295.712 8.112 295.909 8C296.107 7.88267 296.325 7.824 296.565 7.824C296.939 7.824 297.248 7.94933 297.493 8.2C297.744 8.45067 297.869 8.75467 297.869 9.112C297.869 9.464 297.744 9.77067 297.493 10.032C297.248 10.288 296.939 10.416 296.565 10.416C296.203 10.416 295.896 10.288 295.645 10.032C295.4 9.77067 295.277 9.464 295.277 9.112ZM316.945 4.984V15.68H315.601V6.44L313.073 7.976L312.489 7.016L315.769 4.984H316.945ZM319.249 14.904V16H312.889V14.904H319.249ZM325.035 15.072C325.68 15.072 326.189 14.952 326.563 14.712C326.941 14.4667 327.131 14.1413 327.131 13.736C327.131 13.48 327.083 13.2587 326.987 13.072C326.896 12.8853 326.707 12.7173 326.419 12.568C326.131 12.4187 325.688 12.2693 325.091 12.12C324.509 11.976 324.003 11.8107 323.571 11.624C323.144 11.432 322.811 11.184 322.571 10.88C322.336 10.576 322.219 10.1813 322.219 9.696C322.219 9.22133 322.352 8.81333 322.618 8.472C322.891 8.12533 323.267 7.86133 323.747 7.68C324.227 7.49333 324.784 7.4 325.419 7.4C326.096 7.4 326.685 7.49067 327.187 7.672C327.693 7.848 328.123 8.06667 328.475 8.328L327.883 9.24C327.563 9.02133 327.211 8.84267 326.827 8.704C326.443 8.56 325.979 8.488 325.435 8.488C324.773 8.488 324.304 8.592 324.027 8.8C323.749 9.00267 323.611 9.26667 323.611 9.592C323.611 9.83733 323.677 10.0427 323.811 10.208C323.949 10.368 324.181 10.5147 324.507 10.648C324.832 10.776 325.28 10.9173 325.851 11.072C326.4 11.216 326.877 11.3893 327.283 11.592C327.693 11.7947 328.013 12.0613 328.243 12.392C328.472 12.7227 328.587 13.1493 328.587 13.672C328.587 14.2693 328.416 14.7547 328.075 15.128C327.733 15.496 327.291 15.7653 326.747 15.936C326.208 16.1013 325.637 16.184 325.035 16.184C324.272 16.184 323.621 16.0747 323.083 15.856C322.549 15.632 322.101 15.3627 321.738 15.048L322.507 14.16C322.837 14.432 323.216 14.6533 323.643 14.824C324.075 14.9893 324.539 15.072 325.035 15.072ZM334.956 13.368C335.324 13.368 335.631 13.4933 335.876 13.744C336.127 13.9947 336.252 14.296 336.252 14.648C336.252 14.84 336.228 15.0347 336.18 15.232C336.138 15.4293 336.058 15.6533 335.94 15.904L334.644 18.872H333.428L334.196 15.712C334.036 15.5947 333.908 15.4427 333.812 15.256C333.722 15.064 333.676 14.8613 333.676 14.648C333.676 14.2907 333.799 13.9893 334.044 13.744C334.29 13.4933 334.594 13.368 334.956 13.368ZM356.504 7.4C356.776 7.4 357.034 7.45867 357.28 7.576C357.53 7.69333 357.736 7.92 357.896 8.256C358.056 8.592 358.136 9.08267 358.136 9.728V16H356.888V9.944C356.888 9.416 356.856 9.03467 356.792 8.8C356.728 8.56533 356.544 8.448 356.24 8.448C355.989 8.448 355.738 8.528 355.488 8.688C355.242 8.84267 355.002 9.09867 354.768 9.456V16H353.512V9.944C353.512 9.416 353.48 9.03467 353.416 8.8C353.352 8.56533 353.168 8.448 352.864 8.448C352.602 8.448 352.349 8.528 352.104 8.688C351.864 8.84267 351.626 9.09867 351.392 9.456V16H350.152V7.576H351.208L351.288 8.552C351.517 8.22667 351.773 7.95467 352.056 7.736C352.344 7.512 352.698 7.4 353.12 7.4C353.44 7.4 353.741 7.47733 354.024 7.632C354.306 7.78133 354.514 8.07467 354.648 8.512C354.877 8.18133 355.136 7.91467 355.424 7.712C355.712 7.504 356.072 7.4 356.504 7.4ZM364.81 7.576V14.936H367.186V16H360.866V14.936H363.466V8.64H360.946V7.576H364.81ZM363.738 3.632C364.036 3.632 364.274 3.72267 364.45 3.904C364.631 4.08533 364.722 4.30667 364.722 4.568C364.722 4.84 364.631 5.06933 364.45 5.256C364.274 5.43733 364.036 5.528 363.738 5.528C363.455 5.528 363.223 5.43733 363.042 5.256C362.86 5.06933 362.77 4.84 362.77 4.568C362.77 4.30667 362.86 4.08533 363.042 3.904C363.223 3.72267 363.455 3.632 363.738 3.632ZM370.139 16V7.576H371.283L371.387 8.744C371.729 8.312 372.155 7.98133 372.667 7.752C373.185 7.51733 373.686 7.4 374.171 7.4C374.998 7.4 375.598 7.61867 375.971 8.056C376.35 8.49333 376.539 9.10133 376.539 9.88V16H375.195V10.872C375.195 10.296 375.163 9.832 375.099 9.48C375.035 9.12267 374.902 8.864 374.699 8.704C374.497 8.53867 374.182 8.456 373.755 8.456C373.425 8.456 373.113 8.528 372.819 8.672C372.531 8.816 372.273 8.99733 372.043 9.216C371.819 9.42933 371.633 9.64533 371.483 9.864V16H370.139ZM379.717 12.216V11.048H386.133V12.216H379.717ZM396.175 6.68L396.591 7.944C396.233 8.056 395.852 8.12533 395.447 8.152C395.041 8.17867 394.601 8.192 394.127 8.192C394.612 8.416 394.977 8.70667 395.223 9.064C395.468 9.416 395.591 9.832 395.591 10.312C395.591 10.8667 395.465 11.36 395.215 11.792C394.964 12.224 394.601 12.5627 394.127 12.808C393.657 13.0533 393.089 13.176 392.423 13.176C392.14 13.176 391.903 13.1627 391.711 13.136C391.524 13.1093 391.343 13.0693 391.167 13.016C391.039 13.1013 390.932 13.2187 390.847 13.368C390.767 13.5173 390.727 13.672 390.727 13.832C390.727 14.0347 390.807 14.2027 390.967 14.336C391.127 14.4693 391.423 14.536 391.855 14.536H393.375C393.94 14.536 394.447 14.6373 394.895 14.84C395.348 15.0427 395.703 15.3147 395.959 15.656C396.22 15.9973 396.351 16.3867 396.351 16.824C396.351 17.6507 395.999 18.2853 395.295 18.728C394.596 19.1707 393.607 19.392 392.327 19.392C391.431 19.392 390.724 19.2987 390.207 19.112C389.689 18.9307 389.319 18.6507 389.095 18.272C388.876 17.8987 388.767 17.4267 388.767 16.856H389.983C389.983 17.1813 390.047 17.4507 390.175 17.664C390.303 17.8773 390.535 18.0347 390.871 18.136C391.207 18.2427 391.689 18.296 392.319 18.296C392.937 18.296 393.441 18.2427 393.831 18.136C394.225 18.0347 394.516 17.88 394.703 17.672C394.895 17.4693 394.991 17.216 394.991 16.912C394.991 16.512 394.809 16.2107 394.447 16.008C394.084 15.8053 393.631 15.704 393.087 15.704H391.583C390.857 15.704 390.321 15.544 389.975 15.224C389.633 14.904 389.463 14.536 389.463 14.12C389.463 13.848 389.54 13.584 389.695 13.328C389.855 13.072 390.087 12.8453 390.391 12.648C389.905 12.392 389.548 12.0747 389.319 11.696C389.089 11.3173 388.975 10.8587 388.975 10.32C388.975 9.74933 389.116 9.24533 389.399 8.808C389.681 8.36533 390.076 8.01867 390.583 7.768C391.089 7.51733 391.673 7.392 392.335 7.392C393.044 7.38667 393.62 7.35733 394.063 7.304C394.505 7.24533 394.884 7.16267 395.199 7.056C395.519 6.94933 395.844 6.824 396.175 6.68ZM392.335 8.376C391.657 8.376 391.156 8.56 390.831 8.928C390.511 9.29067 390.351 9.75467 390.351 10.32C390.351 10.8907 390.516 11.36 390.847 11.728C391.177 12.096 391.684 12.28 392.367 12.28C392.964 12.28 393.417 12.1067 393.727 11.76C394.041 11.4133 394.199 10.9307 394.199 10.312C394.199 9.67733 394.041 9.19733 393.727 8.872C393.417 8.54133 392.953 8.376 392.335 8.376ZM404.953 14.16C404.953 14.496 405.009 14.7413 405.121 14.896C405.233 15.0507 405.406 15.1653 405.641 15.24L405.312 16.184C404.95 16.136 404.633 16.0213 404.361 15.84C404.089 15.6533 403.891 15.3733 403.769 15C403.465 15.3893 403.086 15.6853 402.633 15.888C402.179 16.0853 401.678 16.184 401.129 16.184C400.286 16.184 399.622 15.9467 399.137 15.472C398.651 14.9973 398.409 14.368 398.409 13.584C398.409 12.7147 398.747 12.048 399.424 11.584C400.102 11.12 401.081 10.888 402.361 10.888H403.601V10.184C403.601 9.576 403.422 9.14667 403.065 8.896C402.713 8.64 402.222 8.512 401.593 8.512C401.315 8.512 400.99 8.54667 400.617 8.616C400.243 8.68 399.838 8.78933 399.401 8.944L399.049 7.928C399.566 7.736 400.051 7.6 400.505 7.52C400.958 7.44 401.39 7.4 401.801 7.4C402.851 7.4 403.638 7.64533 404.161 8.136C404.689 8.62133 404.953 9.28267 404.953 10.12V14.16ZM401.473 15.16C401.889 15.16 402.286 15.056 402.665 14.848C403.043 14.6347 403.355 14.3413 403.601 13.968V11.8H402.385C401.457 11.8 400.801 11.96 400.417 12.28C400.038 12.6 399.849 13.0293 399.849 13.568C399.849 14.0907 399.982 14.488 400.249 14.76C400.521 15.0267 400.929 15.16 401.473 15.16ZM412.282 7.4C413.029 7.4 413.624 7.58133 414.066 7.944C414.514 8.30667 414.837 8.81867 415.034 9.48C415.232 10.136 415.33 10.904 415.33 11.784C415.33 12.632 415.21 13.3893 414.97 14.056C414.736 14.7173 414.378 15.2373 413.898 15.616C413.418 15.9947 412.813 16.184 412.082 16.184C411.16 16.184 410.418 15.8587 409.858 15.208V19.224L408.514 19.392V7.576H409.658L409.77 8.752C410.08 8.32 410.448 7.98667 410.874 7.752C411.306 7.51733 411.776 7.4 412.282 7.4ZM411.962 8.48C411.498 8.48 411.088 8.62133 410.73 8.904C410.378 9.18133 410.088 9.49067 409.858 9.832V14.008C410.077 14.3333 410.352 14.592 410.682 14.784C411.018 14.9707 411.386 15.064 411.786 15.064C412.485 15.064 413.01 14.7973 413.362 14.264C413.714 13.7307 413.89 12.9013 413.89 11.776C413.89 11.04 413.821 10.4293 413.682 9.944C413.544 9.45333 413.333 9.088 413.05 8.848C412.768 8.60267 412.405 8.48 411.962 8.48ZM419.996 14.88C419.996 14.5333 420.119 14.232 420.364 13.976C420.615 13.72 420.921 13.592 421.284 13.592C421.657 13.592 421.967 13.72 422.212 13.976C422.463 14.232 422.588 14.5333 422.588 14.88C422.588 15.2427 422.463 15.552 422.212 15.808C421.967 16.0587 421.657 16.184 421.284 16.184C420.921 16.184 420.615 16.0587 420.364 15.808C420.119 15.552 419.996 15.2427 419.996 14.88ZM419.996 9.112C419.996 8.86667 420.052 8.648 420.164 8.456C420.276 8.264 420.431 8.112 420.628 8C420.825 7.88267 421.044 7.824 421.284 7.824C421.657 7.824 421.967 7.94933 422.212 8.2C422.463 8.45067 422.588 8.75467 422.588 9.112C422.588 9.464 422.463 9.77067 422.212 10.032C421.967 10.288 421.657 10.416 421.284 10.416C420.921 10.416 420.615 10.288 420.364 10.032C420.119 9.77067 419.996 9.464 419.996 9.112ZM441.664 4.984V15.68H440.32V6.44L437.792 7.976L437.208 7.016L440.488 4.984H441.664ZM443.968 14.904V16H437.608V14.904H443.968ZM450.081 4.808C451.271 4.808 452.169 5.29867 452.777 6.28C453.385 7.26133 453.689 8.664 453.689 10.488C453.689 12.3173 453.385 13.7253 452.777 14.712C452.169 15.6933 451.271 16.184 450.081 16.184C448.897 16.184 447.999 15.6933 447.385 14.712C446.777 13.7253 446.473 12.3173 446.473 10.488C446.473 8.664 446.777 7.26133 447.385 6.28C447.999 5.29867 448.897 4.808 450.081 4.808ZM450.081 5.888C449.404 5.888 448.871 6.248 448.481 6.968C448.092 7.68267 447.897 8.856 447.897 10.488C447.897 11.3147 447.94 12.0213 448.025 12.608C448.111 13.1947 448.241 13.672 448.417 14.04C448.599 14.4027 448.825 14.6693 449.097 14.84C449.375 15.0107 449.703 15.096 450.081 15.096C450.54 15.096 450.932 14.9387 451.257 14.624C451.588 14.3093 451.839 13.8133 452.009 13.136C452.185 12.4533 452.273 11.5707 452.273 10.488C452.273 9.38933 452.196 8.50133 452.041 7.824C451.892 7.14667 451.655 6.656 451.329 6.352C451.009 6.04267 450.593 5.888 450.081 5.888ZM451.705 6.28L452.057 7.456L448.553 14.552L448.057 13.616L451.705 6.28ZM460.251 7.4C460.998 7.4 461.592 7.58133 462.035 7.944C462.483 8.30667 462.806 8.81867 463.003 9.48C463.2 10.136 463.299 10.904 463.299 11.784C463.299 12.632 463.179 13.3893 462.939 14.056C462.704 14.7173 462.347 15.2373 461.867 15.616C461.387 15.9947 460.782 16.184 460.051 16.184C459.128 16.184 458.387 15.8587 457.827 15.208V19.224L456.483 19.392V7.576H457.627L457.739 8.752C458.048 8.32 458.416 7.98667 458.843 7.752C459.275 7.51733 459.744 7.4 460.251 7.4ZM459.931 8.48C459.467 8.48 459.056 8.62133 458.699 8.904C458.347 9.18133 458.056 9.49067 457.827 9.832V14.008C458.046 14.3333 458.32 14.592 458.651 14.784C458.987 14.9707 459.355 15.064 459.755 15.064C460.454 15.064 460.979 14.7973 461.331 14.264C461.683 13.7307 461.859 12.9013 461.859 11.776C461.859 11.04 461.79 10.4293 461.651 9.944C461.512 9.45333 461.302 9.088 461.019 8.848C460.736 8.60267 460.374 8.48 459.931 8.48ZM466.893 16H465.357L468.469 11.552L465.741 7.576H467.333L469.285 10.712L471.261 7.576H472.797L470.077 11.496L473.181 16H471.533L469.229 12.384L466.893 16Z" fill="#FF9500"/>
</svg>
