<svg width="300" height="226" viewBox="0 0 300 226" fill="none" xmlns="http://www.w3.org/2000/svg">
<rect y="26" width="300" height="200" rx="12" fill="#5A8EE5"/>
<rect x="55" y="91" width="70" height="70" rx="12" fill="#FF9500"/>
<rect x="115" y="91" width="70" height="70" rx="12" fill="#FF9500"/>
<rect x="175" y="91" width="70" height="70" rx="12" fill="#FF9500"/>
<path d="M8.456 6.68L8.872 7.944C8.51467 8.056 8.13333 8.12533 7.728 8.152C7.32267 8.17867 6.88267 8.192 6.408 8.192C6.89333 8.416 7.25867 8.70667 7.504 9.064C7.74933 9.416 7.872 9.832 7.872 10.312C7.872 10.8667 7.74667 11.36 7.496 11.792C7.24533 12.224 6.88267 12.5627 6.408 12.808C5.93867 13.0533 5.37067 13.176 4.704 13.176C4.42133 13.176 4.184 13.1627 3.992 13.136C3.80533 13.1093 3.624 13.0693 3.448 13.016C3.32 13.1013 3.21333 13.2187 3.128 13.368C3.048 13.5173 3.008 13.672 3.008 13.832C3.008 14.0347 3.088 14.2027 3.248 14.336C3.408 14.4693 3.704 14.536 4.136 14.536H5.656C6.22133 14.536 6.728 14.6373 7.176 14.84C7.62933 15.0427 7.984 15.3147 8.24 15.656C8.50133 15.9973 8.632 16.3867 8.632 16.824C8.632 17.6507 8.28 18.2853 7.576 18.728C6.87733 19.1707 5.888 19.392 4.608 19.392C3.712 19.392 3.00533 19.2987 2.488 19.112C1.97067 18.9307 1.6 18.6507 1.376 18.272C1.15733 17.8987 1.048 17.4267 1.048 16.856H2.264C2.264 17.1813 2.328 17.4507 2.456 17.664C2.584 17.8773 2.816 18.0347 3.152 18.136C3.488 18.2427 3.97067 18.296 4.6 18.296C5.21867 18.296 5.72267 18.2427 6.112 18.136C6.50667 18.0347 6.79733 17.88 6.984 17.672C7.176 17.4693 7.272 17.216 7.272 16.912C7.272 16.512 7.09067 16.2107 6.728 16.008C6.36533 15.8053 5.912 15.704 5.368 15.704H3.864C3.13867 15.704 2.60267 15.544 2.256 15.224C1.91467 14.904 1.744 14.536 1.744 14.12C1.744 13.848 1.82133 13.584 1.976 13.328C2.136 13.072 2.368 12.8453 2.672 12.648C2.18667 12.392 1.82933 12.0747 1.6 11.696C1.37067 11.3173 1.256 10.8587 1.256 10.32C1.256 9.74933 1.39733 9.24533 1.68 8.808C1.96267 8.36533 2.35733 8.01867 2.864 7.768C3.37067 7.51733 3.95467 7.392 4.616 7.392C5.32533 7.38667 5.90133 7.35733 6.344 7.304C6.78667 7.24533 7.16533 7.16267 7.48 7.056C7.8 6.94933 8.12533 6.824 8.456 6.68ZM4.616 8.376C3.93867 8.376 3.43733 8.56 3.112 8.928C2.792 9.29067 2.632 9.75467 2.632 10.32C2.632 10.8907 2.79733 11.36 3.128 11.728C3.45867 12.096 3.96533 12.28 4.648 12.28C5.24533 12.28 5.69867 12.1067 6.008 11.76C6.32267 11.4133 6.48 10.9307 6.48 10.312C6.48 9.67733 6.32267 9.19733 6.008 8.872C5.69867 8.54133 5.23467 8.376 4.616 8.376ZM17.2338 14.16C17.2338 14.496 17.2898 14.7413 17.4018 14.896C17.5138 15.0507 17.6871 15.1653 17.9218 15.24L17.5938 16.184C17.2311 16.136 16.9138 16.0213 16.6418 15.84C16.3698 15.6533 16.1724 15.3733 16.0498 15C15.7458 15.3893 15.3671 15.6853 14.9138 15.888C14.4604 16.0853 13.9591 16.184 13.4098 16.184C12.5671 16.184 11.9031 15.9467 11.4178 15.472C10.9324 14.9973 10.6898 14.368 10.6898 13.584C10.6898 12.7147 11.0284 12.048 11.7057 11.584C12.3831 11.12 13.3618 10.888 14.6418 10.888H15.8818V10.184C15.8818 9.576 15.7031 9.14667 15.3458 8.896C14.9938 8.64 14.5031 8.512 13.8738 8.512C13.5964 8.512 13.2711 8.54667 12.8978 8.616C12.5244 8.68 12.1191 8.78933 11.6818 8.944L11.3298 7.928C11.8471 7.736 12.3324 7.6 12.7858 7.52C13.2391 7.44 13.6711 7.4 14.0818 7.4C15.1324 7.4 15.9191 7.64533 16.4418 8.136C16.9698 8.62133 17.2338 9.28267 17.2338 10.12V14.16ZM13.7538 15.16C14.1698 15.16 14.5671 15.056 14.9458 14.848C15.3244 14.6347 15.6364 14.3413 15.8818 13.968V11.8H14.6658C13.7378 11.8 13.0818 11.96 12.6978 12.28C12.3191 12.6 12.1298 13.0293 12.1298 13.568C12.1298 14.0907 12.2631 14.488 12.5298 14.76C12.8018 15.0267 13.2098 15.16 13.7538 15.16ZM24.5635 7.4C25.3102 7.4 25.9048 7.58133 26.3475 7.944C26.7955 8.30667 27.1182 8.81867 27.3155 9.48C27.5128 10.136 27.6115 10.904 27.6115 11.784C27.6115 12.632 27.4915 13.3893 27.2515 14.056C27.0168 14.7173 26.6595 15.2373 26.1795 15.616C25.6995 15.9947 25.0942 16.184 24.3635 16.184C23.4408 16.184 22.6995 15.8587 22.1395 15.208V19.224L20.7955 19.392V7.576H21.9395L22.0515 8.752C22.3608 8.32 22.7288 7.98667 23.1555 7.752C23.5875 7.51733 24.0568 7.4 24.5635 7.4ZM24.2435 8.48C23.7795 8.48 23.3688 8.62133 23.0115 8.904C22.6595 9.18133 22.3688 9.49067 22.1395 9.832V14.008C22.3582 14.3333 22.6328 14.592 22.9635 14.784C23.2995 14.9707 23.6675 15.064 24.0675 15.064C24.7662 15.064 25.2915 14.7973 25.6435 14.264C25.9955 13.7307 26.1715 12.9013 26.1715 11.776C26.1715 11.04 26.1022 10.4293 25.9635 9.944C25.8248 9.45333 25.6142 9.088 25.3315 8.848C25.0488 8.60267 24.6862 8.48 24.2435 8.48ZM32.2773 14.88C32.2773 14.5333 32.3999 14.232 32.6453 13.976C32.8959 13.72 33.2026 13.592 33.5653 13.592C33.9386 13.592 34.2479 13.72 34.4933 13.976C34.7439 14.232 34.8693 14.5333 34.8693 14.88C34.8693 15.2427 34.7439 15.552 34.4933 15.808C34.2479 16.0587 33.9386 16.184 33.5653 16.184C33.2026 16.184 32.8959 16.0587 32.6453 15.808C32.3999 15.552 32.2773 15.2427 32.2773 14.88ZM32.2773 9.112C32.2773 8.86667 32.3333 8.648 32.4453 8.456C32.5573 8.264 32.7119 8.112 32.9093 8C33.1066 7.88267 33.3253 7.824 33.5653 7.824C33.9386 7.824 34.2479 7.94933 34.4933 8.2C34.7439 8.45067 34.8693 8.75467 34.8693 9.112C34.8693 9.464 34.7439 9.77067 34.4933 10.032C34.2479 10.288 33.9386 10.416 33.5653 10.416C33.2026 10.416 32.8959 10.288 32.6453 10.032C32.3999 9.77067 32.2773 9.464 32.2773 9.112ZM49.5608 11.576V10.408H55.9768V11.576H49.5608ZM63.5385 4.984V15.68H62.1945V6.44L59.6665 7.976L59.0825 7.016L62.3625 4.984H63.5385ZM65.8425 14.904V16H59.4825V14.904H65.8425ZM71.9563 4.808C73.1456 4.808 74.0443 5.29867 74.6523 6.28C75.2603 7.26133 75.5642 8.664 75.5642 10.488C75.5642 12.3173 75.2603 13.7253 74.6523 14.712C74.0443 15.6933 73.1456 16.184 71.9563 16.184C70.7723 16.184 69.8736 15.6933 69.2603 14.712C68.6523 13.7253 68.3483 12.3173 68.3483 10.488C68.3483 8.664 68.6523 7.26133 69.2603 6.28C69.8736 5.29867 70.7723 4.808 71.9563 4.808ZM71.9563 5.888C71.2789 5.888 70.7456 6.248 70.3563 6.968C69.9669 7.68267 69.7723 8.856 69.7723 10.488C69.7723 11.3147 69.8149 12.0213 69.9003 12.608C69.9856 13.1947 70.1163 13.672 70.2923 14.04C70.4736 14.4027 70.7003 14.6693 70.9723 14.84C71.2496 15.0107 71.5776 15.096 71.9563 15.096C72.4149 15.096 72.8069 14.9387 73.1323 14.624C73.4629 14.3093 73.7136 13.8133 73.8843 13.136C74.0603 12.4533 74.1483 11.5707 74.1483 10.488C74.1483 9.38933 74.0709 8.50133 73.9163 7.824C73.7669 7.14667 73.5296 6.656 73.2043 6.352C72.8843 6.04267 72.4683 5.888 71.9563 5.888ZM73.5803 6.28L73.9323 7.456L70.4283 14.552L69.9323 13.616L73.5803 6.28ZM82.126 7.4C82.8727 7.4 83.4673 7.58133 83.91 7.944C84.358 8.30667 84.6807 8.81867 84.878 9.48C85.0753 10.136 85.174 10.904 85.174 11.784C85.174 12.632 85.054 13.3893 84.814 14.056C84.5793 14.7173 84.222 15.2373 83.742 15.616C83.262 15.9947 82.6567 16.184 81.926 16.184C81.0033 16.184 80.262 15.8587 79.702 15.208V19.224L78.358 19.392V7.576H79.502L79.614 8.752C79.9233 8.32 80.2913 7.98667 80.718 7.752C81.15 7.51733 81.6193 7.4 82.126 7.4ZM81.806 8.48C81.342 8.48 80.9313 8.62133 80.574 8.904C80.222 9.18133 79.9313 9.49067 79.702 9.832V14.008C79.9207 14.3333 80.1953 14.592 80.526 14.784C80.862 14.9707 81.23 15.064 81.63 15.064C82.3287 15.064 82.854 14.7973 83.206 14.264C83.558 13.7307 83.734 12.9013 83.734 11.776C83.734 11.04 83.6647 10.4293 83.526 9.944C83.3873 9.45333 83.1767 9.088 82.894 8.848C82.6113 8.60267 82.2487 8.48 81.806 8.48ZM88.7678 16H87.2318L90.3438 11.552L87.6158 7.576H89.2078L91.1598 10.712L93.1358 7.576H94.6718L91.9518 11.496L95.0558 16H93.4078L91.1038 12.384L88.7678 16Z" fill="#FF9500"/>
</svg>
