<svg width="1132" height="574" viewBox="0 0 1132 574" fill="none" xmlns="http://www.w3.org/2000/svg">
<rect y="25" width="250" height="250" rx="12" fill="#5A8EE5"/>
<rect y="25" width="250" height="250" rx="12" fill="#FF9500"/>
<rect x="294" y="25" width="250" height="250" rx="12" fill="#5A8EE5"/>
<rect x="314" y="45" width="210" height="210" rx="12" fill="#FF9500"/>
<path d="M5.376 7.4C6.12267 7.4 6.71733 7.58133 7.16 7.944C7.608 8.30667 7.93067 8.81867 8.128 9.48C8.32533 10.136 8.424 10.904 8.424 11.784C8.424 12.632 8.304 13.3893 8.064 14.056C7.82933 14.7173 7.472 15.2373 6.992 15.616C6.512 15.9947 5.90667 16.184 5.176 16.184C4.25333 16.184 3.512 15.8587 2.952 15.208V19.224L1.608 19.392V7.576H2.752L2.864 8.752C3.17333 8.32 3.54133 7.98667 3.968 7.752C4.4 7.51733 4.86933 7.4 5.376 7.4ZM5.056 8.48C4.592 8.48 4.18133 8.62133 3.824 8.904C3.472 9.18133 3.18133 9.49067 2.952 9.832V14.008C3.17067 14.3333 3.44533 14.592 3.776 14.784C4.112 14.9707 4.48 15.064 4.88 15.064C5.57867 15.064 6.104 14.7973 6.456 14.264C6.808 13.7307 6.984 12.9013 6.984 11.776C6.984 11.04 6.91467 10.4293 6.776 9.944C6.63733 9.45333 6.42667 9.088 6.144 8.848C5.86133 8.60267 5.49867 8.48 5.056 8.48ZM17.2338 14.16C17.2338 14.496 17.2898 14.7413 17.4018 14.896C17.5138 15.0507 17.6871 15.1653 17.9218 15.24L17.5938 16.184C17.2311 16.136 16.9138 16.0213 16.6418 15.84C16.3698 15.6533 16.1724 15.3733 16.0498 15C15.7458 15.3893 15.3671 15.6853 14.9138 15.888C14.4604 16.0853 13.9591 16.184 13.4098 16.184C12.5671 16.184 11.9031 15.9467 11.4178 15.472C10.9324 14.9973 10.6898 14.368 10.6898 13.584C10.6898 12.7147 11.0284 12.048 11.7057 11.584C12.3831 11.12 13.3618 10.888 14.6418 10.888H15.8818V10.184C15.8818 9.576 15.7031 9.14667 15.3458 8.896C14.9938 8.64 14.5031 8.512 13.8738 8.512C13.5964 8.512 13.2711 8.54667 12.8978 8.616C12.5244 8.68 12.1191 8.78933 11.6818 8.944L11.3298 7.928C11.8471 7.736 12.3324 7.6 12.7858 7.52C13.2391 7.44 13.6711 7.4 14.0818 7.4C15.1324 7.4 15.9191 7.64533 16.4418 8.136C16.9698 8.62133 17.2338 9.28267 17.2338 10.12V14.16ZM13.7538 15.16C14.1698 15.16 14.5671 15.056 14.9458 14.848C15.3244 14.6347 15.6364 14.3413 15.8818 13.968V11.8H14.6658C13.7378 11.8 13.0818 11.96 12.6978 12.28C12.3191 12.6 12.1298 13.0293 12.1298 13.568C12.1298 14.0907 12.2631 14.488 12.5298 14.76C12.8018 15.0267 13.2098 15.16 13.7538 15.16ZM25.8355 4.016L27.1795 4.184V16H26.0035L25.8755 14.888C25.5608 15.336 25.1982 15.664 24.7875 15.872C24.3822 16.08 23.9475 16.184 23.4835 16.184C22.7528 16.184 22.1502 16 21.6755 15.632C21.2008 15.264 20.8488 14.752 20.6195 14.096C20.3902 13.4347 20.2755 12.6693 20.2755 11.8C20.2755 10.9573 20.4062 10.2053 20.6675 9.544C20.9288 8.87733 21.3048 8.35467 21.7955 7.976C22.2915 7.592 22.8862 7.4 23.5795 7.4C24.0648 7.4 24.4915 7.48533 24.8595 7.656C25.2275 7.82133 25.5528 8.06667 25.8355 8.392V4.016ZM23.9315 8.48C23.2275 8.48 22.6862 8.75467 22.3075 9.304C21.9288 9.85333 21.7395 10.6853 21.7395 11.8C21.7395 12.5253 21.8168 13.1333 21.9715 13.624C22.1262 14.1147 22.3528 14.4827 22.6515 14.728C22.9555 14.9733 23.3262 15.096 23.7635 15.096C24.2435 15.096 24.6515 14.96 24.9875 14.688C25.3288 14.416 25.6115 14.1093 25.8355 13.768V9.56C25.6062 9.21867 25.3288 8.95467 25.0035 8.768C24.6782 8.576 24.3208 8.48 23.9315 8.48ZM35.4293 4.016L36.7733 4.184V16H35.5973L35.4693 14.888C35.1546 15.336 34.7919 15.664 34.3813 15.872C33.9759 16.08 33.5413 16.184 33.0773 16.184C32.3466 16.184 31.7439 16 31.2693 15.632C30.7946 15.264 30.4426 14.752 30.2133 14.096C29.9839 13.4347 29.8693 12.6693 29.8693 11.8C29.8693 10.9573 29.9999 10.2053 30.2613 9.544C30.5226 8.87733 30.8986 8.35467 31.3893 7.976C31.8853 7.592 32.4799 7.4 33.1733 7.4C33.6586 7.4 34.0853 7.48533 34.4533 7.656C34.8213 7.82133 35.1466 8.06667 35.4293 8.392V4.016ZM33.5253 8.48C32.8213 8.48 32.2799 8.75467 31.9013 9.304C31.5226 9.85333 31.3333 10.6853 31.3333 11.8C31.3333 12.5253 31.4106 13.1333 31.5653 13.624C31.7199 14.1147 31.9466 14.4827 32.2453 14.728C32.5493 14.9733 32.9199 15.096 33.3573 15.096C33.8373 15.096 34.2453 14.96 34.5813 14.688C34.9226 14.416 35.2053 14.1093 35.4293 13.768V9.56C35.1999 9.21867 34.9226 8.95467 34.5973 8.768C34.2719 8.576 33.9146 8.48 33.5253 8.48ZM44.247 7.576V14.936H46.623V16H40.303V14.936H42.903V8.64H40.383V7.576H44.247ZM43.175 3.632C43.4737 3.632 43.711 3.72267 43.887 3.904C44.0683 4.08533 44.159 4.30667 44.159 4.568C44.159 4.84 44.0683 5.06933 43.887 5.256C43.711 5.43733 43.4737 5.528 43.175 5.528C42.8923 5.528 42.6603 5.43733 42.479 5.256C42.2977 5.06933 42.207 4.84 42.207 4.568C42.207 4.30667 42.2977 4.08533 42.479 3.904C42.6603 3.72267 42.8923 3.632 43.175 3.632ZM49.5768 16V7.576H50.7208L50.8248 8.744C51.1661 8.312 51.5928 7.98133 52.1048 7.752C52.6221 7.51733 53.1234 7.4 53.6088 7.4C54.4354 7.4 55.0354 7.61867 55.4088 8.056C55.7874 8.49333 55.9768 9.10133 55.9768 9.88V16H54.6328V10.872C54.6328 10.296 54.6008 9.832 54.5368 9.48C54.4728 9.12267 54.3394 8.864 54.1368 8.704C53.9341 8.53867 53.6194 8.456 53.1928 8.456C52.8621 8.456 52.5501 8.528 52.2568 8.672C51.9688 8.816 51.7101 8.99733 51.4808 9.216C51.2568 9.42933 51.0701 9.64533 50.9208 9.864V16H49.5768ZM66.0185 6.68L66.4345 7.944C66.0772 8.056 65.6958 8.12533 65.2905 8.152C64.8852 8.17867 64.4452 8.192 63.9705 8.192C64.4558 8.416 64.8212 8.70667 65.0665 9.064C65.3118 9.416 65.4345 9.832 65.4345 10.312C65.4345 10.8667 65.3092 11.36 65.0585 11.792C64.8078 12.224 64.4452 12.5627 63.9705 12.808C63.5012 13.0533 62.9332 13.176 62.2665 13.176C61.9838 13.176 61.7465 13.1627 61.5545 13.136C61.3678 13.1093 61.1865 13.0693 61.0105 13.016C60.8825 13.1013 60.7758 13.2187 60.6905 13.368C60.6105 13.5173 60.5705 13.672 60.5705 13.832C60.5705 14.0347 60.6505 14.2027 60.8105 14.336C60.9705 14.4693 61.2665 14.536 61.6985 14.536H63.2185C63.7838 14.536 64.2905 14.6373 64.7385 14.84C65.1918 15.0427 65.5465 15.3147 65.8025 15.656C66.0638 15.9973 66.1945 16.3867 66.1945 16.824C66.1945 17.6507 65.8425 18.2853 65.1385 18.728C64.4398 19.1707 63.4505 19.392 62.1705 19.392C61.2745 19.392 60.5678 19.2987 60.0505 19.112C59.5332 18.9307 59.1625 18.6507 58.9385 18.272C58.7198 17.8987 58.6105 17.4267 58.6105 16.856H59.8265C59.8265 17.1813 59.8905 17.4507 60.0185 17.664C60.1465 17.8773 60.3785 18.0347 60.7145 18.136C61.0505 18.2427 61.5332 18.296 62.1625 18.296C62.7812 18.296 63.2852 18.2427 63.6745 18.136C64.0692 18.0347 64.3598 17.88 64.5465 17.672C64.7385 17.4693 64.8345 17.216 64.8345 16.912C64.8345 16.512 64.6532 16.2107 64.2905 16.008C63.9278 15.8053 63.4745 15.704 62.9305 15.704H61.4265C60.7012 15.704 60.1652 15.544 59.8185 15.224C59.4772 14.904 59.3065 14.536 59.3065 14.12C59.3065 13.848 59.3838 13.584 59.5385 13.328C59.6985 13.072 59.9305 12.8453 60.2345 12.648C59.7492 12.392 59.3918 12.0747 59.1625 11.696C58.9332 11.3173 58.8185 10.8587 58.8185 10.32C58.8185 9.74933 58.9598 9.24533 59.2425 8.808C59.5252 8.36533 59.9198 8.01867 60.4265 7.768C60.9332 7.51733 61.5172 7.392 62.1785 7.392C62.8878 7.38667 63.4638 7.35733 63.9065 7.304C64.3492 7.24533 64.7278 7.16267 65.0425 7.056C65.3625 6.94933 65.6878 6.824 66.0185 6.68ZM62.1785 8.376C61.5012 8.376 60.9998 8.56 60.6745 8.928C60.3545 9.29067 60.1945 9.75467 60.1945 10.32C60.1945 10.8907 60.3598 11.36 60.6905 11.728C61.0212 12.096 61.5278 12.28 62.2105 12.28C62.8078 12.28 63.2612 12.1067 63.5705 11.76C63.8852 11.4133 64.0425 10.9307 64.0425 10.312C64.0425 9.67733 63.8852 9.19733 63.5705 8.872C63.2612 8.54133 62.7972 8.376 62.1785 8.376ZM70.6523 14.88C70.6523 14.5333 70.7749 14.232 71.0203 13.976C71.2709 13.72 71.5776 13.592 71.9403 13.592C72.3136 13.592 72.6229 13.72 72.8683 13.976C73.1189 14.232 73.2443 14.5333 73.2443 14.88C73.2443 15.2427 73.1189 15.552 72.8683 15.808C72.6229 16.0587 72.3136 16.184 71.9403 16.184C71.5776 16.184 71.2709 16.0587 71.0203 15.808C70.7749 15.552 70.6523 15.2427 70.6523 14.88ZM70.6523 9.112C70.6523 8.86667 70.7083 8.648 70.8203 8.456C70.9323 8.264 71.0869 8.112 71.2843 8C71.4816 7.88267 71.7003 7.824 71.9403 7.824C72.3136 7.824 72.6229 7.94933 72.8683 8.2C73.1189 8.45067 73.2443 8.75467 73.2443 9.112C73.2443 9.464 73.1189 9.77067 72.8683 10.032C72.6229 10.288 72.3136 10.416 71.9403 10.416C71.5776 10.416 71.2709 10.288 71.0203 10.032C70.7749 9.77067 70.6523 9.464 70.6523 9.112ZM91.1438 4.808C92.3331 4.808 93.2318 5.29867 93.8398 6.28C94.4478 7.26133 94.7517 8.664 94.7517 10.488C94.7517 12.3173 94.4478 13.7253 93.8398 14.712C93.2318 15.6933 92.3331 16.184 91.1438 16.184C89.9598 16.184 89.0611 15.6933 88.4478 14.712C87.8398 13.7253 87.5358 12.3173 87.5358 10.488C87.5358 8.664 87.8398 7.26133 88.4478 6.28C89.0611 5.29867 89.9598 4.808 91.1438 4.808ZM91.1438 5.888C90.4664 5.888 89.9331 6.248 89.5438 6.968C89.1544 7.68267 88.9598 8.856 88.9598 10.488C88.9598 11.3147 89.0024 12.0213 89.0878 12.608C89.1731 13.1947 89.3038 13.672 89.4798 14.04C89.6611 14.4027 89.8878 14.6693 90.1598 14.84C90.4371 15.0107 90.7651 15.096 91.1438 15.096C91.6024 15.096 91.9944 14.9387 92.3198 14.624C92.6504 14.3093 92.9011 13.8133 93.0718 13.136C93.2478 12.4533 93.3358 11.5707 93.3358 10.488C93.3358 9.38933 93.2584 8.50133 93.1038 7.824C92.9544 7.14667 92.7171 6.656 92.3918 6.352C92.0718 6.04267 91.6558 5.888 91.1438 5.888ZM92.7678 6.28L93.1198 7.456L89.6158 14.552L89.1198 13.616L92.7678 6.28ZM101.314 7.4C102.06 7.4 102.655 7.58133 103.098 7.944C103.546 8.30667 103.868 8.81867 104.066 9.48C104.263 10.136 104.362 10.904 104.362 11.784C104.362 12.632 104.242 13.3893 104.002 14.056C103.767 14.7173 103.41 15.2373 102.93 15.616C102.45 15.9947 101.844 16.184 101.114 16.184C100.191 16.184 99.4495 15.8587 98.8895 15.208V19.224L97.5455 19.392V7.576H98.6895L98.8015 8.752C99.1108 8.32 99.4788 7.98667 99.9055 7.752C100.338 7.51733 100.807 7.4 101.314 7.4ZM100.994 8.48C100.53 8.48 100.119 8.62133 99.7615 8.904C99.4095 9.18133 99.1188 9.49067 98.8895 9.832V14.008C99.1082 14.3333 99.3828 14.592 99.7135 14.784C100.05 14.9707 100.418 15.064 100.818 15.064C101.516 15.064 102.042 14.7973 102.394 14.264C102.746 13.7307 102.922 12.9013 102.922 11.776C102.922 11.04 102.852 10.4293 102.714 9.944C102.575 9.45333 102.364 9.088 102.082 8.848C101.799 8.60267 101.436 8.48 100.994 8.48ZM107.955 16H106.419L109.531 11.552L106.803 7.576H108.395L110.347 10.712L112.323 7.576H113.859L111.139 11.496L114.243 16H112.595L110.291 12.384L107.955 16Z" fill="#FF9500"/>
<path d="M299.376 7.4C300.123 7.4 300.717 7.58133 301.16 7.944C301.608 8.30667 301.931 8.81867 302.128 9.48C302.325 10.136 302.424 10.904 302.424 11.784C302.424 12.632 302.304 13.3893 302.064 14.056C301.829 14.7173 301.472 15.2373 300.992 15.616C300.512 15.9947 299.907 16.184 299.176 16.184C298.253 16.184 297.512 15.8587 296.952 15.208V19.224L295.608 19.392V7.576H296.752L296.864 8.752C297.173 8.32 297.541 7.98667 297.968 7.752C298.4 7.51733 298.869 7.4 299.376 7.4ZM299.056 8.48C298.592 8.48 298.181 8.62133 297.824 8.904C297.472 9.18133 297.181 9.49067 296.952 9.832V14.008C297.171 14.3333 297.445 14.592 297.776 14.784C298.112 14.9707 298.48 15.064 298.88 15.064C299.579 15.064 300.104 14.7973 300.456 14.264C300.808 13.7307 300.984 12.9013 300.984 11.776C300.984 11.04 300.915 10.4293 300.776 9.944C300.637 9.45333 300.427 9.088 300.144 8.848C299.861 8.60267 299.499 8.48 299.056 8.48ZM311.234 14.16C311.234 14.496 311.29 14.7413 311.402 14.896C311.514 15.0507 311.687 15.1653 311.922 15.24L311.594 16.184C311.231 16.136 310.914 16.0213 310.642 15.84C310.37 15.6533 310.172 15.3733 310.05 15C309.746 15.3893 309.367 15.6853 308.914 15.888C308.46 16.0853 307.959 16.184 307.41 16.184C306.567 16.184 305.903 15.9467 305.418 15.472C304.932 14.9973 304.69 14.368 304.69 13.584C304.69 12.7147 305.028 12.048 305.706 11.584C306.383 11.12 307.362 10.888 308.642 10.888H309.882V10.184C309.882 9.576 309.703 9.14667 309.346 8.896C308.994 8.64 308.503 8.512 307.874 8.512C307.596 8.512 307.271 8.54667 306.898 8.616C306.524 8.68 306.119 8.78933 305.682 8.944L305.33 7.928C305.847 7.736 306.332 7.6 306.786 7.52C307.239 7.44 307.671 7.4 308.082 7.4C309.132 7.4 309.919 7.64533 310.442 8.136C310.97 8.62133 311.234 9.28267 311.234 10.12V14.16ZM307.754 15.16C308.17 15.16 308.567 15.056 308.946 14.848C309.324 14.6347 309.636 14.3413 309.882 13.968V11.8H308.666C307.738 11.8 307.082 11.96 306.698 12.28C306.319 12.6 306.13 13.0293 306.13 13.568C306.13 14.0907 306.263 14.488 306.53 14.76C306.802 15.0267 307.21 15.16 307.754 15.16ZM319.836 4.016L321.18 4.184V16H320.004L319.876 14.888C319.561 15.336 319.198 15.664 318.788 15.872C318.382 16.08 317.948 16.184 317.484 16.184C316.753 16.184 316.15 16 315.676 15.632C315.201 15.264 314.849 14.752 314.62 14.096C314.39 13.4347 314.276 12.6693 314.276 11.8C314.276 10.9573 314.406 10.2053 314.668 9.544C314.929 8.87733 315.305 8.35467 315.796 7.976C316.292 7.592 316.886 7.4 317.58 7.4C318.065 7.4 318.492 7.48533 318.86 7.656C319.228 7.82133 319.553 8.06667 319.836 8.392V4.016ZM317.932 8.48C317.228 8.48 316.686 8.75467 316.308 9.304C315.929 9.85333 315.74 10.6853 315.74 11.8C315.74 12.5253 315.817 13.1333 315.972 13.624C316.126 14.1147 316.353 14.4827 316.652 14.728C316.956 14.9733 317.326 15.096 317.764 15.096C318.244 15.096 318.652 14.96 318.988 14.688C319.329 14.416 319.612 14.1093 319.836 13.768V9.56C319.606 9.21867 319.329 8.95467 319.004 8.768C318.678 8.576 318.321 8.48 317.932 8.48ZM329.429 4.016L330.773 4.184V16H329.597L329.469 14.888C329.155 15.336 328.792 15.664 328.381 15.872C327.976 16.08 327.541 16.184 327.077 16.184C326.347 16.184 325.744 16 325.269 15.632C324.795 15.264 324.443 14.752 324.213 14.096C323.984 13.4347 323.869 12.6693 323.869 11.8C323.869 10.9573 324 10.2053 324.261 9.544C324.523 8.87733 324.899 8.35467 325.389 7.976C325.885 7.592 326.48 7.4 327.173 7.4C327.659 7.4 328.085 7.48533 328.453 7.656C328.821 7.82133 329.147 8.06667 329.429 8.392V4.016ZM327.525 8.48C326.821 8.48 326.28 8.75467 325.901 9.304C325.523 9.85333 325.333 10.6853 325.333 11.8C325.333 12.5253 325.411 13.1333 325.565 13.624C325.72 14.1147 325.947 14.4827 326.245 14.728C326.549 14.9733 326.92 15.096 327.357 15.096C327.837 15.096 328.245 14.96 328.581 14.688C328.923 14.416 329.205 14.1093 329.429 13.768V9.56C329.2 9.21867 328.923 8.95467 328.597 8.768C328.272 8.576 327.915 8.48 327.525 8.48ZM338.247 7.576V14.936H340.623V16H334.303V14.936H336.903V8.64H334.383V7.576H338.247ZM337.175 3.632C337.474 3.632 337.711 3.72267 337.887 3.904C338.068 4.08533 338.159 4.30667 338.159 4.568C338.159 4.84 338.068 5.06933 337.887 5.256C337.711 5.43733 337.474 5.528 337.175 5.528C336.892 5.528 336.66 5.43733 336.479 5.256C336.298 5.06933 336.207 4.84 336.207 4.568C336.207 4.30667 336.298 4.08533 336.479 3.904C336.66 3.72267 336.892 3.632 337.175 3.632ZM343.577 16V7.576H344.721L344.825 8.744C345.166 8.312 345.593 7.98133 346.105 7.752C346.622 7.51733 347.123 7.4 347.609 7.4C348.435 7.4 349.035 7.61867 349.409 8.056C349.787 8.49333 349.977 9.10133 349.977 9.88V16H348.633V10.872C348.633 10.296 348.601 9.832 348.537 9.48C348.473 9.12267 348.339 8.864 348.137 8.704C347.934 8.53867 347.619 8.456 347.193 8.456C346.862 8.456 346.55 8.528 346.257 8.672C345.969 8.816 345.71 8.99733 345.481 9.216C345.257 9.42933 345.07 9.64533 344.921 9.864V16H343.577ZM360.019 6.68L360.435 7.944C360.077 8.056 359.696 8.12533 359.291 8.152C358.885 8.17867 358.445 8.192 357.971 8.192C358.456 8.416 358.821 8.70667 359.067 9.064C359.312 9.416 359.435 9.832 359.435 10.312C359.435 10.8667 359.309 11.36 359.059 11.792C358.808 12.224 358.445 12.5627 357.971 12.808C357.501 13.0533 356.933 13.176 356.266 13.176C355.984 13.176 355.747 13.1627 355.555 13.136C355.368 13.1093 355.187 13.0693 355.011 13.016C354.883 13.1013 354.776 13.2187 354.691 13.368C354.611 13.5173 354.571 13.672 354.571 13.832C354.571 14.0347 354.651 14.2027 354.811 14.336C354.971 14.4693 355.267 14.536 355.699 14.536H357.219C357.784 14.536 358.291 14.6373 358.739 14.84C359.192 15.0427 359.547 15.3147 359.803 15.656C360.064 15.9973 360.194 16.3867 360.194 16.824C360.194 17.6507 359.843 18.2853 359.139 18.728C358.44 19.1707 357.451 19.392 356.171 19.392C355.275 19.392 354.568 19.2987 354.051 19.112C353.533 18.9307 353.163 18.6507 352.939 18.272C352.72 17.8987 352.611 17.4267 352.611 16.856H353.827C353.827 17.1813 353.891 17.4507 354.019 17.664C354.147 17.8773 354.379 18.0347 354.715 18.136C355.051 18.2427 355.533 18.296 356.163 18.296C356.781 18.296 357.285 18.2427 357.675 18.136C358.069 18.0347 358.36 17.88 358.547 17.672C358.739 17.4693 358.835 17.216 358.835 16.912C358.835 16.512 358.653 16.2107 358.291 16.008C357.928 15.8053 357.475 15.704 356.931 15.704H355.427C354.701 15.704 354.165 15.544 353.819 15.224C353.477 14.904 353.307 14.536 353.307 14.12C353.307 13.848 353.384 13.584 353.539 13.328C353.699 13.072 353.931 12.8453 354.235 12.648C353.749 12.392 353.392 12.0747 353.163 11.696C352.933 11.3173 352.819 10.8587 352.819 10.32C352.819 9.74933 352.96 9.24533 353.243 8.808C353.525 8.36533 353.92 8.01867 354.427 7.768C354.933 7.51733 355.517 7.392 356.179 7.392C356.888 7.38667 357.464 7.35733 357.907 7.304C358.349 7.24533 358.728 7.16267 359.043 7.056C359.363 6.94933 359.688 6.824 360.019 6.68ZM356.179 8.376C355.501 8.376 355 8.56 354.675 8.928C354.355 9.29067 354.195 9.75467 354.195 10.32C354.195 10.8907 354.36 11.36 354.691 11.728C355.021 12.096 355.528 12.28 356.211 12.28C356.808 12.28 357.261 12.1067 357.571 11.76C357.885 11.4133 358.043 10.9307 358.043 10.312C358.043 9.67733 357.885 9.19733 357.571 8.872C357.261 8.54133 356.797 8.376 356.179 8.376ZM364.652 14.88C364.652 14.5333 364.775 14.232 365.02 13.976C365.271 13.72 365.578 13.592 365.94 13.592C366.314 13.592 366.623 13.72 366.868 13.976C367.119 14.232 367.244 14.5333 367.244 14.88C367.244 15.2427 367.119 15.552 366.868 15.808C366.623 16.0587 366.314 16.184 365.94 16.184C365.578 16.184 365.271 16.0587 365.02 15.808C364.775 15.552 364.652 15.2427 364.652 14.88ZM364.652 9.112C364.652 8.86667 364.708 8.648 364.82 8.456C364.932 8.264 365.087 8.112 365.284 8C365.482 7.88267 365.7 7.824 365.94 7.824C366.314 7.824 366.623 7.94933 366.868 8.2C367.119 8.45067 367.244 8.75467 367.244 9.112C367.244 9.464 367.119 9.77067 366.868 10.032C366.623 10.288 366.314 10.416 365.94 10.416C365.578 10.416 365.271 10.288 365.02 10.032C364.775 9.77067 364.652 9.464 364.652 9.112ZM384.656 4.808C385.349 4.808 385.941 4.94133 386.432 5.208C386.928 5.47467 387.309 5.84 387.576 6.304C387.842 6.768 387.976 7.29333 387.976 7.88C387.976 8.38667 387.888 8.88267 387.712 9.368C387.536 9.848 387.253 10.3547 386.864 10.888C386.48 11.416 385.973 12.0027 385.344 12.648C384.72 13.2933 383.952 14.0293 383.04 14.856H388.232L388.064 16H381.512V14.904C382.344 14.1093 383.05 13.4133 383.632 12.816C384.218 12.2187 384.701 11.696 385.08 11.248C385.464 10.7947 385.762 10.384 385.976 10.016C386.194 9.648 386.346 9.29867 386.432 8.968C386.517 8.632 386.56 8.28533 386.56 7.928C386.56 7.30933 386.384 6.82133 386.032 6.464C385.685 6.10667 385.205 5.928 384.592 5.928C384.048 5.928 383.602 6.02133 383.256 6.208C382.909 6.39467 382.562 6.69333 382.216 7.104L381.288 6.384C381.725 5.85067 382.21 5.456 382.744 5.2C383.277 4.93867 383.914 4.808 384.656 4.808ZM394.738 4.808C395.927 4.808 396.826 5.29867 397.434 6.28C398.042 7.26133 398.345 8.664 398.345 10.488C398.345 12.3173 398.042 13.7253 397.434 14.712C396.826 15.6933 395.927 16.184 394.738 16.184C393.554 16.184 392.655 15.6933 392.042 14.712C391.434 13.7253 391.13 12.3173 391.13 10.488C391.13 8.664 391.434 7.26133 392.042 6.28C392.655 5.29867 393.554 4.808 394.738 4.808ZM394.738 5.888C394.06 5.888 393.527 6.248 393.138 6.968C392.748 7.68267 392.554 8.856 392.554 10.488C392.554 11.3147 392.596 12.0213 392.682 12.608C392.767 13.1947 392.898 13.672 393.074 14.04C393.255 14.4027 393.482 14.6693 393.754 14.84C394.031 15.0107 394.359 15.096 394.738 15.096C395.196 15.096 395.588 14.9387 395.914 14.624C396.244 14.3093 396.495 13.8133 396.666 13.136C396.842 12.4533 396.93 11.5707 396.93 10.488C396.93 9.38933 396.852 8.50133 396.698 7.824C396.548 7.14667 396.311 6.656 395.986 6.352C395.666 6.04267 395.25 5.888 394.738 5.888ZM396.362 6.28L396.714 7.456L393.21 14.552L392.714 13.616L396.362 6.28ZM404.907 7.4C405.654 7.4 406.249 7.58133 406.691 7.944C407.139 8.30667 407.462 8.81867 407.659 9.48C407.857 10.136 407.955 10.904 407.955 11.784C407.955 12.632 407.835 13.3893 407.595 14.056C407.361 14.7173 407.003 15.2373 406.523 15.616C406.043 15.9947 405.438 16.184 404.707 16.184C403.785 16.184 403.043 15.8587 402.483 15.208V19.224L401.139 19.392V7.576H402.283L402.395 8.752C402.705 8.32 403.073 7.98667 403.499 7.752C403.931 7.51733 404.401 7.4 404.907 7.4ZM404.587 8.48C404.123 8.48 403.713 8.62133 403.355 8.904C403.003 9.18133 402.713 9.49067 402.483 9.832V14.008C402.702 14.3333 402.977 14.592 403.307 14.784C403.643 14.9707 404.011 15.064 404.411 15.064C405.11 15.064 405.635 14.7973 405.987 14.264C406.339 13.7307 406.515 12.9013 406.515 11.776C406.515 11.04 406.446 10.4293 406.307 9.944C406.169 9.45333 405.958 9.088 405.675 8.848C405.393 8.60267 405.03 8.48 404.587 8.48ZM411.549 16H410.013L413.125 11.552L410.397 7.576H411.989L413.941 10.712L415.917 7.576H417.453L414.733 11.496L417.837 16H416.189L413.885 12.384L411.549 16Z" fill="#FF9500"/>
<rect y="324" width="250" height="250" rx="12" fill="#5A8EE5"/>
<rect x="20" y="324" width="230" height="250" rx="12" fill="#FF9500"/>
<rect x="294" y="324" width="250" height="250" rx="12" fill="#5A8EE5"/>
<rect x="294" y="344" width="250" height="230" rx="12" fill="#FF9500"/>
<path d="M5.376 306.4C6.12267 306.4 6.71733 306.581 7.16 306.944C7.608 307.307 7.93067 307.819 8.128 308.48C8.32533 309.136 8.424 309.904 8.424 310.784C8.424 311.632 8.304 312.389 8.064 313.056C7.82933 313.717 7.472 314.237 6.992 314.616C6.512 314.995 5.90667 315.184 5.176 315.184C4.25333 315.184 3.512 314.859 2.952 314.208V318.224L1.608 318.392V306.576H2.752L2.864 307.752C3.17333 307.32 3.54133 306.987 3.968 306.752C4.4 306.517 4.86933 306.4 5.376 306.4ZM5.056 307.48C4.592 307.48 4.18133 307.621 3.824 307.904C3.472 308.181 3.18133 308.491 2.952 308.832V313.008C3.17067 313.333 3.44533 313.592 3.776 313.784C4.112 313.971 4.48 314.064 4.88 314.064C5.57867 314.064 6.104 313.797 6.456 313.264C6.808 312.731 6.984 311.901 6.984 310.776C6.984 310.04 6.91467 309.429 6.776 308.944C6.63733 308.453 6.42667 308.088 6.144 307.848C5.86133 307.603 5.49867 307.48 5.056 307.48ZM17.2338 313.16C17.2338 313.496 17.2898 313.741 17.4018 313.896C17.5138 314.051 17.6871 314.165 17.9218 314.24L17.5938 315.184C17.2311 315.136 16.9138 315.021 16.6418 314.84C16.3698 314.653 16.1724 314.373 16.0498 314C15.7458 314.389 15.3671 314.685 14.9138 314.888C14.4604 315.085 13.9591 315.184 13.4098 315.184C12.5671 315.184 11.9031 314.947 11.4178 314.472C10.9324 313.997 10.6898 313.368 10.6898 312.584C10.6898 311.715 11.0284 311.048 11.7057 310.584C12.3831 310.12 13.3618 309.888 14.6418 309.888H15.8818V309.184C15.8818 308.576 15.7031 308.147 15.3458 307.896C14.9938 307.64 14.5031 307.512 13.8738 307.512C13.5964 307.512 13.2711 307.547 12.8978 307.616C12.5244 307.68 12.1191 307.789 11.6818 307.944L11.3298 306.928C11.8471 306.736 12.3324 306.6 12.7858 306.52C13.2391 306.44 13.6711 306.4 14.0818 306.4C15.1324 306.4 15.9191 306.645 16.4418 307.136C16.9698 307.621 17.2338 308.283 17.2338 309.12V313.16ZM13.7538 314.16C14.1698 314.16 14.5671 314.056 14.9458 313.848C15.3244 313.635 15.6364 313.341 15.8818 312.968V310.8H14.6658C13.7378 310.8 13.0818 310.96 12.6978 311.28C12.3191 311.6 12.1298 312.029 12.1298 312.568C12.1298 313.091 12.2631 313.488 12.5298 313.76C12.8018 314.027 13.2098 314.16 13.7538 314.16ZM25.8355 303.016L27.1795 303.184V315H26.0035L25.8755 313.888C25.5608 314.336 25.1982 314.664 24.7875 314.872C24.3822 315.08 23.9475 315.184 23.4835 315.184C22.7528 315.184 22.1502 315 21.6755 314.632C21.2008 314.264 20.8488 313.752 20.6195 313.096C20.3902 312.435 20.2755 311.669 20.2755 310.8C20.2755 309.957 20.4062 309.205 20.6675 308.544C20.9288 307.877 21.3048 307.355 21.7955 306.976C22.2915 306.592 22.8862 306.4 23.5795 306.4C24.0648 306.4 24.4915 306.485 24.8595 306.656C25.2275 306.821 25.5528 307.067 25.8355 307.392V303.016ZM23.9315 307.48C23.2275 307.48 22.6862 307.755 22.3075 308.304C21.9288 308.853 21.7395 309.685 21.7395 310.8C21.7395 311.525 21.8168 312.133 21.9715 312.624C22.1262 313.115 22.3528 313.483 22.6515 313.728C22.9555 313.973 23.3262 314.096 23.7635 314.096C24.2435 314.096 24.6515 313.96 24.9875 313.688C25.3288 313.416 25.6115 313.109 25.8355 312.768V308.56C25.6062 308.219 25.3288 307.955 25.0035 307.768C24.6782 307.576 24.3208 307.48 23.9315 307.48ZM35.4293 303.016L36.7733 303.184V315H35.5973L35.4693 313.888C35.1546 314.336 34.7919 314.664 34.3813 314.872C33.9759 315.08 33.5413 315.184 33.0773 315.184C32.3466 315.184 31.7439 315 31.2693 314.632C30.7946 314.264 30.4426 313.752 30.2133 313.096C29.9839 312.435 29.8693 311.669 29.8693 310.8C29.8693 309.957 29.9999 309.205 30.2613 308.544C30.5226 307.877 30.8986 307.355 31.3893 306.976C31.8853 306.592 32.4799 306.4 33.1733 306.4C33.6586 306.4 34.0853 306.485 34.4533 306.656C34.8213 306.821 35.1466 307.067 35.4293 307.392V303.016ZM33.5253 307.48C32.8213 307.48 32.2799 307.755 31.9013 308.304C31.5226 308.853 31.3333 309.685 31.3333 310.8C31.3333 311.525 31.4106 312.133 31.5653 312.624C31.7199 313.115 31.9466 313.483 32.2453 313.728C32.5493 313.973 32.9199 314.096 33.3573 314.096C33.8373 314.096 34.2453 313.96 34.5813 313.688C34.9226 313.416 35.2053 313.109 35.4293 312.768V308.56C35.1999 308.219 34.9226 307.955 34.5973 307.768C34.2719 307.576 33.9146 307.48 33.5253 307.48ZM44.247 306.576V313.936H46.623V315H40.303V313.936H42.903V307.64H40.383V306.576H44.247ZM43.175 302.632C43.4737 302.632 43.711 302.723 43.887 302.904C44.0683 303.085 44.159 303.307 44.159 303.568C44.159 303.84 44.0683 304.069 43.887 304.256C43.711 304.437 43.4737 304.528 43.175 304.528C42.8923 304.528 42.6603 304.437 42.479 304.256C42.2977 304.069 42.207 303.84 42.207 303.568C42.207 303.307 42.2977 303.085 42.479 302.904C42.6603 302.723 42.8923 302.632 43.175 302.632ZM49.5768 315V306.576H50.7208L50.8248 307.744C51.1661 307.312 51.5928 306.981 52.1048 306.752C52.6221 306.517 53.1234 306.4 53.6088 306.4C54.4354 306.4 55.0354 306.619 55.4088 307.056C55.7874 307.493 55.9768 308.101 55.9768 308.88V315H54.6328V309.872C54.6328 309.296 54.6008 308.832 54.5368 308.48C54.4728 308.123 54.3394 307.864 54.1368 307.704C53.9341 307.539 53.6194 307.456 53.1928 307.456C52.8621 307.456 52.5501 307.528 52.2568 307.672C51.9688 307.816 51.7101 307.997 51.4808 308.216C51.2568 308.429 51.0701 308.645 50.9208 308.864V315H49.5768ZM66.0185 305.68L66.4345 306.944C66.0772 307.056 65.6958 307.125 65.2905 307.152C64.8852 307.179 64.4452 307.192 63.9705 307.192C64.4558 307.416 64.8212 307.707 65.0665 308.064C65.3118 308.416 65.4345 308.832 65.4345 309.312C65.4345 309.867 65.3092 310.36 65.0585 310.792C64.8078 311.224 64.4452 311.563 63.9705 311.808C63.5012 312.053 62.9332 312.176 62.2665 312.176C61.9838 312.176 61.7465 312.163 61.5545 312.136C61.3678 312.109 61.1865 312.069 61.0105 312.016C60.8825 312.101 60.7758 312.219 60.6905 312.368C60.6105 312.517 60.5705 312.672 60.5705 312.832C60.5705 313.035 60.6505 313.203 60.8105 313.336C60.9705 313.469 61.2665 313.536 61.6985 313.536H63.2185C63.7838 313.536 64.2905 313.637 64.7385 313.84C65.1918 314.043 65.5465 314.315 65.8025 314.656C66.0638 314.997 66.1945 315.387 66.1945 315.824C66.1945 316.651 65.8425 317.285 65.1385 317.728C64.4398 318.171 63.4505 318.392 62.1705 318.392C61.2745 318.392 60.5678 318.299 60.0505 318.112C59.5332 317.931 59.1625 317.651 58.9385 317.272C58.7198 316.899 58.6105 316.427 58.6105 315.856H59.8265C59.8265 316.181 59.8905 316.451 60.0185 316.664C60.1465 316.877 60.3785 317.035 60.7145 317.136C61.0505 317.243 61.5332 317.296 62.1625 317.296C62.7812 317.296 63.2852 317.243 63.6745 317.136C64.0692 317.035 64.3598 316.88 64.5465 316.672C64.7385 316.469 64.8345 316.216 64.8345 315.912C64.8345 315.512 64.6532 315.211 64.2905 315.008C63.9278 314.805 63.4745 314.704 62.9305 314.704H61.4265C60.7012 314.704 60.1652 314.544 59.8185 314.224C59.4772 313.904 59.3065 313.536 59.3065 313.12C59.3065 312.848 59.3838 312.584 59.5385 312.328C59.6985 312.072 59.9305 311.845 60.2345 311.648C59.7492 311.392 59.3918 311.075 59.1625 310.696C58.9332 310.317 58.8185 309.859 58.8185 309.32C58.8185 308.749 58.9598 308.245 59.2425 307.808C59.5252 307.365 59.9198 307.019 60.4265 306.768C60.9332 306.517 61.5172 306.392 62.1785 306.392C62.8878 306.387 63.4638 306.357 63.9065 306.304C64.3492 306.245 64.7278 306.163 65.0425 306.056C65.3625 305.949 65.6878 305.824 66.0185 305.68ZM62.1785 307.376C61.5012 307.376 60.9998 307.56 60.6745 307.928C60.3545 308.291 60.1945 308.755 60.1945 309.32C60.1945 309.891 60.3598 310.36 60.6905 310.728C61.0212 311.096 61.5278 311.28 62.2105 311.28C62.8078 311.28 63.2612 311.107 63.5705 310.76C63.8852 310.413 64.0425 309.931 64.0425 309.312C64.0425 308.677 63.8852 308.197 63.5705 307.872C63.2612 307.541 62.7972 307.376 62.1785 307.376ZM68.7483 311.216V310.048H75.1643V311.216H68.7483ZM81.638 303.184V312.92C81.638 313.336 81.766 313.632 82.022 313.808C82.2833 313.979 82.6193 314.064 83.03 314.064C83.286 314.064 83.5287 314.037 83.758 313.984C83.9873 313.931 84.2167 313.859 84.446 313.768L84.806 314.752C84.5767 314.864 84.2913 314.963 83.95 315.048C83.614 315.139 83.2327 315.184 82.806 315.184C82.0593 315.184 81.454 314.979 80.99 314.568C80.526 314.152 80.294 313.579 80.294 312.848V304.248H77.71V303.184H81.638ZM89.0078 311.264C89.0344 311.915 89.1598 312.448 89.3838 312.864C89.6078 313.275 89.9038 313.579 90.2718 313.776C90.6398 313.968 91.0398 314.064 91.4718 314.064C91.9038 314.064 92.2931 314 92.6398 313.872C92.9918 313.744 93.3518 313.555 93.7198 313.304L94.3518 314.192C93.9571 314.501 93.5064 314.744 92.9998 314.92C92.4984 315.096 91.9838 315.184 91.4558 315.184C90.6398 315.184 89.9438 315 89.3678 314.632C88.7918 314.264 88.3518 313.752 88.0478 313.096C87.7491 312.435 87.5998 311.669 87.5998 310.8C87.5998 309.947 87.7518 309.189 88.0558 308.528C88.3598 307.867 88.7864 307.347 89.3358 306.968C89.8851 306.589 90.5331 306.4 91.2798 306.4C91.9891 306.4 92.5998 306.568 93.1118 306.904C93.6238 307.235 94.0158 307.709 94.2878 308.328C94.5651 308.941 94.7038 309.675 94.7038 310.528C94.7038 310.672 94.7011 310.808 94.6958 310.936C94.6904 311.059 94.6824 311.168 94.6718 311.264H89.0078ZM91.2958 307.504C90.6718 307.504 90.1491 307.725 89.7278 308.168C89.3118 308.611 89.0744 309.296 89.0158 310.224H93.4078C93.3918 309.323 93.1944 308.645 92.8158 308.192C92.4371 307.733 91.9304 307.504 91.2958 307.504ZM102.522 303.016C102.975 303.016 103.386 303.056 103.754 303.136C104.122 303.216 104.471 303.328 104.802 303.472L104.37 304.472C104.098 304.355 103.81 304.267 103.506 304.208C103.202 304.149 102.887 304.12 102.562 304.12C101.975 304.12 101.532 304.235 101.234 304.464C100.94 304.693 100.794 305.045 100.794 305.52V307.232H103.65L103.506 308.288H100.794V315H99.4495V308.288H97.4415V307.232H99.4495V305.552C99.4495 305.029 99.5828 304.579 99.8495 304.2C100.122 303.821 100.49 303.531 100.954 303.328C101.418 303.12 101.94 303.016 102.522 303.016ZM113.827 314.576C113.539 314.768 113.19 314.917 112.779 315.024C112.369 315.131 111.966 315.184 111.571 315.184C110.665 315.184 109.966 314.947 109.475 314.472C108.985 313.997 108.739 313.387 108.739 312.64V307.616H106.803V306.576H108.739V304.664L110.083 304.504V306.576H112.995L112.835 307.616H110.083V312.624C110.083 313.093 110.206 313.451 110.451 313.696C110.702 313.941 111.115 314.064 111.691 314.064C112.006 314.064 112.297 314.027 112.563 313.952C112.83 313.877 113.078 313.781 113.307 313.664L113.827 314.576ZM118.621 313.88C118.621 313.533 118.744 313.232 118.989 312.976C119.24 312.72 119.546 312.592 119.909 312.592C120.282 312.592 120.592 312.72 120.837 312.976C121.088 313.232 121.213 313.533 121.213 313.88C121.213 314.243 121.088 314.552 120.837 314.808C120.592 315.059 120.282 315.184 119.909 315.184C119.546 315.184 119.24 315.059 118.989 314.808C118.744 314.552 118.621 314.243 118.621 313.88ZM118.621 308.112C118.621 307.867 118.677 307.648 118.789 307.456C118.901 307.264 119.056 307.112 119.253 307C119.45 306.883 119.669 306.824 119.909 306.824C120.282 306.824 120.592 306.949 120.837 307.2C121.088 307.451 121.213 307.755 121.213 308.112C121.213 308.464 121.088 308.771 120.837 309.032C120.592 309.288 120.282 309.416 119.909 309.416C119.546 309.416 119.24 309.288 118.989 309.032C118.744 308.771 118.621 308.464 118.621 308.112ZM138.625 303.808C139.318 303.808 139.91 303.941 140.401 304.208C140.897 304.475 141.278 304.84 141.545 305.304C141.811 305.768 141.945 306.293 141.945 306.88C141.945 307.387 141.857 307.883 141.681 308.368C141.505 308.848 141.222 309.355 140.833 309.888C140.449 310.416 139.942 311.003 139.312 311.648C138.689 312.293 137.921 313.029 137.009 313.856H142.201L142.033 315H135.481V313.904C136.313 313.109 137.019 312.413 137.601 311.816C138.187 311.219 138.67 310.696 139.049 310.248C139.433 309.795 139.731 309.384 139.945 309.016C140.163 308.648 140.315 308.299 140.401 307.968C140.486 307.632 140.529 307.285 140.529 306.928C140.529 306.309 140.353 305.821 140.001 305.464C139.654 305.107 139.174 304.928 138.561 304.928C138.017 304.928 137.571 305.021 137.225 305.208C136.878 305.395 136.531 305.693 136.185 306.104L135.257 305.384C135.694 304.851 136.179 304.456 136.713 304.2C137.246 303.939 137.883 303.808 138.625 303.808ZM148.706 303.808C149.896 303.808 150.794 304.299 151.402 305.28C152.01 306.261 152.314 307.664 152.314 309.488C152.314 311.317 152.01 312.725 151.402 313.712C150.794 314.693 149.896 315.184 148.706 315.184C147.522 315.184 146.624 314.693 146.01 313.712C145.402 312.725 145.098 311.317 145.098 309.488C145.098 307.664 145.402 306.261 146.01 305.28C146.624 304.299 147.522 303.808 148.706 303.808ZM148.706 304.888C148.029 304.888 147.496 305.248 147.106 305.968C146.717 306.683 146.522 307.856 146.522 309.488C146.522 310.315 146.565 311.021 146.65 311.608C146.736 312.195 146.866 312.672 147.042 313.04C147.224 313.403 147.45 313.669 147.722 313.84C148 314.011 148.328 314.096 148.706 314.096C149.165 314.096 149.557 313.939 149.882 313.624C150.213 313.309 150.464 312.813 150.634 312.136C150.81 311.453 150.898 310.571 150.898 309.488C150.898 308.389 150.821 307.501 150.666 306.824C150.517 306.147 150.28 305.656 149.954 305.352C149.634 305.043 149.218 304.888 148.706 304.888ZM150.33 305.28L150.682 306.456L147.178 313.552L146.682 312.616L150.33 305.28ZM158.876 306.4C159.623 306.4 160.217 306.581 160.66 306.944C161.108 307.307 161.431 307.819 161.628 308.48C161.825 309.136 161.924 309.904 161.924 310.784C161.924 311.632 161.804 312.389 161.564 313.056C161.329 313.717 160.972 314.237 160.492 314.616C160.012 314.995 159.407 315.184 158.676 315.184C157.753 315.184 157.012 314.859 156.452 314.208V318.224L155.108 318.392V306.576H156.252L156.364 307.752C156.673 307.32 157.041 306.987 157.468 306.752C157.9 306.517 158.369 306.4 158.876 306.4ZM158.556 307.48C158.092 307.48 157.681 307.621 157.324 307.904C156.972 308.181 156.681 308.491 156.452 308.832V313.008C156.671 313.333 156.945 313.592 157.276 313.784C157.612 313.971 157.98 314.064 158.38 314.064C159.079 314.064 159.604 313.797 159.956 313.264C160.308 312.731 160.484 311.901 160.484 310.776C160.484 310.04 160.415 309.429 160.276 308.944C160.137 308.453 159.927 308.088 159.644 307.848C159.361 307.603 158.999 307.48 158.556 307.48ZM165.518 315H163.982L167.094 310.552L164.366 306.576H165.958L167.91 309.712L169.886 306.576H171.422L168.702 310.496L171.806 315H170.158L167.854 311.384L165.518 315Z" fill="#FF9500"/>
<path d="M299.376 306.4C300.123 306.4 300.717 306.581 301.16 306.944C301.608 307.307 301.931 307.819 302.128 308.48C302.325 309.136 302.424 309.904 302.424 310.784C302.424 311.632 302.304 312.389 302.064 313.056C301.829 313.717 301.472 314.237 300.992 314.616C300.512 314.995 299.907 315.184 299.176 315.184C298.253 315.184 297.512 314.859 296.952 314.208V318.224L295.608 318.392V306.576H296.752L296.864 307.752C297.173 307.32 297.541 306.987 297.968 306.752C298.4 306.517 298.869 306.4 299.376 306.4ZM299.056 307.48C298.592 307.48 298.181 307.621 297.824 307.904C297.472 308.181 297.181 308.491 296.952 308.832V313.008C297.171 313.333 297.445 313.592 297.776 313.784C298.112 313.971 298.48 314.064 298.88 314.064C299.579 314.064 300.104 313.797 300.456 313.264C300.808 312.731 300.984 311.901 300.984 310.776C300.984 310.04 300.915 309.429 300.776 308.944C300.637 308.453 300.427 308.088 300.144 307.848C299.861 307.603 299.499 307.48 299.056 307.48ZM311.234 313.16C311.234 313.496 311.29 313.741 311.402 313.896C311.514 314.051 311.687 314.165 311.922 314.24L311.594 315.184C311.231 315.136 310.914 315.021 310.642 314.84C310.37 314.653 310.172 314.373 310.05 314C309.746 314.389 309.367 314.685 308.914 314.888C308.46 315.085 307.959 315.184 307.41 315.184C306.567 315.184 305.903 314.947 305.418 314.472C304.932 313.997 304.69 313.368 304.69 312.584C304.69 311.715 305.028 311.048 305.706 310.584C306.383 310.12 307.362 309.888 308.642 309.888H309.882V309.184C309.882 308.576 309.703 308.147 309.346 307.896C308.994 307.64 308.503 307.512 307.874 307.512C307.596 307.512 307.271 307.547 306.898 307.616C306.524 307.68 306.119 307.789 305.682 307.944L305.33 306.928C305.847 306.736 306.332 306.6 306.786 306.52C307.239 306.44 307.671 306.4 308.082 306.4C309.132 306.4 309.919 306.645 310.442 307.136C310.97 307.621 311.234 308.283 311.234 309.12V313.16ZM307.754 314.16C308.17 314.16 308.567 314.056 308.946 313.848C309.324 313.635 309.636 313.341 309.882 312.968V310.8H308.666C307.738 310.8 307.082 310.96 306.698 311.28C306.319 311.6 306.13 312.029 306.13 312.568C306.13 313.091 306.263 313.488 306.53 313.76C306.802 314.027 307.21 314.16 307.754 314.16ZM319.836 303.016L321.18 303.184V315H320.004L319.876 313.888C319.561 314.336 319.198 314.664 318.788 314.872C318.382 315.08 317.948 315.184 317.484 315.184C316.753 315.184 316.15 315 315.676 314.632C315.201 314.264 314.849 313.752 314.62 313.096C314.39 312.435 314.276 311.669 314.276 310.8C314.276 309.957 314.406 309.205 314.668 308.544C314.929 307.877 315.305 307.355 315.796 306.976C316.292 306.592 316.886 306.4 317.58 306.4C318.065 306.4 318.492 306.485 318.86 306.656C319.228 306.821 319.553 307.067 319.836 307.392V303.016ZM317.932 307.48C317.228 307.48 316.686 307.755 316.308 308.304C315.929 308.853 315.74 309.685 315.74 310.8C315.74 311.525 315.817 312.133 315.972 312.624C316.126 313.115 316.353 313.483 316.652 313.728C316.956 313.973 317.326 314.096 317.764 314.096C318.244 314.096 318.652 313.96 318.988 313.688C319.329 313.416 319.612 313.109 319.836 312.768V308.56C319.606 308.219 319.329 307.955 319.004 307.768C318.678 307.576 318.321 307.48 317.932 307.48ZM329.429 303.016L330.773 303.184V315H329.597L329.469 313.888C329.155 314.336 328.792 314.664 328.381 314.872C327.976 315.08 327.541 315.184 327.077 315.184C326.347 315.184 325.744 315 325.269 314.632C324.795 314.264 324.443 313.752 324.213 313.096C323.984 312.435 323.869 311.669 323.869 310.8C323.869 309.957 324 309.205 324.261 308.544C324.523 307.877 324.899 307.355 325.389 306.976C325.885 306.592 326.48 306.4 327.173 306.4C327.659 306.4 328.085 306.485 328.453 306.656C328.821 306.821 329.147 307.067 329.429 307.392V303.016ZM327.525 307.48C326.821 307.48 326.28 307.755 325.901 308.304C325.523 308.853 325.333 309.685 325.333 310.8C325.333 311.525 325.411 312.133 325.565 312.624C325.72 313.115 325.947 313.483 326.245 313.728C326.549 313.973 326.92 314.096 327.357 314.096C327.837 314.096 328.245 313.96 328.581 313.688C328.923 313.416 329.205 313.109 329.429 312.768V308.56C329.2 308.219 328.923 307.955 328.597 307.768C328.272 307.576 327.915 307.48 327.525 307.48ZM338.247 306.576V313.936H340.623V315H334.303V313.936H336.903V307.64H334.383V306.576H338.247ZM337.175 302.632C337.474 302.632 337.711 302.723 337.887 302.904C338.068 303.085 338.159 303.307 338.159 303.568C338.159 303.84 338.068 304.069 337.887 304.256C337.711 304.437 337.474 304.528 337.175 304.528C336.892 304.528 336.66 304.437 336.479 304.256C336.298 304.069 336.207 303.84 336.207 303.568C336.207 303.307 336.298 303.085 336.479 302.904C336.66 302.723 336.892 302.632 337.175 302.632ZM343.577 315V306.576H344.721L344.825 307.744C345.166 307.312 345.593 306.981 346.105 306.752C346.622 306.517 347.123 306.4 347.609 306.4C348.435 306.4 349.035 306.619 349.409 307.056C349.787 307.493 349.977 308.101 349.977 308.88V315H348.633V309.872C348.633 309.296 348.601 308.832 348.537 308.48C348.473 308.123 348.339 307.864 348.137 307.704C347.934 307.539 347.619 307.456 347.193 307.456C346.862 307.456 346.55 307.528 346.257 307.672C345.969 307.816 345.71 307.997 345.481 308.216C345.257 308.429 345.07 308.645 344.921 308.864V315H343.577ZM360.019 305.68L360.435 306.944C360.077 307.056 359.696 307.125 359.291 307.152C358.885 307.179 358.445 307.192 357.971 307.192C358.456 307.416 358.821 307.707 359.067 308.064C359.312 308.416 359.435 308.832 359.435 309.312C359.435 309.867 359.309 310.36 359.059 310.792C358.808 311.224 358.445 311.563 357.971 311.808C357.501 312.053 356.933 312.176 356.266 312.176C355.984 312.176 355.747 312.163 355.555 312.136C355.368 312.109 355.187 312.069 355.011 312.016C354.883 312.101 354.776 312.219 354.691 312.368C354.611 312.517 354.571 312.672 354.571 312.832C354.571 313.035 354.651 313.203 354.811 313.336C354.971 313.469 355.267 313.536 355.699 313.536H357.219C357.784 313.536 358.291 313.637 358.739 313.84C359.192 314.043 359.547 314.315 359.803 314.656C360.064 314.997 360.194 315.387 360.194 315.824C360.194 316.651 359.843 317.285 359.139 317.728C358.44 318.171 357.451 318.392 356.171 318.392C355.275 318.392 354.568 318.299 354.051 318.112C353.533 317.931 353.163 317.651 352.939 317.272C352.72 316.899 352.611 316.427 352.611 315.856H353.827C353.827 316.181 353.891 316.451 354.019 316.664C354.147 316.877 354.379 317.035 354.715 317.136C355.051 317.243 355.533 317.296 356.163 317.296C356.781 317.296 357.285 317.243 357.675 317.136C358.069 317.035 358.36 316.88 358.547 316.672C358.739 316.469 358.835 316.216 358.835 315.912C358.835 315.512 358.653 315.211 358.291 315.008C357.928 314.805 357.475 314.704 356.931 314.704H355.427C354.701 314.704 354.165 314.544 353.819 314.224C353.477 313.904 353.307 313.536 353.307 313.12C353.307 312.848 353.384 312.584 353.539 312.328C353.699 312.072 353.931 311.845 354.235 311.648C353.749 311.392 353.392 311.075 353.163 310.696C352.933 310.317 352.819 309.859 352.819 309.32C352.819 308.749 352.96 308.245 353.243 307.808C353.525 307.365 353.92 307.019 354.427 306.768C354.933 306.517 355.517 306.392 356.179 306.392C356.888 306.387 357.464 306.357 357.907 306.304C358.349 306.245 358.728 306.163 359.043 306.056C359.363 305.949 359.688 305.824 360.019 305.68ZM356.179 307.376C355.501 307.376 355 307.56 354.675 307.928C354.355 308.291 354.195 308.755 354.195 309.32C354.195 309.891 354.36 310.36 354.691 310.728C355.021 311.096 355.528 311.28 356.211 311.28C356.808 311.28 357.261 311.107 357.571 310.76C357.885 310.413 358.043 309.931 358.043 309.312C358.043 308.677 357.885 308.197 357.571 307.872C357.261 307.541 356.797 307.376 356.179 307.376ZM362.748 311.216V310.048H369.164V311.216H362.748ZM379.046 314.576C378.758 314.768 378.409 314.917 377.998 315.024C377.587 315.131 377.185 315.184 376.79 315.184C375.883 315.184 375.185 314.947 374.694 314.472C374.203 313.997 373.958 313.387 373.958 312.64V307.616H372.022V306.576H373.958V304.664L375.302 304.504V306.576H378.214L378.054 307.616H375.302V312.624C375.302 313.093 375.425 313.451 375.67 313.696C375.921 313.941 376.334 314.064 376.91 314.064C377.225 314.064 377.515 314.027 377.782 313.952C378.049 313.877 378.297 313.781 378.526 313.664L379.046 314.576ZM385.16 306.4C385.954 306.4 386.618 306.581 387.152 306.944C387.69 307.301 388.093 307.808 388.36 308.464C388.632 309.12 388.768 309.893 388.768 310.784C388.768 311.643 388.629 312.403 388.352 313.064C388.074 313.725 387.666 314.245 387.128 314.624C386.594 314.997 385.933 315.184 385.144 315.184C384.354 315.184 383.69 315.003 383.152 314.64C382.613 314.277 382.205 313.768 381.928 313.112C381.656 312.451 381.52 311.68 381.52 310.8C381.52 309.931 381.658 309.165 381.936 308.504C382.213 307.843 382.621 307.328 383.16 306.96C383.704 306.587 384.37 306.4 385.16 306.4ZM385.16 307.496C384.434 307.496 383.885 307.765 383.512 308.304C383.144 308.837 382.96 309.669 382.96 310.8C382.96 311.909 383.141 312.733 383.504 313.272C383.872 313.811 384.418 314.08 385.144 314.08C385.869 314.08 386.413 313.811 386.776 313.272C387.144 312.733 387.328 311.904 387.328 310.784C387.328 309.664 387.146 308.837 386.784 308.304C386.421 307.765 385.88 307.496 385.16 307.496ZM395.314 306.4C396.06 306.4 396.655 306.581 397.098 306.944C397.546 307.307 397.868 307.819 398.066 308.48C398.263 309.136 398.362 309.904 398.362 310.784C398.362 311.632 398.242 312.389 398.002 313.056C397.767 313.717 397.41 314.237 396.93 314.616C396.45 314.995 395.844 315.184 395.114 315.184C394.191 315.184 393.45 314.859 392.89 314.208V318.224L391.546 318.392V306.576H392.69L392.802 307.752C393.111 307.32 393.479 306.987 393.906 306.752C394.338 306.517 394.807 306.4 395.314 306.4ZM394.994 307.48C394.53 307.48 394.119 307.621 393.762 307.904C393.41 308.181 393.119 308.491 392.89 308.832V313.008C393.108 313.333 393.383 313.592 393.714 313.784C394.05 313.971 394.418 314.064 394.818 314.064C395.516 314.064 396.042 313.797 396.394 313.264C396.746 312.731 396.922 311.901 396.922 310.776C396.922 310.04 396.852 309.429 396.714 308.944C396.575 308.453 396.364 308.088 396.082 307.848C395.799 307.603 395.436 307.48 394.994 307.48ZM403.027 313.88C403.027 313.533 403.15 313.232 403.395 312.976C403.646 312.72 403.953 312.592 404.315 312.592C404.689 312.592 404.998 312.72 405.243 312.976C405.494 313.232 405.619 313.533 405.619 313.88C405.619 314.243 405.494 314.552 405.243 314.808C404.998 315.059 404.689 315.184 404.315 315.184C403.953 315.184 403.646 315.059 403.395 314.808C403.15 314.552 403.027 314.243 403.027 313.88ZM403.027 308.112C403.027 307.867 403.083 307.648 403.195 307.456C403.307 307.264 403.462 307.112 403.659 307C403.857 306.883 404.075 306.824 404.315 306.824C404.689 306.824 404.998 306.949 405.243 307.2C405.494 307.451 405.619 307.755 405.619 308.112C405.619 308.464 405.494 308.771 405.243 309.032C404.998 309.288 404.689 309.416 404.315 309.416C403.953 309.416 403.646 309.288 403.395 309.032C403.15 308.771 403.027 308.464 403.027 308.112ZM423.031 303.808C423.724 303.808 424.316 303.941 424.807 304.208C425.303 304.475 425.684 304.84 425.951 305.304C426.217 305.768 426.351 306.293 426.351 306.88C426.351 307.387 426.263 307.883 426.087 308.368C425.911 308.848 425.628 309.355 425.239 309.888C424.855 310.416 424.348 311.003 423.719 311.648C423.095 312.293 422.327 313.029 421.415 313.856H426.607L426.439 315H419.887V313.904C420.719 313.109 421.425 312.413 422.007 311.816C422.593 311.219 423.076 310.696 423.455 310.248C423.839 309.795 424.137 309.384 424.351 309.016C424.569 308.648 424.721 308.299 424.807 307.968C424.892 307.632 424.935 307.285 424.935 306.928C424.935 306.309 424.759 305.821 424.407 305.464C424.06 305.107 423.58 304.928 422.967 304.928C422.423 304.928 421.977 305.021 421.631 305.208C421.284 305.395 420.937 305.693 420.591 306.104L419.663 305.384C420.1 304.851 420.585 304.456 421.119 304.2C421.652 303.939 422.289 303.808 423.031 303.808ZM433.113 303.808C434.302 303.808 435.201 304.299 435.809 305.28C436.417 306.261 436.72 307.664 436.72 309.488C436.72 311.317 436.417 312.725 435.809 313.712C435.201 314.693 434.302 315.184 433.113 315.184C431.929 315.184 431.03 314.693 430.417 313.712C429.809 312.725 429.505 311.317 429.505 309.488C429.505 307.664 429.809 306.261 430.417 305.28C431.03 304.299 431.929 303.808 433.113 303.808ZM433.113 304.888C432.435 304.888 431.902 305.248 431.513 305.968C431.123 306.683 430.929 307.856 430.929 309.488C430.929 310.315 430.971 311.021 431.057 311.608C431.142 312.195 431.273 312.672 431.449 313.04C431.63 313.403 431.857 313.669 432.129 313.84C432.406 314.011 432.734 314.096 433.113 314.096C433.571 314.096 433.963 313.939 434.289 313.624C434.619 313.309 434.87 312.813 435.041 312.136C435.217 311.453 435.305 310.571 435.305 309.488C435.305 308.389 435.227 307.501 435.073 306.824C434.923 306.147 434.686 305.656 434.361 305.352C434.041 305.043 433.625 304.888 433.113 304.888ZM434.737 305.28L435.089 306.456L431.585 313.552L431.089 312.616L434.737 305.28ZM443.282 306.4C444.029 306.4 444.624 306.581 445.066 306.944C445.514 307.307 445.837 307.819 446.034 308.48C446.232 309.136 446.33 309.904 446.33 310.784C446.33 311.632 446.21 312.389 445.97 313.056C445.736 313.717 445.378 314.237 444.898 314.616C444.418 314.995 443.813 315.184 443.082 315.184C442.16 315.184 441.418 314.859 440.858 314.208V318.224L439.514 318.392V306.576H440.658L440.77 307.752C441.08 307.32 441.448 306.987 441.874 306.752C442.306 306.517 442.776 306.4 443.282 306.4ZM442.962 307.48C442.498 307.48 442.088 307.621 441.73 307.904C441.378 308.181 441.088 308.491 440.858 308.832V313.008C441.077 313.333 441.352 313.592 441.682 313.784C442.018 313.971 442.386 314.064 442.786 314.064C443.485 314.064 444.01 313.797 444.362 313.264C444.714 312.731 444.89 311.901 444.89 310.776C444.89 310.04 444.821 309.429 444.682 308.944C444.544 308.453 444.333 308.088 444.05 307.848C443.768 307.603 443.405 307.48 442.962 307.48ZM449.924 315H448.388L451.5 310.552L448.772 306.576H450.364L452.316 309.712L454.292 306.576H455.828L453.108 310.496L456.212 315H454.564L452.26 311.384L449.924 315Z" fill="#FF9500"/>
<rect x="588" y="324" width="250" height="250" rx="12" fill="#5A8EE5"/>
<rect x="588" y="324" width="230" height="250" rx="12" fill="#FF9500"/>
<rect x="882" y="324" width="250" height="250" rx="12" fill="#5A8EE5"/>
<rect x="882" y="324" width="250" height="230" rx="12" fill="#FF9500"/>
<path d="M593.376 306.4C594.123 306.4 594.717 306.581 595.16 306.944C595.608 307.307 595.931 307.819 596.128 308.48C596.325 309.136 596.424 309.904 596.424 310.784C596.424 311.632 596.304 312.389 596.064 313.056C595.829 313.717 595.472 314.237 594.992 314.616C594.512 314.995 593.907 315.184 593.176 315.184C592.253 315.184 591.512 314.859 590.952 314.208V318.224L589.608 318.392V306.576H590.752L590.864 307.752C591.173 307.32 591.541 306.987 591.968 306.752C592.4 306.517 592.869 306.4 593.376 306.4ZM593.056 307.48C592.592 307.48 592.181 307.621 591.824 307.904C591.472 308.181 591.181 308.491 590.952 308.832V313.008C591.171 313.333 591.445 313.592 591.776 313.784C592.112 313.971 592.48 314.064 592.88 314.064C593.579 314.064 594.104 313.797 594.456 313.264C594.808 312.731 594.984 311.901 594.984 310.776C594.984 310.04 594.915 309.429 594.776 308.944C594.637 308.453 594.427 308.088 594.144 307.848C593.861 307.603 593.499 307.48 593.056 307.48ZM605.234 313.16C605.234 313.496 605.29 313.741 605.402 313.896C605.514 314.051 605.687 314.165 605.922 314.24L605.594 315.184C605.231 315.136 604.914 315.021 604.642 314.84C604.37 314.653 604.172 314.373 604.05 314C603.746 314.389 603.367 314.685 602.914 314.888C602.46 315.085 601.959 315.184 601.41 315.184C600.567 315.184 599.903 314.947 599.418 314.472C598.932 313.997 598.69 313.368 598.69 312.584C598.69 311.715 599.028 311.048 599.706 310.584C600.383 310.12 601.362 309.888 602.642 309.888H603.882V309.184C603.882 308.576 603.703 308.147 603.346 307.896C602.994 307.64 602.503 307.512 601.874 307.512C601.596 307.512 601.271 307.547 600.898 307.616C600.524 307.68 600.119 307.789 599.682 307.944L599.33 306.928C599.847 306.736 600.332 306.6 600.786 306.52C601.239 306.44 601.671 306.4 602.082 306.4C603.132 306.4 603.919 306.645 604.442 307.136C604.97 307.621 605.234 308.283 605.234 309.12V313.16ZM601.754 314.16C602.17 314.16 602.567 314.056 602.946 313.848C603.324 313.635 603.636 313.341 603.882 312.968V310.8H602.666C601.738 310.8 601.082 310.96 600.698 311.28C600.319 311.6 600.13 312.029 600.13 312.568C600.13 313.091 600.263 313.488 600.53 313.76C600.802 314.027 601.21 314.16 601.754 314.16ZM613.836 303.016L615.18 303.184V315H614.004L613.876 313.888C613.561 314.336 613.198 314.664 612.788 314.872C612.382 315.08 611.948 315.184 611.484 315.184C610.753 315.184 610.15 315 609.676 314.632C609.201 314.264 608.849 313.752 608.62 313.096C608.39 312.435 608.276 311.669 608.276 310.8C608.276 309.957 608.406 309.205 608.668 308.544C608.929 307.877 609.305 307.355 609.796 306.976C610.292 306.592 610.886 306.4 611.58 306.4C612.065 306.4 612.492 306.485 612.86 306.656C613.228 306.821 613.553 307.067 613.836 307.392V303.016ZM611.932 307.48C611.228 307.48 610.686 307.755 610.308 308.304C609.929 308.853 609.74 309.685 609.74 310.8C609.74 311.525 609.817 312.133 609.972 312.624C610.126 313.115 610.353 313.483 610.652 313.728C610.956 313.973 611.326 314.096 611.764 314.096C612.244 314.096 612.652 313.96 612.988 313.688C613.329 313.416 613.612 313.109 613.836 312.768V308.56C613.606 308.219 613.329 307.955 613.004 307.768C612.678 307.576 612.321 307.48 611.932 307.48ZM623.429 303.016L624.773 303.184V315H623.597L623.469 313.888C623.155 314.336 622.792 314.664 622.381 314.872C621.976 315.08 621.541 315.184 621.077 315.184C620.347 315.184 619.744 315 619.269 314.632C618.795 314.264 618.443 313.752 618.213 313.096C617.984 312.435 617.869 311.669 617.869 310.8C617.869 309.957 618 309.205 618.261 308.544C618.523 307.877 618.899 307.355 619.389 306.976C619.885 306.592 620.48 306.4 621.173 306.4C621.659 306.4 622.085 306.485 622.453 306.656C622.821 306.821 623.147 307.067 623.429 307.392V303.016ZM621.525 307.48C620.821 307.48 620.28 307.755 619.901 308.304C619.523 308.853 619.333 309.685 619.333 310.8C619.333 311.525 619.411 312.133 619.565 312.624C619.72 313.115 619.947 313.483 620.245 313.728C620.549 313.973 620.92 314.096 621.357 314.096C621.837 314.096 622.245 313.96 622.581 313.688C622.923 313.416 623.205 313.109 623.429 312.768V308.56C623.2 308.219 622.923 307.955 622.597 307.768C622.272 307.576 621.915 307.48 621.525 307.48ZM632.247 306.576V313.936H634.623V315H628.303V313.936H630.903V307.64H628.383V306.576H632.247ZM631.175 302.632C631.474 302.632 631.711 302.723 631.887 302.904C632.068 303.085 632.159 303.307 632.159 303.568C632.159 303.84 632.068 304.069 631.887 304.256C631.711 304.437 631.474 304.528 631.175 304.528C630.892 304.528 630.66 304.437 630.479 304.256C630.298 304.069 630.207 303.84 630.207 303.568C630.207 303.307 630.298 303.085 630.479 302.904C630.66 302.723 630.892 302.632 631.175 302.632ZM637.577 315V306.576H638.721L638.825 307.744C639.166 307.312 639.593 306.981 640.105 306.752C640.622 306.517 641.123 306.4 641.609 306.4C642.435 306.4 643.035 306.619 643.409 307.056C643.787 307.493 643.977 308.101 643.977 308.88V315H642.633V309.872C642.633 309.296 642.601 308.832 642.537 308.48C642.473 308.123 642.339 307.864 642.137 307.704C641.934 307.539 641.619 307.456 641.193 307.456C640.862 307.456 640.55 307.528 640.257 307.672C639.969 307.816 639.71 307.997 639.481 308.216C639.257 308.429 639.07 308.645 638.921 308.864V315H637.577ZM654.019 305.68L654.435 306.944C654.077 307.056 653.696 307.125 653.291 307.152C652.885 307.179 652.445 307.192 651.971 307.192C652.456 307.416 652.821 307.707 653.067 308.064C653.312 308.416 653.435 308.832 653.435 309.312C653.435 309.867 653.309 310.36 653.059 310.792C652.808 311.224 652.445 311.563 651.971 311.808C651.501 312.053 650.933 312.176 650.266 312.176C649.984 312.176 649.747 312.163 649.555 312.136C649.368 312.109 649.187 312.069 649.011 312.016C648.883 312.101 648.776 312.219 648.691 312.368C648.611 312.517 648.571 312.672 648.571 312.832C648.571 313.035 648.651 313.203 648.811 313.336C648.971 313.469 649.267 313.536 649.699 313.536H651.219C651.784 313.536 652.291 313.637 652.739 313.84C653.192 314.043 653.547 314.315 653.803 314.656C654.064 314.997 654.194 315.387 654.194 315.824C654.194 316.651 653.843 317.285 653.139 317.728C652.44 318.171 651.451 318.392 650.171 318.392C649.275 318.392 648.568 318.299 648.051 318.112C647.533 317.931 647.163 317.651 646.939 317.272C646.72 316.899 646.611 316.427 646.611 315.856H647.827C647.827 316.181 647.891 316.451 648.019 316.664C648.147 316.877 648.379 317.035 648.715 317.136C649.051 317.243 649.533 317.296 650.163 317.296C650.781 317.296 651.285 317.243 651.675 317.136C652.069 317.035 652.36 316.88 652.547 316.672C652.739 316.469 652.835 316.216 652.835 315.912C652.835 315.512 652.653 315.211 652.291 315.008C651.928 314.805 651.475 314.704 650.931 314.704H649.427C648.701 314.704 648.165 314.544 647.819 314.224C647.477 313.904 647.307 313.536 647.307 313.12C647.307 312.848 647.384 312.584 647.539 312.328C647.699 312.072 647.931 311.845 648.235 311.648C647.749 311.392 647.392 311.075 647.163 310.696C646.933 310.317 646.819 309.859 646.819 309.32C646.819 308.749 646.96 308.245 647.243 307.808C647.525 307.365 647.92 307.019 648.427 306.768C648.933 306.517 649.517 306.392 650.179 306.392C650.888 306.387 651.464 306.357 651.907 306.304C652.349 306.245 652.728 306.163 653.043 306.056C653.363 305.949 653.688 305.824 654.019 305.68ZM650.179 307.376C649.501 307.376 649 307.56 648.675 307.928C648.355 308.291 648.195 308.755 648.195 309.32C648.195 309.891 648.36 310.36 648.691 310.728C649.021 311.096 649.528 311.28 650.211 311.28C650.808 311.28 651.261 311.107 651.571 310.76C651.885 310.413 652.043 309.931 652.043 309.312C652.043 308.677 651.885 308.197 651.571 307.872C651.261 307.541 650.797 307.376 650.179 307.376ZM656.748 311.216V310.048H663.164V311.216H656.748ZM666.438 315V313.968H667.75V307.608H666.438V306.576H668.774L669.022 308.568C669.347 307.875 669.742 307.339 670.206 306.96C670.67 306.581 671.283 306.392 672.046 306.392C672.281 306.392 672.489 306.411 672.67 306.448C672.857 306.48 673.046 306.523 673.238 306.576L672.846 307.776C672.67 307.728 672.51 307.693 672.366 307.672C672.222 307.645 672.057 307.632 671.87 307.632C671.225 307.632 670.67 307.861 670.206 308.32C669.742 308.779 669.371 309.472 669.094 310.4V313.968H670.806V315H666.438ZM671.942 309.424V307.592L672.078 306.576H673.238L673.046 309.424H671.942ZM680.216 306.576V313.936H682.592V315H676.272V313.936H678.872V307.64H676.352V306.576H680.216ZM679.144 302.632C679.442 302.632 679.68 302.723 679.856 302.904C680.037 303.085 680.128 303.307 680.128 303.568C680.128 303.84 680.037 304.069 679.856 304.256C679.68 304.437 679.442 304.528 679.144 304.528C678.861 304.528 678.629 304.437 678.448 304.256C678.266 304.069 678.176 303.84 678.176 303.568C678.176 303.307 678.266 303.085 678.448 302.904C678.629 302.723 678.861 302.632 679.144 302.632ZM692.394 305.68L692.81 306.944C692.452 307.056 692.071 307.125 691.666 307.152C691.26 307.179 690.82 307.192 690.346 307.192C690.831 307.416 691.196 307.707 691.442 308.064C691.687 308.416 691.81 308.832 691.81 309.312C691.81 309.867 691.684 310.36 691.434 310.792C691.183 311.224 690.82 311.563 690.346 311.808C689.876 312.053 689.308 312.176 688.641 312.176C688.359 312.176 688.122 312.163 687.93 312.136C687.743 312.109 687.562 312.069 687.386 312.016C687.258 312.101 687.151 312.219 687.066 312.368C686.986 312.517 686.946 312.672 686.946 312.832C686.946 313.035 687.026 313.203 687.186 313.336C687.346 313.469 687.642 313.536 688.074 313.536H689.594C690.159 313.536 690.666 313.637 691.114 313.84C691.567 314.043 691.922 314.315 692.178 314.656C692.439 314.997 692.569 315.387 692.569 315.824C692.569 316.651 692.218 317.285 691.514 317.728C690.815 318.171 689.826 318.392 688.546 318.392C687.65 318.392 686.943 318.299 686.426 318.112C685.908 317.931 685.538 317.651 685.314 317.272C685.095 316.899 684.986 316.427 684.986 315.856H686.202C686.202 316.181 686.266 316.451 686.394 316.664C686.522 316.877 686.754 317.035 687.09 317.136C687.426 317.243 687.908 317.296 688.538 317.296C689.156 317.296 689.66 317.243 690.05 317.136C690.444 317.035 690.735 316.88 690.922 316.672C691.114 316.469 691.21 316.216 691.21 315.912C691.21 315.512 691.028 315.211 690.666 315.008C690.303 314.805 689.85 314.704 689.306 314.704H687.802C687.076 314.704 686.54 314.544 686.194 314.224C685.852 313.904 685.682 313.536 685.682 313.12C685.682 312.848 685.759 312.584 685.914 312.328C686.074 312.072 686.306 311.845 686.61 311.648C686.124 311.392 685.767 311.075 685.538 310.696C685.308 310.317 685.194 309.859 685.194 309.32C685.194 308.749 685.335 308.245 685.618 307.808C685.9 307.365 686.295 307.019 686.802 306.768C687.308 306.517 687.892 306.392 688.554 306.392C689.263 306.387 689.839 306.357 690.282 306.304C690.724 306.245 691.103 306.163 691.418 306.056C691.738 305.949 692.063 305.824 692.394 305.68ZM688.554 307.376C687.876 307.376 687.375 307.56 687.05 307.928C686.73 308.291 686.57 308.755 686.57 309.32C686.57 309.891 686.735 310.36 687.066 310.728C687.396 311.096 687.903 311.28 688.586 311.28C689.183 311.28 689.636 311.107 689.946 310.76C690.26 310.413 690.418 309.931 690.418 309.312C690.418 308.677 690.26 308.197 689.946 307.872C689.636 307.541 689.172 307.376 688.554 307.376ZM696.483 303.056V307.728C696.814 307.285 697.219 306.955 697.699 306.736C698.185 306.512 698.675 306.4 699.171 306.4C699.993 306.4 700.593 306.619 700.971 307.056C701.35 307.493 701.539 308.101 701.539 308.88V315H700.195V308.912C700.195 308.405 700.078 308.037 699.843 307.808C699.609 307.573 699.241 307.456 698.739 307.456C698.419 307.456 698.115 307.528 697.827 307.672C697.539 307.816 697.281 307.995 697.051 308.208C696.822 308.421 696.633 308.64 696.483 308.864V315H695.139V303.2L696.483 303.056ZM711.421 314.576C711.133 314.768 710.784 314.917 710.373 315.024C709.962 315.131 709.56 315.184 709.165 315.184C708.258 315.184 707.56 314.947 707.069 314.472C706.578 313.997 706.333 313.387 706.333 312.64V307.616H704.397V306.576H706.333V304.664L707.677 304.504V306.576H710.589L710.429 307.616H707.677V312.624C707.677 313.093 707.8 313.451 708.045 313.696C708.296 313.941 708.709 314.064 709.285 314.064C709.6 314.064 709.89 314.027 710.157 313.952C710.424 313.877 710.672 313.781 710.901 313.664L711.421 314.576ZM716.215 313.88C716.215 313.533 716.337 313.232 716.583 312.976C716.833 312.72 717.14 312.592 717.503 312.592C717.876 312.592 718.185 312.72 718.431 312.976C718.681 313.232 718.807 313.533 718.807 313.88C718.807 314.243 718.681 314.552 718.431 314.808C718.185 315.059 717.876 315.184 717.503 315.184C717.14 315.184 716.833 315.059 716.583 314.808C716.337 314.552 716.215 314.243 716.215 313.88ZM716.215 308.112C716.215 307.867 716.271 307.648 716.383 307.456C716.495 307.264 716.649 307.112 716.847 307C717.044 306.883 717.263 306.824 717.503 306.824C717.876 306.824 718.185 306.949 718.431 307.2C718.681 307.451 718.807 307.755 718.807 308.112C718.807 308.464 718.681 308.771 718.431 309.032C718.185 309.288 717.876 309.416 717.503 309.416C717.14 309.416 716.833 309.288 716.583 309.032C716.337 308.771 716.215 308.464 716.215 308.112ZM736.706 303.808C737.896 303.808 738.794 304.299 739.402 305.28C740.01 306.261 740.314 307.664 740.314 309.488C740.314 311.317 740.01 312.725 739.402 313.712C738.794 314.693 737.896 315.184 736.706 315.184C735.522 315.184 734.624 314.693 734.01 313.712C733.402 312.725 733.098 311.317 733.098 309.488C733.098 307.664 733.402 306.261 734.01 305.28C734.624 304.299 735.522 303.808 736.706 303.808ZM736.706 304.888C736.029 304.888 735.496 305.248 735.106 305.968C734.717 306.683 734.522 307.856 734.522 309.488C734.522 310.315 734.565 311.021 734.65 311.608C734.736 312.195 734.866 312.672 735.042 313.04C735.224 313.403 735.45 313.669 735.722 313.84C736 314.011 736.328 314.096 736.706 314.096C737.165 314.096 737.557 313.939 737.882 313.624C738.213 313.309 738.464 312.813 738.634 312.136C738.81 311.453 738.898 310.571 738.898 309.488C738.898 308.389 738.821 307.501 738.666 306.824C738.517 306.147 738.28 305.656 737.954 305.352C737.634 305.043 737.218 304.888 736.706 304.888ZM738.33 305.28L738.682 306.456L735.178 313.552L734.682 312.616L738.33 305.28ZM746.876 306.4C747.623 306.4 748.217 306.581 748.66 306.944C749.108 307.307 749.431 307.819 749.628 308.48C749.825 309.136 749.924 309.904 749.924 310.784C749.924 311.632 749.804 312.389 749.564 313.056C749.329 313.717 748.972 314.237 748.492 314.616C748.012 314.995 747.407 315.184 746.676 315.184C745.753 315.184 745.012 314.859 744.452 314.208V318.224L743.108 318.392V306.576H744.252L744.364 307.752C744.673 307.32 745.041 306.987 745.468 306.752C745.9 306.517 746.369 306.4 746.876 306.4ZM746.556 307.48C746.092 307.48 745.681 307.621 745.324 307.904C744.972 308.181 744.681 308.491 744.452 308.832V313.008C744.671 313.333 744.945 313.592 745.276 313.784C745.612 313.971 745.98 314.064 746.38 314.064C747.079 314.064 747.604 313.797 747.956 313.264C748.308 312.731 748.484 311.901 748.484 310.776C748.484 310.04 748.415 309.429 748.276 308.944C748.137 308.453 747.927 308.088 747.644 307.848C747.361 307.603 746.999 307.48 746.556 307.48ZM753.518 315H751.982L755.094 310.552L752.366 306.576H753.958L755.91 309.712L757.886 306.576H759.422L756.702 310.496L759.806 315H758.158L755.854 311.384L753.518 315Z" fill="#FF9500"/>
<path d="M887.376 306.4C888.123 306.4 888.717 306.581 889.16 306.944C889.608 307.307 889.931 307.819 890.128 308.48C890.325 309.136 890.424 309.904 890.424 310.784C890.424 311.632 890.304 312.389 890.064 313.056C889.829 313.717 889.472 314.237 888.992 314.616C888.512 314.995 887.907 315.184 887.176 315.184C886.253 315.184 885.512 314.859 884.952 314.208V318.224L883.608 318.392V306.576H884.752L884.864 307.752C885.173 307.32 885.541 306.987 885.968 306.752C886.4 306.517 886.869 306.4 887.376 306.4ZM887.056 307.48C886.592 307.48 886.181 307.621 885.824 307.904C885.472 308.181 885.181 308.491 884.952 308.832V313.008C885.171 313.333 885.445 313.592 885.776 313.784C886.112 313.971 886.48 314.064 886.88 314.064C887.579 314.064 888.104 313.797 888.456 313.264C888.808 312.731 888.984 311.901 888.984 310.776C888.984 310.04 888.915 309.429 888.776 308.944C888.637 308.453 888.427 308.088 888.144 307.848C887.861 307.603 887.499 307.48 887.056 307.48ZM899.234 313.16C899.234 313.496 899.29 313.741 899.402 313.896C899.514 314.051 899.687 314.165 899.922 314.24L899.594 315.184C899.231 315.136 898.914 315.021 898.642 314.84C898.37 314.653 898.172 314.373 898.05 314C897.746 314.389 897.367 314.685 896.914 314.888C896.46 315.085 895.959 315.184 895.41 315.184C894.567 315.184 893.903 314.947 893.418 314.472C892.932 313.997 892.69 313.368 892.69 312.584C892.69 311.715 893.028 311.048 893.706 310.584C894.383 310.12 895.362 309.888 896.642 309.888H897.882V309.184C897.882 308.576 897.703 308.147 897.346 307.896C896.994 307.64 896.503 307.512 895.874 307.512C895.596 307.512 895.271 307.547 894.898 307.616C894.524 307.68 894.119 307.789 893.682 307.944L893.33 306.928C893.847 306.736 894.332 306.6 894.786 306.52C895.239 306.44 895.671 306.4 896.082 306.4C897.132 306.4 897.919 306.645 898.442 307.136C898.97 307.621 899.234 308.283 899.234 309.12V313.16ZM895.754 314.16C896.17 314.16 896.567 314.056 896.946 313.848C897.324 313.635 897.636 313.341 897.882 312.968V310.8H896.666C895.738 310.8 895.082 310.96 894.698 311.28C894.319 311.6 894.13 312.029 894.13 312.568C894.13 313.091 894.263 313.488 894.53 313.76C894.802 314.027 895.21 314.16 895.754 314.16ZM907.836 303.016L909.18 303.184V315H908.004L907.876 313.888C907.561 314.336 907.198 314.664 906.788 314.872C906.382 315.08 905.948 315.184 905.484 315.184C904.753 315.184 904.15 315 903.676 314.632C903.201 314.264 902.849 313.752 902.62 313.096C902.39 312.435 902.276 311.669 902.276 310.8C902.276 309.957 902.406 309.205 902.668 308.544C902.929 307.877 903.305 307.355 903.796 306.976C904.292 306.592 904.886 306.4 905.58 306.4C906.065 306.4 906.492 306.485 906.86 306.656C907.228 306.821 907.553 307.067 907.836 307.392V303.016ZM905.932 307.48C905.228 307.48 904.686 307.755 904.308 308.304C903.929 308.853 903.74 309.685 903.74 310.8C903.74 311.525 903.817 312.133 903.972 312.624C904.126 313.115 904.353 313.483 904.652 313.728C904.956 313.973 905.326 314.096 905.764 314.096C906.244 314.096 906.652 313.96 906.988 313.688C907.329 313.416 907.612 313.109 907.836 312.768V308.56C907.606 308.219 907.329 307.955 907.004 307.768C906.678 307.576 906.321 307.48 905.932 307.48ZM917.429 303.016L918.773 303.184V315H917.597L917.469 313.888C917.155 314.336 916.792 314.664 916.381 314.872C915.976 315.08 915.541 315.184 915.077 315.184C914.347 315.184 913.744 315 913.269 314.632C912.795 314.264 912.443 313.752 912.213 313.096C911.984 312.435 911.869 311.669 911.869 310.8C911.869 309.957 912 309.205 912.261 308.544C912.523 307.877 912.899 307.355 913.389 306.976C913.885 306.592 914.48 306.4 915.173 306.4C915.659 306.4 916.085 306.485 916.453 306.656C916.821 306.821 917.147 307.067 917.429 307.392V303.016ZM915.525 307.48C914.821 307.48 914.28 307.755 913.901 308.304C913.523 308.853 913.333 309.685 913.333 310.8C913.333 311.525 913.411 312.133 913.565 312.624C913.72 313.115 913.947 313.483 914.245 313.728C914.549 313.973 914.92 314.096 915.357 314.096C915.837 314.096 916.245 313.96 916.581 313.688C916.923 313.416 917.205 313.109 917.429 312.768V308.56C917.2 308.219 916.923 307.955 916.597 307.768C916.272 307.576 915.915 307.48 915.525 307.48ZM926.247 306.576V313.936H928.623V315H922.303V313.936H924.903V307.64H922.383V306.576H926.247ZM925.175 302.632C925.474 302.632 925.711 302.723 925.887 302.904C926.068 303.085 926.159 303.307 926.159 303.568C926.159 303.84 926.068 304.069 925.887 304.256C925.711 304.437 925.474 304.528 925.175 304.528C924.892 304.528 924.66 304.437 924.479 304.256C924.298 304.069 924.207 303.84 924.207 303.568C924.207 303.307 924.298 303.085 924.479 302.904C924.66 302.723 924.892 302.632 925.175 302.632ZM931.577 315V306.576H932.721L932.825 307.744C933.166 307.312 933.593 306.981 934.105 306.752C934.622 306.517 935.123 306.4 935.609 306.4C936.435 306.4 937.035 306.619 937.409 307.056C937.787 307.493 937.977 308.101 937.977 308.88V315H936.633V309.872C936.633 309.296 936.601 308.832 936.537 308.48C936.473 308.123 936.339 307.864 936.137 307.704C935.934 307.539 935.619 307.456 935.193 307.456C934.862 307.456 934.55 307.528 934.257 307.672C933.969 307.816 933.71 307.997 933.481 308.216C933.257 308.429 933.07 308.645 932.921 308.864V315H931.577ZM948.019 305.68L948.435 306.944C948.077 307.056 947.696 307.125 947.291 307.152C946.885 307.179 946.445 307.192 945.971 307.192C946.456 307.416 946.821 307.707 947.067 308.064C947.312 308.416 947.435 308.832 947.435 309.312C947.435 309.867 947.309 310.36 947.059 310.792C946.808 311.224 946.445 311.563 945.971 311.808C945.501 312.053 944.933 312.176 944.266 312.176C943.984 312.176 943.747 312.163 943.555 312.136C943.368 312.109 943.187 312.069 943.011 312.016C942.883 312.101 942.776 312.219 942.691 312.368C942.611 312.517 942.571 312.672 942.571 312.832C942.571 313.035 942.651 313.203 942.811 313.336C942.971 313.469 943.267 313.536 943.699 313.536H945.219C945.784 313.536 946.291 313.637 946.739 313.84C947.192 314.043 947.547 314.315 947.803 314.656C948.064 314.997 948.194 315.387 948.194 315.824C948.194 316.651 947.843 317.285 947.139 317.728C946.44 318.171 945.451 318.392 944.171 318.392C943.275 318.392 942.568 318.299 942.051 318.112C941.533 317.931 941.163 317.651 940.939 317.272C940.72 316.899 940.611 316.427 940.611 315.856H941.827C941.827 316.181 941.891 316.451 942.019 316.664C942.147 316.877 942.379 317.035 942.715 317.136C943.051 317.243 943.533 317.296 944.163 317.296C944.781 317.296 945.285 317.243 945.675 317.136C946.069 317.035 946.36 316.88 946.547 316.672C946.739 316.469 946.835 316.216 946.835 315.912C946.835 315.512 946.653 315.211 946.291 315.008C945.928 314.805 945.475 314.704 944.931 314.704H943.427C942.701 314.704 942.165 314.544 941.819 314.224C941.477 313.904 941.307 313.536 941.307 313.12C941.307 312.848 941.384 312.584 941.539 312.328C941.699 312.072 941.931 311.845 942.235 311.648C941.749 311.392 941.392 311.075 941.163 310.696C940.933 310.317 940.819 309.859 940.819 309.32C940.819 308.749 940.96 308.245 941.243 307.808C941.525 307.365 941.92 307.019 942.427 306.768C942.933 306.517 943.517 306.392 944.179 306.392C944.888 306.387 945.464 306.357 945.907 306.304C946.349 306.245 946.728 306.163 947.043 306.056C947.363 305.949 947.688 305.824 948.019 305.68ZM944.179 307.376C943.501 307.376 943 307.56 942.675 307.928C942.355 308.291 942.195 308.755 942.195 309.32C942.195 309.891 942.36 310.36 942.691 310.728C943.021 311.096 943.528 311.28 944.211 311.28C944.808 311.28 945.261 311.107 945.571 310.76C945.885 310.413 946.043 309.931 946.043 309.312C946.043 308.677 945.885 308.197 945.571 307.872C945.261 307.541 944.797 307.376 944.179 307.376ZM950.748 311.216V310.048H957.164V311.216H950.748ZM961.702 307.672C962.011 307.267 962.366 306.955 962.766 306.736C963.171 306.512 963.617 306.4 964.102 306.4C964.854 306.4 965.462 306.581 965.926 306.944C966.39 307.307 966.729 307.819 966.942 308.48C967.155 309.136 967.262 309.904 967.262 310.784C967.262 311.632 967.134 312.389 966.878 313.056C966.622 313.717 966.246 314.237 965.75 314.616C965.259 314.995 964.651 315.184 963.926 315.184C962.95 315.184 962.185 314.832 961.63 314.128L961.534 315H960.358V303.184L961.702 303.016V307.672ZM963.606 314.096C964.31 314.096 964.851 313.824 965.23 313.28C965.609 312.736 965.798 311.901 965.798 310.776C965.798 310.04 965.723 309.429 965.574 308.944C965.425 308.453 965.201 308.088 964.902 307.848C964.609 307.603 964.246 307.48 963.814 307.48C963.345 307.48 962.931 307.621 962.574 307.904C962.222 308.181 961.931 308.491 961.702 308.832V313.008C961.921 313.339 962.195 313.603 962.526 313.8C962.862 313.997 963.222 314.096 963.606 314.096ZM973.16 306.4C973.954 306.4 974.618 306.581 975.152 306.944C975.69 307.301 976.093 307.808 976.36 308.464C976.632 309.12 976.768 309.893 976.768 310.784C976.768 311.643 976.629 312.403 976.352 313.064C976.074 313.725 975.666 314.245 975.128 314.624C974.594 314.997 973.933 315.184 973.144 315.184C972.354 315.184 971.69 315.003 971.152 314.64C970.613 314.277 970.205 313.768 969.928 313.112C969.656 312.451 969.52 311.68 969.52 310.8C969.52 309.931 969.658 309.165 969.936 308.504C970.213 307.843 970.621 307.328 971.16 306.96C971.704 306.587 972.37 306.4 973.16 306.4ZM973.16 307.496C972.434 307.496 971.885 307.765 971.512 308.304C971.144 308.837 970.96 309.669 970.96 310.8C970.96 311.909 971.141 312.733 971.504 313.272C971.872 313.811 972.418 314.08 973.144 314.08C973.869 314.08 974.413 313.811 974.776 313.272C975.144 312.733 975.328 311.904 975.328 310.784C975.328 309.664 975.146 308.837 974.784 308.304C974.421 307.765 973.88 307.496 973.16 307.496ZM986.234 314.576C985.946 314.768 985.596 314.917 985.186 315.024C984.775 315.131 984.372 315.184 983.978 315.184C983.071 315.184 982.372 314.947 981.882 314.472C981.391 313.997 981.146 313.387 981.146 312.64V307.616H979.21V306.576H981.146V304.664L982.49 304.504V306.576H985.402L985.242 307.616H982.49V312.624C982.49 313.093 982.612 313.451 982.858 313.696C983.108 313.941 983.522 314.064 984.098 314.064C984.412 314.064 984.703 314.027 984.97 313.952C985.236 313.877 985.484 313.781 985.714 313.664L986.234 314.576ZM995.827 314.576C995.539 314.768 995.19 314.917 994.779 315.024C994.369 315.131 993.966 315.184 993.571 315.184C992.665 315.184 991.966 314.947 991.475 314.472C990.985 313.997 990.739 313.387 990.739 312.64V307.616H988.803V306.576H990.739V304.664L992.083 304.504V306.576H994.995L994.835 307.616H992.083V312.624C992.083 313.093 992.206 313.451 992.451 313.696C992.702 313.941 993.115 314.064 993.691 314.064C994.006 314.064 994.297 314.027 994.563 313.952C994.83 313.877 995.078 313.781 995.307 313.664L995.827 314.576ZM1001.94 306.4C1002.74 306.4 1003.4 306.581 1003.93 306.944C1004.47 307.301 1004.87 307.808 1005.14 308.464C1005.41 309.12 1005.55 309.893 1005.55 310.784C1005.55 311.643 1005.41 312.403 1005.13 313.064C1004.86 313.725 1004.45 314.245 1003.91 314.624C1003.38 314.997 1002.71 315.184 1001.93 315.184C1001.14 315.184 1000.47 315.003 999.933 314.64C999.394 314.277 998.986 313.768 998.709 313.112C998.437 312.451 998.301 311.68 998.301 310.8C998.301 309.931 998.44 309.165 998.717 308.504C998.994 307.843 999.402 307.328 999.941 306.96C1000.49 306.587 1001.15 306.4 1001.94 306.4ZM1001.94 307.496C1001.22 307.496 1000.67 307.765 1000.29 308.304C999.925 308.837 999.741 309.669 999.741 310.8C999.741 311.909 999.922 312.733 1000.29 313.272C1000.65 313.811 1001.2 314.08 1001.93 314.08C1002.65 314.08 1003.19 313.811 1003.56 313.272C1003.93 312.733 1004.11 311.904 1004.11 310.784C1004.11 309.664 1003.93 308.837 1003.57 308.304C1003.2 307.765 1002.66 307.496 1001.94 307.496ZM1013.88 306.4C1014.15 306.4 1014.41 306.459 1014.65 306.576C1014.91 306.693 1015.11 306.92 1015.27 307.256C1015.43 307.592 1015.51 308.083 1015.51 308.728V315H1014.26V308.944C1014.26 308.416 1014.23 308.035 1014.17 307.8C1014.1 307.565 1013.92 307.448 1013.61 307.448C1013.36 307.448 1013.11 307.528 1012.86 307.688C1012.62 307.843 1012.38 308.099 1012.14 308.456V315H1010.89V308.944C1010.89 308.416 1010.85 308.035 1010.79 307.8C1010.73 307.565 1010.54 307.448 1010.24 307.448C1009.98 307.448 1009.72 307.528 1009.48 307.688C1009.24 307.843 1009 308.099 1008.77 308.456V315H1007.53V306.576H1008.58L1008.66 307.552C1008.89 307.227 1009.15 306.955 1009.43 306.736C1009.72 306.512 1010.07 306.4 1010.49 306.4C1010.81 306.4 1011.12 306.477 1011.4 306.632C1011.68 306.781 1011.89 307.075 1012.02 307.512C1012.25 307.181 1012.51 306.915 1012.8 306.712C1013.09 306.504 1013.45 306.4 1013.88 306.4ZM1019.81 313.88C1019.81 313.533 1019.93 313.232 1020.18 312.976C1020.43 312.72 1020.73 312.592 1021.1 312.592C1021.47 312.592 1021.78 312.72 1022.02 312.976C1022.28 313.232 1022.4 313.533 1022.4 313.88C1022.4 314.243 1022.28 314.552 1022.02 314.808C1021.78 315.059 1021.47 315.184 1021.1 315.184C1020.73 315.184 1020.43 315.059 1020.18 314.808C1019.93 314.552 1019.81 314.243 1019.81 313.88ZM1019.81 308.112C1019.81 307.867 1019.86 307.648 1019.98 307.456C1020.09 307.264 1020.24 307.112 1020.44 307C1020.64 306.883 1020.86 306.824 1021.1 306.824C1021.47 306.824 1021.78 306.949 1022.02 307.2C1022.28 307.451 1022.4 307.755 1022.4 308.112C1022.4 308.464 1022.28 308.771 1022.02 309.032C1021.78 309.288 1021.47 309.416 1021.1 309.416C1020.73 309.416 1020.43 309.288 1020.18 309.032C1019.93 308.771 1019.81 308.464 1019.81 308.112ZM1039.81 303.808C1040.51 303.808 1041.1 303.941 1041.59 304.208C1042.08 304.475 1042.47 304.84 1042.73 305.304C1043 305.768 1043.13 306.293 1043.13 306.88C1043.13 307.387 1043.04 307.883 1042.87 308.368C1042.69 308.848 1042.41 309.355 1042.02 309.888C1041.64 310.416 1041.13 311.003 1040.5 311.648C1039.88 312.293 1039.11 313.029 1038.2 313.856H1043.39L1043.22 315H1036.67V313.904C1037.5 313.109 1038.21 312.413 1038.79 311.816C1039.37 311.219 1039.86 310.696 1040.24 310.248C1040.62 309.795 1040.92 309.384 1041.13 309.016C1041.35 308.648 1041.5 308.299 1041.59 307.968C1041.67 307.632 1041.72 307.285 1041.72 306.928C1041.72 306.309 1041.54 305.821 1041.19 305.464C1040.84 305.107 1040.36 304.928 1039.75 304.928C1039.2 304.928 1038.76 305.021 1038.41 305.208C1038.07 305.395 1037.72 305.693 1037.37 306.104L1036.44 305.384C1036.88 304.851 1037.37 304.456 1037.9 304.2C1038.43 303.939 1039.07 303.808 1039.81 303.808ZM1049.89 303.808C1051.08 303.808 1051.98 304.299 1052.59 305.28C1053.2 306.261 1053.5 307.664 1053.5 309.488C1053.5 311.317 1053.2 312.725 1052.59 313.712C1051.98 314.693 1051.08 315.184 1049.89 315.184C1048.71 315.184 1047.81 314.693 1047.2 313.712C1046.59 312.725 1046.29 311.317 1046.29 309.488C1046.29 307.664 1046.59 306.261 1047.2 305.28C1047.81 304.299 1048.71 303.808 1049.89 303.808ZM1049.89 304.888C1049.22 304.888 1048.68 305.248 1048.29 305.968C1047.9 306.683 1047.71 307.856 1047.71 309.488C1047.71 310.315 1047.75 311.021 1047.84 311.608C1047.92 312.195 1048.05 312.672 1048.23 313.04C1048.41 313.403 1048.64 313.669 1048.91 313.84C1049.19 314.011 1049.52 314.096 1049.89 314.096C1050.35 314.096 1050.74 313.939 1051.07 313.624C1051.4 313.309 1051.65 312.813 1051.82 312.136C1052 311.453 1052.09 310.571 1052.09 309.488C1052.09 308.389 1052.01 307.501 1051.85 306.824C1051.7 306.147 1051.47 305.656 1051.14 305.352C1050.82 305.043 1050.41 304.888 1049.89 304.888ZM1051.52 305.28L1051.87 306.456L1048.37 313.552L1047.87 312.616L1051.52 305.28ZM1060.06 306.4C1060.81 306.4 1061.4 306.581 1061.85 306.944C1062.3 307.307 1062.62 307.819 1062.82 308.48C1063.01 309.136 1063.11 309.904 1063.11 310.784C1063.11 311.632 1062.99 312.389 1062.75 313.056C1062.52 313.717 1062.16 314.237 1061.68 314.616C1061.2 314.995 1060.59 315.184 1059.86 315.184C1058.94 315.184 1058.2 314.859 1057.64 314.208V318.224L1056.3 318.392V306.576H1057.44L1057.55 307.752C1057.86 307.32 1058.23 306.987 1058.66 306.752C1059.09 306.517 1059.56 306.4 1060.06 306.4ZM1059.74 307.48C1059.28 307.48 1058.87 307.621 1058.51 307.904C1058.16 308.181 1057.87 308.491 1057.64 308.832V313.008C1057.86 313.333 1058.13 313.592 1058.46 313.784C1058.8 313.971 1059.17 314.064 1059.57 314.064C1060.27 314.064 1060.79 313.797 1061.14 313.264C1061.5 312.731 1061.67 311.901 1061.67 310.776C1061.67 310.04 1061.6 309.429 1061.46 308.944C1061.32 308.453 1061.11 308.088 1060.83 307.848C1060.55 307.603 1060.19 307.48 1059.74 307.48ZM1066.71 315H1065.17L1068.28 310.552L1065.55 306.576H1067.15L1069.1 309.712L1071.07 306.576H1072.61L1069.89 310.496L1072.99 315H1071.35L1069.04 311.384L1066.71 315Z" fill="#FF9500"/>
</svg>
