<svg width="300" height="226" viewBox="0 0 300 226" fill="none" xmlns="http://www.w3.org/2000/svg">
<path d="M7.848 16H5.944L4.856 9.816L3.672 16H1.816L0.28 7.576H1.656L2.728 15.168L4.072 8.648H5.664L6.936 15.168L8.008 7.576H9.32L7.848 16ZM15.4658 7.576V14.936H17.8418V16H11.5218V14.936H14.1218V8.64H11.6018V7.576H15.4658ZM14.3938 3.632C14.6924 3.632 14.9298 3.72267 15.1058 3.904C15.2871 4.08533 15.3778 4.30667 15.3778 4.568C15.3778 4.84 15.2871 5.06933 15.1058 5.256C14.9298 5.43733 14.6924 5.528 14.3938 5.528C14.1111 5.528 13.8791 5.43733 13.6978 5.256C13.5164 5.06933 13.4258 4.84 13.4258 4.568C13.4258 4.30667 13.5164 4.08533 13.6978 3.904C13.8791 3.72267 14.1111 3.632 14.3938 3.632ZM25.8355 4.016L27.1795 4.184V16H26.0035L25.8755 14.888C25.5608 15.336 25.1982 15.664 24.7875 15.872C24.3822 16.08 23.9475 16.184 23.4835 16.184C22.7528 16.184 22.1502 16 21.6755 15.632C21.2008 15.264 20.8488 14.752 20.6195 14.096C20.3902 13.4347 20.2755 12.6693 20.2755 11.8C20.2755 10.9573 20.4062 10.2053 20.6675 9.544C20.9288 8.87733 21.3048 8.35467 21.7955 7.976C22.2915 7.592 22.8862 7.4 23.5795 7.4C24.0648 7.4 24.4915 7.48533 24.8595 7.656C25.2275 7.82133 25.5528 8.06667 25.8355 8.392V4.016ZM23.9315 8.48C23.2275 8.48 22.6862 8.75467 22.3075 9.304C21.9288 9.85333 21.7395 10.6853 21.7395 11.8C21.7395 12.5253 21.8168 13.1333 21.9715 13.624C22.1262 14.1147 22.3528 14.4827 22.6515 14.728C22.9555 14.9733 23.3262 15.096 23.7635 15.096C24.2435 15.096 24.6515 14.96 24.9875 14.688C25.3288 14.416 25.6115 14.1093 25.8355 13.768V9.56C25.6062 9.21867 25.3288 8.95467 25.0035 8.768C24.6782 8.576 24.3208 8.48 23.9315 8.48ZM37.0773 15.576C36.7893 15.768 36.4399 15.9173 36.0293 16.024C35.6186 16.1307 35.2159 16.184 34.8213 16.184C33.9146 16.184 33.2159 15.9467 32.7253 15.472C32.2346 14.9973 31.9893 14.3867 31.9893 13.64V8.616H30.0533V7.576H31.9893V5.664L33.3333 5.504V7.576H36.2453L36.0853 8.616H33.3333V13.624C33.3333 14.0933 33.4559 14.4507 33.7013 14.696C33.9519 14.9413 34.3653 15.064 34.9413 15.064C35.2559 15.064 35.5466 15.0267 35.8133 14.952C36.0799 14.8773 36.3279 14.7813 36.5573 14.664L37.0773 15.576ZM41.327 4.056V8.728C41.6577 8.28533 42.063 7.95467 42.543 7.736C43.0283 7.512 43.519 7.4 44.015 7.4C44.8363 7.4 45.4363 7.61867 45.815 8.056C46.1937 8.49333 46.383 9.10133 46.383 9.88V16H45.039V9.912C45.039 9.40533 44.9217 9.03733 44.687 8.808C44.4523 8.57333 44.0843 8.456 43.583 8.456C43.263 8.456 42.959 8.528 42.671 8.672C42.383 8.816 42.1243 8.99467 41.895 9.208C41.6657 9.42133 41.4763 9.64 41.327 9.864V16H39.983V4.2L41.327 4.056ZM51.4648 14.88C51.4648 14.5333 51.5874 14.232 51.8328 13.976C52.0834 13.72 52.3901 13.592 52.7528 13.592C53.1261 13.592 53.4354 13.72 53.6808 13.976C53.9314 14.232 54.0568 14.5333 54.0568 14.88C54.0568 15.2427 53.9314 15.552 53.6808 15.808C53.4354 16.0587 53.1261 16.184 52.7528 16.184C52.3901 16.184 52.0834 16.0587 51.8328 15.808C51.5874 15.552 51.4648 15.2427 51.4648 14.88ZM51.4648 9.112C51.4648 8.86667 51.5208 8.648 51.6328 8.456C51.7448 8.264 51.8994 8.112 52.0968 8C52.2941 7.88267 52.5128 7.824 52.7528 7.824C53.1261 7.824 53.4354 7.94933 53.6808 8.2C53.9314 8.45067 54.0568 8.75467 54.0568 9.112C54.0568 9.464 53.9314 9.77067 53.6808 10.032C53.4354 10.288 53.1261 10.416 52.7528 10.416C52.3901 10.416 52.0834 10.288 51.8328 10.032C51.5874 9.77067 51.4648 9.464 51.4648 9.112ZM73.1323 4.984V15.68H71.7883V6.44L69.2603 7.976L68.6763 7.016L71.9563 4.984H73.1323ZM75.4363 14.904V16H69.0763V14.904H75.4363ZM81.55 4.808C82.7393 4.808 83.638 5.29867 84.246 6.28C84.854 7.26133 85.158 8.664 85.158 10.488C85.158 12.3173 84.854 13.7253 84.246 14.712C83.638 15.6933 82.7393 16.184 81.55 16.184C80.366 16.184 79.4673 15.6933 78.854 14.712C78.246 13.7253 77.942 12.3173 77.942 10.488C77.942 8.664 78.246 7.26133 78.854 6.28C79.4673 5.29867 80.366 4.808 81.55 4.808ZM81.55 5.888C80.8727 5.888 80.3393 6.248 79.95 6.968C79.5607 7.68267 79.366 8.856 79.366 10.488C79.366 11.3147 79.4087 12.0213 79.494 12.608C79.5793 13.1947 79.71 13.672 79.886 14.04C80.0673 14.4027 80.294 14.6693 80.566 14.84C80.8433 15.0107 81.1713 15.096 81.55 15.096C82.0087 15.096 82.4007 14.9387 82.726 14.624C83.0567 14.3093 83.3073 13.8133 83.478 13.136C83.654 12.4533 83.742 11.5707 83.742 10.488C83.742 9.38933 83.6647 8.50133 83.51 7.824C83.3607 7.14667 83.1233 6.656 82.798 6.352C82.478 6.04267 82.062 5.888 81.55 5.888ZM83.174 6.28L83.526 7.456L80.022 14.552L79.526 13.616L83.174 6.28ZM94.4158 4.688L95.2798 5.248L87.7038 16.32L86.8638 15.76L94.4158 4.688ZM93.3198 11.912C93.0051 11.912 92.7384 12.04 92.5198 12.296C92.3011 12.5467 92.1918 12.952 92.1918 13.512C92.1918 14.0293 92.2984 14.432 92.5118 14.72C92.7251 15.008 92.9944 15.152 93.3198 15.152C93.6398 15.152 93.9038 15.0213 94.1118 14.76C94.3251 14.4987 94.4318 14.0827 94.4318 13.512C94.4318 12.936 94.3251 12.5253 94.1118 12.28C93.9038 12.0347 93.6398 11.912 93.3198 11.912ZM88.9998 5.768C88.6851 5.768 88.4184 5.89867 88.1998 6.16C87.9811 6.42133 87.8718 6.824 87.8718 7.368C87.8718 7.89067 87.9784 8.296 88.1918 8.584C88.4051 8.86667 88.6744 9.008 88.9998 9.008C89.3198 9.008 89.5838 8.87733 89.7918 8.616C90.0051 8.35467 90.1118 7.93867 90.1118 7.368C90.1118 6.792 90.0051 6.38133 89.7918 6.136C89.5838 5.89067 89.3198 5.768 88.9998 5.768ZM88.9998 4.808C89.5011 4.808 89.9251 4.92533 90.2718 5.16C90.6184 5.39467 90.8824 5.70667 91.0638 6.096C91.2504 6.48533 91.3438 6.90933 91.3438 7.368C91.3438 7.816 91.2504 8.23733 91.0638 8.632C90.8824 9.02667 90.6184 9.34667 90.2718 9.592C89.9251 9.832 89.5011 9.952 88.9998 9.952C88.5038 9.952 88.0798 9.832 87.7278 9.592C87.3758 9.34667 87.1064 9.02667 86.9198 8.632C86.7331 8.23733 86.6398 7.816 86.6398 7.368C86.6398 6.904 86.7331 6.48 86.9198 6.096C87.1064 5.70667 87.3758 5.39467 87.7278 5.16C88.0798 4.92533 88.5038 4.808 88.9998 4.808ZM93.3198 10.944C93.8211 10.944 94.2451 11.064 94.5918 11.304C94.9384 11.5387 95.2024 11.8507 95.3837 12.24C95.5704 12.6293 95.6638 13.0533 95.6638 13.512C95.6638 13.9653 95.5704 14.3893 95.3837 14.784C95.2024 15.1733 94.9384 15.4907 94.5918 15.736C94.2451 15.976 93.8211 16.096 93.3198 16.096C92.8238 16.096 92.3998 15.976 92.0478 15.736C91.6958 15.4907 91.4264 15.1733 91.2398 14.784C91.0531 14.3893 90.9598 13.9653 90.9598 13.512C90.9598 13.048 91.0531 12.6213 91.2398 12.232C91.4264 11.8427 91.6958 11.5307 92.0478 11.296C92.3998 11.0613 92.8238 10.944 93.3198 10.944Z" fill="#FF9500"/>
<rect y="26" width="300" height="200" rx="12" fill="#5A8EE5"/>
<rect x="55" y="91" width="30" height="70" rx="12" fill="#F2F47E"/>
<rect x="95" y="91" width="70" height="70" rx="12" fill="#FF9500"/>
<rect x="175" y="91" width="70" height="70" rx="12" fill="#FF9500"/>
</svg>
