<svg width="499" height="326" viewBox="0 0 499 326" fill="none" xmlns="http://www.w3.org/2000/svg">
<rect y="26" width="200" height="300" rx="12" fill="#5A8EE5"/>
<rect x="65" y="61" width="70" height="70" rx="12" fill="#FF9500"/>
<rect x="65" y="141" width="70" height="70" rx="12" fill="#CC3333"/>
<rect x="65" y="221" width="70" height="70" rx="12" fill="#FF9500"/>
<path d="M5.376 7.4C6.12267 7.4 6.71733 7.58133 7.16 7.944C7.608 8.30667 7.93067 8.81867 8.128 9.48C8.32533 10.136 8.424 10.904 8.424 11.784C8.424 12.632 8.304 13.3893 8.064 14.056C7.82933 14.7173 7.472 15.2373 6.992 15.616C6.512 15.9947 5.90667 16.184 5.176 16.184C4.25333 16.184 3.512 15.8587 2.952 15.208V19.224L1.608 19.392V7.576H2.752L2.864 8.752C3.17333 8.32 3.54133 7.98667 3.968 7.752C4.4 7.51733 4.86933 7.4 5.376 7.4ZM5.056 8.48C4.592 8.48 4.18133 8.62133 3.824 8.904C3.472 9.18133 3.18133 9.49067 2.952 9.832V14.008C3.17067 14.3333 3.44533 14.592 3.776 14.784C4.112 14.9707 4.48 15.064 4.88 15.064C5.57867 15.064 6.104 14.7973 6.456 14.264C6.808 13.7307 6.984 12.9013 6.984 11.776C6.984 11.04 6.91467 10.4293 6.776 9.944C6.63733 9.45333 6.42667 9.088 6.144 8.848C5.86133 8.60267 5.49867 8.48 5.056 8.48ZM14.4098 7.4C15.2044 7.4 15.8684 7.58133 16.4018 7.944C16.9404 8.30133 17.3431 8.808 17.6098 9.464C17.8818 10.12 18.0178 10.8933 18.0178 11.784C18.0178 12.6427 17.8791 13.4027 17.6018 14.064C17.3244 14.7253 16.9164 15.2453 16.3778 15.624C15.8444 15.9973 15.1831 16.184 14.3938 16.184C13.6044 16.184 12.9404 16.0027 12.4018 15.64C11.8631 15.2773 11.4551 14.768 11.1778 14.112C10.9058 13.4507 10.7697 12.68 10.7697 11.8C10.7697 10.9307 10.9084 10.1653 11.1858 9.504C11.4631 8.84267 11.8711 8.328 12.4098 7.96C12.9538 7.58667 13.6204 7.4 14.4098 7.4ZM14.4098 8.496C13.6844 8.496 13.1351 8.76533 12.7618 9.304C12.3938 9.83733 12.2098 10.6693 12.2098 11.8C12.2098 12.9093 12.3911 13.7333 12.7538 14.272C13.1218 14.8107 13.6684 15.08 14.3938 15.08C15.1191 15.08 15.6631 14.8107 16.0258 14.272C16.3938 13.7333 16.5778 12.904 16.5778 11.784C16.5778 10.664 16.3964 9.83733 16.0338 9.304C15.6711 8.76533 15.1298 8.496 14.4098 8.496ZM23.6595 15.072C24.3048 15.072 24.8142 14.952 25.1875 14.712C25.5662 14.4667 25.7555 14.1413 25.7555 13.736C25.7555 13.48 25.7075 13.2587 25.6115 13.072C25.5208 12.8853 25.3315 12.7173 25.0435 12.568C24.7555 12.4187 24.3128 12.2693 23.7155 12.12C23.1342 11.976 22.6275 11.8107 22.1955 11.624C21.7688 11.432 21.4355 11.184 21.1955 10.88C20.9608 10.576 20.8435 10.1813 20.8435 9.696C20.8435 9.22133 20.9768 8.81333 21.2435 8.472C21.5155 8.12533 21.8915 7.86133 22.3715 7.68C22.8515 7.49333 23.4088 7.4 24.0435 7.4C24.7208 7.4 25.3102 7.49067 25.8115 7.672C26.3182 7.848 26.7475 8.06667 27.0995 8.328L26.5075 9.24C26.1875 9.02133 25.8355 8.84267 25.4515 8.704C25.0675 8.56 24.6035 8.488 24.0595 8.488C23.3982 8.488 22.9288 8.592 22.6515 8.8C22.3742 9.00267 22.2355 9.26667 22.2355 9.592C22.2355 9.83733 22.3022 10.0427 22.4355 10.208C22.5742 10.368 22.8062 10.5147 23.1315 10.648C23.4568 10.776 23.9048 10.9173 24.4755 11.072C25.0248 11.216 25.5022 11.3893 25.9075 11.592C26.3182 11.7947 26.6382 12.0613 26.8675 12.392C27.0968 12.7227 27.2115 13.1493 27.2115 13.672C27.2115 14.2693 27.0408 14.7547 26.6995 15.128C26.3582 15.496 25.9155 15.7653 25.3715 15.936C24.8328 16.1013 24.2622 16.184 23.6595 16.184C22.8968 16.184 22.2462 16.0747 21.7075 15.856C21.1742 15.632 20.7262 15.3627 20.3635 15.048L21.1315 14.16C21.4622 14.432 21.8408 14.6533 22.2675 14.824C22.6995 14.9893 23.1635 15.072 23.6595 15.072ZM34.6533 7.576V14.936H37.0293V16H30.7093V14.936H33.3093V8.64H30.7893V7.576H34.6533ZM33.5813 3.632C33.8799 3.632 34.1173 3.72267 34.2933 3.904C34.4746 4.08533 34.5653 4.30667 34.5653 4.568C34.5653 4.84 34.4746 5.06933 34.2933 5.256C34.1173 5.43733 33.8799 5.528 33.5813 5.528C33.2986 5.528 33.0666 5.43733 32.8853 5.256C32.7039 5.06933 32.6133 4.84 32.6133 4.568C32.6133 4.30667 32.7039 4.08533 32.8853 3.904C33.0666 3.72267 33.2986 3.632 33.5813 3.632ZM46.671 15.576C46.383 15.768 46.0337 15.9173 45.623 16.024C45.2123 16.1307 44.8097 16.184 44.415 16.184C43.5083 16.184 42.8097 15.9467 42.319 15.472C41.8283 14.9973 41.583 14.3867 41.583 13.64V8.616H39.647V7.576H41.583V5.664L42.927 5.504V7.576H45.839L45.679 8.616H42.927V13.624C42.927 14.0933 43.0497 14.4507 43.295 14.696C43.5457 14.9413 43.959 15.064 44.535 15.064C44.8497 15.064 45.1403 15.0267 45.407 14.952C45.6737 14.8773 45.9217 14.7813 46.151 14.664L46.671 15.576ZM53.8408 7.576V14.936H56.2168V16H49.8968V14.936H52.4968V8.64H49.9768V7.576H53.8408ZM52.7688 3.632C53.0674 3.632 53.3048 3.72267 53.4808 3.904C53.6621 4.08533 53.7528 4.30667 53.7528 4.568C53.7528 4.84 53.6621 5.06933 53.4808 5.256C53.3048 5.43733 53.0674 5.528 52.7688 5.528C52.4861 5.528 52.2541 5.43733 52.0728 5.256C51.8914 5.06933 51.8008 4.84 51.8008 4.568C51.8008 4.30667 51.8914 4.08533 52.0728 3.904C52.2541 3.72267 52.4861 3.632 52.7688 3.632ZM62.3785 7.4C63.1732 7.4 63.8372 7.58133 64.3705 7.944C64.9092 8.30133 65.3118 8.808 65.5785 9.464C65.8505 10.12 65.9865 10.8933 65.9865 11.784C65.9865 12.6427 65.8478 13.4027 65.5705 14.064C65.2932 14.7253 64.8852 15.2453 64.3465 15.624C63.8132 15.9973 63.1518 16.184 62.3625 16.184C61.5732 16.184 60.9092 16.0027 60.3705 15.64C59.8318 15.2773 59.4238 14.768 59.1465 14.112C58.8745 13.4507 58.7385 12.68 58.7385 11.8C58.7385 10.9307 58.8772 10.1653 59.1545 9.504C59.4318 8.84267 59.8398 8.328 60.3785 7.96C60.9225 7.58667 61.5892 7.4 62.3785 7.4ZM62.3785 8.496C61.6532 8.496 61.1038 8.76533 60.7305 9.304C60.3625 9.83733 60.1785 10.6693 60.1785 11.8C60.1785 12.9093 60.3598 13.7333 60.7225 14.272C61.0905 14.8107 61.6372 15.08 62.3625 15.08C63.0878 15.08 63.6318 14.8107 63.9945 14.272C64.3625 13.7333 64.5465 12.904 64.5465 11.784C64.5465 10.664 64.3652 9.83733 64.0025 9.304C63.6398 8.76533 63.0985 8.496 62.3785 8.496ZM68.7643 16V7.576H69.9083L70.0123 8.744C70.3536 8.312 70.7803 7.98133 71.2923 7.752C71.8096 7.51733 72.3109 7.4 72.7963 7.4C73.6229 7.4 74.2229 7.61867 74.5963 8.056C74.9749 8.49333 75.1643 9.10133 75.1643 9.88V16H73.8203V10.872C73.8203 10.296 73.7883 9.832 73.7243 9.48C73.6603 9.12267 73.5269 8.864 73.3243 8.704C73.1216 8.53867 72.8069 8.456 72.3803 8.456C72.0496 8.456 71.7376 8.528 71.4443 8.672C71.1563 8.816 70.8976 8.99733 70.6683 9.216C70.4443 9.42933 70.2576 9.64533 70.1083 9.864V16H68.7643ZM78.342 12.216V11.048H84.758V12.216H78.342ZM94.6398 15.576C94.3518 15.768 94.0024 15.9173 93.5918 16.024C93.1811 16.1307 92.7784 16.184 92.3838 16.184C91.4771 16.184 90.7784 15.9467 90.2878 15.472C89.7971 14.9973 89.5518 14.3867 89.5518 13.64V8.616H87.6158V7.576H89.5518V5.664L90.8958 5.504V7.576H93.8078L93.6478 8.616H90.8958V13.624C90.8958 14.0933 91.0184 14.4507 91.2638 14.696C91.5144 14.9413 91.9278 15.064 92.5038 15.064C92.8184 15.064 93.1091 15.0267 93.3758 14.952C93.6424 14.8773 93.8904 14.7813 94.1198 14.664L94.6398 15.576ZM104.554 7.576L101.594 16.056C101.396 16.6267 101.146 17.1493 100.842 17.624C100.543 18.0987 100.151 18.4907 99.6655 18.8C99.1855 19.1147 98.5748 19.3093 97.8335 19.384L97.6255 18.312C98.2068 18.216 98.6655 18.0693 99.0015 17.872C99.3375 17.6747 99.6015 17.4213 99.7935 17.112C99.9908 16.8027 100.164 16.432 100.314 16H99.8655L96.9215 7.576H98.3615L100.778 14.976L103.162 7.576H104.554ZM110.907 7.4C111.654 7.4 112.249 7.58133 112.691 7.944C113.139 8.30667 113.462 8.81867 113.659 9.48C113.857 10.136 113.955 10.904 113.955 11.784C113.955 12.632 113.835 13.3893 113.595 14.056C113.361 14.7173 113.003 15.2373 112.523 15.616C112.043 15.9947 111.438 16.184 110.707 16.184C109.785 16.184 109.043 15.8587 108.483 15.208V19.224L107.139 19.392V7.576H108.283L108.395 8.752C108.705 8.32 109.073 7.98667 109.499 7.752C109.931 7.51733 110.401 7.4 110.907 7.4ZM110.587 8.48C110.123 8.48 109.713 8.62133 109.355 8.904C109.003 9.18133 108.713 9.49067 108.483 9.832V14.008C108.702 14.3333 108.977 14.592 109.307 14.784C109.643 14.9707 110.011 15.064 110.411 15.064C111.11 15.064 111.635 14.7973 111.987 14.264C112.339 13.7307 112.515 12.9013 112.515 11.776C112.515 11.04 112.446 10.4293 112.307 9.944C112.169 9.45333 111.958 9.088 111.675 8.848C111.393 8.60267 111.03 8.48 110.587 8.48ZM117.789 12.264C117.816 12.9147 117.941 13.448 118.165 13.864C118.389 14.2747 118.685 14.5787 119.053 14.776C119.421 14.968 119.821 15.064 120.253 15.064C120.685 15.064 121.074 15 121.421 14.872C121.773 14.744 122.133 14.5547 122.501 14.304L123.133 15.192C122.738 15.5013 122.288 15.744 121.781 15.92C121.28 16.096 120.765 16.184 120.237 16.184C119.421 16.184 118.725 16 118.149 15.632C117.573 15.264 117.133 14.752 116.829 14.096C116.53 13.4347 116.381 12.6693 116.381 11.8C116.381 10.9467 116.533 10.1893 116.837 9.528C117.141 8.86667 117.568 8.34667 118.117 7.968C118.666 7.58933 119.314 7.4 120.061 7.4C120.77 7.4 121.381 7.568 121.893 7.904C122.405 8.23467 122.797 8.70933 123.069 9.328C123.346 9.94133 123.485 10.6747 123.485 11.528C123.485 11.672 123.482 11.808 123.477 11.936C123.472 12.0587 123.464 12.168 123.453 12.264H117.789ZM120.077 8.504C119.453 8.504 118.93 8.72533 118.509 9.168C118.093 9.61067 117.856 10.296 117.797 11.224H122.189C122.173 10.3227 121.976 9.64533 121.597 9.192C121.218 8.73333 120.712 8.504 120.077 8.504ZM128.215 14.88C128.215 14.5333 128.337 14.232 128.583 13.976C128.833 13.72 129.14 13.592 129.503 13.592C129.876 13.592 130.185 13.72 130.431 13.976C130.681 14.232 130.807 14.5333 130.807 14.88C130.807 15.2427 130.681 15.552 130.431 15.808C130.185 16.0587 129.876 16.184 129.503 16.184C129.14 16.184 128.833 16.0587 128.583 15.808C128.337 15.552 128.215 15.2427 128.215 14.88ZM128.215 9.112C128.215 8.86667 128.271 8.648 128.383 8.456C128.495 8.264 128.649 8.112 128.847 8C129.044 7.88267 129.263 7.824 129.503 7.824C129.876 7.824 130.185 7.94933 130.431 8.2C130.681 8.45067 130.807 8.75467 130.807 9.112C130.807 9.464 130.681 9.77067 130.431 10.032C130.185 10.288 129.876 10.416 129.503 10.416C129.14 10.416 128.833 10.288 128.583 10.032C128.337 9.77067 128.215 9.464 128.215 9.112ZM145.594 16V14.968H146.906V8.608H145.594V7.576H147.93L148.178 9.568C148.504 8.87467 148.898 8.33867 149.362 7.96C149.826 7.58133 150.44 7.392 151.202 7.392C151.437 7.392 151.645 7.41067 151.826 7.448C152.013 7.48 152.202 7.52267 152.394 7.576L152.002 8.776C151.826 8.728 151.666 8.69333 151.522 8.672C151.378 8.64533 151.213 8.632 151.026 8.632C150.381 8.632 149.826 8.86133 149.362 9.32C148.898 9.77867 148.528 10.472 148.25 11.4V14.968H149.962V16H145.594ZM151.098 10.424V8.592L151.234 7.576H152.394L152.202 10.424H151.098ZM156.164 12.264C156.191 12.9147 156.316 13.448 156.54 13.864C156.764 14.2747 157.06 14.5787 157.428 14.776C157.796 14.968 158.196 15.064 158.628 15.064C159.06 15.064 159.449 15 159.796 14.872C160.148 14.744 160.508 14.5547 160.876 14.304L161.508 15.192C161.113 15.5013 160.663 15.744 160.156 15.92C159.655 16.096 159.14 16.184 158.612 16.184C157.796 16.184 157.1 16 156.524 15.632C155.948 15.264 155.508 14.752 155.204 14.096C154.905 13.4347 154.756 12.6693 154.756 11.8C154.756 10.9467 154.908 10.1893 155.212 9.528C155.516 8.86667 155.943 8.34667 156.492 7.968C157.041 7.58933 157.689 7.4 158.436 7.4C159.145 7.4 159.756 7.568 160.268 7.904C160.78 8.23467 161.172 8.70933 161.444 9.328C161.721 9.94133 161.86 10.6747 161.86 11.528C161.86 11.672 161.857 11.808 161.852 11.936C161.847 12.0587 161.839 12.168 161.828 12.264H156.164ZM158.452 8.504C157.828 8.504 157.305 8.72533 156.884 9.168C156.468 9.61067 156.231 10.296 156.172 11.224H160.564C160.548 10.3227 160.351 9.64533 159.972 9.192C159.593 8.73333 159.087 8.504 158.452 8.504ZM167.982 4.184V13.92C167.982 14.336 168.11 14.632 168.366 14.808C168.627 14.9787 168.963 15.064 169.374 15.064C169.63 15.064 169.872 15.0373 170.102 14.984C170.331 14.9307 170.56 14.8587 170.79 14.768L171.15 15.752C170.92 15.864 170.635 15.9627 170.294 16.048C169.958 16.1387 169.576 16.184 169.15 16.184C168.403 16.184 167.798 15.9787 167.334 15.568C166.87 15.152 166.638 14.5787 166.638 13.848V5.248H164.054V4.184H167.982ZM180.328 14.16C180.328 14.496 180.384 14.7413 180.496 14.896C180.608 15.0507 180.781 15.1653 181.016 15.24L180.688 16.184C180.325 16.136 180.008 16.0213 179.736 15.84C179.464 15.6533 179.266 15.3733 179.144 15C178.84 15.3893 178.461 15.6853 178.008 15.888C177.554 16.0853 177.053 16.184 176.504 16.184C175.661 16.184 174.997 15.9467 174.512 15.472C174.026 14.9973 173.784 14.368 173.784 13.584C173.784 12.7147 174.122 12.048 174.799 11.584C175.477 11.12 176.456 10.888 177.736 10.888H178.976V10.184C178.976 9.576 178.797 9.14667 178.44 8.896C178.088 8.64 177.597 8.512 176.968 8.512C176.69 8.512 176.365 8.54667 175.992 8.616C175.618 8.68 175.213 8.78933 174.776 8.944L174.424 7.928C174.941 7.736 175.426 7.6 175.88 7.52C176.333 7.44 176.765 7.4 177.176 7.4C178.226 7.4 179.013 7.64533 179.536 8.136C180.064 8.62133 180.328 9.28267 180.328 10.12V14.16ZM176.848 15.16C177.264 15.16 177.661 15.056 178.04 14.848C178.418 14.6347 178.73 14.3413 178.976 13.968V11.8H177.76C176.832 11.8 176.176 11.96 175.792 12.28C175.413 12.6 175.224 13.0293 175.224 13.568C175.224 14.0907 175.357 14.488 175.624 14.76C175.896 15.0267 176.304 15.16 176.848 15.16ZM190.577 15.576C190.289 15.768 189.94 15.9173 189.529 16.024C189.119 16.1307 188.716 16.184 188.321 16.184C187.415 16.184 186.716 15.9467 186.225 15.472C185.735 14.9973 185.489 14.3867 185.489 13.64V8.616H183.553V7.576H185.489V5.664L186.833 5.504V7.576H189.745L189.585 8.616H186.833V13.624C186.833 14.0933 186.956 14.4507 187.201 14.696C187.452 14.9413 187.865 15.064 188.441 15.064C188.756 15.064 189.047 15.0267 189.313 14.952C189.58 14.8773 189.828 14.7813 190.057 14.664L190.577 15.576ZM197.747 7.576V14.936H200.123V16H193.803V14.936H196.403V8.64H193.883V7.576H197.747ZM196.675 3.632C196.974 3.632 197.211 3.72267 197.387 3.904C197.568 4.08533 197.659 4.30667 197.659 4.568C197.659 4.84 197.568 5.06933 197.387 5.256C197.211 5.43733 196.974 5.528 196.675 5.528C196.392 5.528 196.16 5.43733 195.979 5.256C195.798 5.06933 195.707 4.84 195.707 4.568C195.707 4.30667 195.798 4.08533 195.979 3.904C196.16 3.72267 196.392 3.632 196.675 3.632ZM210.101 7.576L207.037 16H205.477L202.437 7.576H203.861L206.301 14.776L208.709 7.576H210.101ZM213.727 12.264C213.753 12.9147 213.879 13.448 214.103 13.864C214.327 14.2747 214.623 14.5787 214.991 14.776C215.359 14.968 215.759 15.064 216.191 15.064C216.623 15.064 217.012 15 217.359 14.872C217.711 14.744 218.071 14.5547 218.439 14.304L219.071 15.192C218.676 15.5013 218.225 15.744 217.719 15.92C217.217 16.096 216.703 16.184 216.175 16.184C215.359 16.184 214.663 16 214.087 15.632C213.511 15.264 213.071 14.752 212.767 14.096C212.468 13.4347 212.319 12.6693 212.319 11.8C212.319 10.9467 212.471 10.1893 212.775 9.528C213.079 8.86667 213.505 8.34667 214.055 7.968C214.604 7.58933 215.252 7.4 215.999 7.4C216.708 7.4 217.319 7.568 217.831 7.904C218.343 8.23467 218.735 8.70933 219.007 9.328C219.284 9.94133 219.423 10.6747 219.423 11.528C219.423 11.672 219.42 11.808 219.415 11.936C219.409 12.0587 219.401 12.168 219.391 12.264H213.727ZM216.015 8.504C215.391 8.504 214.868 8.72533 214.447 9.168C214.031 9.61067 213.793 10.296 213.735 11.224H218.127C218.111 10.3227 217.913 9.64533 217.535 9.192C217.156 8.73333 216.649 8.504 216.015 8.504Z" fill="#FF9500"/>
<rect x="271" y="26" width="200" height="300" rx="12" fill="#5A8EE5"/>
<rect x="336" y="101" width="70" height="70" rx="12" fill="#FF9500"/>
<rect x="336" y="181" width="70" height="70" rx="12" fill="#FF9500"/>
<rect x="271" y="26" width="70" height="70" rx="12" fill="#CC3333"/>
<path d="M276.376 7.4C277.123 7.4 277.717 7.58133 278.16 7.944C278.608 8.30667 278.931 8.81867 279.128 9.48C279.325 10.136 279.424 10.904 279.424 11.784C279.424 12.632 279.304 13.3893 279.064 14.056C278.829 14.7173 278.472 15.2373 277.992 15.616C277.512 15.9947 276.907 16.184 276.176 16.184C275.253 16.184 274.512 15.8587 273.952 15.208V19.224L272.608 19.392V7.576H273.752L273.864 8.752C274.173 8.32 274.541 7.98667 274.968 7.752C275.4 7.51733 275.869 7.4 276.376 7.4ZM276.056 8.48C275.592 8.48 275.181 8.62133 274.824 8.904C274.472 9.18133 274.181 9.49067 273.952 9.832V14.008C274.171 14.3333 274.445 14.592 274.776 14.784C275.112 14.9707 275.48 15.064 275.88 15.064C276.579 15.064 277.104 14.7973 277.456 14.264C277.808 13.7307 277.984 12.9013 277.984 11.776C277.984 11.04 277.915 10.4293 277.776 9.944C277.637 9.45333 277.427 9.088 277.144 8.848C276.861 8.60267 276.499 8.48 276.056 8.48ZM285.41 7.4C286.204 7.4 286.868 7.58133 287.402 7.944C287.94 8.30133 288.343 8.808 288.61 9.464C288.882 10.12 289.018 10.8933 289.018 11.784C289.018 12.6427 288.879 13.4027 288.602 14.064C288.324 14.7253 287.916 15.2453 287.378 15.624C286.844 15.9973 286.183 16.184 285.394 16.184C284.604 16.184 283.94 16.0027 283.402 15.64C282.863 15.2773 282.455 14.768 282.178 14.112C281.906 13.4507 281.77 12.68 281.77 11.8C281.77 10.9307 281.908 10.1653 282.186 9.504C282.463 8.84267 282.871 8.328 283.41 7.96C283.954 7.58667 284.62 7.4 285.41 7.4ZM285.41 8.496C284.684 8.496 284.135 8.76533 283.762 9.304C283.394 9.83733 283.21 10.6693 283.21 11.8C283.21 12.9093 283.391 13.7333 283.754 14.272C284.122 14.8107 284.668 15.08 285.394 15.08C286.119 15.08 286.663 14.8107 287.026 14.272C287.394 13.7333 287.578 12.904 287.578 11.784C287.578 10.664 287.396 9.83733 287.034 9.304C286.671 8.76533 286.13 8.496 285.41 8.496ZM294.66 15.072C295.305 15.072 295.814 14.952 296.188 14.712C296.566 14.4667 296.756 14.1413 296.756 13.736C296.756 13.48 296.708 13.2587 296.612 13.072C296.521 12.8853 296.332 12.7173 296.044 12.568C295.756 12.4187 295.313 12.2693 294.716 12.12C294.134 11.976 293.628 11.8107 293.196 11.624C292.769 11.432 292.436 11.184 292.196 10.88C291.961 10.576 291.844 10.1813 291.844 9.696C291.844 9.22133 291.977 8.81333 292.243 8.472C292.516 8.12533 292.892 7.86133 293.372 7.68C293.852 7.49333 294.409 7.4 295.044 7.4C295.721 7.4 296.31 7.49067 296.812 7.672C297.318 7.848 297.748 8.06667 298.1 8.328L297.508 9.24C297.188 9.02133 296.836 8.84267 296.452 8.704C296.068 8.56 295.604 8.488 295.06 8.488C294.398 8.488 293.929 8.592 293.652 8.8C293.374 9.00267 293.236 9.26667 293.236 9.592C293.236 9.83733 293.302 10.0427 293.436 10.208C293.574 10.368 293.806 10.5147 294.132 10.648C294.457 10.776 294.905 10.9173 295.476 11.072C296.025 11.216 296.502 11.3893 296.908 11.592C297.318 11.7947 297.638 12.0613 297.868 12.392C298.097 12.7227 298.212 13.1493 298.212 13.672C298.212 14.2693 298.041 14.7547 297.7 15.128C297.358 15.496 296.916 15.7653 296.372 15.936C295.833 16.1013 295.262 16.184 294.66 16.184C293.897 16.184 293.246 16.0747 292.708 15.856C292.174 15.632 291.726 15.3627 291.363 15.048L292.132 14.16C292.462 14.432 292.841 14.6533 293.268 14.824C293.7 14.9893 294.164 15.072 294.66 15.072ZM305.653 7.576V14.936H308.029V16H301.709V14.936H304.309V8.64H301.789V7.576H305.653ZM304.581 3.632C304.88 3.632 305.117 3.72267 305.293 3.904C305.475 4.08533 305.565 4.30667 305.565 4.568C305.565 4.84 305.475 5.06933 305.293 5.256C305.117 5.43733 304.88 5.528 304.581 5.528C304.299 5.528 304.067 5.43733 303.885 5.256C303.704 5.06933 303.613 4.84 303.613 4.568C303.613 4.30667 303.704 4.08533 303.885 3.904C304.067 3.72267 304.299 3.632 304.581 3.632ZM317.671 15.576C317.383 15.768 317.034 15.9173 316.623 16.024C316.212 16.1307 315.81 16.184 315.415 16.184C314.508 16.184 313.81 15.9467 313.319 15.472C312.828 14.9973 312.583 14.3867 312.583 13.64V8.616H310.647V7.576H312.583V5.664L313.927 5.504V7.576H316.839L316.679 8.616H313.927V13.624C313.927 14.0933 314.05 14.4507 314.295 14.696C314.546 14.9413 314.959 15.064 315.535 15.064C315.85 15.064 316.14 15.0267 316.407 14.952C316.674 14.8773 316.922 14.7813 317.151 14.664L317.671 15.576ZM324.841 7.576V14.936H327.217V16H320.897V14.936H323.497V8.64H320.977V7.576H324.841ZM323.769 3.632C324.067 3.632 324.305 3.72267 324.481 3.904C324.662 4.08533 324.753 4.30667 324.753 4.568C324.753 4.84 324.662 5.06933 324.481 5.256C324.305 5.43733 324.067 5.528 323.769 5.528C323.486 5.528 323.254 5.43733 323.073 5.256C322.891 5.06933 322.801 4.84 322.801 4.568C322.801 4.30667 322.891 4.08533 323.073 3.904C323.254 3.72267 323.486 3.632 323.769 3.632ZM333.379 7.4C334.173 7.4 334.837 7.58133 335.371 7.944C335.909 8.30133 336.312 8.808 336.579 9.464C336.851 10.12 336.987 10.8933 336.987 11.784C336.987 12.6427 336.848 13.4027 336.571 14.064C336.293 14.7253 335.885 15.2453 335.347 15.624C334.813 15.9973 334.152 16.184 333.363 16.184C332.573 16.184 331.909 16.0027 331.371 15.64C330.832 15.2773 330.424 14.768 330.147 14.112C329.875 13.4507 329.738 12.68 329.738 11.8C329.738 10.9307 329.877 10.1653 330.155 9.504C330.432 8.84267 330.84 8.328 331.379 7.96C331.923 7.58667 332.589 7.4 333.379 7.4ZM333.379 8.496C332.653 8.496 332.104 8.76533 331.731 9.304C331.363 9.83733 331.179 10.6693 331.179 11.8C331.179 12.9093 331.36 13.7333 331.723 14.272C332.091 14.8107 332.637 15.08 333.363 15.08C334.088 15.08 334.632 14.8107 334.995 14.272C335.363 13.7333 335.547 12.904 335.547 11.784C335.547 10.664 335.365 9.83733 335.003 9.304C334.64 8.76533 334.099 8.496 333.379 8.496ZM339.764 16V7.576H340.908L341.012 8.744C341.354 8.312 341.78 7.98133 342.292 7.752C342.81 7.51733 343.311 7.4 343.796 7.4C344.623 7.4 345.223 7.61867 345.596 8.056C345.975 8.49333 346.164 9.10133 346.164 9.88V16H344.82V10.872C344.82 10.296 344.788 9.832 344.724 9.48C344.66 9.12267 344.527 8.864 344.324 8.704C344.122 8.53867 343.807 8.456 343.38 8.456C343.05 8.456 342.738 8.528 342.444 8.672C342.156 8.816 341.898 8.99733 341.668 9.216C341.444 9.42933 341.258 9.64533 341.108 9.864V16H339.764ZM349.342 12.216V11.048H355.758V12.216H349.342ZM365.64 15.576C365.352 15.768 365.002 15.9173 364.592 16.024C364.181 16.1307 363.778 16.184 363.384 16.184C362.477 16.184 361.778 15.9467 361.288 15.472C360.797 14.9973 360.552 14.3867 360.552 13.64V8.616H358.616V7.576H360.552V5.664L361.896 5.504V7.576H364.808L364.648 8.616H361.896V13.624C361.896 14.0933 362.018 14.4507 362.264 14.696C362.514 14.9413 362.928 15.064 363.504 15.064C363.818 15.064 364.109 15.0267 364.376 14.952C364.642 14.8773 364.89 14.7813 365.12 14.664L365.64 15.576ZM375.554 7.576L372.594 16.056C372.396 16.6267 372.146 17.1493 371.842 17.624C371.543 18.0987 371.151 18.4907 370.666 18.8C370.186 19.1147 369.575 19.3093 368.834 19.384L368.626 18.312C369.207 18.216 369.666 18.0693 370.002 17.872C370.338 17.6747 370.602 17.4213 370.794 17.112C370.991 16.8027 371.164 16.432 371.314 16H370.866L367.922 7.576H369.362L371.778 14.976L374.162 7.576H375.554ZM381.907 7.4C382.654 7.4 383.249 7.58133 383.691 7.944C384.139 8.30667 384.462 8.81867 384.659 9.48C384.857 10.136 384.955 10.904 384.955 11.784C384.955 12.632 384.835 13.3893 384.595 14.056C384.361 14.7173 384.003 15.2373 383.523 15.616C383.043 15.9947 382.438 16.184 381.707 16.184C380.785 16.184 380.043 15.8587 379.483 15.208V19.224L378.139 19.392V7.576H379.283L379.395 8.752C379.705 8.32 380.073 7.98667 380.499 7.752C380.931 7.51733 381.401 7.4 381.907 7.4ZM381.587 8.48C381.123 8.48 380.713 8.62133 380.355 8.904C380.003 9.18133 379.713 9.49067 379.483 9.832V14.008C379.702 14.3333 379.977 14.592 380.307 14.784C380.643 14.9707 381.011 15.064 381.411 15.064C382.11 15.064 382.635 14.7973 382.987 14.264C383.339 13.7307 383.515 12.9013 383.515 11.776C383.515 11.04 383.446 10.4293 383.307 9.944C383.169 9.45333 382.958 9.088 382.675 8.848C382.393 8.60267 382.03 8.48 381.587 8.48ZM388.789 12.264C388.816 12.9147 388.941 13.448 389.165 13.864C389.389 14.2747 389.685 14.5787 390.053 14.776C390.421 14.968 390.821 15.064 391.253 15.064C391.685 15.064 392.074 15 392.421 14.872C392.773 14.744 393.133 14.5547 393.501 14.304L394.133 15.192C393.738 15.5013 393.288 15.744 392.781 15.92C392.28 16.096 391.765 16.184 391.237 16.184C390.421 16.184 389.725 16 389.149 15.632C388.573 15.264 388.133 14.752 387.829 14.096C387.53 13.4347 387.381 12.6693 387.381 11.8C387.381 10.9467 387.533 10.1893 387.837 9.528C388.141 8.86667 388.568 8.34667 389.117 7.968C389.666 7.58933 390.314 7.4 391.061 7.4C391.77 7.4 392.381 7.568 392.893 7.904C393.405 8.23467 393.797 8.70933 394.069 9.328C394.346 9.94133 394.485 10.6747 394.485 11.528C394.485 11.672 394.482 11.808 394.477 11.936C394.472 12.0587 394.464 12.168 394.453 12.264H388.789ZM391.077 8.504C390.453 8.504 389.93 8.72533 389.509 9.168C389.093 9.61067 388.856 10.296 388.797 11.224H393.189C393.173 10.3227 392.976 9.64533 392.597 9.192C392.218 8.73333 391.712 8.504 391.077 8.504ZM399.215 14.88C399.215 14.5333 399.337 14.232 399.583 13.976C399.833 13.72 400.14 13.592 400.503 13.592C400.876 13.592 401.185 13.72 401.431 13.976C401.681 14.232 401.807 14.5333 401.807 14.88C401.807 15.2427 401.681 15.552 401.431 15.808C401.185 16.0587 400.876 16.184 400.503 16.184C400.14 16.184 399.833 16.0587 399.583 15.808C399.337 15.552 399.215 15.2427 399.215 14.88ZM399.215 9.112C399.215 8.86667 399.271 8.648 399.383 8.456C399.495 8.264 399.649 8.112 399.847 8C400.044 7.88267 400.263 7.824 400.503 7.824C400.876 7.824 401.185 7.94933 401.431 8.2C401.681 8.45067 401.807 8.75467 401.807 9.112C401.807 9.464 401.681 9.77067 401.431 10.032C401.185 10.288 400.876 10.416 400.503 10.416C400.14 10.416 399.833 10.288 399.583 10.032C399.337 9.77067 399.215 9.464 399.215 9.112ZM422.546 14.16C422.546 14.496 422.602 14.7413 422.714 14.896C422.826 15.0507 423 15.1653 423.234 15.24L422.906 16.184C422.544 16.136 422.226 16.0213 421.954 15.84C421.682 15.6533 421.485 15.3733 421.362 15C421.058 15.3893 420.68 15.6853 420.226 15.888C419.773 16.0853 419.272 16.184 418.722 16.184C417.88 16.184 417.216 15.9467 416.73 15.472C416.245 14.9973 416.002 14.368 416.002 13.584C416.002 12.7147 416.341 12.048 417.018 11.584C417.696 11.12 418.674 10.888 419.954 10.888H421.194V10.184C421.194 9.576 421.016 9.14667 420.658 8.896C420.306 8.64 419.816 8.512 419.186 8.512C418.909 8.512 418.584 8.54667 418.21 8.616C417.837 8.68 417.432 8.78933 416.994 8.944L416.642 7.928C417.16 7.736 417.645 7.6 418.098 7.52C418.552 7.44 418.984 7.4 419.394 7.4C420.445 7.4 421.232 7.64533 421.754 8.136C422.282 8.62133 422.546 9.28267 422.546 10.12V14.16ZM419.066 15.16C419.482 15.16 419.88 15.056 420.258 14.848C420.637 14.6347 420.949 14.3413 421.194 13.968V11.8H419.978C419.05 11.8 418.394 11.96 418.01 12.28C417.632 12.6 417.442 13.0293 417.442 13.568C417.442 14.0907 417.576 14.488 417.842 14.76C418.114 15.0267 418.522 15.16 419.066 15.16ZM427.452 8.672C427.761 8.26667 428.116 7.95467 428.516 7.736C428.921 7.512 429.367 7.4 429.852 7.4C430.604 7.4 431.212 7.58133 431.676 7.944C432.14 8.30667 432.479 8.81867 432.692 9.48C432.905 10.136 433.012 10.904 433.012 11.784C433.012 12.632 432.884 13.3893 432.628 14.056C432.372 14.7173 431.996 15.2373 431.5 15.616C431.009 15.9947 430.401 16.184 429.676 16.184C428.7 16.184 427.935 15.832 427.38 15.128L427.284 16H426.108V4.184L427.452 4.016V8.672ZM429.356 15.096C430.06 15.096 430.601 14.824 430.98 14.28C431.359 13.736 431.548 12.9013 431.548 11.776C431.548 11.04 431.473 10.4293 431.324 9.944C431.175 9.45333 430.951 9.088 430.652 8.848C430.359 8.60267 429.996 8.48 429.564 8.48C429.095 8.48 428.681 8.62133 428.324 8.904C427.972 9.18133 427.681 9.49067 427.452 9.832V14.008C427.671 14.3387 427.945 14.6027 428.276 14.8C428.612 14.9973 428.972 15.096 429.356 15.096ZM438.566 15.072C439.211 15.072 439.72 14.952 440.094 14.712C440.472 14.4667 440.662 14.1413 440.662 13.736C440.662 13.48 440.614 13.2587 440.518 13.072C440.427 12.8853 440.238 12.7173 439.95 12.568C439.662 12.4187 439.219 12.2693 438.622 12.12C438.04 11.976 437.534 11.8107 437.102 11.624C436.675 11.432 436.342 11.184 436.102 10.88C435.867 10.576 435.75 10.1813 435.75 9.696C435.75 9.22133 435.883 8.81333 436.15 8.472C436.422 8.12533 436.798 7.86133 437.278 7.68C437.758 7.49333 438.315 7.4 438.95 7.4C439.627 7.4 440.216 7.49067 440.718 7.672C441.224 7.848 441.654 8.06667 442.006 8.328L441.414 9.24C441.094 9.02133 440.742 8.84267 440.358 8.704C439.974 8.56 439.51 8.488 438.966 8.488C438.304 8.488 437.835 8.592 437.558 8.8C437.28 9.00267 437.142 9.26667 437.142 9.592C437.142 9.83733 437.208 10.0427 437.342 10.208C437.48 10.368 437.712 10.5147 438.038 10.648C438.363 10.776 438.811 10.9173 439.382 11.072C439.931 11.216 440.408 11.3893 440.814 11.592C441.224 11.7947 441.544 12.0613 441.774 12.392C442.003 12.7227 442.118 13.1493 442.118 13.672C442.118 14.2693 441.947 14.7547 441.606 15.128C441.264 15.496 440.822 15.7653 440.278 15.936C439.739 16.1013 439.168 16.184 438.566 16.184C437.803 16.184 437.152 16.0747 436.614 15.856C436.08 15.632 435.632 15.3627 435.27 15.048L436.038 14.16C436.368 14.432 436.747 14.6533 437.174 14.824C437.606 14.9893 438.07 15.072 438.566 15.072ZM448.504 7.4C449.298 7.4 449.962 7.58133 450.496 7.944C451.034 8.30133 451.437 8.808 451.704 9.464C451.976 10.12 452.112 10.8933 452.112 11.784C452.112 12.6427 451.973 13.4027 451.696 14.064C451.418 14.7253 451.01 15.2453 450.472 15.624C449.938 15.9973 449.277 16.184 448.488 16.184C447.698 16.184 447.034 16.0027 446.496 15.64C445.957 15.2773 445.549 14.768 445.272 14.112C445 13.4507 444.863 12.68 444.863 11.8C444.863 10.9307 445.002 10.1653 445.28 9.504C445.557 8.84267 445.965 8.328 446.504 7.96C447.048 7.58667 447.714 7.4 448.504 7.4ZM448.504 8.496C447.778 8.496 447.229 8.76533 446.856 9.304C446.488 9.83733 446.304 10.6693 446.304 11.8C446.304 12.9093 446.485 13.7333 446.848 14.272C447.216 14.8107 447.762 15.08 448.488 15.08C449.213 15.08 449.757 14.8107 450.12 14.272C450.488 13.7333 450.672 12.904 450.672 11.784C450.672 10.664 450.49 9.83733 450.128 9.304C449.765 8.76533 449.224 8.496 448.504 8.496ZM458.169 4.184V13.92C458.169 14.336 458.297 14.632 458.553 14.808C458.815 14.9787 459.151 15.064 459.561 15.064C459.817 15.064 460.06 15.0373 460.289 14.984C460.519 14.9307 460.748 14.8587 460.977 14.768L461.337 15.752C461.108 15.864 460.823 15.9627 460.481 16.048C460.145 16.1387 459.764 16.184 459.337 16.184C458.591 16.184 457.985 15.9787 457.521 15.568C457.057 15.152 456.825 14.5787 456.825 13.848V5.248H454.241V4.184H458.169ZM465.827 7.576V13.544C465.827 14.0987 465.942 14.4987 466.171 14.744C466.4 14.9893 466.758 15.112 467.243 15.112C467.707 15.112 468.144 14.9813 468.555 14.72C468.971 14.4533 469.294 14.1387 469.523 13.776V7.576H470.867V16H469.723L469.611 14.864C469.28 15.2907 468.872 15.6187 468.387 15.848C467.902 16.072 467.411 16.184 466.915 16.184C466.099 16.184 465.488 15.968 465.083 15.536C464.683 15.0987 464.483 14.488 464.483 13.704V7.576H465.827ZM480.765 15.576C480.477 15.768 480.127 15.9173 479.717 16.024C479.306 16.1307 478.903 16.184 478.509 16.184C477.602 16.184 476.903 15.9467 476.413 15.472C475.922 14.9973 475.677 14.3867 475.677 13.64V8.616H473.741V7.576H475.677V5.664L477.021 5.504V7.576H479.933L479.773 8.616H477.021V13.624C477.021 14.0933 477.143 14.4507 477.389 14.696C477.639 14.9413 478.053 15.064 478.629 15.064C478.943 15.064 479.234 15.0267 479.501 14.952C479.767 14.8773 480.015 14.7813 480.245 14.664L480.765 15.576ZM484.727 12.264C484.753 12.9147 484.879 13.448 485.103 13.864C485.327 14.2747 485.623 14.5787 485.991 14.776C486.359 14.968 486.759 15.064 487.191 15.064C487.623 15.064 488.012 15 488.359 14.872C488.711 14.744 489.071 14.5547 489.439 14.304L490.071 15.192C489.676 15.5013 489.225 15.744 488.719 15.92C488.217 16.096 487.703 16.184 487.175 16.184C486.359 16.184 485.663 16 485.087 15.632C484.511 15.264 484.071 14.752 483.767 14.096C483.468 13.4347 483.319 12.6693 483.319 11.8C483.319 10.9467 483.471 10.1893 483.775 9.528C484.079 8.86667 484.505 8.34667 485.055 7.968C485.604 7.58933 486.252 7.4 486.999 7.4C487.708 7.4 488.319 7.568 488.831 7.904C489.343 8.23467 489.735 8.70933 490.007 9.328C490.284 9.94133 490.423 10.6747 490.423 11.528C490.423 11.672 490.42 11.808 490.415 11.936C490.409 12.0587 490.401 12.168 490.391 12.264H484.727ZM487.015 8.504C486.391 8.504 485.868 8.72533 485.447 9.168C485.031 9.61067 484.793 10.296 484.735 11.224H489.127C489.111 10.3227 488.913 9.64533 488.535 9.192C488.156 8.73333 487.649 8.504 487.015 8.504Z" fill="#FF9500"/>
</svg>
