<svg width="300" height="226" viewBox="0 0 300 226" fill="none" xmlns="http://www.w3.org/2000/svg">
<path d="M7.848 16H5.944L4.856 9.816L3.672 16H1.816L0.28 7.576H1.656L2.728 15.168L4.072 8.648H5.664L6.936 15.168L8.008 7.576H9.32L7.848 16ZM15.4658 7.576V14.936H17.8418V16H11.5218V14.936H14.1218V8.64H11.6018V7.576H15.4658ZM14.3938 3.632C14.6924 3.632 14.9298 3.72267 15.1058 3.904C15.2871 4.08533 15.3778 4.30667 15.3778 4.568C15.3778 4.84 15.2871 5.06933 15.1058 5.256C14.9298 5.43733 14.6924 5.528 14.3938 5.528C14.1111 5.528 13.8791 5.43733 13.6978 5.256C13.5164 5.06933 13.4258 4.84 13.4258 4.568C13.4258 4.30667 13.5164 4.08533 13.6978 3.904C13.8791 3.72267 14.1111 3.632 14.3938 3.632ZM25.8355 4.016L27.1795 4.184V16H26.0035L25.8755 14.888C25.5608 15.336 25.1982 15.664 24.7875 15.872C24.3822 16.08 23.9475 16.184 23.4835 16.184C22.7528 16.184 22.1502 16 21.6755 15.632C21.2008 15.264 20.8488 14.752 20.6195 14.096C20.3902 13.4347 20.2755 12.6693 20.2755 11.8C20.2755 10.9573 20.4062 10.2053 20.6675 9.544C20.9288 8.87733 21.3048 8.35467 21.7955 7.976C22.2915 7.592 22.8862 7.4 23.5795 7.4C24.0648 7.4 24.4915 7.48533 24.8595 7.656C25.2275 7.82133 25.5528 8.06667 25.8355 8.392V4.016ZM23.9315 8.48C23.2275 8.48 22.6862 8.75467 22.3075 9.304C21.9288 9.85333 21.7395 10.6853 21.7395 11.8C21.7395 12.5253 21.8168 13.1333 21.9715 13.624C22.1262 14.1147 22.3528 14.4827 22.6515 14.728C22.9555 14.9733 23.3262 15.096 23.7635 15.096C24.2435 15.096 24.6515 14.96 24.9875 14.688C25.3288 14.416 25.6115 14.1093 25.8355 13.768V9.56C25.6062 9.21867 25.3288 8.95467 25.0035 8.768C24.6782 8.576 24.3208 8.48 23.9315 8.48ZM37.0773 15.576C36.7893 15.768 36.4399 15.9173 36.0293 16.024C35.6186 16.1307 35.2159 16.184 34.8213 16.184C33.9146 16.184 33.2159 15.9467 32.7253 15.472C32.2346 14.9973 31.9893 14.3867 31.9893 13.64V8.616H30.0533V7.576H31.9893V5.664L33.3333 5.504V7.576H36.2453L36.0853 8.616H33.3333V13.624C33.3333 14.0933 33.4559 14.4507 33.7013 14.696C33.9519 14.9413 34.3653 15.064 34.9413 15.064C35.2559 15.064 35.5466 15.0267 35.8133 14.952C36.0799 14.8773 36.3279 14.7813 36.5573 14.664L37.0773 15.576ZM41.327 4.056V8.728C41.6577 8.28533 42.063 7.95467 42.543 7.736C43.0283 7.512 43.519 7.4 44.015 7.4C44.8363 7.4 45.4363 7.61867 45.815 8.056C46.1937 8.49333 46.383 9.10133 46.383 9.88V16H45.039V9.912C45.039 9.40533 44.9217 9.03733 44.687 8.808C44.4523 8.57333 44.0843 8.456 43.583 8.456C43.263 8.456 42.959 8.528 42.671 8.672C42.383 8.816 42.1243 8.99467 41.895 9.208C41.6657 9.42133 41.4763 9.64 41.327 9.864V16H39.983V4.2L41.327 4.056ZM51.4648 14.88C51.4648 14.5333 51.5874 14.232 51.8328 13.976C52.0834 13.72 52.3901 13.592 52.7528 13.592C53.1261 13.592 53.4354 13.72 53.6808 13.976C53.9314 14.232 54.0568 14.5333 54.0568 14.88C54.0568 15.2427 53.9314 15.552 53.6808 15.808C53.4354 16.0587 53.1261 16.184 52.7528 16.184C52.3901 16.184 52.0834 16.0587 51.8328 15.808C51.5874 15.552 51.4648 15.2427 51.4648 14.88ZM51.4648 9.112C51.4648 8.86667 51.5208 8.648 51.6328 8.456C51.7448 8.264 51.8994 8.112 52.0968 8C52.2941 7.88267 52.5128 7.824 52.7528 7.824C53.1261 7.824 53.4354 7.94933 53.6808 8.2C53.9314 8.45067 54.0568 8.75467 54.0568 9.112C54.0568 9.464 53.9314 9.77067 53.6808 10.032C53.4354 10.288 53.1261 10.416 52.7528 10.416C52.3901 10.416 52.0834 10.288 51.8328 10.032C51.5874 9.77067 51.4648 9.464 51.4648 9.112ZM73.1323 4.984V15.68H71.7883V6.44L69.2603 7.976L68.6763 7.016L71.9563 4.984H73.1323ZM75.4363 14.904V16H69.0763V14.904H75.4363ZM81.222 15.072C81.8673 15.072 82.3767 14.952 82.75 14.712C83.1287 14.4667 83.318 14.1413 83.318 13.736C83.318 13.48 83.27 13.2587 83.174 13.072C83.0833 12.8853 82.894 12.7173 82.606 12.568C82.318 12.4187 81.8753 12.2693 81.278 12.12C80.6967 11.976 80.19 11.8107 79.758 11.624C79.3313 11.432 78.998 11.184 78.758 10.88C78.5233 10.576 78.406 10.1813 78.406 9.696C78.406 9.22133 78.5393 8.81333 78.806 8.472C79.078 8.12533 79.454 7.86133 79.934 7.68C80.414 7.49333 80.9713 7.4 81.606 7.4C82.2833 7.4 82.8727 7.49067 83.374 7.672C83.8807 7.848 84.31 8.06667 84.662 8.328L84.07 9.24C83.75 9.02133 83.398 8.84267 83.014 8.704C82.63 8.56 82.166 8.488 81.622 8.488C80.9607 8.488 80.4913 8.592 80.214 8.8C79.9367 9.00267 79.798 9.26667 79.798 9.592C79.798 9.83733 79.8647 10.0427 79.998 10.208C80.1367 10.368 80.3687 10.5147 80.694 10.648C81.0193 10.776 81.4673 10.9173 82.038 11.072C82.5873 11.216 83.0647 11.3893 83.47 11.592C83.8807 11.7947 84.2007 12.0613 84.43 12.392C84.6593 12.7227 84.774 13.1493 84.774 13.672C84.774 14.2693 84.6033 14.7547 84.262 15.128C83.9207 15.496 83.478 15.7653 82.934 15.936C82.3953 16.1013 81.8247 16.184 81.222 16.184C80.4593 16.184 79.8087 16.0747 79.27 15.856C78.7367 15.632 78.2887 15.3627 77.926 15.048L78.694 14.16C79.0247 14.432 79.4033 14.6533 79.83 14.824C80.262 14.9893 80.726 15.072 81.222 15.072Z" fill="#FF9500"/>
<rect y="26" width="300" height="200" rx="12" fill="#5A8EE5"/>
<rect x="10" y="91" width="120" height="70" rx="12" fill="#F2F47E"/>
<rect x="140" y="91" width="70" height="70" rx="12" fill="#FF9500"/>
<rect x="220" y="91" width="70" height="70" rx="12" fill="#FF9500"/>
</svg>
